<?xml version="1.0" encoding="UTF-8" ?>
<!DOCTYPE svg PUBLIC "-//W3C//DTD SVG 1.1//EN" "http://www.w3.org/Graphics/SVG/1.1/DTD/svg11.dtd">
<svg width="1184pt" height="556pt" viewBox="0 0 1184 556" version="1.1" xmlns="http://www.w3.org/2000/svg">
<g id="#035b66f9">
<path fill="#035b66" opacity="0.98" d=" M 800.65 0.00 L 806.97 0.00 C 805.30 2.90 803.99 6.13 801.44 8.40 C 791.33 17.02 778.80 21.93 767.82 29.22 C 770.72 30.99 773.66 33.04 777.12 33.49 C 786.09 33.73 795.00 31.90 803.99 32.40 C 809.57 32.23 815.37 33.09 820.86 31.65 C 826.60 28.87 831.58 24.71 836.97 21.28 C 836.36 27.33 836.32 34.19 831.78 38.79 C 821.82 49.63 805.47 47.84 792.66 52.69 C 791.01 53.11 791.48 55.02 791.30 56.29 C 791.23 64.64 791.24 73.01 791.83 81.35 C 791.91 85.58 792.55 90.22 790.00 93.93 C 787.35 95.74 784.69 98.02 781.42 98.45 C 775.64 98.82 770.20 94.61 764.46 95.56 C 758.16 99.72 753.60 106.09 748.81 111.81 C 731.16 135.80 722.63 165.98 723.86 195.65 C 734.12 197.18 744.33 199.01 754.40 201.57 C 765.77 204.39 777.51 205.14 789.06 206.95 C 792.01 207.45 797.57 207.90 797.52 212.18 C 797.94 216.84 792.90 218.87 789.04 218.93 C 768.66 219.53 748.31 222.95 727.91 221.29 C 718.61 221.14 711.03 215.29 703.70 210.34 C 691.08 201.30 676.49 195.72 663.22 187.80 C 650.55 180.99 638.42 173.27 626.02 166.02 C 616.23 161.09 604.93 160.86 594.42 158.48 C 539.63 147.58 485.06 134.04 433.31 112.68 C 427.56 110.43 421.96 107.36 415.79 106.48 C 410.04 104.87 403.78 109.29 403.02 115.01 C 403.06 120.38 403.42 125.83 404.86 131.03 C 411.06 152.63 420.22 173.47 433.02 191.99 C 439.95 202.31 448.31 211.56 455.50 221.68 C 451.18 221.10 445.79 222.32 443.08 217.94 C 422.78 195.67 408.11 168.87 396.96 141.02 C 394.37 132.97 391.10 124.69 392.10 116.05 C 391.37 104.84 401.90 94.69 413.02 95.53 C 417.93 96.36 422.78 97.67 427.40 99.53 C 453.35 109.98 479.82 119.31 507.04 125.88 C 532.04 132.14 557.23 137.65 582.55 142.49 C 595.31 145.03 608.37 145.56 621.16 147.92 C 630.96 150.13 640.32 154.03 649.12 158.83 C 668.51 169.58 688.15 180.01 708.69 188.42 C 709.20 174.08 709.83 159.57 713.67 145.67 C 719.72 123.37 727.84 100.89 743.18 83.16 C 747.30 77.96 752.60 73.63 755.93 67.84 C 753.63 60.51 747.67 54.78 743.28 48.62 C 739.47 43.85 732.62 46.18 727.49 46.37 C 710.56 48.54 693.54 50.25 676.82 53.74 C 645.43 60.31 615.58 72.44 586.39 85.44 C 576.42 89.43 565.84 93.09 554.94 92.32 C 532.40 90.32 510.04 86.39 488.08 80.92 C 460.09 74.11 432.00 67.63 403.70 62.19 C 393.36 59.98 381.46 61.15 373.24 68.25 C 363.69 76.24 363.93 90.18 366.72 101.29 C 371.91 121.76 382.28 140.41 391.85 159.07 C 403.50 182.14 419.44 202.62 436.24 222.12 C 431.50 222.58 425.75 225.12 421.82 221.23 C 414.15 213.47 407.70 204.63 400.91 196.12 C 385.89 175.90 371.47 155.01 361.00 132.00 C 353.28 115.14 344.74 97.27 347.24 78.16 C 348.43 65.33 357.47 54.24 368.93 48.90 C 379.05 43.44 391.02 45.26 402.02 45.85 C 441.14 51.15 479.09 62.54 517.43 71.59 C 531.51 74.84 546.30 74.83 560.53 72.52 C 578.97 69.40 594.40 58.09 611.68 51.68 C 641.08 40.40 672.19 34.37 703.32 30.33 C 714.14 28.87 725.13 28.73 735.89 26.84 C 747.94 26.62 752.13 13.61 762.12 9.26 C 774.21 3.77 787.85 3.11 800.65 0.00 Z" />
<path fill="#035b66" opacity="0.98" d=" M 267.68 324.67 C 277.25 315.27 292.05 314.64 304.09 318.98 C 303.53 323.47 302.87 327.95 302.04 332.40 C 294.83 331.63 286.29 329.03 280.22 334.24 C 273.24 341.29 274.33 351.84 273.84 360.94 C 281.21 360.97 288.60 361.02 295.98 361.04 C 296.01 365.66 296.09 370.31 295.96 374.95 C 288.64 374.97 281.33 375.02 274.02 375.05 C 273.92 401.02 274.08 427.00 273.98 452.98 C 267.99 453.05 262.00 453.05 256.02 452.98 C 255.92 427.02 256.08 401.07 255.97 375.12 C 251.98 375.03 248.00 374.96 244.02 374.90 C 243.97 370.29 243.91 365.72 244.05 361.12 C 247.94 361.03 251.84 360.94 255.74 360.86 C 256.63 348.21 257.58 333.77 267.68 324.67 Z" />
<path fill="#035b66" opacity="0.98" d=" M 425.02 318.02 C 430.99 317.93 436.99 317.94 442.99 318.02 C 443.42 363.00 442.19 408.02 443.58 452.98 C 438.47 453.02 433.37 453.01 428.27 452.96 C 427.96 448.30 427.48 443.66 427.00 439.03 C 421.41 446.34 413.99 453.11 404.56 454.52 C 389.63 458.00 372.87 451.23 364.89 438.08 C 356.44 425.55 355.53 409.45 358.01 394.97 C 360.49 379.84 371.43 366.01 386.08 361.10 C 393.33 359.42 401.10 358.14 408.37 360.54 C 415.01 361.95 419.88 366.93 425.02 371.02 C 424.96 353.35 425.00 335.69 425.02 318.02 M 399.41 373.51 C 387.55 373.62 378.44 384.07 375.99 394.98 C 373.11 407.16 373.97 421.24 381.25 431.77 C 389.94 443.62 409.60 444.25 418.75 432.76 C 427.28 424.34 424.85 411.67 425.13 400.97 C 425.59 393.06 423.70 384.01 416.97 379.04 C 412.34 374.61 405.63 373.17 399.41 373.51 Z" />
<path fill="#035b66" opacity="0.98" d=" M 9.01 325.05 C 16.04 324.89 23.07 324.85 30.10 324.94 C 36.75 341.37 42.07 358.28 48.14 374.92 C 54.71 392.17 59.29 410.07 65.15 427.56 C 75.40 392.81 88.72 359.09 101.22 325.11 C 108.44 324.97 115.65 324.97 122.87 325.05 C 125.59 367.71 128.21 410.37 130.93 453.02 C 125.07 452.96 119.21 452.85 113.36 452.67 C 111.42 416.95 109.41 381.22 108.40 345.46 C 96.44 381.60 83.47 417.41 70.04 453.04 C 65.82 453.02 61.60 452.82 57.39 452.84 C 45.15 416.98 31.93 381.40 22.27 344.72 C 21.53 380.83 18.35 416.82 16.81 452.89 C 11.21 452.94 5.61 453.03 0.00 453.10 L 0.00 445.49 C 4.11 405.43 5.74 365.17 9.01 325.05 Z" />
<path fill="#035b66" opacity="0.98" d=" M 328.41 325.52 C 336.74 323.25 343.76 333.53 339.61 340.62 C 336.48 347.74 325.14 348.60 321.15 341.85 C 316.78 335.85 320.59 325.77 328.41 325.52 Z" />
<path fill="#035b66" opacity="0.98" d=" M 493.35 335.36 C 509.43 323.07 532.13 324.16 549.93 332.15 C 548.30 336.79 546.70 341.44 544.97 346.05 C 534.50 341.44 522.31 338.74 511.13 342.10 C 500.31 344.77 495.05 358.73 500.97 368.02 C 505.88 375.18 514.50 378.34 522.09 381.86 C 532.55 385.68 542.87 391.30 549.43 400.60 C 555.35 409.85 556.20 422.00 552.21 432.16 C 547.83 442.24 538.81 450.52 527.94 452.88 C 511.62 457.97 493.84 454.84 478.59 447.78 C 480.06 442.93 481.57 438.09 483.01 433.24 C 493.74 438.42 505.66 442.09 517.70 440.72 C 525.09 439.36 533.80 435.89 535.93 427.89 C 537.84 420.87 538.19 412.01 532.31 406.69 C 520.11 395.42 501.68 394.19 490.13 381.87 C 477.16 369.53 479.06 345.99 493.35 335.36 Z" />
<path fill="#035b66" opacity="0.98" d=" M 908.40 328.49 C 917.57 326.03 923.25 337.69 918.71 344.71 C 914.38 350.61 903.58 350.43 900.63 343.35 C 897.55 337.44 901.38 328.82 908.40 328.49 Z" />
<path fill="#035b66" opacity="0.98" d=" M 1007.40 328.48 C 1014.72 326.55 1021.15 334.12 1019.14 341.02 C 1017.79 350.20 1003.28 351.56 999.63 343.35 C 996.59 337.16 1000.56 329.20 1007.40 328.48 Z" />
<path fill="#035b66" opacity="0.98" d=" M 946.00 346.80 C 951.63 345.13 957.22 343.37 962.85 341.68 C 962.93 348.76 963.00 355.85 963.08 362.94 C 970.70 362.97 978.34 363.01 985.98 363.04 C 985.98 367.66 986.09 372.31 985.96 376.95 C 978.30 376.98 970.66 377.01 963.03 377.04 C 963.25 395.22 962.20 413.43 963.55 431.58 C 963.99 435.45 966.41 439.53 970.41 440.49 C 974.85 440.65 979.38 440.57 983.85 440.39 C 984.36 444.70 984.73 449.02 985.13 453.36 C 975.92 455.02 965.46 457.47 956.98 451.99 C 950.02 448.84 947.46 440.58 946.52 433.60 C 945.26 414.79 946.30 395.92 945.99 377.08 C 941.29 377.03 936.68 377.02 932.02 376.92 C 931.94 372.29 931.92 367.70 932.04 363.09 C 936.63 363.03 941.30 363.02 945.93 362.91 C 945.93 357.53 945.96 352.16 946.00 346.80 Z" />
<path fill="#035b66" opacity="0.98" d=" M 189.40 359.38 C 198.24 358.45 207.22 360.98 215.06 364.94 C 229.39 373.05 236.97 389.97 236.91 406.04 C 238.55 428.39 222.37 451.38 199.56 454.45 C 180.00 459.07 158.16 447.94 150.95 429.01 C 142.76 409.16 146.28 382.72 163.99 368.97 C 171.14 363.04 180.23 360.14 189.40 359.38 M 185.45 373.56 C 170.34 377.53 163.87 394.77 164.93 409.01 C 164.86 421.93 171.08 436.61 184.29 440.80 C 194.58 444.34 206.77 439.62 212.41 430.39 C 220.61 418.19 220.66 402.00 215.33 388.66 C 210.64 377.24 197.68 369.73 185.45 373.56 Z" />
<path fill="#035b66" opacity="0.98" d=" M 321.02 361.02 C 327.00 360.93 332.99 360.94 338.98 361.02 C 339.02 391.67 339.03 422.32 338.98 452.98 C 332.98 453.05 327.00 453.05 321.02 452.98 C 320.98 422.32 320.97 391.67 321.02 361.02 Z" />
<path fill="#035b66" opacity="0.98" d=" M 579.70 374.71 C 593.55 358.74 621.94 356.05 636.49 372.54 C 646.40 383.07 647.16 398.34 647.21 411.97 C 625.99 412.08 604.78 411.89 583.57 412.06 C 584.55 422.84 589.06 434.89 599.99 439.05 C 612.54 444.14 626.60 441.27 639.07 437.30 C 640.08 441.49 641.22 445.70 642.11 449.93 C 628.62 454.49 614.05 457.07 599.93 454.11 C 586.79 451.36 575.63 441.73 570.64 429.33 C 564.91 411.19 566.63 389.37 579.70 374.71 M 599.03 376.08 C 589.70 379.67 586.22 390.05 583.81 398.92 C 599.31 399.08 614.82 399.06 630.34 398.94 C 629.56 392.85 629.28 385.93 624.73 381.24 C 618.75 373.74 607.47 372.14 599.03 376.08 Z" />
<path fill="#035b66" opacity="0.98" d=" M 668.84 376.85 C 678.33 366.02 692.87 361.60 706.87 361.28 C 714.45 361.53 721.75 363.82 728.97 366.00 C 727.56 370.46 726.08 374.90 724.63 379.34 C 713.88 375.57 701.29 373.23 690.76 378.79 C 680.50 383.58 675.05 395.09 675.05 406.03 C 673.98 416.70 677.65 428.02 685.92 435.09 C 697.36 443.77 713.17 442.03 725.85 437.09 C 726.55 441.43 727.41 445.76 728.23 450.10 C 709.75 458.17 685.83 458.02 670.54 443.46 C 653.27 425.96 653.27 395.43 668.84 376.85 Z" />
<path fill="#035b66" opacity="0.98" d=" M 873.34 363.36 C 877.98 361.66 883.06 361.35 887.97 361.62 C 888.03 366.93 888.02 372.24 887.97 377.55 C 882.25 378.19 875.82 377.08 871.02 381.03 C 864.24 385.24 860.96 393.45 860.37 401.12 C 859.37 418.39 860.24 435.69 859.99 452.98 C 854.31 453.05 848.66 453.04 843.02 452.98 C 842.45 423.00 844.15 392.94 842.01 363.00 C 845.75 363.01 853.22 363.03 856.96 363.04 C 857.45 368.34 857.76 373.65 858.10 378.97 C 862.37 373.13 866.44 366.37 873.34 363.36 Z" />
<path fill="#035b66" opacity="0.98" d=" M 1049.18 372.18 C 1064.74 357.28 1094.38 357.07 1106.69 376.28 C 1114.41 386.49 1113.93 399.85 1114.14 411.98 C 1093.05 412.06 1071.97 411.92 1050.89 412.03 C 1051.99 421.94 1055.14 433.32 1065.09 437.87 C 1078.04 444.66 1093.55 441.63 1106.79 437.16 C 1107.73 441.39 1108.70 445.64 1109.68 449.88 C 1092.09 455.78 1070.87 459.03 1054.23 448.76 C 1042.10 441.77 1035.80 427.52 1035.09 413.97 C 1033.67 398.92 1038.45 383.07 1049.18 372.18 M 1060.19 380.20 C 1055.19 385.20 1052.74 392.07 1051.53 398.89 C 1067.14 399.09 1082.75 399.07 1098.38 398.91 C 1097.16 392.67 1095.92 386.16 1092.06 380.94 C 1084.22 371.66 1068.77 372.15 1060.19 380.20 Z" />
<path fill="#035b66" opacity="0.98" d=" M 1148.06 363.13 C 1159.22 358.75 1170.64 363.48 1181.44 366.51 C 1179.93 370.85 1178.42 375.19 1176.94 379.54 C 1169.24 376.59 1160.75 372.48 1152.37 375.29 C 1145.20 376.65 1141.71 386.38 1145.78 392.24 C 1154.06 399.39 1165.14 401.79 1174.06 407.96 C 1178.78 411.54 1181.54 417.00 1184.00 422.27 L 1184.00 433.69 C 1180.72 442.10 1174.84 449.96 1166.00 452.97 C 1152.46 457.77 1137.45 454.93 1124.64 449.23 C 1126.09 445.02 1127.56 440.81 1129.03 436.61 C 1138.76 440.19 1149.49 444.25 1159.84 440.85 C 1168.07 438.37 1169.56 428.10 1165.30 421.74 C 1154.55 412.35 1137.21 411.40 1130.02 397.97 C 1122.09 383.96 1133.17 365.98 1148.06 363.13 Z" />
<path fill="#035b66" opacity="0.98" d=" M 743.03 363.03 C 748.67 362.94 754.33 362.95 760.00 363.02 C 760.31 383.46 758.93 404.04 761.57 424.38 C 762.58 431.77 767.67 439.28 775.43 440.54 C 788.43 443.83 802.42 432.25 801.84 418.99 C 802.41 400.34 801.79 381.68 802.02 363.03 C 807.66 362.94 813.32 362.96 818.99 363.02 C 818.70 393.02 819.23 423.02 820.10 453.01 C 816.39 452.99 808.96 452.96 805.25 452.94 C 804.79 448.61 804.27 444.29 803.85 439.97 C 797.26 448.65 787.33 455.24 776.13 455.36 C 761.29 456.83 747.53 445.49 745.17 431.01 C 741.22 408.59 743.59 385.66 743.03 363.03 Z" />
<path fill="#035b66" opacity="0.98" d=" M 901.03 363.03 C 906.99 362.93 912.99 362.93 918.99 363.03 C 919.02 393.01 919.03 422.99 918.97 452.97 C 912.96 453.05 906.99 453.06 901.01 452.97 C 900.98 422.99 900.97 393.01 901.03 363.03 Z" />
<path fill="#035b66" opacity="0.98" d=" M 1001.03 363.03 C 1006.66 362.93 1012.32 362.95 1017.99 363.02 C 1018.02 393.00 1018.03 422.99 1017.97 452.97 C 1012.30 453.06 1006.65 453.04 1001.01 452.98 C 1000.98 422.99 1000.97 393.01 1001.03 363.03 Z" />
<path fill="#035b66" opacity="0.98" d=" M 887.03 494.00 C 888.51 494.00 891.48 494.00 892.96 494.00 C 893.19 509.62 892.33 525.32 894.02 540.89 C 885.43 535.70 875.70 546.33 868.19 538.80 C 860.76 531.19 861.33 517.42 869.75 510.74 C 875.24 506.75 881.81 508.66 887.10 511.57 C 887.01 505.70 887.01 499.86 887.03 494.00 M 876.40 514.33 C 868.11 517.53 867.88 530.51 874.23 535.84 C 878.14 536.44 883.36 536.48 885.63 532.65 C 887.54 528.64 886.98 523.85 886.46 519.62 C 885.78 515.18 880.49 512.72 876.40 514.33 Z" />
<path fill="#035b66" opacity="0.98" d=" M 749.03 499.03 C 755.00 494.70 762.70 496.51 769.37 497.66 C 768.62 499.62 767.89 501.58 767.15 503.54 C 762.66 502.68 758.07 502.12 753.58 501.49 C 752.63 504.61 751.47 507.63 750.51 510.75 C 756.75 514.34 763.60 517.17 768.87 522.21 C 773.73 529.66 768.50 539.73 760.37 541.43 C 754.38 543.06 748.58 540.60 742.85 539.30 C 743.55 537.64 744.25 535.99 744.95 534.33 C 751.06 534.76 760.93 539.19 763.69 531.64 C 765.98 525.04 758.77 522.92 754.66 520.32 C 751.42 517.98 746.78 516.71 745.26 512.71 C 743.43 508.01 744.13 501.55 749.03 499.03 Z" />
<path fill="#035b66" opacity="0.98" d=" M 781.76 500.74 C 782.70 500.31 783.65 499.90 784.63 499.50 C 784.51 502.21 785.10 505.37 785.20 508.20 C 788.04 509.54 794.29 507.76 794.05 513.42 C 790.93 513.69 787.82 513.96 784.73 514.23 C 785.15 521.42 785.52 528.64 785.71 535.86 C 787.72 535.98 791.74 536.22 793.75 536.34 C 794.49 544.86 782.64 543.45 779.99 538.03 C 777.84 530.74 778.64 522.96 777.39 515.54 C 776.57 514.37 775.46 513.45 774.48 512.45 C 776.60 508.43 776.71 502.19 781.76 500.74 Z" />
<path fill="#035b66" opacity="0.98" d=" M 798.00 526.97 C 795.89 516.58 806.33 505.09 816.96 508.98 C 824.68 511.08 825.93 520.08 826.40 526.90 C 818.71 526.97 811.04 527.02 803.37 527.20 C 805.10 530.17 806.75 533.25 809.32 535.62 C 814.35 537.67 819.73 535.79 824.90 535.34 C 825.16 541.88 818.35 541.86 813.99 541.86 C 805.61 543.01 797.09 535.58 798.00 526.97 M 810.83 513.88 C 806.45 513.79 805.44 518.88 803.72 521.94 C 809.26 521.99 814.80 521.96 820.36 521.85 C 819.24 519.10 818.10 516.36 816.98 513.64 C 814.92 513.67 812.87 513.62 810.83 513.88 Z" />
<path fill="#035b66" opacity="0.98" d=" M 833.84 510.98 C 840.44 508.55 849.31 505.92 854.39 512.57 C 859.18 521.07 856.12 531.69 857.47 541.03 C 854.41 540.90 851.32 539.04 848.24 540.07 C 844.53 540.59 840.47 543.22 836.95 541.08 C 831.47 538.32 829.83 529.68 834.48 525.48 C 838.60 521.33 844.83 521.37 850.22 520.49 C 849.45 518.08 848.95 515.88 848.20 513.53 C 843.71 513.89 839.29 514.50 834.92 515.52 C 834.56 514.00 834.19 512.49 833.84 510.98 M 839.22 528.28 C 837.96 530.80 838.62 533.71 838.61 536.41 C 841.62 536.25 844.79 536.75 847.71 535.77 C 851.15 533.35 850.41 528.17 851.56 524.74 C 847.45 525.79 842.58 525.48 839.22 528.28 Z" />
<path fill="#035b66" opacity="0.98" d=" M 959.11 512.58 C 964.20 508.91 970.76 506.51 976.76 510.19 C 986.08 517.85 985.87 535.92 974.06 541.09 C 968.73 543.50 963.36 541.21 958.88 538.38 C 958.90 543.58 958.93 548.79 958.97 554.00 C 957.49 554.00 954.54 554.00 953.07 554.00 C 952.92 538.99 953.31 523.97 952.14 509.00 C 953.80 509.03 957.11 509.10 958.76 509.13 C 958.87 510.27 958.98 511.42 959.11 512.58 M 965.40 514.33 C 959.16 516.32 957.82 524.87 959.56 530.38 C 960.24 534.78 965.05 537.24 969.17 536.31 C 980.84 534.31 978.64 510.34 965.40 514.33 Z" />
<path fill="#035b66" opacity="0.98" d=" M 994.95 512.07 C 997.79 510.20 1000.78 508.55 1003.97 507.32 C 1004.27 509.52 1004.58 511.73 1004.90 513.96 C 1001.74 515.02 996.75 515.68 995.72 519.65 C 994.67 526.69 994.99 533.88 994.81 541.00 C 993.10 541.00 989.69 540.99 987.99 540.99 C 987.98 530.03 987.93 519.08 988.10 508.13 C 990.75 508.43 993.23 510.08 994.95 512.07 Z" />
<path fill="#035b66" opacity="0.98" d=" M 1020.40 508.53 C 1029.86 506.62 1039.15 515.46 1037.90 525.00 C 1038.96 534.29 1030.31 543.07 1020.97 541.92 C 1012.68 542.31 1006.41 533.79 1006.93 525.96 C 1005.47 517.86 1012.13 508.96 1020.40 508.53 M 1019.41 514.34 C 1012.69 516.46 1012.26 525.81 1014.64 531.33 C 1016.61 537.22 1026.07 539.01 1029.03 533.02 C 1034.16 525.90 1030.41 510.30 1019.41 514.34 Z" />
<path fill="#035b66" opacity="0.98" d=" M 1055.59 508.70 C 1061.38 509.32 1067.24 512.14 1073.00 509.19 C 1073.05 519.46 1073.26 529.74 1072.93 540.02 C 1072.54 545.24 1070.58 551.24 1065.02 553.02 C 1059.01 556.45 1051.92 554.25 1045.85 552.26 C 1046.26 550.65 1046.70 549.05 1047.14 547.45 C 1051.96 548.21 1056.78 548.98 1061.72 548.76 C 1065.47 546.23 1065.90 541.32 1067.36 537.40 C 1062.80 539.83 1057.02 542.67 1051.99 540.01 C 1038.19 534.92 1040.93 510.55 1055.59 508.70 M 1054.95 512.99 C 1052.85 516.77 1049.34 520.22 1049.99 525.00 C 1048.22 531.87 1056.71 538.69 1062.70 534.71 C 1068.31 531.35 1065.76 523.56 1065.62 518.38 C 1064.81 513.50 1058.21 514.32 1054.95 512.99 Z" />
<path fill="#035b66" opacity="0.98" d=" M 1087.46 513.13 C 1090.26 510.67 1093.53 508.82 1097.00 507.46 C 1097.27 509.61 1097.57 511.78 1097.89 513.96 C 1094.70 514.96 1089.57 515.70 1088.83 519.84 C 1087.67 526.80 1088.01 533.94 1087.70 540.99 C 1086.02 540.99 1082.67 540.99 1080.99 541.00 C 1080.98 530.06 1080.94 519.14 1081.08 508.22 C 1082.30 508.62 1084.74 509.42 1085.96 509.82 L 1087.46 513.13 Z" />
<path fill="#035b66" opacity="0.98" d=" M 1112.11 509.03 C 1116.04 507.07 1120.65 508.89 1124.29 510.70 C 1128.89 514.66 1129.56 521.27 1130.42 526.88 C 1122.69 526.95 1114.98 527.01 1107.29 527.15 C 1108.37 529.76 1108.93 532.93 1111.27 534.79 C 1116.26 536.98 1121.75 535.83 1126.99 535.42 C 1127.41 537.00 1127.82 538.58 1128.23 540.17 C 1121.34 541.47 1113.08 543.79 1107.28 538.70 C 1096.84 531.57 1099.98 512.55 1112.11 509.03 M 1107.17 521.75 C 1111.33 521.77 1119.65 521.83 1123.81 521.86 C 1122.46 518.63 1121.54 513.78 1117.17 513.66 C 1111.89 512.37 1108.98 517.76 1107.17 521.75 Z" />
<path fill="#035b66" opacity="0.98" d=" M 1141.74 509.75 C 1146.23 507.20 1151.38 508.97 1156.07 509.88 C 1155.65 511.48 1155.23 513.09 1154.81 514.70 C 1149.93 514.82 1142.29 511.35 1142.44 519.29 C 1147.33 522.08 1154.39 523.49 1156.67 529.37 C 1157.28 533.38 1156.05 538.22 1152.02 540.01 C 1146.90 543.58 1140.45 541.66 1134.98 540.10 C 1135.63 538.47 1136.30 536.84 1136.97 535.22 C 1141.57 536.66 1146.45 536.80 1151.09 535.34 C 1150.65 527.43 1141.98 527.04 1137.78 522.23 C 1134.61 518.03 1137.27 511.78 1141.74 509.75 Z" />
<path fill="#035b66" opacity="0.98" d=" M 1167.62 510.61 C 1172.29 507.42 1178.15 509.02 1183.29 509.72 C 1182.84 511.21 1182.40 512.72 1181.93 514.21 C 1177.72 514.58 1173.45 514.86 1169.37 515.96 C 1171.95 522.17 1178.90 524.27 1184.00 527.93 L 1184.00 536.00 C 1181.54 538.66 1178.63 541.45 1174.83 541.77 C 1170.74 541.90 1166.75 541.00 1162.76 540.32 C 1163.14 538.64 1163.58 536.98 1164.04 535.32 C 1168.72 535.88 1173.41 536.13 1178.13 536.29 C 1177.54 534.21 1177.53 531.79 1176.12 530.06 C 1173.07 527.21 1168.76 526.13 1165.85 523.11 C 1162.47 519.62 1163.51 513.11 1167.62 510.61 Z" />
<path fill="#035b66" opacity="0.98" d=" M 899.11 508.89 C 901.57 509.01 904.05 509.15 906.53 509.30 C 909.51 516.85 912.13 524.56 915.13 532.11 C 917.94 524.50 920.60 516.83 923.25 509.16 C 924.97 509.13 928.40 509.05 930.12 509.01 C 925.51 520.72 921.73 532.80 915.98 544.02 C 913.59 549.52 908.61 553.30 903.43 556.00 L 901.72 556.00 C 901.20 549.61 907.35 546.21 910.40 541.48 C 910.51 537.02 908.97 532.84 907.27 528.82 C 904.45 522.21 901.81 515.54 899.11 508.89 Z" />
</g>
</svg>
