<svg xmlns="http://www.w3.org/2000/svg" width="511.253" height="507.253" viewBox="0 0 511.253 507.253">
    <defs>
        <style>
            .cls-1{fill:#fff}.cls-2{fill:#ffe60f}.cls-3,.cls-4,.cls-8{fill:none}.cls-4{stroke:#b2b2b2}.cls-5{fill:#777}.cls-6,.cls-7{stroke:none}.cls-7{fill:#b2b2b2}
        </style>
    </defs>
    <g id="GraphicShape1" transform="translate(-121 -1154)">
        <g id="Group_2957" data-name="Group 2957">
            <circle id="Ellipse_12" cx="25.782" cy="25.782" r="25.782" data-name="Ellipse 12" transform="translate(121 1154)"/>
            <circle id="Ellipse_13" cx="25.782" cy="25.782" r="25.782" data-name="Ellipse 13" transform="translate(177.086 1154)"/>
            <circle id="Ellipse_14" cx="25.782" cy="25.782" r="25.782" data-name="Ellipse 14" transform="translate(233.173 1154)"/>
            <circle id="Ellipse_15" cx="25.782" cy="25.782" r="25.782" data-name="Ellipse 15" transform="translate(289.259 1154)"/>
            <circle id="Ellipse_16" cx="25.782" cy="25.782" r="25.782" data-name="Ellipse 16" transform="translate(401.431 1154)"/>
            <circle id="Ellipse_17" cx="25.782" cy="25.782" r="25.782" data-name="Ellipse 17" transform="translate(457.518 1154)"/>
            <circle id="Ellipse_18" cx="25.782" cy="25.782" r="25.782" data-name="Ellipse 18" transform="translate(569.689 1154)"/>
            <circle id="Ellipse_19" cx="25.782" cy="25.782" r="25.782" data-name="Ellipse 19" transform="translate(121 1210.086)"/>
            <circle id="Ellipse_20" cx="25.782" cy="25.782" r="25.782" data-name="Ellipse 20" transform="translate(177.086 1210.086)"/>
            <circle id="Ellipse_21" cx="25.782" cy="25.782" r="25.782" data-name="Ellipse 21" transform="translate(233.173 1210.086)"/>
            <circle id="Ellipse_22" cx="25.782" cy="25.782" r="25.782" data-name="Ellipse 22" transform="translate(289.259 1210.086)"/>
            <circle id="Ellipse_23" cx="25.782" cy="25.782" r="25.782" data-name="Ellipse 23" transform="translate(345.345 1210.086)"/>
            <circle id="Ellipse_24" cx="25.782" cy="25.782" r="25.782" data-name="Ellipse 24" transform="translate(401.431 1210.086)"/>
            <circle id="Ellipse_25" cx="25.782" cy="25.782" r="25.782" data-name="Ellipse 25" transform="translate(457.518 1210.086)"/>
            <circle id="Ellipse_26" cx="25.782" cy="25.782" r="25.782" data-name="Ellipse 26" transform="translate(513.604 1210.086)"/>
            <circle id="Ellipse_27" cx="25.782" cy="25.782" r="25.782" data-name="Ellipse 27" transform="translate(569.689 1210.086)"/>
            <circle id="Ellipse_28" cx="25.782" cy="25.782" r="25.782" data-name="Ellipse 28" transform="translate(121 1266.173)"/>
            <circle id="Ellipse_29" cx="25.782" cy="25.782" r="25.782" data-name="Ellipse 29" transform="translate(177.086 1266.173)"/>
            <circle id="Ellipse_30" cx="25.782" cy="25.782" r="25.782" data-name="Ellipse 30" transform="translate(233.173 1266.173)"/>
            <circle id="Ellipse_31" cx="25.782" cy="25.782" r="25.782" data-name="Ellipse 31" transform="translate(289.259 1266.173)"/>
            <circle id="Ellipse_32" cx="25.782" cy="25.782" r="25.782" data-name="Ellipse 32" transform="translate(345.345 1266.173)"/>
            <circle id="Ellipse_33" cx="25.782" cy="25.782" r="25.782" data-name="Ellipse 33" transform="translate(401.431 1266.173)"/>
            <circle id="Ellipse_34" cx="25.782" cy="25.782" r="25.782" data-name="Ellipse 34" transform="translate(457.518 1266.173)"/>
            <circle id="Ellipse_35" cx="25.782" cy="25.782" r="25.782" data-name="Ellipse 35" transform="translate(513.604 1266.173)"/>
            <circle id="Ellipse_36" cx="25.782" cy="25.782" r="25.782" data-name="Ellipse 36" transform="translate(121 1322.259)"/>
            <circle id="Ellipse_37" cx="25.782" cy="25.782" r="25.782" data-name="Ellipse 37" transform="translate(177.086 1322.259)"/>
            <circle id="Ellipse_38" cx="25.782" cy="25.782" r="25.782" data-name="Ellipse 38" transform="translate(233.173 1322.259)"/>
            <circle id="Ellipse_39" cx="25.782" cy="25.782" r="25.782" data-name="Ellipse 39" transform="translate(289.259 1322.259)"/>
            <circle id="Ellipse_40" cx="25.782" cy="25.782" r="25.782" data-name="Ellipse 40" transform="translate(345.345 1322.259)"/>
            <circle id="Ellipse_41" cx="25.782" cy="25.782" r="25.782" data-name="Ellipse 41" transform="translate(401.431 1322.259)"/>
            <circle id="Ellipse_42" cx="25.782" cy="25.782" r="25.782" data-name="Ellipse 42" transform="translate(457.518 1322.259)"/>
            <circle id="Ellipse_43" cx="25.782" cy="25.782" r="25.782" data-name="Ellipse 43" transform="translate(513.604 1322.259)"/>
            <circle id="Ellipse_44" cx="25.782" cy="25.782" r="25.782" data-name="Ellipse 44" transform="translate(569.689 1322.259)"/>
            <circle id="Ellipse_45" cx="25.782" cy="25.782" r="25.782" data-name="Ellipse 45" transform="translate(121 1378.345)"/>
            <circle id="Ellipse_46" cx="25.782" cy="25.782" r="25.782" data-name="Ellipse 46" transform="translate(177.086 1378.345)"/>
            <circle id="Ellipse_47" cx="25.782" cy="25.782" r="25.782" data-name="Ellipse 47" transform="translate(233.173 1378.345)"/>
            <circle id="Ellipse_48" cx="25.782" cy="25.782" r="25.782" data-name="Ellipse 48" transform="translate(289.259 1378.345)"/>
            <circle id="Ellipse_49" cx="25.782" cy="25.782" r="25.782" data-name="Ellipse 49" transform="translate(345.345 1378.345)"/>
            <circle id="Ellipse_50" cx="25.782" cy="25.782" r="25.782" data-name="Ellipse 50" transform="translate(401.431 1378.345)"/>
            <circle id="Ellipse_51" cx="25.782" cy="25.782" r="25.782" data-name="Ellipse 51" transform="translate(457.518 1378.345)"/>
            <circle id="Ellipse_52" cx="25.782" cy="25.782" r="25.782" data-name="Ellipse 52" transform="translate(513.604 1378.345)"/>
            <circle id="Ellipse_53" cx="25.782" cy="25.782" r="25.782" data-name="Ellipse 53" transform="translate(569.689 1378.345)"/>
            <circle id="Ellipse_54" cx="25.782" cy="25.782" r="25.782" data-name="Ellipse 54" transform="translate(177.086 1434.431)"/>
            <circle id="Ellipse_55" cx="25.782" cy="25.782" r="25.782" data-name="Ellipse 55" transform="translate(233.173 1434.431)"/>
            <circle id="Ellipse_56" cx="25.782" cy="25.782" r="25.782" data-name="Ellipse 56" transform="translate(289.259 1434.431)"/>
            <circle id="Ellipse_57" cx="25.782" cy="25.782" r="25.782" data-name="Ellipse 57" transform="translate(345.345 1434.431)"/>
            <circle id="Ellipse_58" cx="25.782" cy="25.782" r="25.782" data-name="Ellipse 58" transform="translate(401.431 1434.431)"/>
            <circle id="Ellipse_59" cx="25.782" cy="25.782" r="25.782" data-name="Ellipse 59" transform="translate(457.518 1434.431)"/>
            <circle id="Ellipse_60" cx="25.782" cy="25.782" r="25.782" data-name="Ellipse 60" transform="translate(513.604 1434.431)"/>
            <circle id="Ellipse_61" cx="25.782" cy="25.782" r="25.782" data-name="Ellipse 61" transform="translate(121 1490.518)"/>
            <circle id="Ellipse_62" cx="25.782" cy="25.782" r="25.782" data-name="Ellipse 62" transform="translate(177.086 1490.518)"/>
            <circle id="Ellipse_63" cx="25.782" cy="25.782" r="25.782" data-name="Ellipse 63" transform="translate(233.173 1490.518)"/>
            <circle id="Ellipse_64" cx="25.782" cy="25.782" r="25.782" data-name="Ellipse 64" transform="translate(289.259 1490.518)"/>
            <circle id="Ellipse_65" cx="25.782" cy="25.782" r="25.782" data-name="Ellipse 65" transform="translate(345.345 1490.518)"/>
            <circle id="Ellipse_66" cx="25.782" cy="25.782" r="25.782" data-name="Ellipse 66" transform="translate(401.431 1490.518)"/>
            <circle id="Ellipse_67" cx="25.782" cy="25.782" r="25.782" data-name="Ellipse 67" transform="translate(457.518 1490.518)"/>
            <circle id="Ellipse_68" cx="25.782" cy="25.782" r="25.782" data-name="Ellipse 68" transform="translate(513.604 1490.518)"/>
            <circle id="Ellipse_69" cx="25.782" cy="25.782" r="25.782" data-name="Ellipse 69" transform="translate(569.689 1490.518)"/>
            <circle id="Ellipse_70" cx="25.782" cy="25.782" r="25.782" data-name="Ellipse 70" transform="translate(121 1546.604)"/>
            <circle id="Ellipse_71" cx="25.782" cy="25.782" r="25.782" data-name="Ellipse 71" transform="translate(177.086 1546.604)"/>
            <circle id="Ellipse_72" cx="25.782" cy="25.782" r="25.782" data-name="Ellipse 72" transform="translate(233.173 1546.604)"/>
            <circle id="Ellipse_73" cx="25.782" cy="25.782" r="25.782" data-name="Ellipse 73" transform="translate(289.259 1546.604)"/>
            <circle id="Ellipse_74" cx="25.782" cy="25.782" r="25.782" data-name="Ellipse 74" transform="translate(345.345 1546.604)"/>
            <circle id="Ellipse_75" cx="25.782" cy="25.782" r="25.782" data-name="Ellipse 75" transform="translate(401.431 1546.604)"/>
            <circle id="Ellipse_76" cx="25.782" cy="25.782" r="25.782" data-name="Ellipse 76" transform="translate(457.518 1546.604)"/>
            <circle id="Ellipse_77" cx="25.782" cy="25.782" r="25.782" data-name="Ellipse 77" transform="translate(513.604 1546.604)"/>
            <circle id="Ellipse_78" cx="25.782" cy="25.782" r="25.782" data-name="Ellipse 78" transform="translate(569.689 1546.604)"/>
            <circle id="Ellipse_79" cx="25.782" cy="25.782" r="25.782" data-name="Ellipse 79" transform="translate(121 1602.689)"/>
            <circle id="Ellipse_80" cx="25.782" cy="25.782" r="25.782" data-name="Ellipse 80" transform="translate(233.173 1602.689)"/>
            <circle id="Ellipse_81" cx="25.782" cy="25.782" r="25.782" data-name="Ellipse 81" transform="translate(345.345 1602.689)"/>
            <circle id="Ellipse_82" cx="25.782" cy="25.782" r="25.782" data-name="Ellipse 82" transform="translate(401.431 1602.689)"/>
            <circle id="Ellipse_83" cx="25.782" cy="25.782" r="25.782" data-name="Ellipse 83" transform="translate(513.604 1602.689)"/>
        </g>
        <path id="Path_8208" d="M14.287 0A14.287 14.287 0 1 1 0 14.287 14.287 14.287 0 0 1 14.287 0z" data-name="Path 8208" transform="translate(592.587 1621.587)"/>
        <g id="Path_8207" className="cls-3" data-name="Path 8207">
            <path d="M25.782 0A25.782 25.782 0 1 1 0 25.782 25.782 25.782 0 0 1 25.782 0z" transform="translate(580.69 1609.69)"/>
            <path d="M25.782 1A24.7 24.7 0 0 0 8.259 8.258 24.7 24.7 0 0 0 1 25.782a24.7 24.7 0 0 0 7.258 17.523 24.7 24.7 0 0 0 17.524 7.258 24.7 24.7 0 0 0 17.523-7.258 24.7 24.7 0 0 0 7.258-17.523 24.7 24.7 0 0 0-7.258-17.523A24.7 24.7 0 0 0 25.782 1m0-1C40.02 0 51.563 11.543 51.563 25.782c0 14.238-11.543 25.781-25.781 25.781C11.542 51.563 0 40.02 0 25.782 0 11.542 11.543 0 25.782 0z" className="cls-7" transform="translate(580.69 1609.69)"/>
        </g>
        <g id="Group_2958" data-name="Group 2958">
            <g id="Ellipse_5" className="cls-4" data-name="Ellipse 5" transform="translate(132 1161)">
                <circle cx="25.782" cy="25.782" r="25.782" />
                <circle cx="25.782" cy="25.782" r="25.282" />
            </g>
            <g id="Ellipse_5-2" className="cls-4" data-name="Ellipse 5" transform="translate(188.086 1161)">
                <circle cx="25.782" cy="25.782" r="25.782" className="cls-6"/>
                <circle cx="25.782" cy="25.782" r="25.282" className="cls-8"/>
            </g>
            <g id="Ellipse_5-3" className="cls-4" data-name="Ellipse 5" transform="translate(244.172 1161)">
                <circle cx="25.782" cy="25.782" r="25.782" className="cls-6"/>
                <circle cx="25.782" cy="25.782" r="25.282" className="cls-8"/>
            </g>
            <g id="Ellipse_5-4" className="cls-4" data-name="Ellipse 5" transform="translate(300.259 1161)">
                <circle cx="25.782" cy="25.782" r="25.782" className="cls-6"/>
                <circle cx="25.782" cy="25.782" r="25.282" className="cls-8"/>
            </g>
            <g id="Ellipse_5-5" className="cls-4" data-name="Ellipse 5" transform="translate(412.431 1161)">
                <circle cx="25.782" cy="25.782" r="25.782" className="cls-6"/>
                <circle cx="25.782" cy="25.782" r="25.282" className="cls-8"/>
            </g>
            <g id="Ellipse_5-6" className="cls-4" data-name="Ellipse 5" transform="translate(468.517 1161)">
                <circle cx="25.782" cy="25.782" r="25.782" className="cls-6"/>
                <circle cx="25.782" cy="25.782" r="25.282" className="cls-8"/>
            </g>
            <g id="Ellipse_5-7" className="cls-4" data-name="Ellipse 5" transform="translate(580.69 1161)">
                <circle cx="25.782" cy="25.782" r="25.782" className="cls-6"/>
                <circle cx="25.782" cy="25.782" r="25.282" className="cls-8"/>
            </g>
            <g id="Ellipse_5-8" className="cls-4" data-name="Ellipse 5" transform="translate(132 1217.086)">
                <circle cx="25.782" cy="25.782" r="25.782" className="cls-6"/>
                <circle cx="25.782" cy="25.782" r="25.282" className="cls-8"/>
            </g>
            <g id="Ellipse_5-9" className="cls-4" data-name="Ellipse 5" transform="translate(188.086 1217.086)">
                <circle cx="25.782" cy="25.782" r="25.782" className="cls-6"/>
                <circle cx="25.782" cy="25.782" r="25.282" className="cls-8"/>
            </g>
            <g id="Ellipse_5-10" className="cls-4" data-name="Ellipse 5" transform="translate(244.172 1217.086)">
                <circle cx="25.782" cy="25.782" r="25.782" className="cls-6"/>
                <circle cx="25.782" cy="25.782" r="25.282" className="cls-8"/>
            </g>
            <g id="Ellipse_5-11" className="cls-4" data-name="Ellipse 5" transform="translate(300.259 1217.086)">
                <circle cx="25.782" cy="25.782" r="25.782" className="cls-6"/>
                <circle cx="25.782" cy="25.782" r="25.282" className="cls-8"/>
            </g>
            <g id="Ellipse_5-12" className="cls-4" data-name="Ellipse 5" transform="translate(356.345 1217.086)">
                <circle cx="25.782" cy="25.782" r="25.782" className="cls-6"/>
                <circle cx="25.782" cy="25.782" r="25.282" className="cls-8"/>
            </g>
            <g id="Ellipse_5-13" className="cls-4" data-name="Ellipse 5" transform="translate(412.431 1217.086)">
                <circle cx="25.782" cy="25.782" r="25.782" className="cls-6"/>
                <circle cx="25.782" cy="25.782" r="25.282" className="cls-8"/>
            </g>
            <g id="Ellipse_5-14" className="cls-4" data-name="Ellipse 5" transform="translate(468.517 1217.086)">
                <circle cx="25.782" cy="25.782" r="25.782" className="cls-6"/>
                <circle cx="25.782" cy="25.782" r="25.282" className="cls-8"/>
            </g>
            <g id="Ellipse_5-15" className="cls-4" data-name="Ellipse 5" transform="translate(524.604 1217.086)">
                <circle cx="25.782" cy="25.782" r="25.782" className="cls-6"/>
                <circle cx="25.782" cy="25.782" r="25.282" className="cls-8"/>
            </g>
            <g id="Ellipse_5-16" className="cls-4" data-name="Ellipse 5" transform="translate(580.69 1217.086)">
                <circle cx="25.782" cy="25.782" r="25.782" className="cls-6"/>
                <circle cx="25.782" cy="25.782" r="25.282" className="cls-8"/>
            </g>
            <g id="Ellipse_5-17" className="cls-4" data-name="Ellipse 5" transform="translate(132 1273.172)">
                <circle cx="25.782" cy="25.782" r="25.782" className="cls-6"/>
                <circle cx="25.782" cy="25.782" r="25.282" className="cls-8"/>
            </g>
            <g id="Ellipse_5-18" className="cls-4" data-name="Ellipse 5" transform="translate(188.086 1273.172)">
                <circle cx="25.782" cy="25.782" r="25.782" className="cls-6"/>
                <circle cx="25.782" cy="25.782" r="25.282" className="cls-8"/>
            </g>
            <g id="Ellipse_5-19" className="cls-4" data-name="Ellipse 5" transform="translate(244.172 1273.172)">
                <circle cx="25.782" cy="25.782" r="25.782" className="cls-6"/>
                <circle cx="25.782" cy="25.782" r="25.282" className="cls-8"/>
            </g>
            <g id="Ellipse_5-20" className="cls-4" data-name="Ellipse 5" transform="translate(300.259 1273.172)">
                <circle cx="25.782" cy="25.782" r="25.782" className="cls-6"/>
                <circle cx="25.782" cy="25.782" r="25.282" className="cls-8"/>
            </g>
            <g id="Ellipse_5-21" className="cls-4" data-name="Ellipse 5" transform="translate(356.345 1273.172)">
                <circle cx="25.782" cy="25.782" r="25.782" className="cls-6"/>
                <circle cx="25.782" cy="25.782" r="25.282" className="cls-8"/>
            </g>
            <g id="Ellipse_5-22" className="cls-4" data-name="Ellipse 5" transform="translate(412.431 1273.172)">
                <circle cx="25.782" cy="25.782" r="25.782" className="cls-6"/>
                <circle cx="25.782" cy="25.782" r="25.282" className="cls-8"/>
            </g>
            <g id="Ellipse_5-23" className="cls-4" data-name="Ellipse 5" transform="translate(468.517 1273.172)">
                <circle cx="25.782" cy="25.782" r="25.782" className="cls-6"/>
                <circle cx="25.782" cy="25.782" r="25.282" className="cls-8"/>
            </g>
            <g id="Ellipse_5-24" className="cls-4" data-name="Ellipse 5" transform="translate(524.604 1273.172)">
                <circle cx="25.782" cy="25.782" r="25.782" className="cls-6"/>
                <circle cx="25.782" cy="25.782" r="25.282" className="cls-8"/>
            </g>
            <g id="Ellipse_5-25" className="cls-4" data-name="Ellipse 5" transform="translate(132 1329.259)">
                <circle cx="25.782" cy="25.782" r="25.782" className="cls-6"/>
                <circle cx="25.782" cy="25.782" r="25.282" className="cls-8"/>
            </g>
            <g id="Ellipse_5-26" className="cls-4" data-name="Ellipse 5" transform="translate(188.086 1329.259)">
                <circle cx="25.782" cy="25.782" r="25.782" className="cls-6"/>
                <circle cx="25.782" cy="25.782" r="25.282" className="cls-8"/>
            </g>
            <g id="Ellipse_5-27" className="cls-4" data-name="Ellipse 5" transform="translate(244.172 1329.259)">
                <circle cx="25.782" cy="25.782" r="25.782" className="cls-6"/>
                <circle cx="25.782" cy="25.782" r="25.282" className="cls-8"/>
            </g>
            <g id="Ellipse_5-28" className="cls-4" data-name="Ellipse 5" transform="translate(300.259 1329.259)">
                <circle cx="25.782" cy="25.782" r="25.782" className="cls-6"/>
                <circle cx="25.782" cy="25.782" r="25.282" className="cls-8"/>
            </g>
            <g id="Ellipse_5-29" className="cls-4" data-name="Ellipse 5" transform="translate(356.345 1329.259)">
                <circle cx="25.782" cy="25.782" r="25.782" className="cls-6"/>
                <circle cx="25.782" cy="25.782" r="25.282" className="cls-8"/>
            </g>
            <g id="Ellipse_5-30" className="cls-4" data-name="Ellipse 5" transform="translate(412.431 1329.259)">
                <circle cx="25.782" cy="25.782" r="25.782" className="cls-6"/>
                <circle cx="25.782" cy="25.782" r="25.282" className="cls-8"/>
            </g>
            <g id="Ellipse_5-31" className="cls-4" data-name="Ellipse 5" transform="translate(468.517 1329.259)">
                <circle cx="25.782" cy="25.782" r="25.782" className="cls-6"/>
                <circle cx="25.782" cy="25.782" r="25.282" className="cls-8"/>
            </g>
            <g id="Ellipse_5-32" className="cls-4" data-name="Ellipse 5" transform="translate(524.604 1329.259)">
                <circle cx="25.782" cy="25.782" r="25.782" className="cls-6"/>
                <circle cx="25.782" cy="25.782" r="25.282" className="cls-8"/>
            </g>
            <g id="Ellipse_5-33" className="cls-4" data-name="Ellipse 5" transform="translate(580.69 1329.259)">
                <circle cx="25.782" cy="25.782" r="25.782" className="cls-6"/>
                <circle cx="25.782" cy="25.782" r="25.282" className="cls-8"/>
            </g>
            <g id="Ellipse_5-34" className="cls-4" data-name="Ellipse 5" transform="translate(132 1385.345)">
                <circle cx="25.782" cy="25.782" r="25.782" className="cls-6"/>
                <circle cx="25.782" cy="25.782" r="25.282" className="cls-8"/>
            </g>
            <g id="Ellipse_5-35" className="cls-4" data-name="Ellipse 5" transform="translate(188.086 1385.345)">
                <circle cx="25.782" cy="25.782" r="25.782" className="cls-6"/>
                <circle cx="25.782" cy="25.782" r="25.282" className="cls-8"/>
            </g>
            <g id="Ellipse_5-36" className="cls-4" data-name="Ellipse 5" transform="translate(244.172 1385.345)">
                <circle cx="25.782" cy="25.782" r="25.782" className="cls-6"/>
                <circle cx="25.782" cy="25.782" r="25.282" className="cls-8"/>
            </g>
            <g id="Ellipse_5-37" className="cls-4" data-name="Ellipse 5" transform="translate(300.259 1385.345)">
                <circle cx="25.782" cy="25.782" r="25.782" className="cls-6"/>
                <circle cx="25.782" cy="25.782" r="25.282" className="cls-8"/>
            </g>
            <g id="Ellipse_5-38" className="cls-4" data-name="Ellipse 5" transform="translate(356.345 1385.345)">
                <circle cx="25.782" cy="25.782" r="25.782" className="cls-6"/>
                <circle cx="25.782" cy="25.782" r="25.282" className="cls-8"/>
            </g>
            <g id="Ellipse_5-39" className="cls-4" data-name="Ellipse 5" transform="translate(412.431 1385.345)">
                <circle cx="25.782" cy="25.782" r="25.782" className="cls-6"/>
                <circle cx="25.782" cy="25.782" r="25.282" className="cls-8"/>
            </g>
            <g id="Ellipse_5-40" className="cls-4" data-name="Ellipse 5" transform="translate(468.517 1385.345)">
                <circle cx="25.782" cy="25.782" r="25.782" className="cls-6"/>
                <circle cx="25.782" cy="25.782" r="25.282" className="cls-8"/>
            </g>
            <g id="Ellipse_5-41" className="cls-4" data-name="Ellipse 5" transform="translate(524.604 1385.345)">
                <circle cx="25.782" cy="25.782" r="25.782" className="cls-6"/>
                <circle cx="25.782" cy="25.782" r="25.282" className="cls-8"/>
            </g>
            <g id="Ellipse_5-42" className="cls-4" data-name="Ellipse 5" transform="translate(580.69 1385.345)">
                <circle cx="25.782" cy="25.782" r="25.782" className="cls-6"/>
                <circle cx="25.782" cy="25.782" r="25.282" className="cls-8"/>
            </g>
            <g id="Ellipse_5-43" className="cls-4" data-name="Ellipse 5" transform="translate(188.086 1441.431)">
                <circle cx="25.782" cy="25.782" r="25.782" className="cls-6"/>
                <circle cx="25.782" cy="25.782" r="25.282" className="cls-8"/>
            </g>
            <g id="Ellipse_5-44" className="cls-4" data-name="Ellipse 5" transform="translate(244.172 1441.431)">
                <circle cx="25.782" cy="25.782" r="25.782" className="cls-6"/>
                <circle cx="25.782" cy="25.782" r="25.282" className="cls-8"/>
            </g>
            <g id="Ellipse_5-45" className="cls-4" data-name="Ellipse 5" transform="translate(300.259 1441.431)">
                <circle cx="25.782" cy="25.782" r="25.782" className="cls-6"/>
                <circle cx="25.782" cy="25.782" r="25.282" className="cls-8"/>
            </g>
            <g id="Ellipse_5-46" className="cls-4" data-name="Ellipse 5" transform="translate(356.345 1441.431)">
                <circle cx="25.782" cy="25.782" r="25.782" className="cls-6"/>
                <circle cx="25.782" cy="25.782" r="25.282" className="cls-8"/>
            </g>
            <g id="Ellipse_5-47" className="cls-4" data-name="Ellipse 5" transform="translate(412.431 1441.431)">
                <circle cx="25.782" cy="25.782" r="25.782" className="cls-6"/>
                <circle cx="25.782" cy="25.782" r="25.282" className="cls-8"/>
            </g>
            <g id="Ellipse_5-48" className="cls-4" data-name="Ellipse 5" transform="translate(468.517 1441.431)">
                <circle cx="25.782" cy="25.782" r="25.782" className="cls-6"/>
                <circle cx="25.782" cy="25.782" r="25.282" className="cls-8"/>
            </g>
            <g id="Ellipse_5-49" className="cls-4" data-name="Ellipse 5" transform="translate(524.604 1441.431)">
                <circle cx="25.782" cy="25.782" r="25.782" className="cls-6"/>
                <circle cx="25.782" cy="25.782" r="25.282" className="cls-8"/>
            </g>
            <g id="Ellipse_5-50" className="cls-4" data-name="Ellipse 5" transform="translate(132 1497.517)">
                <circle cx="25.782" cy="25.782" r="25.782" className="cls-6"/>
                <circle cx="25.782" cy="25.782" r="25.282" className="cls-8"/>
            </g>
            <g id="Ellipse_5-51" className="cls-4" data-name="Ellipse 5" transform="translate(188.086 1497.517)">
                <circle cx="25.782" cy="25.782" r="25.782" className="cls-6"/>
                <circle cx="25.782" cy="25.782" r="25.282" className="cls-8"/>
            </g>
            <g id="Ellipse_5-52" className="cls-4" data-name="Ellipse 5" transform="translate(244.172 1497.517)">
                <circle cx="25.782" cy="25.782" r="25.782" className="cls-6"/>
                <circle cx="25.782" cy="25.782" r="25.282" className="cls-8"/>
            </g>
            <g id="Ellipse_5-53" className="cls-4" data-name="Ellipse 5" transform="translate(300.259 1497.517)">
                <circle cx="25.782" cy="25.782" r="25.782" className="cls-6"/>
                <circle cx="25.782" cy="25.782" r="25.282" className="cls-8"/>
            </g>
            <g id="Ellipse_5-54" className="cls-4" data-name="Ellipse 5" transform="translate(356.345 1497.517)">
                <circle cx="25.782" cy="25.782" r="25.782" className="cls-6"/>
                <circle cx="25.782" cy="25.782" r="25.282" className="cls-8"/>
            </g>
            <g id="Ellipse_5-55" className="cls-4" data-name="Ellipse 5" transform="translate(412.431 1497.517)">
                <circle cx="25.782" cy="25.782" r="25.782" className="cls-6"/>
                <circle cx="25.782" cy="25.782" r="25.282" className="cls-8"/>
            </g>
            <g id="Ellipse_5-56" className="cls-4" data-name="Ellipse 5" transform="translate(468.517 1497.517)">
                <circle cx="25.782" cy="25.782" r="25.782" className="cls-6"/>
                <circle cx="25.782" cy="25.782" r="25.282" className="cls-8"/>
            </g>
            <g id="Ellipse_5-57" className="cls-4" data-name="Ellipse 5" transform="translate(524.604 1497.517)">
                <circle cx="25.782" cy="25.782" r="25.782" className="cls-6"/>
                <circle cx="25.782" cy="25.782" r="25.282" className="cls-8"/>
            </g>
            <g id="Ellipse_5-58" className="cls-4" data-name="Ellipse 5" transform="translate(580.69 1497.517)">
                <circle cx="25.782" cy="25.782" r="25.782" className="cls-6"/>
                <circle cx="25.782" cy="25.782" r="25.282" className="cls-8"/>
            </g>
            <g id="Ellipse_5-59" className="cls-4" data-name="Ellipse 5" transform="translate(132 1553.604)">
                <circle cx="25.782" cy="25.782" r="25.782" className="cls-6"/>
                <circle cx="25.782" cy="25.782" r="25.282" className="cls-8"/>
            </g>
            <g id="Ellipse_5-60" className="cls-4" data-name="Ellipse 5" transform="translate(188.086 1553.604)">
                <circle cx="25.782" cy="25.782" r="25.782" className="cls-6"/>
                <circle cx="25.782" cy="25.782" r="25.282" className="cls-8"/>
            </g>
            <g id="Ellipse_5-61" className="cls-4" data-name="Ellipse 5" transform="translate(244.172 1553.604)">
                <circle cx="25.782" cy="25.782" r="25.782" className="cls-6"/>
                <circle cx="25.782" cy="25.782" r="25.282" className="cls-8"/>
            </g>
            <g id="Ellipse_5-62" className="cls-4" data-name="Ellipse 5" transform="translate(300.259 1553.604)">
                <circle cx="25.782" cy="25.782" r="25.782" className="cls-6"/>
                <circle cx="25.782" cy="25.782" r="25.282" className="cls-8"/>
            </g>
            <g id="Ellipse_5-63" className="cls-4" data-name="Ellipse 5" transform="translate(356.345 1553.604)">
                <circle cx="25.782" cy="25.782" r="25.782" className="cls-6"/>
                <circle cx="25.782" cy="25.782" r="25.282" className="cls-8"/>
            </g>
            <g id="Ellipse_5-64" className="cls-4" data-name="Ellipse 5" transform="translate(412.431 1553.604)">
                <circle cx="25.782" cy="25.782" r="25.782" className="cls-6"/>
                <circle cx="25.782" cy="25.782" r="25.282" className="cls-8"/>
            </g>
            <g id="Ellipse_5-65" className="cls-4" data-name="Ellipse 5" transform="translate(468.517 1553.604)">
                <circle cx="25.782" cy="25.782" r="25.782" className="cls-6"/>
                <circle cx="25.782" cy="25.782" r="25.282" className="cls-8"/>
            </g>
            <g id="Ellipse_5-66" className="cls-4" data-name="Ellipse 5" transform="translate(524.604 1553.604)">
                <circle cx="25.782" cy="25.782" r="25.782" className="cls-6"/>
                <circle cx="25.782" cy="25.782" r="25.282" className="cls-8"/>
            </g>
            <g id="Ellipse_5-67" className="cls-4" data-name="Ellipse 5" transform="translate(580.69 1553.604)">
                <circle cx="25.782" cy="25.782" r="25.782" className="cls-6"/>
                <circle cx="25.782" cy="25.782" r="25.282" className="cls-8"/>
            </g>
            <g id="Ellipse_5-68" className="cls-4" data-name="Ellipse 5" transform="translate(132 1609.69)">
                <circle cx="25.782" cy="25.782" r="25.782" className="cls-6"/>
                <circle cx="25.782" cy="25.782" r="25.282" className="cls-8"/>
            </g>
            <g id="Ellipse_5-69" className="cls-4" data-name="Ellipse 5" transform="translate(244.172 1609.69)">
                <circle cx="25.782" cy="25.782" r="25.782" className="cls-6"/>
                <circle cx="25.782" cy="25.782" r="25.282" className="cls-8"/>
            </g>
            <g id="Ellipse_5-70" className="cls-4" data-name="Ellipse 5" transform="translate(356.345 1609.69)">
                <circle cx="25.782" cy="25.782" r="25.782" className="cls-6"/>
                <circle cx="25.782" cy="25.782" r="25.282" className="cls-8"/>
            </g>
            <g id="Ellipse_5-71" className="cls-4" data-name="Ellipse 5" transform="translate(412.431 1609.69)">
                <circle cx="25.782" cy="25.782" r="25.782" className="cls-6"/>
                <circle cx="25.782" cy="25.782" r="25.282" className="cls-8"/>
            </g>
            <g id="Ellipse_5-72" className="cls-4" data-name="Ellipse 5" transform="translate(524.604 1609.69)">
                <circle cx="25.782" cy="25.782" r="25.782" className="cls-6"/>
                <circle cx="25.782" cy="25.782" r="25.282" className="cls-8"/>
            </g>
        </g>
        <path id="Path_8210" d="M5.574 0A5.574 5.574 0 1 1 0 5.574 5.574 5.574 0 0 1 5.574 0z" className="cls-5" data-name="Path 8210" transform="translate(601.3 1630.3)"/>
    </g>
</svg>
