<svg xmlns="http://www.w3.org/2000/svg" xmlns:xlink="http://www.w3.org/1999/xlink" width="85.522" height="84.844" viewBox="0 0 85.522 84.844">
  <defs>
    <clipPath id="clip-path">
      <path id="Path_2031" data-name="Path 2031" d="M0,17.062H85.522V-67.782H0Z" transform="translate(0 67.782)" fill="#4e4e4e"/>
    </clipPath>
  </defs>
  <g id="Group_1992" data-name="Group 1992" transform="translate(0 67.782)">
    <g id="Group_1925" data-name="Group 1925" transform="translate(0 -67.782)" clip-path="url(#clip-path)">
      <g id="Group_1885" data-name="Group 1885" transform="translate(0 0)">
        <path id="Path_1991" data-name="Path 1991" d="M0,0H16.142c0,5.336.009,10.672-.005,16.009-5.38.014-10.757,0-16.137.005ZM2.358,2.358c-.013,3.815-.006,7.629,0,11.444,3.845.013,7.692.006,11.537,0,.013-3.815.006-7.63,0-11.444-3.845-.014-7.691-.006-11.536,0" fill="#4e4e4e"/>
      </g>
      <g id="Group_1886" data-name="Group 1886" transform="translate(18.49 0)">
        <path id="Path_1992" data-name="Path 1992" d="M0,0H2.353V2.333c-.782,0-1.565.01-2.347,0C-.013,1.552,0,.776,0,0" transform="translate(0.003)" fill="#4e4e4e"/>
      </g>
      <g id="Group_1887" data-name="Group 1887" transform="translate(25.443 0)">
        <path id="Path_1993" data-name="Path 1993" d="M0,0H4.6c0,.775.01,1.551,0,2.327-1.531.024-3.062,0-4.593.006Z" fill="#4e4e4e"/>
      </g>
      <g id="Group_1888" data-name="Group 1888" transform="translate(32.388 0)">
        <path id="Path_1994" data-name="Path 1994" d="M0,0H2.246V2.333c-.747,0-1.495.01-2.241,0C-.013,1.552,0,.776,0,0" transform="translate(0.003)" fill="#4e4e4e"/>
      </g>
      <g id="Group_1889" data-name="Group 1889" transform="translate(36.988 0)">
        <path id="Path_1995" data-name="Path 1995" d="M0,0H2.352c0,.776.013,1.552-.005,2.329-.782.014-1.566,0-2.347,0Q0,1.167,0,0" transform="translate(0.001)" fill="#4e4e4e"/>
      </g>
      <g id="Group_1890" data-name="Group 1890" transform="translate(53.127 0)">
        <path id="Path_1996" data-name="Path 1996" d="M0,0H4.7c0,.774.01,1.55-.005,2.323-1.565.03-3.129.006-4.694.006C-.013,1.552,0,.776,0,0" transform="translate(0.003)" fill="#4e4e4e"/>
      </g>
      <g id="Group_1891" data-name="Group 1891" transform="translate(62.431 0)">
        <path id="Path_1997" data-name="Path 1997" d="M0,0H4.6c-.011,2.3.02,4.594-.009,6.888-.781.016-1.562,0-2.342.005-.01-1.518.015-3.037-.008-4.556-.746-.014-1.493,0-2.238,0Q0,1.167,0,0" transform="translate(0.001)" fill="#4e4e4e"/>
      </g>
      <g id="Group_1892" data-name="Group 1892" transform="translate(69.379 0)">
        <path id="Path_1998" data-name="Path 1998" d="M0,0H16.142V16.014c-5.379,0-10.757.009-16.137-.005C-.008,10.672,0,5.336,0,0M2.252,2.358c-.014,3.815-.006,7.629,0,11.444,3.845.013,7.691.006,11.536,0,.013-3.815.006-7.63,0-11.444-3.845-.014-7.692-.006-11.536,0" transform="translate(0.001)" fill="#4e4e4e"/>
      </g>
      <g id="Group_1893" data-name="Group 1893" transform="translate(20.843 2.333)">
        <path id="Path_1999" data-name="Path 1999" d="M0,0H4.6c-.006,1.517.011,3.035,0,4.552-.78.028-1.562.011-2.341,0-.029-.774.01-1.548-.011-2.322C1.5,2.213.751,2.239.006,2.222-.011,1.482,0,.74,0,0" transform="translate(0.003)" fill="#4e4e4e"/>
      </g>
      <g id="Group_1894" data-name="Group 1894" transform="translate(34.636 2.333)">
        <path id="Path_2000" data-name="Path 2000" d="M0,0H2.352c0,.742,0,1.485,0,2.227H0C0,1.485,0,.742,0,0" transform="translate(0)" fill="#4e4e4e"/>
      </g>
      <g id="Group_1895" data-name="Group 1895" transform="translate(41.582 2.351)">
        <path id="Path_2001" data-name="Path 2001" d="M0,0C1.529-.021,3.06,0,4.588,0c.018.737.013,1.477,0,2.216-1.53.024-3.062,0-4.591.008C0,1.482-.015.742,0,0" transform="translate(0.007 0.01)" fill="#4e4e4e"/>
      </g>
      <g id="Group_1896" data-name="Group 1896" transform="translate(48.531 2.348)">
        <path id="Path_2002" data-name="Path 2002" d="M0,0c.78-.026,1.558-.01,2.339,0,.024,1.516.006,3.034,0,4.55-.784.019-1.566,0-2.347.005C0,3.038-.015,1.52,0,0" transform="translate(0.006 0.012)" fill="#4e4e4e"/>
      </g>
      <g id="Group_1897" data-name="Group 1897" transform="translate(53.123 2.351)">
        <path id="Path_2003" data-name="Path 2003" d="M1.4,0C2.181-.016,2.964,0,3.747,0v4.56c-3.1,0-6.2.009-9.293,0-.028-.775-.011-1.55,0-2.324,2.313-.021,4.625.01,6.937-.009C1.409,1.48,1.382.741,1.4,0" transform="translate(5.561 0.007)" fill="#4e4e4e"/>
      </g>
      <g id="Group_1898" data-name="Group 1898" transform="translate(4.595 4.58)">
        <path id="Path_2004" data-name="Path 2004" d="M0,0Q3.473-.008,6.943,0q.009,3.443,0,6.887Q3.471,6.9,0,6.888-.008,3.444,0,0" transform="translate(0.004 0.004)" fill="#4e4e4e"/>
      </g>
      <g id="Group_1899" data-name="Group 1899" transform="translate(27.685 4.553)">
        <path id="Path_2005" data-name="Path 2005" d="M0,0c.78-.026,1.561-.01,2.341,0,.028.774-.011,1.547.011,2.321.779.026,1.561.011,2.341,0C4.722,1.55,4.683.775,4.707,0,5.453-.015,6.2,0,6.946,0v4.56H0C0,3.038-.015,1.52,0,0" transform="translate(0.006 0.012)" fill="#4e4e4e"/>
      </g>
      <g id="Group_1900" data-name="Group 1900" transform="translate(36.989 4.56)">
        <path id="Path_2006" data-name="Path 2006" d="M0,0H4.6c0,.776.01,1.552,0,2.328-.746.019-1.491-.008-2.236.009-.019.74.006,1.48-.01,2.218-.782.019-1.565,0-2.347.005Z" fill="#4e4e4e"/>
      </g>
      <g id="Group_1901" data-name="Group 1901" transform="translate(73.976 4.58)">
        <path id="Path_2007" data-name="Path 2007" d="M0,0q3.47-.009,6.942,0,.009,3.443,0,6.887Q3.471,6.9,0,6.888-.008,3.444,0,0" transform="translate(0.004 0.004)" fill="#4e4e4e"/>
      </g>
      <g id="Group_1902" data-name="Group 1902" transform="translate(43.931 6.912)">
        <path id="Path_2008" data-name="Path 2008" d="M0,0c1.53-.024,3.06,0,4.591-.006,0,.742,0,1.485,0,2.227-1.531-.006-3.062.011-4.591,0C-.015,1.479-.011.742,0,0" transform="translate(0.009 0.008)" fill="#4e4e4e"/>
      </g>
      <g id="Group_1903" data-name="Group 1903" transform="translate(60.076 6.893)">
        <path id="Path_2009" data-name="Path 2009" d="M.474,0H2.719c0,.74-.011,1.481,0,2.221.78.028,1.56-.011,2.341.011.025.772.009,1.546,0,2.319-2.314.029-4.629,0-6.943.009,0-.775-.011-1.551.005-2.327.779-.028,1.56.013,2.342-.011C.484,1.482.471.74.474,0" transform="translate(1.882)" fill="#4e4e4e"/>
      </g>
      <g id="Group_1904" data-name="Group 1904" transform="translate(20.839 9.136)">
        <path id="Path_2010" data-name="Path 2010" d="M0,0C.747-.015,1.493-.01,2.238,0c.018.776,0,1.553.005,2.329-.746,0-1.492.009-2.237-.005C-.021,1.552-.005.777,0,0" transform="translate(0.009 0.009)" fill="#4e4e4e"/>
      </g>
      <g id="Group_1905" data-name="Group 1905" transform="translate(25.44 9.117)">
        <path id="Path_2011" data-name="Path 2011" d="M0,0C.748-.015,1.494,0,2.241,0V2.33H0C0,1.554-.015.778,0,0" transform="translate(0.007 0.007)" fill="#4e4e4e"/>
      </g>
      <g id="Group_1906" data-name="Group 1906" transform="translate(34.637 9.12)">
        <path id="Path_2012" data-name="Path 2012" d="M0,0H2.352c0,.775-.011,1.551,0,2.327.78.028,1.558-.011,2.339.01.025,1.516.006,3.034,0,4.549-.781.028-1.562.01-2.342,0-.019-.74.006-1.478-.01-2.218C1.565,4.654.781,4.669,0,4.666Z" fill="#4e4e4e"/>
      </g>
      <g id="Group_1907" data-name="Group 1907" transform="translate(43.938 9.139)">
        <path id="Path_2013" data-name="Path 2013" d="M.924,0c.781,0,1.563-.01,2.346,0,.026.775-.013,1.55.011,2.324.746.015,1.492,0,2.239.005-.005,2.3.009,4.593,0,6.888-.745.018-1.49.013-2.232,0C3.249,7.706,3.3,6.19,3.271,4.675c-.78-.026-1.56-.011-2.337,0-.03,2.3,0,4.593-.01,6.888-.782,0-1.565-.01-2.347.005-.019.737.006,1.477-.01,2.217-.747.015-1.493.005-2.239.006V9.227c.746,0,1.492.01,2.239-.005.021-2.294-.01-4.588.01-6.882.78-.028,1.56.011,2.342-.01C.937,1.553.921.777.924,0" transform="translate(3.672 0.003)" fill="#4e4e4e"/>
      </g>
      <g id="Group_1908" data-name="Group 1908" transform="translate(53.128 9.135)">
        <path id="Path_2014" data-name="Path 2014" d="M0,0c.78-.026,1.56-.01,2.341,0,.025.774.009,1.548,0,2.323-.784.018-1.566,0-2.347.005C0,1.554-.013.778,0,0" transform="translate(0.006 0.012)" fill="#4e4e4e"/>
      </g>
      <g id="Group_1909" data-name="Group 1909" transform="translate(20.847 11.454)">
        <path id="Path_2015" data-name="Path 2015" d="M.451,0H2.8c.009,1.518-.018,3.038.006,4.556.746.014,1.492,0,2.238,0V9.226H-1.793V6.893c.745,0,1.49.01,2.234-.005C.47,4.594.44,2.3.451,0" transform="translate(1.793)" fill="#4e4e4e"/>
      </g>
      <g id="Group_1910" data-name="Group 1910" transform="translate(27.688 11.473)">
        <path id="Path_2016" data-name="Path 2016" d="M0,0C1.566.005,3.132-.01,4.7,0c.018.777,0,1.553.005,2.329-.782,0-1.566-.01-2.347,0-.019.74.006,1.48-.01,2.218-.782.018-1.565,0-2.347.005Z" transform="translate(0 0.002)" fill="#4e4e4e"/>
      </g>
      <g id="Group_1911" data-name="Group 1911" transform="translate(41.584 11.447)">
        <path id="Path_2017" data-name="Path 2017" d="M0,0C.78-.023,1.56-.007,2.339,0c.03,2.3,0,4.593.01,6.888H0C0,4.594-.013,2.3,0,0" transform="translate(0.005 0.012)" fill="#4e4e4e"/>
      </g>
      <g id="Group_1912" data-name="Group 1912" transform="translate(57.831 11.45)">
        <path id="Path_2018" data-name="Path 2018" d="M0,0C.748-.015,1.494,0,2.241,0q0,1.166,0,2.333H0C0,1.554-.016.778,0,0" transform="translate(0.007 0.007)" fill="#4e4e4e"/>
      </g>
      <g id="Group_1913" data-name="Group 1913" transform="translate(18.49 13.802)">
        <path id="Path_2019" data-name="Path 2019" d="M0,0c.78-.026,1.561-.01,2.341,0,.023,1.518,0,3.037.006,4.555-.781,0-1.562.01-2.343-.005C-.018,3.035,0,1.519,0,0" transform="translate(0.007 0.012)" fill="#4e4e4e"/>
      </g>
      <g id="Group_1914" data-name="Group 1914" transform="translate(32.388 13.787)">
        <path id="Path_2020" data-name="Path 2020" d="M0,0H2.246c0,.74.009,1.481-.005,2.222-.745.018-1.49.013-2.236,0C-.011,1.481,0,.74,0,0" transform="translate(0.003)" fill="#4e4e4e"/>
      </g>
      <g id="Group_1915" data-name="Group 1915" transform="translate(11.541 13.792)">
        <path id="Path_2021" data-name="Path 2021" d="M8.837,0C9.618-.013,10.4,0,11.184,0c0,.74-.011,1.481.006,2.222.746.015,1.492,0,2.239.005,0,.776-.014,1.553.005,2.329.782.014,1.563,0,2.347,0,.009,1.518-.018,3.038.006,4.555.744.013,1.49.018,2.234,0,.015-1.518,0-3.037,0-4.555.781,0,1.561-.01,2.344.005.035,1.516-.016,3.033.013,4.549.779.026,1.56-.011,2.341.011.023,1.518,0,3.037.006,4.556-1.566.005-3.132-.011-4.7,0-.03.775.009,1.55-.011,2.323-.745.019-1.491-.006-2.234.01-.029.774.011,1.546-.011,2.321-1.527.035-3.057-.016-4.584.014-.024,1.515-.008,3.032,0,4.549,1.531.023,3.062,0,4.593.006,0,.776-.014,1.552.005,2.329.745.014,1.492,0,2.239,0,.01,2.261-.016,4.522.009,6.782q3.468.013,6.936,0c.016-1.518,0-3.037.005-4.555.78,0,1.562-.01,2.346.005.026.774-.014,1.548.01,2.323.781.018,1.565,0,2.348.005,0,.74-.013,1.481.005,2.221.744.015,1.49.019,2.236,0,.01-.74.015-1.48,0-2.217-.747-.015-1.495-.005-2.239-.005q0-2.281,0-4.56c.746,0,1.5,0,2.244,0,0,.74-.011,1.481.005,2.222,2.314.015,4.629,0,6.943.005v4.539c-.782,0-1.566-.014-2.347.005-.016.776,0,1.552,0,2.328-.747,0-1.495-.01-2.241.005-.005,1.517-.021,3.033,0,4.55.742.013,1.487.018,2.232,0,.015-1.518,0-3.037.005-4.555q1.173,0,2.351,0V45.794q-1.177,0-2.351,0c-.01-1.52.015-3.038-.008-4.555-.746-.014-1.491-.019-2.233,0-.024.772.015,1.548-.011,2.323-.781.021-1.562-.018-2.341.01,0,1.516-.021,3.034,0,4.549.78.015,1.561,0,2.343.006-.01,1.517.016,3.035-.006,4.555-.781.008-1.563.023-2.341,0-.024-.774.015-1.548-.011-2.321-.746-.014-1.491-.019-2.234,0-.006,3.073-.011,6.145,0,9.218.745.013,1.491,0,2.238,0,0,.776.011,1.552-.005,2.329-.746.015-1.492-.011-2.236.01-.018.737.009,1.477-.01,2.217-.781.02-1.562-.018-2.342.011-.014,2.294,0,4.59,0,6.887H24.976c-.005-.777.011-1.553-.005-2.329-1.531-.015-3.062,0-4.593,0,0-.745,0-1.485,0-2.227.782-.005,1.565.011,2.348-.006.013-.777,0-1.552,0-2.327.746,0,1.492.009,2.239-.006.013-.74.018-1.48,0-2.217-.747-.013-1.492-.019-2.236,0-.015.739-.005,1.48-.005,2.222-.784,0-1.566-.014-2.347.005-.015.774-.005,1.551-.005,2.328-1.531.008-3.063-.018-4.593.006-.018.737.009,1.476-.009,2.216-.782.006-1.563.023-2.343,0-.013-3.038,0-6.076,0-9.114.781,0,1.563.013,2.347-.005.015-.777,0-1.552.005-2.328.745,0,1.491.01,2.238-.005.014-.74.019-1.48,0-2.218-.747-.015-1.495,0-2.239,0V45.794c.745,0,1.492-.013,2.239.005.023.774-.018,1.548.013,2.323,1.562,0,3.128.024,4.693-.005.021-.774-.019-1.547.01-2.318.745-.014,1.488-.019,2.234,0,.028,1.516-.023,3.033.014,4.55.777.008,1.558.023,2.338,0,.016-.739-.01-1.478.01-2.216.78-.023,1.561.016,2.342-.01,0-1.517.02-3.034,0-4.549-2.312-.021-4.624.01-6.935-.011-.018-.777-.006-1.552-.006-2.328,3.063-.005,6.125.01,9.188-.005.009-.775.025-1.551,0-2.323-.745-.018-1.49.008-2.233-.01-.013-.739-.018-1.48,0-2.218.744-.016,1.49.009,2.236-.009.005-.776.023-1.55,0-2.324q-3.468-.011-6.936,0c-.018.776-.005,1.552-.005,2.328-.751,0-1.5,0-2.246,0,0-.777.013-1.553-.005-2.329q-3.468-.011-6.937,0c-.011.774-.026,1.548,0,2.324,2.313.013,4.626,0,6.941,0q0,2.279,0,4.56c-2.314.013-4.63-.02-6.943.01-.016,1.517,0,3.033-.005,4.551-.784-.005-1.566.011-2.348-.006-.016-.74.009-1.48-.009-2.217-1.531-.016-3.062,0-4.591-.005,0-.777.011-1.553-.006-2.328-.782-.015-1.565-.005-2.346-.005,0-.777-.014-1.553.005-2.328,1.565-.015,3.132,0,4.7-.005,0,.776-.014,1.552.006,2.329.744.01,1.488.016,2.236,0,.006-.775.021-1.551,0-2.323-.746-.015-1.492-.005-2.238-.005.009-1.518-.016-3.038.008-4.556.744-.016,1.488.009,2.234-.009.014-.776,0-1.553,0-2.328.781,0,1.563.013,2.347-.005.011-.74.016-1.48,0-2.218-.784-.015-1.566,0-2.347,0,0-.776.011-1.555-.005-2.329-.746-.013-1.492-.016-2.236,0-.009.774-.025,1.548,0,2.323.745.014,1.491,0,2.238.005,0,.741,0,1.485,0,2.227-1.531.01-3.063-.018-4.593.006-.023.774.016,1.547-.011,2.322-.781.008-1.561.023-2.341,0-.023-.774.016-1.548-.01-2.322-.747-.014-1.495,0-2.239,0-.01-1.518.016-3.038-.006-4.556-.781-.023-1.562.016-2.341-.01-.018-.74.008-1.478-.01-2.217-.781-.008-1.563-.024-2.342,0-.018.737.009,1.477-.01,2.216-.745.016-1.491-.009-2.236.01-.023.774.016,1.548-.01,2.323-.781.006-1.562.023-2.342,0,0-1.516-.02-3.033.005-4.549.777-.023,1.558.016,2.337-.011.008-.774.024-1.548,0-2.322-.781-.023-1.561.016-2.341-.011-.023-.774.016-1.548-.01-2.321-.746-.014-1.491-.019-2.234,0-.023.774.016,1.548-.011,2.323-.782.014-1.563,0-2.346,0-.009-1.518.016-3.037-.006-4.555-1.528,0-3.058-.021-4.585,0-.016.739-.005,1.478-.005,2.218-1.566.013-3.133-.021-4.7.009-.015.775,0,1.55-.005,2.324-3.063.006-6.126-.009-9.188.006-.009.774-.025,1.55,0,2.323.78.021,1.56-.018,2.341.011.014.74,0,1.48,0,2.221-.782,0-1.565-.014-2.347.005-.015.775,0,1.552-.005,2.328h-4.6V27.446c.746,0,1.492.009,2.238-.005.014-.741.019-1.48,0-2.218-.745-.013-1.491-.018-2.236,0-.015.74,0,1.481,0,2.222-.781,0-1.563.009-2.343-.005-.025-1.515-.008-3.032,0-4.547,1.528-.036,3.058.015,4.586-.013.019-.777,0-1.553.005-2.329.782,0,1.565.01,2.347,0,.019-.74-.008-1.477.01-2.214,1.527-.036,3.057.015,4.586-.013.026-.776-.013-1.551.01-2.324.781-.019,1.565,0,2.348-.005,0,.776-.015,1.553.005,2.329,1.528,0,3.058.02,4.586-.005.015-.775,0-1.55.005-2.324.781,0,1.563.01,2.346,0,.026-.775-.013-1.55.011-2.324.746-.015,1.492-.005,2.241-.005,0,.776-.015,1.552.005,2.329.779.006,1.561.023,2.341,0,.008-.774.024-1.548,0-2.322-.781-.014-1.562,0-2.343,0-.008-1.518.01-3.037-.005-4.555-.745-.019-1.49.006-2.232-.01-.025-1.515-.008-3.032,0-4.547,1.528-.024,3.057-.008,4.585,0,.028.774-.011,1.55.011,2.323.781.019,1.563,0,2.347.006,0,.741,0,1.485,0,2.227-.782,0-1.565-.014-2.347.005-.008.775-.024,1.548,0,2.323.781.014,1.562,0,2.344.005,0,.74-.01,1.482.005,2.222.744.018,1.488-.008,2.233.009.025.775.01,1.55,0,2.324-.745.018-1.49-.008-2.233.01-.026.772-.011,1.547,0,2.319,1.526.025,3.054.008,4.581,0,.04-1.552-.016-3.1.014-4.656.745-.018,1.49-.014,2.234,0,.028.774-.011,1.548.011,2.323.781.018,1.563,0,2.347.005.013,2.3-.02,4.594.01,6.889.779.021,1.558-.016,2.338.01.021.774-.018,1.55.01,2.323.745.016,1.49-.01,2.234.01.028,1.515-.024,3.033.014,4.55.777.006,1.558.023,2.338,0q.011-3.442,0-6.881c-.781-.024-1.562.015-2.342-.013-.023-.774.016-1.55-.01-2.322-.746-.018-1.491.009-2.234-.01-.029-1.516.021-3.034-.014-4.55-.781-.015-1.562,0-2.343-.005.005-1.517-.011-3.037.005-4.552.78-.026,1.561-.011,2.342,0,.018.739-.008,1.478.01,2.217,1.53.023,3.062,0,4.593.006q0,1.166,0,2.333c-.785,0-1.567-.014-2.348.005-.008.774-.025,1.548,0,2.323.777.008,1.56.024,2.339,0,.014-.775,0-1.551.005-2.326.781,0,1.563.013,2.347-.005.014-.776,0-1.553,0-2.328,1.531-.009,3.062.016,4.593-.006.011-.739.016-1.478,0-2.217-1.53,0-3.059-.02-4.586.005-.016.739-.006,1.478-.006,2.218H8.834c0-.74.009-1.481-.005-2.221-.78-.028-1.561.01-2.338-.011-.025-1.516-.008-3.034-.005-4.55.781-.02,1.563,0,2.348-.005,0,.74-.011,1.48.005,2.221.779.009,1.561.025,2.341,0,.013-.739.018-1.477,0-2.216-.784-.015-1.565,0-2.346,0,0-2.3-.009-4.593,0-6.889m11.545,52.73q-.009,3.443,0,6.887,3.47.009,6.942,0,.008-3.443,0-6.887-3.472-.009-6.942,0" transform="translate(35.109 0.018)" fill="#4e4e4e"/>
      </g>
      <g id="Group_1916" data-name="Group 1916" transform="translate(60.079 13.784)">
        <path id="Path_2022" data-name="Path 2022" d="M0,0c.781,0,1.563-.01,2.347.005.015.741,0,1.482.005,2.222H0C0,1.485,0,.743,0,0" transform="translate(0 0.002)" fill="#4e4e4e"/>
      </g>
      <g id="Group_1917" data-name="Group 1917" transform="translate(64.673 13.802)">
        <path id="Path_2023" data-name="Path 2023" d="M0,0c.78-.026,1.561-.01,2.342,0,.016.74.013,1.48,0,2.218-.784.019-1.566,0-2.347.005C0,1.482-.013.743,0,0" transform="translate(0.006 0.012)" fill="#4e4e4e"/>
      </g>
      <g id="Group_1918" data-name="Group 1918" transform="translate(62.431 16.014)">
        <path id="Path_2024" data-name="Path 2024" d="M0,0H2.246q0,1.166,0,2.333c-.751,0-1.5,0-2.246,0Q0,1.165,0,0" transform="translate(0.001)" fill="#4e4e4e"/>
      </g>
      <g id="Group_1919" data-name="Group 1919" transform="translate(0 18.345)">
        <path id="Path_2025" data-name="Path 2025" d="M0,0C1.53.006,3.059-.011,4.589,0c.028.775.011,1.55,0,2.324-.745.018-1.491-.008-2.236.01-.016.741,0,1.481-.005,2.222H0Z" transform="translate(0 0.002)" fill="#4e4e4e"/>
      </g>
      <g id="Group_1920" data-name="Group 1920" transform="translate(6.944 18.367)">
        <path id="Path_2026" data-name="Path 2026" d="M0,0C1.53,0,3.06-.013,4.591,0c0,.774.016,1.548,0,2.323-1.528,0-3.059.014-4.589,0C0,1.551-.017.776,0,0" transform="translate(0.008 0.005)" fill="#4e4e4e"/>
      </g>
      <g id="Group_1921" data-name="Group 1921" transform="translate(13.89 18.363)">
        <path id="Path_2027" data-name="Path 2027" d="M0,0C.747-.015,1.493-.01,2.238,0c.018.776,0,1.553.005,2.329-.746,0-1.492.009-2.237-.005C-.021,1.552-.005.777,0,0" transform="translate(0.009 0.009)" fill="#4e4e4e"/>
      </g>
      <g id="Group_1922" data-name="Group 1922" transform="translate(39.337 18.366)">
        <path id="Path_2028" data-name="Path 2028" d="M0,0C.748-.015,1.494,0,2.241,0c0,.776.013,1.552-.005,2.328-.747.014-1.493,0-2.239.005C0,1.554-.015.777,0,0" transform="translate(0.007 0.007)" fill="#4e4e4e"/>
      </g>
      <g id="Group_1923" data-name="Group 1923" transform="translate(69.375 18.365)">
        <path id="Path_2029" data-name="Path 2029" d="M0,0C.746-.006,1.493-.01,2.239,0c0,.775.016,1.552,0,2.327-.746.006-1.492.01-2.237,0C0,1.552-.018.776,0,0" transform="translate(0.008 0.006)" fill="#4e4e4e"/>
      </g>
      <g id="Group_1924" data-name="Group 1924" transform="translate(83.166 18.365)">
        <path id="Path_2030" data-name="Path 2030" d="M0,0C.783-.017,1.567,0,2.349,0v4.56c-.782,0-1.563.01-2.343-.005C-.019,3.036,0,1.519,0,0" transform="translate(0.008 0.008)" fill="#4e4e4e"/>
      </g>
    </g>
    <path id="Path_2032" data-name="Path 2032" d="M12.9-51.26h4.7v2.227H12.9Z" transform="translate(3.246 4.159)" fill="#4e4e4e"/>
    <g id="Group_1966" data-name="Group 1966" transform="translate(0 -67.782)" clip-path="url(#clip-path)">
      <g id="Group_1926" data-name="Group 1926" transform="translate(27.688 20.699)">
        <path id="Path_2033" data-name="Path 2033" d="M0,0c.781,0,1.565-.01,2.347,0,.016.74.013,1.478,0,2.218-.782.018-1.565,0-2.347.005C0,1.485,0,.743,0,0" transform="translate(0 0.003)" fill="#4e4e4e"/>
      </g>
      <g id="Group_1927" data-name="Group 1927" transform="translate(48.531 20.699)">
        <path id="Path_2034" data-name="Path 2034" d="M0,0c.781,0,1.565-.01,2.347,0,.016.739.013,1.478,0,2.216-.781.026-1.562.011-2.342,0C-.011,1.481,0,.74,0,0" transform="translate(0.003 0.003)" fill="#4e4e4e"/>
      </g>
      <g id="Group_1928" data-name="Group 1928" transform="translate(73.97 20.696)">
        <path id="Path_2035" data-name="Path 2035" d="M0,0c.779-.026,1.56-.01,2.341,0,.015.74,0,1.48.006,2.221-.784,0-1.566.01-2.347,0C-.016,1.479-.011.741,0,0" transform="translate(0.01 0.011)" fill="#4e4e4e"/>
      </g>
      <g id="Group_1929" data-name="Group 1929" transform="translate(0 22.923)">
        <path id="Path_2036" data-name="Path 2036" d="M.473,0c.745,0,1.491-.01,2.237.005.036,1.515-.015,3.033.013,4.547.78.028,1.56.01,2.339,0,.035-1.517-.015-3.033.013-4.55.745-.018,1.49-.014,2.236,0q.015,3.442,0,6.882c-.746.019-1.49-.008-2.236.01-.021,3.07.009,6.142-.011,9.214-1.527.035-3.057-.015-4.586.013-.019.739.006,1.478-.009,2.218-.784.018-1.566,0-2.348.005V11.456c.781,0,1.563-.011,2.346,0,.028.775-.011,1.548.01,2.323.745.018,1.491.014,2.236,0q.017-3.442,0-6.882c-.744-.02-1.488.006-2.231-.01C.453,4.6.484,2.3.473,0" transform="translate(1.879 0.005)" fill="#4e4e4e"/>
      </g>
      <g id="Group_1930" data-name="Group 1930" transform="translate(13.895 22.926)">
        <path id="Path_2037" data-name="Path 2037" d="M0,0C.748-.015,1.494,0,2.241,0c0,.775.011,1.551-.005,2.328-.747.014-1.493,0-2.239.005C0,1.554-.015.778,0,0" transform="translate(0.007 0.007)" fill="#4e4e4e"/>
      </g>
      <g id="Group_1931" data-name="Group 1931" transform="translate(20.843 22.926)">
        <path id="Path_2038" data-name="Path 2038" d="M0,0c.745,0,1.491-.01,2.237.005.024,1.516.006,3.033,0,4.55-.745.018-1.491.013-2.234,0C-.017,3.039.011,1.519,0,0" transform="translate(0.003 0.003)" fill="#4e4e4e"/>
      </g>
      <g id="Group_1932" data-name="Group 1932" transform="translate(25.441 22.904)">
        <path id="Path_2039" data-name="Path 2039" d="M0,0C.748-.015,1.494,0,2.241,0c0,.775-.01,1.55.005,2.327.779.026,1.561-.013,2.341.01.023,1.518,0,3.038.006,4.556H0C0,4.594-.015,2.3,0,0" transform="translate(0.006 0.007)" fill="#4e4e4e"/>
      </g>
      <g id="Group_1933" data-name="Group 1933" transform="translate(39.34 22.908)">
        <path id="Path_2040" data-name="Path 2040" d="M0,0H4.6c0,.775.01,1.551,0,2.327-1.531.023-3.062,0-4.593.006Q0,1.165,0,0" transform="translate(0.001)" fill="#4e4e4e"/>
      </g>
      <g id="Group_1934" data-name="Group 1934" transform="translate(76.328 22.905)">
        <path id="Path_2041" data-name="Path 2041" d="M0,0c1.53.005,3.06-.01,4.591,0,.018.777,0,1.553.005,2.329H0Q0,1.166,0,0" transform="translate(0.001 0.002)" fill="#4e4e4e"/>
      </g>
      <g id="Group_1935" data-name="Group 1935" transform="translate(11.541 25.259)">
        <path id="Path_2042" data-name="Path 2042" d="M0,0C.784-.017,1.566,0,2.349,0c0,.74-.01,1.481.005,2.222.744.018,1.49-.008,2.233.01.026.772.011,1.547,0,2.319-1.527.025-3.055.008-4.584,0C-.018,3.036,0,1.519,0,0" transform="translate(0.007 0.008)" fill="#4e4e4e"/>
      </g>
      <g id="Group_1936" data-name="Group 1936" transform="translate(73.973 25.259)">
        <path id="Path_2043" data-name="Path 2043" d="M0,0C.783-.017,1.566,0,2.349,0c0,.74-.011,1.481.006,2.222,1.53.016,3.06,0,4.591.005,0,.775-.011,1.552,0,2.328.745.018,1.49-.008,2.236.01.018.775,0,1.551.005,2.328-1.531-.006-3.06.011-4.59,0-.029-.775.01-1.547-.01-2.321-1.528-.036-3.058.015-4.585-.014C-.018,3.036,0,1.519,0,0" transform="translate(0.007 0.008)" fill="#4e4e4e"/>
      </g>
      <g id="Group_1937" data-name="Group 1937" transform="translate(80.925 25.259)">
        <path id="Path_2044" data-name="Path 2044" d="M0,0C.745,0,1.491-.009,2.24,0c.016.739.013,1.478,0,2.218-.747.015-1.493,0-2.238.005C0,1.485,0,.742,0,0" transform="translate(0.001 0.003)" fill="#4e4e4e"/>
      </g>
      <g id="Group_1938" data-name="Group 1938" transform="translate(69.376 27.486)">
        <path id="Path_2045" data-name="Path 2045" d="M0,0c.745,0,1.491-.01,2.238,0,.025.775.009,1.548,0,2.324-.746.016-1.491.013-2.236,0C-.013,1.553,0,.777,0,0" transform="translate(0.003 0.003)" fill="#4e4e4e"/>
      </g>
      <g id="Group_1939" data-name="Group 1939" transform="translate(9.19 32.151)">
        <path id="Path_2046" data-name="Path 2046" d="M0,0C.783,0,1.566-.016,2.347,0c.008.739.011,1.478,0,2.218-.782,0-1.565.016-2.346,0C-.006,1.48-.01.741,0,0" transform="translate(0.006 0.006)" fill="#4e4e4e"/>
      </g>
      <g id="Group_1940" data-name="Group 1940" transform="translate(13.891 32.15)">
        <path id="Path_2047" data-name="Path 2047" d="M0,0C.747-.015,1.493-.011,2.238,0c.015.739,0,1.48.005,2.221-.747,0-1.493.01-2.239,0C-.015,1.481-.009.741,0,0" transform="translate(0.009 0.009)" fill="#4e4e4e"/>
      </g>
      <g id="Group_1941" data-name="Group 1941" transform="translate(83.17 32.134)">
        <path id="Path_2048" data-name="Path 2048" d="M0,0H2.352V2.227q-1.179,0-2.352,0C0,1.485,0,.741,0,0" transform="translate(0.001)" fill="#4e4e4e"/>
      </g>
      <g id="Group_1942" data-name="Group 1942" transform="translate(32.388 34.38)">
        <path id="Path_2049" data-name="Path 2049" d="M0,0C.747,0,1.493-.009,2.24,0c.019.776,0,1.552.006,2.329-.747,0-1.495.01-2.241,0C-.013,1.553,0,.777,0,0" transform="translate(0.003 0.003)" fill="#4e4e4e"/>
      </g>
      <g id="Group_1943" data-name="Group 1943" transform="translate(62.428 34.379)">
        <path id="Path_2050" data-name="Path 2050" d="M0,0C1.529-.022,3.059,0,4.587,0c.026.772-.013,1.546.011,2.319,1.527.035,3.057-.015,4.586.014.023,1.518,0,3.037.006,4.556-.747,0-1.495-.011-2.241.005-.024.774.015,1.548-.011,2.322-.781.008-1.562.024-2.341,0C4.569,7.7,4.621,6.18,4.584,4.665,3.8,4.65,3.022,4.66,2.241,4.66c0-.777.013-1.553-.005-2.328C1.489,2.317.743,2.327,0,2.327,0,1.552-.016.777,0,0" transform="translate(0.007 0.011)" fill="#4e4e4e"/>
      </g>
      <g id="Group_1944" data-name="Group 1944" transform="translate(73.971 34.379)">
        <path id="Path_2051" data-name="Path 2051" d="M0,0C1.529-.022,3.06,0,4.589,0c.016.775,0,1.551.005,2.328-.749,0-1.495-.01-2.239.005-.018.776-.005,1.552-.005,2.328-.782,0-1.563.01-2.343-.005C-.024,3.1,0,1.554,0,0" transform="translate(0.009 0.011)" fill="#4e4e4e"/>
      </g>
      <g id="Group_1945" data-name="Group 1945" transform="translate(78.573 34.358)">
        <path id="Path_2052" data-name="Path 2052" d="M.474,0C1.219-.015,1.966,0,2.713,0c0,.776-.014,1.552.006,2.328.78.014,1.562,0,2.346.005V4.663H-1.883q0-1.168,0-2.333c.78,0,1.562.009,2.346-.005C.489,1.55.449.777.474,0" transform="translate(1.884 0.007)" fill="#4e4e4e"/>
      </g>
      <g id="Group_1946" data-name="Group 1946" transform="translate(25.441 36.713)">
        <path id="Path_2053" data-name="Path 2053" d="M.452,0C1.233,0,2.015-.009,2.8,0c.026.774-.013,1.548.01,2.323.78.026,1.561-.011,2.343.011.015.741,0,1.481.005,2.222-.782,0-1.566-.014-2.348.006-.008.772-.023,1.548,0,2.323.78.014,1.562,0,2.344,0,0,.74-.011,1.481.005,2.221.745.015,1.491.019,2.236,0,.014-.741,0-1.481,0-2.222q1.175,0,2.352,0c0,.74-.01,1.478.006,2.219,1.526.035,3.054-.016,4.583.014.03,1.552-.005,3.107.009,4.661-.747,0-1.493-.011-2.239.005-.015.739-.019,1.477,0,2.218.747.014,1.493,0,2.241,0v4.666c-.75,0-1.5,0-2.246,0,0-.777.013-1.553-.005-2.329-.781-.023-1.562.016-2.342-.01-.023-.775.016-1.55-.011-2.322-.78-.009-1.562-.025-2.341,0-.023.772.016,1.546-.011,2.321-.745.013-1.49.016-2.234,0-.023-.776.016-1.551-.01-2.324-.782-.015-1.565,0-2.346,0,0-.741-.011-1.482.005-2.222.781-.025,1.561.015,2.342-.011.008-.776.024-1.55,0-2.323-.781-.023-1.561.016-2.341-.01-.023-.775.016-1.55-.01-2.323-.782-.015-1.565,0-2.346,0C.451,8.38.462,7.64.447,6.9c-.747-.016-1.493-.006-2.241-.006.006-1.518-.01-3.037.005-4.555C-1.044,2.32-.3,2.345.447,2.33.464,1.553.448.777.452,0M7.406,11.458c-.02.775-.006,1.55,0,2.324.78.019,1.562.005,2.343,0,.019-.775,0-1.551,0-2.324-.782-.019-1.563-.006-2.343,0" transform="translate(1.795 0.003)" fill="#4e4e4e"/>
      </g>
      <g id="Group_1947" data-name="Group 1947" transform="translate(34.637 36.695)">
        <path id="Path_2054" data-name="Path 2054" d="M0,0H2.352c0,.775-.011,1.551,0,2.327.78.026,1.558-.011,2.339.01.025,1.517.006,3.035,0,4.551-.782.019-1.566,0-2.347.005,0-.777.013-1.553-.005-2.328C1.563,4.55.781,4.56,0,4.56Z" fill="#4e4e4e"/>
      </g>
      <g id="Group_1948" data-name="Group 1948" transform="translate(18.494 41.274)">
        <path id="Path_2055" data-name="Path 2055" d="M.473,0c.746,0,1.492-.01,2.238,0,.028.775-.011,1.548.011,2.324.781.018,1.565,0,2.347.005,0,.74-.01,1.481.006,2.222.746.015,1.492,0,2.239.005,0,.776.013,1.553-.005,2.329-.746.016-1.492-.01-2.236.01-.023.772.016,1.548-.011,2.322-.78.008-1.561.024-2.341,0C2.7,8.446,2.739,7.671,2.711,6.9c-.745-.018-1.49.008-2.234-.01-.023-.775.018-1.55-.01-2.323-.782-.015-1.565-.005-2.346-.005V2.334c.782,0,1.563.01,2.347,0C.485,1.553.469.777.473,0" transform="translate(1.879 0.003)" fill="#4e4e4e"/>
      </g>
      <g id="Group_1949" data-name="Group 1949" transform="translate(32.392 41.277)">
        <path id="Path_2056" data-name="Path 2056" d="M0,0C.749,0,1.5,0,2.246,0V2.333c-.75,0-1.5,0-2.246,0Z" transform="translate(0 0)" fill="#4e4e4e"/>
      </g>
      <g id="Group_1950" data-name="Group 1950" transform="translate(0 43.607)">
        <path id="Path_2057" data-name="Path 2057" d="M0,0C.782,0,1.565-.011,2.347.006c.015.741,0,1.481.005,2.222q-1.175,0-2.352,0Z" transform="translate(0 0.003)" fill="#4e4e4e"/>
      </g>
      <g id="Group_1951" data-name="Group 1951" transform="translate(2.35 43.603)">
        <path id="Path_2058" data-name="Path 2058" d="M.453,0c.781-.026,1.562-.01,2.342,0,.02.739-.008,1.478.011,2.218.746.015,1.493.005,2.239.005V4.555c-.746,0-1.492-.01-2.238.006-.01.774-.026,1.548,0,2.323.746.014,1.492,0,2.238,0V11.45c-1.531-.01-3.062.015-4.593-.006C.425,9.927.476,8.409.44,6.894c-.745-.019-1.488.009-2.232-.01-.015-1.553,0-3.107-.005-4.661.746,0,1.493.01,2.239,0C.463,1.479.435.74.453,0" transform="translate(1.798 0.012)" fill="#4e4e4e"/>
      </g>
      <g id="Group_1952" data-name="Group 1952" transform="translate(9.191 43.606)">
        <path id="Path_2059" data-name="Path 2059" d="M0,0c1.565-.03,3.132,0,4.7-.009,0,.741-.011,1.481.005,2.222,1.531.018,3.06,0,4.591.006,0,.775.013,1.551-.005,2.328-1.53.028-3.059-.023-4.586.013-.009.772-.025,1.547,0,2.321,2.311.019,4.623-.011,6.936.01.015.74,0,1.481.005,2.222-.782,0-1.566-.014-2.348.005-.023.774.018,1.548-.01,2.323-.782.014-1.565,0-2.346.005,0-.777.013-1.553-.005-2.329C6.2,9.106,5.449,9.1,4.7,9.12c-.008.774-.024,1.548,0,2.323.745.014,1.491,0,2.237.005v2.333c-1.531.009-3.062-.018-4.593.006-.018.739.01,1.477-.01,2.217-.782.014-1.563,0-2.346,0v-4.56c.782,0,1.565.011,2.347-.005,0-1.517.02-3.034,0-4.55C1.559,6.876.778,6.887,0,6.887V4.554c.782,0,1.565.014,2.347-.005.006-.775.024-1.55,0-2.323-.782-.015-1.563,0-2.344,0C0,1.481-.015.742,0,0" transform="translate(0.007 0.01)" fill="#4e4e4e"/>
      </g>
      <g id="Group_1953" data-name="Group 1953" transform="translate(46.179 43.603)">
        <path id="Path_2060" data-name="Path 2060" d="M0,0c.78-.028,1.561-.011,2.342,0,.015.74.005,1.48.005,2.221H0C0,1.483-.013.743,0,0" transform="translate(0.006 0.012)" fill="#4e4e4e"/>
      </g>
      <g id="Group_1954" data-name="Group 1954" transform="translate(43.93 45.834)">
        <path id="Path_2061" data-name="Path 2061" d="M0,0C.748-.015,1.494,0,2.241,0c0,.775.01,1.551,0,2.328-.745.016-1.491.013-2.233,0C-.023,1.55-.007.775,0,0" transform="translate(0.011 0.007)" fill="#4e4e4e"/>
      </g>
      <g id="Group_1955" data-name="Group 1955" transform="translate(48.53 45.837)">
        <path id="Path_2062" data-name="Path 2062" d="M0,0Q1.176,0,2.353,0c-.005,1.552.01,3.107-.005,4.659-.78.025-1.56.01-2.338,0C-.02,3.107.012,1.554,0,0" transform="translate(0.003 0.001)" fill="#4e4e4e"/>
      </g>
      <g id="Group_1956" data-name="Group 1956" transform="translate(41.585 50.5)">
        <path id="Path_2063" data-name="Path 2063" d="M0,0C.781,0,1.564-.011,2.347.006c.015.741,0,1.481.005,2.222q-1.177,0-2.352,0C0,1.485,0,.742,0,0" transform="translate(0 0.003)" fill="#4e4e4e"/>
      </g>
      <g id="Group_1957" data-name="Group 1957" transform="translate(71.621 50.5)">
        <path id="Path_2064" data-name="Path 2064" d="M0,0c.781,0,1.563-.01,2.347,0,.015.739.011,1.477,0,2.216-.781.026-1.562.01-2.342,0C-.01,1.48,0,.74,0,0" transform="translate(0.003 0.003)" fill="#4e4e4e"/>
      </g>
      <g id="Group_1958" data-name="Group 1958" transform="translate(16.142 52.709)">
        <path id="Path_2065" data-name="Path 2065" d="M.946,0H10.14c-.013,1.553.021,3.107-.009,4.661-.78.008-1.56.023-2.339,0-.023-.774.016-1.548-.01-2.321-.745-.014-1.491-.018-2.234,0-.013,2.3,0,4.593-.005,6.888-.782,0-1.566-.014-2.347.006-.018.737.009,1.477-.01,2.217-.745.016-1.49-.01-2.236.01-.015,1.552,0,3.106,0,4.661-.782-.005-1.565.011-2.347-.006-.03-1.552.025-3.1-.015-4.655-.781-.018-1.561-.005-2.342-.005V9.226c1.566-.013,3.133.021,4.7-.008.015-.777,0-1.551.005-2.326.745,0,1.491.01,2.237-.005.024-1.517.006-3.034,0-4.55-.745-.02-1.491.006-2.236-.009C.933,1.552.948.775.946,0" transform="translate(3.758)" fill="#4e4e4e"/>
      </g>
      <g id="Group_1959" data-name="Group 1959" transform="translate(39.34 52.728)">
        <path id="Path_2066" data-name="Path 2066" d="M.924,0c.745,0,1.491-.01,2.238,0,.028.772-.011,1.547.011,2.319,2.314.029,4.63,0,6.945.01,0,.775-.014,1.552.005,2.329.781.014,1.563,0,2.347,0,0,.74.009,1.481-.006,2.222-.781.023-1.562-.016-2.342.011-.015.775,0,1.551,0,2.327-.747,0-1.493.01-2.239-.005-.025-.775.015-1.55-.013-2.322-.78-.01-1.562-.026-2.341,0,0,1.516-.02,3.033,0,4.547,1.53.016,3.059,0,4.589.006.011,1.553-.021,3.108.009,4.661.777.021,1.558-.018,2.338.011.016.737-.01,1.476.01,2.217,1.53.014,3.06,0,4.591,0q0,1.164,0,2.333c-1.531.009-3.063-.018-4.593.006-.015.775,0,1.551,0,2.327q-1.177,0-2.352,0c0-.777.011-1.553-.005-2.329-.747-.015-1.495,0-2.241,0-.011-2.3.021-4.594-.009-6.888-.78-.01-1.561-.025-2.338,0-.023.771.016,1.546-.011,2.321-.782.014-1.563,0-2.346.005,0-.777.014-1.555-.005-2.329-.745-.013-1.491-.018-2.236,0-.008.774-.024,1.548,0,2.323.745.014,1.49,0,2.237.005v2.227c-1.531-.011-3.062.016-4.593-.006-.029-1.517.023-3.034-.013-4.549-.746-.018-1.491-.005-2.236-.005q0-1.168,0-2.333c1.531-.01,3.062.015,4.593-.006.014-.742,0-1.482,0-2.222.745,0,1.492.01,2.239-.005.005-1.517.02-3.034,0-4.55-.746-.015-1.492-.005-2.237-.005Z" transform="translate(3.673 0.003)" fill="#4e4e4e"/>
      </g>
      <g id="Group_1960" data-name="Group 1960" transform="translate(0 57.39)">
        <path id="Path_2067" data-name="Path 2067" d="M0,0c.782,0,1.565-.01,2.347,0,.019.739-.008,1.478.009,2.218.746.018,1.491.011,2.236,0C4.61,1.485,4.584.746,4.6.009c.78-.028,1.562-.011,2.342,0,.019.739-.008,1.478.011,2.218.746.015,1.493,0,2.239.005V4.562c-2.279.01-4.559-.016-6.837.009-.03,1.515.023,3.032-.014,4.546-.781.015-1.562,0-2.343.006Z" transform="translate(0 0.006)" fill="#4e4e4e"/>
      </g>
      <g id="Group_1961" data-name="Group 1961" transform="translate(16.143 57.395)">
        <path id="Path_2068" data-name="Path 2068" d="M0,0C1.566.006,3.132-.012,4.7.006c.015.741,0,1.481.005,2.222q-2.353,0-4.7,0Z" transform="translate(0 0.002)" fill="#4e4e4e"/>
      </g>
      <g id="Group_1962" data-name="Group 1962" transform="translate(36.982 57.393)">
        <path id="Path_2069" data-name="Path 2069" d="M0,0C.783-.017,1.567,0,2.349,0V2.224c-.782,0-1.565.01-2.346,0C-.015,1.479-.01.74,0,0" transform="translate(0.009 0.008)" fill="#4e4e4e"/>
      </g>
      <g id="Group_1963" data-name="Group 1963" transform="translate(39.34 57.397)">
        <path id="Path_2070" data-name="Path 2070" d="M.452,0Q1.627,0,2.8,0V4.56q-2.3,0-4.6,0,0-1.168,0-2.333c.746,0,1.492.01,2.239-.005C.462,1.481.45.74.452,0" transform="translate(1.794 0.001)" fill="#4e4e4e"/>
      </g>
      <g id="Group_1964" data-name="Group 1964" transform="translate(13.895 59.621)">
        <path id="Path_2071" data-name="Path 2071" d="M0,0C.748-.016,1.495,0,2.241,0V2.33c-.749,0-1.5,0-2.244,0C0,1.554-.015.777,0,0" transform="translate(0.007 0.007)" fill="#4e4e4e"/>
      </g>
      <g id="Group_1965" data-name="Group 1965" transform="translate(80.922 59.621)">
        <path id="Path_2072" data-name="Path 2072" d="M0,0C.747-.016,1.494,0,2.241,0c0,.775.013,1.551-.005,2.328-.747.014-1.495,0-2.239.005C0,1.553-.016.777,0,0" transform="translate(0.007 0.007)" fill="#4e4e4e"/>
      </g>
    </g>
    <path id="Path_2074" data-name="Path 2074" d="M7.345-18.3h4.7v2.227h-4.7Z" transform="translate(1.849 12.455)" fill="#4e4e4e"/>
    <g id="Group_1991" data-name="Group 1991" transform="translate(0 -67.782)" clip-path="url(#clip-path)">
      <g id="Group_1967" data-name="Group 1967" transform="translate(23.091 61.934)">
        <path id="Path_2075" data-name="Path 2075" d="M.473,0C2.787,0,5.1-.01,7.416.005c.015.741.005,1.481.005,2.222-.784,0-1.566-.014-2.347.006-.023.772.016,1.548-.011,2.323-.78.021-1.561-.019-2.341.01,0,1.516-.02,3.034,0,4.549,1.566.016,3.131,0,4.7.006.013,1.553-.021,3.108.009,4.661.744.016,1.488-.01,2.233.01.015.737-.01,1.477.009,2.218.78.005,1.561.021,2.342,0,.015-1.517,0-3.035.005-4.552,1.531.008,3.062-.018,4.593.006.021.772-.018,1.547.01,2.322,1.528,0,3.058.019,4.585,0,.016-1.553,0-3.106.006-4.658.781,0,1.565-.014,2.347.005.021.774-.016,1.548.011,2.323.781.013,1.562,0,2.346.005,0,.775-.015,1.551.005,2.328.745.013,1.492,0,2.239.005,0,.74,0,1.485,0,2.227-.747,0-1.493-.011-2.239.005-.025.774.015,1.548-.013,2.323-.781.008-1.561.023-2.341,0-.023-.774.016-1.548-.01-2.322-1.53,0-3.059-.02-4.586.005-.015.772-.005,1.548-.005,2.324q-1.177,0-2.352,0c0-.777.013-1.553-.005-2.329-.745-.013-1.491-.018-2.236,0-.008.774-.024,1.548,0,2.324.745.013,1.49,0,2.237,0,0,.739.01,1.48-.005,2.222-.746.018-1.491-.01-2.236.01-.015.775,0,1.551,0,2.328H12.019c0-.777.013-1.553-.005-2.328-1.531-.016-3.062,0-4.593-.005,0-.742.01-1.482-.005-2.222-.782-.016-1.565-.005-2.347-.005,0-.777.014-1.553-.005-2.329-.782-.015-1.565,0-2.346,0,0-.745,0-1.485,0-2.227.782-.005,1.563.011,2.347-.006.006-.775.024-1.55,0-2.322-.78-.01-1.561-.025-2.341,0-.015.772,0,1.548,0,2.326-.75,0-1.5,0-2.246,0,0-.777.013-1.555-.005-2.329-.782-.016-1.565,0-2.347,0V9.122c.781,0,1.565.009,2.347-.006C.483,6.078.468,3.038.473,0" transform="translate(1.879 0.002)" fill="#4e4e4e"/>
      </g>
      <g id="Group_1968" data-name="Group 1968" transform="translate(36.985 61.954)">
        <path id="Path_2076" data-name="Path 2076" d="M0,0C.783-.017,1.566,0,2.349,0V2.224q-1.175,0-2.351,0C0,1.483-.013.742,0,0" transform="translate(0.006 0.008)" fill="#4e4e4e"/>
      </g>
      <g id="Group_1969" data-name="Group 1969" transform="translate(53.131 61.956)">
        <path id="Path_2077" data-name="Path 2077" d="M0,0C1.566.005,3.132-.01,4.7,0c.016.737.013,1.476,0,2.216-1.567.029-3.133-.005-4.7.008C0,1.485,0,.74,0,0" transform="translate(0 0.002)" fill="#4e4e4e"/>
      </g>
      <g id="Group_1970" data-name="Group 1970" transform="translate(4.589 64.181)">
        <path id="Path_2078" data-name="Path 2078" d="M0,0C1.532-.022,3.063,0,4.594,0c0,.774.011,1.548-.005,2.324-1.528.024-3.057.006-4.584.005C-.022,1.549-.006.776,0,0" transform="translate(0.01 0.008)" fill="#4e4e4e"/>
      </g>
      <g id="Group_1971" data-name="Group 1971" transform="translate(13.894 64.184)">
        <path id="Path_2079" data-name="Path 2079" d="M0,0C.749,0,1.5,0,2.246,0c0,.775.009,1.551-.005,2.328C1.5,2.343.751,2.34.006,2.33-.012,1.552,0,.775,0,0" transform="translate(0.003 0.001)" fill="#4e4e4e"/>
      </g>
      <g id="Group_1972" data-name="Group 1972" transform="translate(32.392 64.185)">
        <path id="Path_2080" data-name="Path 2080" d="M0,0Q2.3,0,4.6,0c0,.775-.014,1.552.006,2.329.781.013,1.563,0,2.346,0,0,.775.014,1.552-.005,2.329-.781.02-1.562-.019-2.342.01-.016,1.518,0,3.035-.005,4.554-.784,0-1.566.013-2.347-.005-.023-.775.016-1.551-.011-2.323C1.492,6.882.745,6.893,0,6.893Z" transform="translate(0 0)" fill="#4e4e4e"/>
      </g>
      <g id="Group_1973" data-name="Group 1973" transform="translate(57.827 66.511)">
        <path id="Path_2081" data-name="Path 2081" d="M0,0c.744-.019,1.49-.014,2.236,0,.016.776,0,1.552.005,2.329C1.5,2.328.75,2.339.006,2.326-.023,1.551-.006.776,0,0" transform="translate(0.01 0.01)" fill="#4e4e4e"/>
      </g>
      <g id="Group_1974" data-name="Group 1974" transform="translate(0 68.828)">
        <path id="Path_2082" data-name="Path 2082" d="M0,0C5.38,0,10.757-.008,16.137.005c.014,5.337,0,10.672.005,16.009H0ZM2.358,2.252c-.013,3.815-.006,7.63,0,11.444,3.845.014,7.692.006,11.537,0,.013-3.815.006-7.63,0-11.444-3.845-.014-7.691-.006-11.536,0" transform="translate(0 0.001)" fill="#4e4e4e"/>
      </g>
      <g id="Group_1975" data-name="Group 1975" transform="translate(20.843 68.848)">
        <path id="Path_2083" data-name="Path 2083" d="M0,0C.747,0,1.493-.011,2.24.006c.015.74.005,1.481.005,2.222-.746,0-1.493.01-2.239-.005C-.011,1.48,0,.741,0,0" transform="translate(0.003 0.003)" fill="#4e4e4e"/>
      </g>
      <g id="Group_1976" data-name="Group 1976" transform="translate(60.079 68.851)">
        <path id="Path_2084" data-name="Path 2084" d="M0,0Q1.174,0,2.352,0c0,.74,0,1.485,0,2.227q-1.177,0-2.352,0C0,1.485,0,.74,0,0" transform="translate(0 0.001)" fill="#4e4e4e"/>
      </g>
      <g id="Group_1977" data-name="Group 1977" transform="translate(69.376 68.847)">
        <path id="Path_2085" data-name="Path 2085" d="M0,0C.746-.007,1.492-.011,2.24,0c.008.74.011,1.48,0,2.221-.747.006-1.493.011-2.238,0C-.007,1.481-.011.741,0,0" transform="translate(0.006 0.006)" fill="#4e4e4e"/>
      </g>
      <g id="Group_1978" data-name="Group 1978" transform="translate(80.922 68.848)">
        <path id="Path_2086" data-name="Path 2086" d="M0,0C1.531-.022,3.063,0,4.594,0V2.223q-2.3,0-4.6,0C0,1.482-.015.742,0,0" transform="translate(0.007 0.008)" fill="#4e4e4e"/>
      </g>
      <g id="Group_1979" data-name="Group 1979" transform="translate(78.57 71.074)">
        <path id="Path_2087" data-name="Path 2087" d="M0,0C.783-.017,1.566,0,2.35,0q0,1.164,0,2.333-1.177,0-2.352,0C0,1.553-.015.777,0,0" transform="translate(0.007 0.008)" fill="#4e4e4e"/>
      </g>
      <g id="Group_1980" data-name="Group 1980" transform="translate(4.595 73.41)">
        <path id="Path_2088" data-name="Path 2088" d="M0,0Q3.473-.008,6.943,0q.009,3.443,0,6.887Q3.471,6.9,0,6.888-.008,3.444,0,0" transform="translate(0.004 0.004)" fill="#4e4e4e"/>
      </g>
      <g id="Group_1981" data-name="Group 1981" transform="translate(18.49 73.386)">
        <path id="Path_2089" data-name="Path 2089" d="M0,0C1.533-.022,3.063,0,4.594,0c0,.775-.014,1.551.005,2.329.782.013,1.565,0,2.347,0,0,.739-.011,1.48.005,2.222.746.015,1.492,0,2.239.005V6.889C7.66,6.9,6.129,6.873,4.6,6.9c-.014.739-.018,1.477,0,2.217.781.02,1.562-.018,2.342.011.015.774,0,1.55.005,2.327H0C0,9.931-.014,8.414,0,6.9c.78-.029,1.561.01,2.341-.01.026-.775.009-1.55,0-2.323-.779-.029-1.558.01-2.338-.01C-.018,3.035,0,1.518,0,0" transform="translate(0.007 0.008)" fill="#4e4e4e"/>
      </g>
      <g id="Group_1982" data-name="Group 1982" transform="translate(76.322 73.389)">
        <path id="Path_2090" data-name="Path 2090" d="M.926,0q2.3,0,4.6,0V6.893c-.784,0-1.566-.014-2.347.006-.013.737-.019,1.477,0,2.217.78.013,1.562,0,2.346.005v2.333H.926c0-.777.01-1.552-.005-2.326-1.53-.035-3.059.014-4.586-.013-.02-.739-.015-1.477,0-2.214C-2.14,6.866-.609,6.917.92,6.89.946,6.115.907,5.339.93,4.566c.744-.021,1.49.005,2.236-.01.016-.74.013-1.48,0-2.218-.746-.02-1.491.005-2.236-.009C.912,1.552.927.775.926,0" transform="translate(3.679 0.001)" fill="#4e4e4e"/>
      </g>
      <g id="Group_1983" data-name="Group 1983" transform="translate(55.483 75.741)">
        <path id="Path_2091" data-name="Path 2091" d="M0,0C.781,0,1.564-.01,2.347,0c.016.739.011,1.478,0,2.218-.782.018-1.566,0-2.347.005C0,1.485,0,.741,0,0" transform="translate(0 0.003)" fill="#4e4e4e"/>
      </g>
      <g id="Group_1984" data-name="Group 1984" transform="translate(53.127 77.971)">
        <path id="Path_2092" data-name="Path 2092" d="M0,0Q1.176,0,2.353,0q0,1.164,0,2.333c-.782,0-1.565.009-2.347,0C-.013,1.552,0,.775,0,0" transform="translate(0.003 0.001)" fill="#4e4e4e"/>
      </g>
      <g id="Group_1985" data-name="Group 1985" transform="translate(27.684 80.305)">
        <path id="Path_2093" data-name="Path 2093" d="M0,0Q1.176,0,2.353,0c0,.74,0,1.485,0,2.227-.782,0-1.565.01-2.347-.005C-.011,1.48,0,.74,0,0" transform="translate(0.003 0.001)" fill="#4e4e4e"/>
      </g>
      <g id="Group_1986" data-name="Group 1986" transform="translate(43.938 80.279)">
        <path id="Path_2094" data-name="Path 2094" d="M0,0C.745,0,1.491-.01,2.238,0c.023,1.518,0,3.038.006,4.556H0Z" transform="translate(0 0.004)" fill="#4e4e4e"/>
      </g>
      <g id="Group_1987" data-name="Group 1987" transform="translate(55.483 80.301)">
        <path id="Path_2095" data-name="Path 2095" d="M0,0C.781,0,1.564-.01,2.347,0c.016.739.011,1.478,0,2.218-.782.018-1.566,0-2.347.005C0,1.485,0,.741,0,0" transform="translate(0 0.003)" fill="#4e4e4e"/>
      </g>
      <g id="Group_1988" data-name="Group 1988" transform="translate(30.04 82.51)">
        <path id="Path_2096" data-name="Path 2096" d="M0,0Q1.175,0,2.352,0V2.333H0Z" transform="translate(0 0.001)" fill="#4e4e4e"/>
      </g>
      <g id="Group_1989" data-name="Group 1989" transform="translate(53.128 82.507)">
        <path id="Path_2097" data-name="Path 2097" d="M0,0C.783-.017,1.565,0,2.349,0V2.33H0C0,1.553-.013.775,0,0" transform="translate(0.006 0.008)" fill="#4e4e4e"/>
      </g>
      <g id="Group_1990" data-name="Group 1990" transform="translate(64.673 82.507)">
        <path id="Path_2098" data-name="Path 2098" d="M0,0C.783-.017,1.566,0,2.349,0V2.33H0C0,1.553-.013.775,0,0" transform="translate(0.006 0.008)" fill="#4e4e4e"/>
      </g>
    </g>
  </g>
</svg>
