<svg id="Group_2198" data-name="Group 2198" xmlns="http://www.w3.org/2000/svg" width="32.134" height="31.923" viewBox="0 0 32.134 31.923">
  <g id="Group_10" data-name="Group 10" transform="translate(0)">
    <path id="Path_6" data-name="Path 6" d="M.1,0,31.937.258l-.3,31.664L-.2,31.664Zm23.88,14.572a5.415,5.415,0,0,0-1.857.368,3.855,3.855,0,0,0-1.676,1.308,3.794,3.794,0,0,0-.684,1.8,6.156,6.156,0,0,0,.079,1.474A3.861,3.861,0,0,0,21.4,21.907a26.72,26.72,0,0,0,3.787,1.937,2.084,2.084,0,0,1,.822.716,1.368,1.368,0,0,1,.036,1.3A1.694,1.694,0,0,1,25,26.625a3.536,3.536,0,0,1-1.948-.073,3.639,3.639,0,0,1-1.815-1.627l-.053,0c-.551.315-1.105.624-1.656.937-.248.145-.512.267-.746.433A5.35,5.35,0,0,0,21.42,28.8a6.9,6.9,0,0,0,3.2.542,5.212,5.212,0,0,0,3.318-1.2,3.758,3.758,0,0,0,1.226-2.5,6.271,6.271,0,0,0-.13-1.69,3.852,3.852,0,0,0-1.019-1.721,12.48,12.48,0,0,0-3.762-2.11,4.471,4.471,0,0,1-1.169-.705,1.373,1.373,0,0,1-.242-1.6,1.468,1.468,0,0,1,1.529-.642,1.707,1.707,0,0,1,.654.17,2.5,2.5,0,0,1,1,1.079l.047-.007c.77-.466,1.52-.964,2.293-1.423a4.288,4.288,0,0,0-2.2-2.076,5.626,5.626,0,0,0-2.186-.35m-9.694.09c-.038,3.4-.061,6.8-.1,10.2a2.019,2.019,0,0,1-.533,1.462,1.778,1.778,0,0,1-1.237.27,1.3,1.3,0,0,1-.6-.156,3.267,3.267,0,0,1-1.167-1.365c-.807.482-1.618.957-2.426,1.436A4.569,4.569,0,0,0,10,28.571a5.239,5.239,0,0,0,3.056.681,4.888,4.888,0,0,0,2.1-.518A3.5,3.5,0,0,0,16.4,27.623a5.171,5.171,0,0,0,.755-3.155q.045-4.891.091-9.78c-.987-.013-1.975-.018-2.962-.025" transform="translate(0.197)" fill="#efdb4f"/>
  </g>
  <g id="Group_11" data-name="Group 11" transform="translate(0)">
    <path id="Path_7" data-name="Path 7" d="M.1,0,31.937.258l-.3,31.664L-.2,31.664Zm23.88,14.572a5.415,5.415,0,0,0-1.857.368,3.855,3.855,0,0,0-1.676,1.308,3.794,3.794,0,0,0-.684,1.8,6.156,6.156,0,0,0,.079,1.474A3.861,3.861,0,0,0,21.4,21.907a26.72,26.72,0,0,0,3.787,1.937,2.084,2.084,0,0,1,.822.716,1.368,1.368,0,0,1,.036,1.3A1.694,1.694,0,0,1,25,26.625a3.536,3.536,0,0,1-1.948-.073,3.639,3.639,0,0,1-1.815-1.627l-.053,0c-.551.315-1.105.624-1.656.937-.248.145-.512.267-.746.433A5.35,5.35,0,0,0,21.42,28.8a6.9,6.9,0,0,0,3.2.542,5.212,5.212,0,0,0,3.318-1.2,3.758,3.758,0,0,0,1.226-2.5,6.271,6.271,0,0,0-.13-1.69,3.852,3.852,0,0,0-1.019-1.721,12.48,12.48,0,0,0-3.762-2.11,4.471,4.471,0,0,1-1.169-.705,1.373,1.373,0,0,1-.242-1.6,1.468,1.468,0,0,1,1.529-.642,1.707,1.707,0,0,1,.654.17,2.5,2.5,0,0,1,1,1.079l.047-.007c.77-.466,1.52-.964,2.293-1.423a4.288,4.288,0,0,0-2.2-2.076,5.626,5.626,0,0,0-2.186-.35m-9.694.09c-.038,3.4-.061,6.8-.1,10.2a2.019,2.019,0,0,1-.533,1.462,1.778,1.778,0,0,1-1.237.27,1.3,1.3,0,0,1-.6-.156,3.267,3.267,0,0,1-1.167-1.365c-.807.482-1.618.957-2.426,1.436A4.569,4.569,0,0,0,10,28.571a5.239,5.239,0,0,0,3.056.681,4.888,4.888,0,0,0,2.1-.518A3.5,3.5,0,0,0,16.4,27.623a5.171,5.171,0,0,0,.755-3.155q.045-4.891.091-9.78C16.263,14.675,15.275,14.669,14.288,14.662Z" transform="translate(0.197)" fill="#ffe60f"/>
  </g>
  <g id="Group_12" data-name="Group 12" transform="translate(18.977 14.569)">
    <path id="Path_8" data-name="Path 8" d="M1.765,0a5.6,5.6,0,0,1,2.186.35,4.28,4.28,0,0,1,2.2,2.075c-.774.461-1.523.958-2.293,1.423l-.047.008a2.5,2.5,0,0,0-1-1.079,1.722,1.722,0,0,0-.655-.17A1.468,1.468,0,0,0,.625,3.25a1.373,1.373,0,0,0,.242,1.6,4.534,4.534,0,0,0,1.169.705A12.476,12.476,0,0,1,5.8,7.667,3.844,3.844,0,0,1,6.816,9.386a6.221,6.221,0,0,1,.13,1.691,3.753,3.753,0,0,1-1.225,2.495,5.2,5.2,0,0,1-3.32,1.2A6.9,6.9,0,0,1-.8,14.23a5.338,5.338,0,0,1-2.64-2.512c.235-.166.5-.287.746-.431.551-.313,1.105-.622,1.656-.937l.053,0A3.639,3.639,0,0,0,.834,11.981a3.536,3.536,0,0,0,1.948.073,1.7,1.7,0,0,0,1.043-.764,1.375,1.375,0,0,0-.035-1.3,2.089,2.089,0,0,0-.823-.716A26.713,26.713,0,0,1-.82,7.335,3.863,3.863,0,0,1-2.372,4.949a6.083,6.083,0,0,1-.08-1.474,3.794,3.794,0,0,1,.684-1.8A3.867,3.867,0,0,1-.092.368,5.413,5.413,0,0,1,1.765,0" transform="translate(3.436 0.002)" fill="#33332d"/>
  </g>
  <g id="Group_13" data-name="Group 13" transform="translate(8.418 14.662)">
    <path id="Path_9" data-name="Path 9" d="M2.059,0c.987.007,1.975.013,2.962.025q-.043,4.889-.091,9.78a5.171,5.171,0,0,1-.755,3.155,3.5,3.5,0,0,1-1.244,1.111,4.934,4.934,0,0,1-2.1.518,5.244,5.244,0,0,1-3.058-.681,4.566,4.566,0,0,1-1.78-2.059c.808-.479,1.62-.954,2.425-1.436A3.281,3.281,0,0,0-.414,11.779a1.3,1.3,0,0,0,.6.156,1.781,1.781,0,0,0,1.237-.27A2.011,2.011,0,0,0,1.957,10.2C2,6.8,2.02,3.4,2.059,0" transform="translate(4.008)" fill="#33332d"/>
  </g>
</svg>
