<svg id="Group_2011" data-name="Group 2011" xmlns="http://www.w3.org/2000/svg" xmlns:xlink="http://www.w3.org/1999/xlink" width="32.086" height="35.97" viewBox="0 0 32.086 35.97">
  <defs>
    <clipPath id="clip-path">
      <path id="Path_2117" data-name="Path 2117" d="M0,7.633H32.086v-35.97H0Z" transform="translate(0 28.337)" fill="#fff"/>
    </clipPath>
  </defs>
  <g id="Group_2010" data-name="Group 2010" transform="translate(0 0)" clip-path="url(#clip-path)">
    <g id="Group_1993" data-name="Group 1993" transform="translate(0 0)">
      <path id="Path_2100" data-name="Path 2100" d="M3.415,0c.058-.033.113.017.162.041C5.059.9,6.554,1.732,8.035,2.588q5.691,3.225,11.374,6.469-.038,9-.094,18.009-8.012,4.448-16.026,8.9c-.052.008-.091-.032-.135-.051C1.673,35.053.178,34.221-1.3,33.365Q-6.995,30.14-12.677,26.9q.038-9,.094-18.009,8-4.446,16-8.886m.032.8C-1.663,3.628-6.762,6.476-11.876,9.3q-.061,8.6-.09,17.2c.951.5,1.867,1.065,2.81,1.582C-5.049,30.427-.931,32.755,3.175,35.1c.037.015.069.052.112.051q6.468-3.6,12.945-7.188c.8-.429,1.57-.895,2.376-1.3q.059-8.6.09-17.2Q15.4,7.6,12.113,5.713C9.217,4.086,6.347,2.417,3.447.8" transform="translate(12.677 0.009)" fill="#00d6fc"/>
    </g>
    <g id="Group_1994" data-name="Group 1994" transform="translate(2.421 6.193)">
      <path id="Path_2101" data-name="Path 2101" d="M4.015.009a2.528,2.528,0,0,1,1.65.358,2.685,2.685,0,0,1,.99,1.24A6.713,6.713,0,0,1,7.1,3.913a13.5,13.5,0,0,1-.458,3.465,12.821,12.821,0,0,1,4.11,1.912,4.422,4.422,0,0,1,1.362,1.566,2.115,2.115,0,0,1,.15,1.48,3.756,3.756,0,0,1-1.135,1.686,11.946,11.946,0,0,1-4.391,2.185c-.132,0-.046.151-.037.226a9.938,9.938,0,0,1,.017,5.213A3.017,3.017,0,0,1,5.544,23.22a3.036,3.036,0,0,1-2.375.222A9.765,9.765,0,0,1-.2,21.606c-.382-.3-.721-.646-1.1-.942a12.126,12.126,0,0,1-1.46,1.22,7.84,7.84,0,0,1-4,1.621,2.363,2.363,0,0,1-1.889-.7,3.245,3.245,0,0,1-.8-1.426,10.46,10.46,0,0,1,.241-5.166,13.09,13.09,0,0,1-3.628-1.618,7.029,7.029,0,0,1-1.335-1.161,2.819,2.819,0,0,1-.729-1.924,2.847,2.847,0,0,1,.724-1.544,7.149,7.149,0,0,1,2.339-1.7A14.493,14.493,0,0,1-9.158,7.3a12.473,12.473,0,0,1-.33-4.605A3.837,3.837,0,0,1-8.564.646a2.152,2.152,0,0,1,.934-.57A4.139,4.139,0,0,1-5,.351,11.765,11.765,0,0,1-1.7,2.462a3.546,3.546,0,0,1,.458.425A2.268,2.268,0,0,0-.8,2.5,13.546,13.546,0,0,1,1.544.843,6.319,6.319,0,0,1,4.015.009m.217,1.125a4,4,0,0,0-.984.184A10.824,10.824,0,0,0-.4,3.7c.218.279.484.538.711.816.56.642,1.069,1.325,1.577,2.007a29.858,29.858,0,0,1,3.628.566,10.947,10.947,0,0,0,.358-3.832,3.354,3.354,0,0,0-.658-1.811,1.383,1.383,0,0,0-.988-.311M-6.992,1.1c-.1.018-.206.039-.307.062a1.68,1.68,0,0,0-.925,1.188A5.909,5.909,0,0,0-8.4,4.484a13.775,13.775,0,0,0,.374,2.489c.024.066.089.013.137.011a25.617,25.617,0,0,1,3.488-.5A29.014,29.014,0,0,1-2.045,3.714c-.093-.168-.3-.251-.428-.4A10.979,10.979,0,0,0-5.218,1.491,3.771,3.771,0,0,0-6.992,1.1m5.74,3.425c-.552.576-1.061,1.191-1.569,1.8,0,.015-.01.047-.014.062a10.145,10.145,0,0,1,1.3-.029c.632.009,1.267-.017,1.9.046A21.6,21.6,0,0,0-1.225,4.518ZM-2.268,7.5c-.486.023-.974.024-1.461.046a32.345,32.345,0,0,0-2.512,4.181,31.674,31.674,0,0,0,2.473,4.2,36.048,36.048,0,0,0,4.926.025A2.281,2.281,0,0,0,1.5,15.5,29.4,29.4,0,0,0,3.679,11.75a35.345,35.345,0,0,0-2.47-4.174C.052,7.525-1.11,7.445-2.268,7.5M-5.5,7.74c-.738.1-1.476.2-2.2.371.25.769.528,1.53.843,2.276.173-.225.279-.514.44-.755.364-.651.769-1.28,1.165-1.912l-.249.02m8.236.022c.539.882,1.1,1.754,1.556,2.682l.053-.042c.272-.63.529-1.264.753-1.912.023-.105.107-.2.089-.31a19.126,19.126,0,0,0-2.451-.419m-11.6.633a10.286,10.286,0,0,0-4.119,1.971c-.438.433-.92,1.036-.673,1.678a3.53,3.53,0,0,0,1.271,1.472A11.72,11.72,0,0,0-8.9,15.111c.2-.477.339-.982.542-1.461.246-.641.527-1.268.815-1.891.014-.107-.074-.2-.1-.293A27.267,27.267,0,0,1-8.835,8.391ZM6.34,8.477c-.4,1.12-.85,2.234-1.357,3.311a28.469,28.469,0,0,1,1.365,3.336,3.448,3.448,0,0,0,.588-.17,11.578,11.578,0,0,0,2.681-1.221A4.527,4.527,0,0,0,10.9,12.557a1.189,1.189,0,0,0,.234-1.01A3.105,3.105,0,0,0,9.9,10.071,12.342,12.342,0,0,0,6.34,8.477M-6.875,13.07a23.314,23.314,0,0,0-.873,2.341,20.663,20.663,0,0,0,2.491.381c-.59-.876-1.111-1.813-1.617-2.722m11.151.061c-.263.518-.569,1.015-.862,1.519-.221.4-.524.769-.725,1.181.842-.132,1.706-.216,2.526-.424-.27-.767-.551-1.531-.883-2.275H4.276m1.211,3.382a22.586,22.586,0,0,1-3.608.52c-.083.025-.114.105-.162.166A31.028,31.028,0,0,1-.444,19.86a12.916,12.916,0,0,0,2.026,1.615,6.169,6.169,0,0,0,2.3.951A1.571,1.571,0,0,0,5,22.213a1.615,1.615,0,0,0,.522-.722,5.352,5.352,0,0,0,.385-1.951,13.282,13.282,0,0,0-.354-2.934c-.006-.033-.015-.113-.066-.094M-8.081,16.5a11.654,11.654,0,0,0-.432,3.326A5.655,5.655,0,0,0-8.249,21.3a1.521,1.521,0,0,0,.838.99,2.919,2.919,0,0,0,1.775-.149,10.767,10.767,0,0,0,3.544-2.287A35.236,35.236,0,0,1-4.42,17.031c-1.227-.118-2.452-.292-3.661-.531m8.289.636a.58.58,0,0,1-.123.02c-.993,0-1.985-.014-2.979-.014.514.644,1.041,1.277,1.6,1.884.043-.006.065-.051.1-.075.522-.569,1.027-1.154,1.492-1.77.052-.081-.033-.062-.086-.046" transform="translate(14.903 0.034)" fill="#00d6fc"/>
    </g>
    <g id="Group_1995" data-name="Group 1995" transform="translate(13.607 15.591)">
      <path id="Path_2102" data-name="Path 2102" d="M.455,0A2.434,2.434,0,0,1,2.8,1.094,2.436,2.436,0,0,1,3.18,2.461a2.426,2.426,0,0,1-.837,1.686,2.481,2.481,0,0,1-1.4.56A2.41,2.41,0,0,1-1.662,2.655,2.38,2.38,0,0,1,.455,0" transform="translate(1.69 0.018)" fill="#00d6fc"/>
    </g>
    <g id="Group_1996" data-name="Group 1996" transform="translate(0.711 0.809)">
      <path id="Path_2103" data-name="Path 2103" d="M3.271,0c2.9,1.616,5.771,3.285,8.666,4.912q3.288,1.877,6.586,3.743-.027,8.6-.089,17.2c-.807.41-1.582.876-2.378,1.3Q9.584,30.758,3.111,34.352c-.043,0-.075-.036-.112-.051-4.106-2.347-8.224-4.675-12.331-7.021-.943-.517-1.86-1.078-2.81-1.582q.03-8.6.091-17.2C-6.936,5.675-1.839,2.827,3.271,0M8.487,5.428a6.3,6.3,0,0,0-2.47.833A13.681,13.681,0,0,0,3.674,7.923a2.219,2.219,0,0,1-.448.381,3.638,3.638,0,0,0-.458-.425,11.749,11.749,0,0,0-3.3-2.11A4.134,4.134,0,0,0-3.157,5.5a2.145,2.145,0,0,0-.934.57A3.833,3.833,0,0,0-5.016,8.11a12.441,12.441,0,0,0,.33,4.6,14.679,14.679,0,0,0-2.68.969,7.139,7.139,0,0,0-2.339,1.7,2.839,2.839,0,0,0-.724,1.542A2.825,2.825,0,0,0-9.7,18.849,7.074,7.074,0,0,0-8.364,20.01a13.09,13.09,0,0,0,3.628,1.618,10.455,10.455,0,0,0-.241,5.165,3.244,3.244,0,0,0,.8,1.427,2.362,2.362,0,0,0,1.889.7,7.829,7.829,0,0,0,4-1.62,11.936,11.936,0,0,0,1.461-1.221c.382.3.721.645,1.1.943A9.787,9.787,0,0,0,7.641,28.86a3.036,3.036,0,0,0,2.375-.222,3.027,3.027,0,0,0,1.174-1.574,9.943,9.943,0,0,0-.017-5.215c-.009-.074-.1-.226.037-.225A11.966,11.966,0,0,0,15.6,19.44a3.747,3.747,0,0,0,1.134-1.687,2.112,2.112,0,0,0-.149-1.479,4.411,4.411,0,0,0-1.362-1.566,12.851,12.851,0,0,0-4.11-1.913,13.549,13.549,0,0,0,.458-3.464,6.751,6.751,0,0,0-.446-2.306,2.692,2.692,0,0,0-.99-1.24,2.529,2.529,0,0,0-1.65-.357" transform="translate(12.142)" fill="#212323"/>
    </g>
    <g id="Group_1997" data-name="Group 1997" transform="translate(16.928 7.355)">
      <path id="Path_2104" data-name="Path 2104" d="M.982,0A1.383,1.383,0,0,1,1.97.312a3.37,3.37,0,0,1,.659,1.811,10.948,10.948,0,0,1-.359,3.832A29.858,29.858,0,0,0-1.359,5.39c-.508-.682-1.017-1.365-1.577-2.007-.227-.278-.493-.536-.711-.816A10.824,10.824,0,0,1,0,.185,4,4,0,0,1,.982,0" transform="translate(3.646 0.004)" fill="#212323"/>
    </g>
    <g id="Group_1998" data-name="Group 1998" transform="translate(8.89 7.32)">
      <path id="Path_2105" data-name="Path 2105" d="M.306,0A3.771,3.771,0,0,1,2.08.388,10.979,10.979,0,0,1,4.825,2.21c.123.151.335.235.429.4A29,29,0,0,0,2.9,5.385a25.6,25.6,0,0,0-3.487.5c-.048,0-.114.055-.137-.011A13.648,13.648,0,0,1-1.1,3.382,5.9,5.9,0,0,1-.927,1.254,1.683,1.683,0,0,1,0,.065C.1.042.2.02.306,0" transform="translate(1.136 0.009)" fill="#212323"/>
    </g>
    <g id="Group_1999" data-name="Group 1999" transform="translate(14.489 10.745)">
      <path id="Path_2106" data-name="Path 2106" d="M.336,0,.363-.009A21.6,21.6,0,0,1,1.954,1.884c-.631-.062-1.266-.037-1.9-.046a10.145,10.145,0,0,0-1.3.029c0-.015.01-.047.014-.062C-.725,1.193-.216.579.336,0" transform="translate(1.247 0.009)" fill="#212323"/>
    </g>
    <g id="Group_2000" data-name="Group 2000" transform="translate(11.084 13.71)">
      <path id="Path_2107" data-name="Path 2107" d="M.843,0C2-.055,3.163.026,4.32.077A34.8,34.8,0,0,1,6.79,4.251,29.568,29.568,0,0,1,4.613,8a2.322,2.322,0,0,1-.344.463A36.235,36.235,0,0,1-.656,8.436a31.617,31.617,0,0,1-2.473-4.2A31.978,31.978,0,0,1-.617.051C-.131.029.357.027.843,0m.7,1.884A2.376,2.376,0,0,0-.578,4.539,2.409,2.409,0,0,0,2.032,6.59a2.483,2.483,0,0,0,1.4-.56,2.429,2.429,0,0,0,.837-1.687A2.4,2.4,0,0,0,1.538,1.888" transform="translate(3.129 0.017)" fill="#212323"/>
    </g>
    <g id="Group_2001" data-name="Group 2001" transform="translate(9.621 13.946)">
      <path id="Path_2108" data-name="Path 2108" d="M.467,0l.249-.02C.32.616-.085,1.244-.45,1.9c-.161.241-.268.531-.44.755C-1.2,1.9-1.483,1.144-1.733.375-1.009.207-.271.1.467,0" transform="translate(1.733 0.016)" fill="#212323"/>
    </g>
    <g id="Group_2002" data-name="Group 2002" transform="translate(20.057 13.988)">
      <path id="Path_2109" data-name="Path 2109" d="M0,0A19.126,19.126,0,0,1,2.451.419c.018.112-.066.2-.089.31-.223.647-.48,1.282-.751,1.91l-.053.042C1.1,1.754.541.881,0,0" fill="#212323"/>
    </g>
    <g id="Group_2003" data-name="Group 2003" transform="translate(3.593 14.619)">
      <path id="Path_2110" data-name="Path 2110" d="M1.031,0l.037,0A27.456,27.456,0,0,0,2.257,3.072c.027.1.114.187.1.293-.288.623-.569,1.25-.815,1.89-.2.479-.344.985-.542,1.462A11.784,11.784,0,0,1-2.49,5.124,3.533,3.533,0,0,1-3.761,3.65c-.248-.642.235-1.245.673-1.677A10.288,10.288,0,0,1,1.031,0" transform="translate(3.828 0.002)" fill="#212323"/>
    </g>
    <g id="Group_2004" data-name="Group 2004" transform="translate(22.307 14.704)">
      <path id="Path_2111" data-name="Path 2111" d="M.288,0A12.293,12.293,0,0,1,3.852,1.594,3.1,3.1,0,0,1,5.081,3.068,1.19,1.19,0,0,1,4.848,4.08,4.522,4.522,0,0,1,3.564,5.254,11.544,11.544,0,0,1,.885,6.476a3.749,3.749,0,0,1-.589.17A28.38,28.38,0,0,0-1.069,3.311C-.563,2.234-.113,1.12.288,0" transform="translate(1.069)" fill="#212323"/>
    </g>
    <g id="Group_2005" data-name="Group 2005" transform="translate(9.576 19.297)">
      <path id="Path_2112" data-name="Path 2112" d="M.185,0C.692.908,1.212,1.846,1.8,2.72A20.376,20.376,0,0,1-.688,2.339,23.1,23.1,0,0,1,.185,0" transform="translate(0.688)" fill="#212323"/>
    </g>
    <g id="Group_2006" data-name="Group 2006" transform="translate(20.014 19.358)">
      <path id="Path_2113" data-name="Path 2113" d="M.337,0H.393c.333.744.613,1.508.883,2.275-.82.208-1.684.292-2.526.424.2-.411.5-.776.725-1.181.293-.5.6-1,.862-1.519" transform="translate(1.25)" fill="#212323"/>
    </g>
    <g id="Group_2007" data-name="Group 2007" transform="translate(16.88 22.736)">
      <path id="Path_2114" data-name="Path 2114" d="M1.259,0c.051-.019.06.061.066.094A13.283,13.283,0,0,1,1.68,3.028a5.353,5.353,0,0,1-.386,1.951A1.606,1.606,0,0,1,.772,5.7a1.569,1.569,0,0,1-1.116.212,6.162,6.162,0,0,1-2.3-.951A12.974,12.974,0,0,1-4.672,3.348,30.6,30.6,0,0,0-2.512.687c.05-.061.081-.141.162-.166A22.565,22.565,0,0,0,1.259,0" transform="translate(4.672 0.002)" fill="#212323"/>
    </g>
    <g id="Group_2008" data-name="Group 2008" transform="translate(8.807 22.728)">
      <path id="Path_2115" data-name="Path 2115" d="M.092,0C1.3.239,2.526.413,3.753.531A35.236,35.236,0,0,0,6.081,3.354,10.767,10.767,0,0,1,2.537,5.641,2.922,2.922,0,0,1,.761,5.79,1.523,1.523,0,0,1-.075,4.8,5.6,5.6,0,0,1-.339,3.326,11.654,11.654,0,0,1,.092,0" transform="translate(0.343)" fill="#212323"/>
    </g>
    <g id="Group_2009" data-name="Group 2009" transform="translate(14.43 23.349)">
      <path id="Path_2116" data-name="Path 2116" d="M.658,0C.713-.013.8-.032.744.049.28.664-.224,1.25-.746,1.818c-.033.024-.055.069-.1.075C-1.4,1.286-1.93.653-2.443.009-1.45.009-.458.02.536.023A.582.582,0,0,0,.658,0" transform="translate(2.443 0.011)" fill="#212323"/>
    </g>
  </g>
</svg>
