<?xml version="1.0" encoding="UTF-8" ?>
<!DOCTYPE svg PUBLIC "-//W3C//DTD SVG 1.1//EN" "http://www.w3.org/Graphics/SVG/1.1/DTD/svg11.dtd">
<svg width="1000pt" height="1402pt" viewBox="0 0 1000 1402" version="1.1" xmlns="http://www.w3.org/2000/svg">
<g id="#000000fc">
<path fill="#000000" opacity="1.00" d=" M 235.33 2.47 C 268.52 1.38 301.78 2.31 335.00 2.00 C 351.35 1.46 367.61 3.42 383.97 3.06 C 384.07 19.71 383.95 36.36 384.03 53.01 C 384.16 55.38 383.38 57.64 382.76 59.89 C 340.52 60.19 298.27 59.85 256.03 60.05 C 256.78 88.08 254.33 115.95 255.05 143.97 C 297.66 144.11 340.28 143.87 382.89 144.07 C 384.48 160.00 384.32 176.03 382.92 191.97 C 321.96 192.00 260.99 192.06 200.03 191.94 C 200.00 128.97 199.93 66.00 200.07 3.03 C 211.82 2.69 223.61 3.60 235.33 2.47 Z" />
<path fill="#000000" opacity="1.00" d=" M 437.35 2.57 C 468.84 1.24 500.46 2.38 532.00 2.00 C 552.04 1.41 571.91 3.81 591.97 3.04 C 591.97 21.01 592.12 38.99 591.93 56.97 C 556.98 57.24 522.01 56.61 487.07 57.27 C 476.78 58.70 466.37 57.67 456.04 58.04 C 455.94 65.01 455.91 71.99 456.04 78.97 C 473.76 78.16 491.30 80.40 509.00 80.00 C 535.67 80.01 562.34 79.99 589.02 79.99 C 591.98 79.40 593.56 83.59 592.00 85.99 C 591.98 121.32 592.05 156.64 591.96 191.97 C 529.65 192.01 467.34 192.05 405.03 191.95 C 404.92 180.30 405.03 168.64 404.98 156.99 C 404.33 153.56 405.30 150.32 406.24 147.11 C 449.15 146.79 492.06 147.18 534.97 146.93 C 534.95 137.30 535.17 127.66 534.93 118.03 C 492.03 117.82 449.10 118.27 406.21 117.84 C 405.94 117.58 405.40 117.05 405.14 116.78 C 404.80 85.19 405.12 53.59 404.98 22.00 C 404.63 15.63 406.30 9.40 406.09 3.03 C 416.50 2.73 426.95 3.50 437.35 2.57 Z" />
<path fill="#000000" opacity="1.00" d=" M 613.06 3.03 C 675.03 2.98 737.00 2.97 798.97 3.04 C 799.07 19.69 798.93 36.35 799.04 53.01 C 798.86 54.67 799.51 56.84 797.78 57.86 C 752.54 58.22 707.28 57.84 662.04 58.04 C 662.94 65.32 663.02 72.64 663.06 79.97 C 690.04 80.09 717.02 79.92 744.01 80.03 C 761.88 82.13 779.95 80.42 797.91 81.05 C 800.18 117.96 798.51 155.00 798.96 191.97 C 736.65 192.01 674.34 192.05 612.03 191.95 C 612.13 177.38 611.67 162.77 612.16 148.21 C 612.42 147.94 612.95 147.40 613.22 147.14 C 655.79 146.76 698.38 147.19 740.96 146.94 C 740.33 137.25 741.96 127.67 741.97 118.03 C 698.66 117.92 655.35 118.08 612.04 117.96 C 612.15 79.65 611.32 41.28 613.06 3.03 Z" />
</g>
<g id="#0170baff">
<path fill="#0170ba" opacity="1.00" d=" M 0.00 270.00 C 332.67 270.04 665.34 269.93 998.01 270.05 C 980.78 463.70 964.07 657.41 946.18 851.01 C 933.67 992.44 921.64 1133.94 908.39 1275.30 C 907.40 1279.24 908.95 1283.96 906.72 1287.63 C 857.59 1300.64 808.75 1314.78 759.90 1328.79 C 717.81 1340.11 675.93 1352.15 634.00 1364.01 C 589.53 1376.72 544.67 1388.19 500.54 1402.00 L 495.43 1402.00 C 478.99 1395.97 461.76 1392.14 445.00 1387.00 C 398.18 1373.95 351.39 1360.81 304.69 1347.38 C 233.97 1328.15 163.82 1306.81 92.99 1288.02 C 90.13 1287.29 90.95 1283.54 90.60 1281.32 C 82.82 1199.78 75.59 1118.20 68.59 1036.60 C 51.60 840.02 32.80 643.59 16.20 446.98 C 11.81 400.54 8.11 354.02 3.54 307.59 C 1.90 298.32 2.65 288.55 0.00 279.50 L 0.00 270.00 M 602.00 351.90 C 568.35 352.17 534.69 351.87 501.04 352.04 C 500.89 385.36 501.12 418.68 500.94 452.01 C 499.93 458.30 499.74 464.65 500.01 471.02 C 386.03 470.99 272.05 470.97 158.07 471.03 C 157.65 492.11 161.01 513.04 163.09 533.99 C 164.99 550.80 167.36 567.57 169.64 584.32 C 169.75 587.12 173.17 585.61 175.00 585.99 L 175.01 586.97 C 178.43 587.14 181.83 586.86 185.25 586.71 C 194.15 587.28 203.08 586.92 212.00 586.99 L 212.02 587.96 C 218.09 588.16 224.18 588.01 230.25 587.73 C 303.14 588.35 376.09 587.84 449.00 587.98 L 449.00 588.98 C 454.41 589.10 459.83 589.02 465.25 588.73 C 472.54 589.34 479.89 588.77 487.22 589.11 C 485.81 591.41 482.94 591.64 480.73 592.74 C 392.60 632.14 303.57 669.53 215.04 708.03 C 205.25 713.11 194.20 715.71 185.14 722.18 C 184.67 764.60 192.49 806.66 195.10 848.95 C 220.96 848.83 246.88 849.46 272.71 848.62 C 284.08 849.70 295.58 848.66 307.00 848.98 L 307.00 848.00 C 371.67 848.00 436.35 847.99 501.02 848.01 C 500.91 908.34 501.13 968.67 500.92 1029.01 C 499.72 1038.09 499.74 1047.29 500.27 1056.44 C 498.52 1057.25 496.75 1056.31 495.00 1056.11 C 464.95 1051.50 435.29 1044.73 405.33 1039.58 C 382.69 1034.63 359.65 1031.75 337.23 1025.80 C 335.76 1025.04 336.09 1023.35 335.95 1022.01 C 332.95 989.76 330.11 957.48 327.83 925.19 C 323.45 923.49 318.70 922.67 314.01 922.98 C 277.35 923.05 240.70 922.94 204.04 923.03 C 206.27 985.61 212.98 1048.04 221.73 1110.07 C 219.79 1113.80 222.88 1116.02 225.68 1116.41 C 264.93 1126.66 304.19 1136.87 343.32 1147.58 C 391.00 1159.52 438.73 1171.33 486.35 1183.51 C 490.47 1184.76 494.69 1185.43 499.02 1185.06 C 502.11 1216.24 500.71 1247.66 501.02 1279.01 C 501.50 1285.37 499.25 1291.62 500.03 1298.01 C 500.59 1302.66 501.32 1307.28 501.10 1312.00 C 505.43 1311.11 509.75 1310.11 514.07 1309.15 C 618.56 1281.38 722.43 1251.97 826.73 1223.70 C 828.29 1222.96 830.47 1222.16 829.99 1220.01 C 832.98 1192.04 835.48 1164.02 837.84 1136.00 C 847.03 1032.68 855.88 929.33 865.11 826.01 C 874.91 719.81 884.30 613.58 893.59 507.35 C 897.70 455.56 903.29 403.87 907.01 352.06 C 861.01 351.92 815.00 352.02 769.00 352.02 C 725.72 350.07 682.33 351.37 639.00 351.00 C 626.67 351.36 614.24 350.10 602.00 351.90 Z" />
</g>
<g id="#29a9dfff">
<path fill="#29a9df" opacity="1.00" d=" M 602.00 351.90 C 614.24 350.10 626.67 351.36 639.00 351.00 C 682.33 351.37 725.72 350.07 769.00 352.02 C 815.00 352.02 861.01 351.92 907.01 352.06 C 903.29 403.87 897.70 455.56 893.59 507.35 C 884.30 613.58 874.91 719.81 865.11 826.01 C 855.88 929.33 847.03 1032.68 837.84 1136.00 C 835.48 1164.02 832.98 1192.04 829.99 1220.01 C 830.47 1222.16 828.29 1222.96 826.73 1223.70 C 722.43 1251.97 618.56 1281.38 514.07 1309.15 C 509.75 1310.11 505.43 1311.11 501.10 1312.00 C 501.32 1307.28 500.59 1302.66 500.03 1298.01 C 499.25 1291.62 501.50 1285.37 501.02 1279.01 C 500.71 1247.66 502.11 1216.24 499.02 1185.06 C 501.42 1184.50 503.74 1183.79 506.17 1183.30 C 595.99 1160.84 685.13 1135.86 774.76 1112.72 C 776.09 1108.66 775.77 1104.26 776.32 1100.12 C 783.40 1021.11 790.94 942.14 797.25 863.07 C 798.69 860.68 798.86 858.30 797.75 855.93 C 799.39 841.69 800.03 827.35 801.25 813.07 C 802.71 810.67 802.86 808.29 801.72 805.93 C 802.47 799.32 802.89 792.69 803.23 786.07 C 804.70 783.69 804.87 781.31 803.74 778.93 C 803.87 777.22 804.13 773.78 804.26 772.07 C 805.70 769.67 805.86 767.29 804.74 764.93 C 804.87 763.22 805.13 759.78 805.26 758.07 C 806.69 755.67 806.85 753.29 805.74 750.93 C 805.85 748.33 805.99 745.76 806.17 743.21 C 806.45 740.34 806.91 737.63 806.84 734.79 C 806.87 731.49 807.16 728.31 806.93 725.05 C 781.70 725.08 756.47 724.67 731.26 725.29 C 671.44 724.78 611.60 724.86 551.78 725.25 C 549.75 724.17 543.12 726.87 544.23 723.25 C 573.25 708.58 603.13 695.78 633.03 683.06 C 658.27 672.60 682.93 660.82 708.03 650.05 C 739.98 635.94 772.20 622.45 804.01 608.01 C 808.36 605.84 812.99 603.92 816.73 600.71 C 819.08 595.89 818.62 590.29 819.26 585.07 C 820.69 582.68 820.85 580.30 819.75 577.93 C 821.99 549.63 825.33 521.40 827.25 493.07 C 828.66 490.70 828.84 488.32 827.79 485.94 C 827.84 481.31 828.22 476.71 827.93 472.11 C 825.34 472.02 822.77 471.91 820.22 471.78 C 813.52 470.68 806.73 471.03 800.00 470.97 C 713.26 471.19 626.51 470.68 539.78 471.22 C 526.52 470.81 513.26 471.02 500.01 471.02 C 499.74 464.65 499.93 458.30 500.94 452.01 C 501.12 418.68 500.89 385.36 501.04 352.04 C 534.69 351.87 568.35 352.17 602.00 351.90 Z" />
<path fill="#29a9df" opacity="1.00" d=" M 175.00 585.99 C 178.43 585.88 181.84 586.21 185.25 586.71 C 181.83 586.86 178.43 587.14 175.01 586.97 L 175.00 585.99 Z" />
<path fill="#29a9df" opacity="1.00" d=" M 212.00 586.99 C 218.08 586.95 224.21 586.75 230.25 587.73 C 224.18 588.01 218.09 588.16 212.02 587.96 L 212.00 586.99 Z" />
<path fill="#29a9df" opacity="1.00" d=" M 449.00 587.98 C 454.41 587.97 459.87 587.81 465.25 588.73 C 459.83 589.02 454.41 589.10 449.00 588.98 L 449.00 587.98 Z" />
<path fill="#29a9df" opacity="1.00" d=" M 532.22 847.22 C 541.07 846.89 549.93 846.88 558.79 847.22 C 582.85 848.88 607.08 847.75 631.21 847.81 C 637.04 848.06 642.89 848.03 648.74 847.68 C 652.45 847.79 656.25 848.04 659.99 848.02 C 659.95 849.71 659.88 853.10 659.85 854.79 C 659.42 857.50 659.14 860.40 659.16 863.21 C 658.99 866.13 658.82 868.94 658.75 871.94 C 657.28 874.27 657.11 876.65 658.22 879.07 C 658.05 881.62 657.91 884.19 657.81 886.79 C 657.40 889.50 657.14 892.41 657.18 895.22 C 657.09 896.86 656.91 900.14 656.82 901.78 C 656.40 904.49 656.14 907.41 656.18 910.22 C 656.07 911.90 655.85 915.25 655.74 916.93 C 654.28 919.28 654.11 921.65 655.23 924.07 C 655.03 926.66 654.86 929.28 654.74 931.94 C 653.28 934.28 653.11 936.66 654.23 939.07 C 654.03 941.66 653.86 944.28 653.74 946.94 C 652.28 949.28 652.11 951.66 653.23 954.07 C 653.03 956.66 652.86 959.28 652.73 961.94 C 651.29 964.27 651.12 966.65 652.21 969.07 C 652.02 971.98 651.88 974.79 651.81 977.79 C 651.40 980.49 651.14 983.41 651.16 986.21 C 651.00 989.08 650.87 991.83 650.81 994.79 C 650.40 997.48 650.14 1000.41 650.18 1003.21 C 650.04 1005.72 649.92 1008.24 649.83 1010.78 C 630.48 1016.24 611.40 1022.66 592.01 1028.02 C 561.67 1037.28 530.79 1044.89 501.13 1056.22 L 500.27 1056.44 C 499.74 1047.29 499.72 1038.09 500.92 1029.01 C 501.13 968.67 500.91 908.34 501.02 848.01 C 511.41 847.74 521.88 848.68 532.22 847.22 Z" />
<path fill="#29a9df" opacity="1.00" d=" M 272.71 848.62 C 283.99 846.92 295.60 848.52 307.00 848.00 L 307.00 848.98 C 295.58 848.66 284.08 849.70 272.71 848.62 Z" />
</g>
<g id="#cfcfcfff">
<path fill="#cfcfcf" opacity="1.00" d=" M 158.07 471.03 C 272.05 470.97 386.03 470.99 500.01 471.02 C 499.70 482.02 500.17 493.02 500.99 503.99 C 500.71 549.12 501.61 594.28 500.52 639.40 C 501.23 678.34 501.30 717.39 500.60 756.36 C 501.56 784.89 500.65 813.46 501.06 842.00 C 501.22 843.66 501.78 845.25 502.26 846.86 C 512.23 847.29 522.24 846.66 532.22 847.22 C 521.88 848.68 511.41 847.74 501.02 848.01 C 436.35 847.99 371.67 848.00 307.00 848.00 C 295.60 848.52 283.99 846.92 272.71 848.62 C 246.88 849.46 220.96 848.83 195.10 848.95 C 192.49 806.66 184.67 764.60 185.14 722.18 C 194.20 715.71 205.25 713.11 215.04 708.03 C 303.57 669.53 392.60 632.14 480.73 592.74 C 482.94 591.64 485.81 591.41 487.22 589.11 C 479.89 588.77 472.54 589.34 465.25 588.73 C 459.87 587.81 454.41 587.97 449.00 587.98 C 376.09 587.84 303.14 588.35 230.25 587.73 C 224.21 586.75 218.08 586.95 212.00 586.99 C 203.08 586.92 194.15 587.28 185.25 586.71 C 181.84 586.21 178.43 585.88 175.00 585.99 C 173.17 585.61 169.75 587.12 169.64 584.32 C 167.36 567.57 164.99 550.80 163.09 533.99 C 161.01 513.04 157.65 492.11 158.07 471.03 Z" />
<path fill="#cfcfcf" opacity="1.00" d=" M 539.78 471.22 C 626.51 470.68 713.26 471.19 800.00 470.97 C 806.73 471.03 813.52 470.68 820.22 471.78 C 733.49 472.32 646.74 471.81 560.00 472.03 C 553.25 471.96 546.46 472.30 539.78 471.22 Z" />
<path fill="#cfcfcf" opacity="1.00" d=" M 827.25 493.07 C 826.08 490.65 826.26 488.27 827.79 485.94 C 828.84 488.32 828.66 490.70 827.25 493.07 Z" />
<path fill="#cfcfcf" opacity="1.00" d=" M 819.26 585.07 C 818.09 582.67 818.25 580.29 819.75 577.93 C 820.85 580.30 820.69 582.68 819.26 585.07 Z" />
<path fill="#cfcfcf" opacity="1.00" d=" M 551.78 725.25 C 611.60 724.86 671.44 724.78 731.26 725.29 C 729.87 725.68 728.46 726.01 727.02 726.02 C 675.35 726.00 623.67 725.97 572.00 726.03 C 565.25 725.96 558.46 726.27 551.78 725.25 Z" />
<path fill="#cfcfcf" opacity="1.00" d=" M 806.17 743.21 C 806.14 740.40 806.40 737.51 806.84 734.79 C 806.91 737.63 806.45 740.34 806.17 743.21 Z" />
<path fill="#cfcfcf" opacity="1.00" d=" M 805.26 758.07 C 804.09 755.66 804.25 753.28 805.74 750.93 C 806.85 753.29 806.69 755.67 805.26 758.07 Z" />
<path fill="#cfcfcf" opacity="1.00" d=" M 804.26 772.07 C 803.09 769.66 803.25 767.29 804.74 764.93 C 805.86 767.29 805.70 769.67 804.26 772.07 Z" />
<path fill="#cfcfcf" opacity="1.00" d=" M 803.23 786.07 C 802.10 783.66 802.27 781.28 803.74 778.93 C 804.87 781.31 804.70 783.69 803.23 786.07 Z" />
<path fill="#cfcfcf" opacity="1.00" d=" M 801.25 813.07 C 800.10 810.67 800.26 808.29 801.72 805.93 C 802.86 808.29 802.71 810.67 801.25 813.07 Z" />
<path fill="#cfcfcf" opacity="1.00" d=" M 558.79 847.22 C 582.91 847.22 607.15 846.09 631.21 847.81 C 607.08 847.75 582.85 848.88 558.79 847.22 Z" />
<path fill="#cfcfcf" opacity="1.00" d=" M 648.74 847.68 C 652.44 847.03 656.18 846.81 659.96 847.00 L 659.99 848.02 C 656.25 848.04 652.45 847.79 648.74 847.68 Z" />
<path fill="#cfcfcf" opacity="1.00" d=" M 659.16 863.21 C 659.14 860.40 659.42 857.50 659.85 854.79 C 659.91 857.63 659.46 860.33 659.16 863.21 Z" />
<path fill="#cfcfcf" opacity="1.00" d=" M 797.25 863.07 C 796.10 860.66 796.26 858.28 797.75 855.93 C 798.86 858.30 798.69 860.68 797.25 863.07 Z" />
<path fill="#cfcfcf" opacity="1.00" d=" M 658.22 879.07 C 657.11 876.65 657.28 874.27 658.75 871.94 C 659.87 874.31 659.70 876.69 658.22 879.07 Z" />
<path fill="#cfcfcf" opacity="1.00" d=" M 657.18 895.22 C 657.14 892.41 657.40 889.50 657.81 886.79 C 657.90 889.63 657.47 892.33 657.18 895.22 Z" />
<path fill="#cfcfcf" opacity="1.00" d=" M 656.18 910.22 C 656.14 907.41 656.40 904.49 656.82 901.78 C 656.89 904.63 656.47 907.33 656.18 910.22 Z" />
<path fill="#cfcfcf" opacity="1.00" d=" M 655.23 924.07 C 654.11 921.65 654.28 919.28 655.74 916.93 C 656.87 919.30 656.70 921.68 655.23 924.07 Z" />
<path fill="#cfcfcf" opacity="1.00" d=" M 204.04 923.03 C 240.70 922.94 277.35 923.05 314.01 922.98 C 318.70 922.67 323.45 923.49 327.83 925.19 C 330.11 957.48 332.95 989.76 335.95 1022.01 C 336.09 1023.35 335.76 1025.04 337.23 1025.80 C 359.65 1031.75 382.69 1034.63 405.33 1039.58 C 435.29 1044.73 464.95 1051.50 495.00 1056.11 C 496.75 1056.31 498.52 1057.25 500.27 1056.44 L 501.13 1056.22 C 500.37 1058.68 499.26 1060.72 500.57 1063.58 C 502.31 1102.56 499.11 1141.71 502.41 1180.63 C 502.51 1182.82 504.24 1183.27 506.17 1183.30 C 503.74 1183.79 501.42 1184.50 499.02 1185.06 C 494.69 1185.43 490.47 1184.76 486.35 1183.51 C 438.73 1171.33 391.00 1159.52 343.32 1147.58 C 304.19 1136.87 264.93 1126.66 225.68 1116.41 C 222.88 1116.02 219.79 1113.80 221.73 1110.07 C 212.98 1048.04 206.27 985.61 204.04 923.03 Z" />
<path fill="#cfcfcf" opacity="1.00" d=" M 654.23 939.07 C 653.11 936.66 653.28 934.28 654.74 931.94 C 655.87 934.30 655.70 936.68 654.23 939.07 Z" />
<path fill="#cfcfcf" opacity="1.00" d=" M 653.23 954.07 C 652.11 951.66 652.28 949.28 653.74 946.94 C 654.87 949.30 654.70 951.68 653.23 954.07 Z" />
<path fill="#cfcfcf" opacity="1.00" d=" M 652.21 969.07 C 651.12 966.65 651.29 964.27 652.73 961.94 C 653.88 964.31 653.70 966.69 652.21 969.07 Z" />
<path fill="#cfcfcf" opacity="1.00" d=" M 651.16 986.21 C 651.14 983.41 651.40 980.49 651.81 977.79 C 651.90 980.63 651.47 983.32 651.16 986.21 Z" />
<path fill="#cfcfcf" opacity="1.00" d=" M 650.18 1003.21 C 650.14 1000.41 650.40 997.48 650.81 994.79 C 650.90 997.63 650.47 1000.32 650.18 1003.21 Z" />
</g>
<g id="#ffffffff">
<path fill="#ffffff" opacity="1.00" d=" M 500.01 471.02 C 513.26 471.02 526.52 470.81 539.78 471.22 C 546.46 472.30 553.25 471.96 560.00 472.03 C 646.74 471.81 733.49 472.32 820.22 471.78 C 822.77 471.91 825.34 472.02 827.93 472.11 C 828.22 476.71 827.84 481.31 827.79 485.94 C 826.26 488.27 826.08 490.65 827.25 493.07 C 825.33 521.40 821.99 549.63 819.75 577.93 C 818.25 580.29 818.09 582.67 819.26 585.07 C 818.62 590.29 819.08 595.89 816.73 600.71 C 812.99 603.92 808.36 605.84 804.01 608.01 C 772.20 622.45 739.98 635.94 708.03 650.05 C 682.93 660.82 658.27 672.60 633.03 683.06 C 603.13 695.78 573.25 708.58 544.23 723.25 C 543.12 726.87 549.75 724.17 551.78 725.25 C 558.46 726.27 565.25 725.96 572.00 726.03 C 623.67 725.97 675.35 726.00 727.02 726.02 C 728.46 726.01 729.87 725.68 731.26 725.29 C 756.47 724.67 781.70 725.08 806.93 725.05 C 807.16 728.31 806.87 731.49 806.84 734.79 C 806.40 737.51 806.14 740.40 806.17 743.21 C 805.99 745.76 805.85 748.33 805.74 750.93 C 804.25 753.28 804.09 755.66 805.26 758.07 C 805.13 759.78 804.87 763.22 804.74 764.93 C 803.25 767.29 803.09 769.66 804.26 772.07 C 804.13 773.78 803.87 777.22 803.74 778.93 C 802.27 781.28 802.10 783.66 803.23 786.07 C 802.89 792.69 802.47 799.32 801.72 805.93 C 800.26 808.29 800.10 810.67 801.25 813.07 C 800.03 827.35 799.39 841.69 797.75 855.93 C 796.26 858.28 796.10 860.66 797.25 863.07 C 790.94 942.14 783.40 1021.11 776.32 1100.12 C 775.77 1104.26 776.09 1108.66 774.76 1112.72 C 685.13 1135.86 595.99 1160.84 506.17 1183.30 C 504.24 1183.27 502.51 1182.82 502.41 1180.63 C 499.11 1141.71 502.31 1102.56 500.57 1063.58 C 499.26 1060.72 500.37 1058.68 501.13 1056.22 C 530.79 1044.89 561.67 1037.28 592.01 1028.02 C 611.40 1022.66 630.48 1016.24 649.83 1010.78 C 649.92 1008.24 650.04 1005.72 650.18 1003.21 C 650.47 1000.32 650.90 997.63 650.81 994.79 C 650.87 991.83 651.00 989.08 651.16 986.21 C 651.47 983.32 651.90 980.63 651.81 977.79 C 651.88 974.79 652.02 971.98 652.21 969.07 C 653.70 966.69 653.88 964.31 652.73 961.94 C 652.86 959.28 653.03 956.66 653.23 954.07 C 654.70 951.68 654.87 949.30 653.74 946.94 C 653.86 944.28 654.03 941.66 654.23 939.07 C 655.70 936.68 655.87 934.30 654.74 931.94 C 654.86 929.28 655.03 926.66 655.23 924.07 C 656.70 921.68 656.87 919.30 655.74 916.93 C 655.85 915.25 656.07 911.90 656.18 910.22 C 656.47 907.33 656.89 904.63 656.82 901.78 C 656.91 900.14 657.09 896.86 657.18 895.22 C 657.47 892.33 657.90 889.63 657.81 886.79 C 657.91 884.19 658.05 881.62 658.22 879.07 C 659.70 876.69 659.87 874.31 658.75 871.94 C 658.82 868.94 658.99 866.13 659.16 863.21 C 659.46 860.33 659.91 857.63 659.85 854.79 C 659.88 853.10 659.95 849.71 659.99 848.02 L 659.96 847.00 C 656.18 846.81 652.44 847.03 648.74 847.68 C 642.89 848.03 637.04 848.06 631.21 847.81 C 607.15 846.09 582.91 847.22 558.79 847.22 C 549.93 846.88 541.07 846.89 532.22 847.22 C 522.24 846.66 512.23 847.29 502.26 846.86 C 501.78 845.25 501.22 843.66 501.06 842.00 C 500.65 813.46 501.56 784.89 500.60 756.36 C 501.30 717.39 501.23 678.34 500.52 639.40 C 501.61 594.28 500.71 549.12 500.99 503.99 C 500.17 493.02 499.70 482.02 500.01 471.02 Z" />
</g>
</svg>
