<?xml version="1.0" encoding="UTF-8"?>
<!DOCTYPE svg PUBLIC "-//W3C//DTD SVG 1.1//EN" "http://www.w3.org/Graphics/SVG/1.1/DTD/svg11.dtd">
<!-- Creator: CorelDRAW X7.4 EN Portable -->
<svg xmlns="http://www.w3.org/2000/svg" xml:space="preserve" width="3300px" height="2550px" version="1.1" shape-rendering="geometricPrecision" text-rendering="geometricPrecision" image-rendering="optimizeQuality" fill-rule="evenodd" clip-rule="evenodd"
viewBox="0 0 3300 2550"
 xmlns:xlink="http://www.w3.org/1999/xlink">
 <g id="Layer_x0020_1">
  <metadata id="CorelCorpID_0Corel-Layer"/>
  <g id="_497808984">
   <rect fill="#FEFEFE" x="2204" y="338" width="496" height="129"/>
  </g>
  <path fill="#FEFEFE" d="M2493 1018l582 0 0 -110 -582 0 0 110zm364 540l218 0 0 -129 -218 0 0 129zm87 843l121 0 0 -110 -121 0 0 110zm-2652 -2248l851 5 541 497 551 -507 620 -1 0 120 231 0 0 155 -249 0 0 104 -436 0 0 120 685 0 0 127 -1295 0 1 62 -1 67 534 0 0 108 -242 0 -3 129 1006 0 0 108 -183 0 0 113 -313 0 0 129 114 0 0 118 -322 0 0 129 704 0 0 117 -164 0 0 85 -87 0 0 129 251 0 0 89 -733 0 0 129 455 0 0 105 -573 0 -17 -1069 -534 490 -541 -498 0 1084 -851 0 0 -2244zm2419 1797l0 129 -104 0 0 -129 104 0zm-146 -1558l102 0 0 -129 -102 0 0 129zm-1972 64l206 0 0 -43 -206 0 0 43zm138 -97l116 0 0 -43 -116 0 0 43zm-43 192l73 0 0 -44 -73 0 0 44zm-254 -4l230 0 0 -43 -187 0 0 -145 233 0 0 -43 -276 0 0 9 0 0 0 179 0 23 0 20zm-8 91l190 0 0 -43 -190 0 0 43z"/>
 </g>
</svg>
