<?xml version="1.0" encoding="UTF-8"?>
<!DOCTYPE svg PUBLIC "-//W3C//DTD SVG 1.1//EN" "http://www.w3.org/Graphics/SVG/1.1/DTD/svg11.dtd">
<!-- Creator: CorelDRAW X7.4 EN Portable -->
<svg xmlns="http://www.w3.org/2000/svg" xml:space="preserve" width="3300px" height="2550px" version="1.1" shape-rendering="geometricPrecision" text-rendering="geometricPrecision" image-rendering="optimizeQuality" fill-rule="evenodd" clip-rule="evenodd"
viewBox="0 0 3300 2550"
 xmlns:xlink="http://www.w3.org/1999/xlink">
 <g id="Layer_x0020_1">
  <metadata id="CorelCorpID_0Corel-Layer"/>
  <g id="_497809848">
   <rect fill="#FEFEFE" x="2229" y="289" width="516" height="134"/>
  </g>
  <path fill="#373435" d="M2530 996l605 0 0 -114 -605 0 0 114zm378 562l227 0 0 -134 -227 0 0 134zm91 878l126 0 0 -114 -126 0 0 114zm-2758 -2339l885 5 563 517 573 -527 645 -1 0 124 240 0 0 162 -260 0 0 108 -453 0 0 125 713 0 0 132 -1347 0 1 65 -1 69 555 0 0 112 -252 0 -2 134 1046 0 0 113 -191 0 0 118 -325 0 0 134 118 0 0 122 -335 0 0 134 733 0 0 123 -171 0 0 88 -90 0 0 135 261 0 0 92 -763 0 0 134 474 0 0 110 -596 0 -18 -1113 -555 510 -563 -518 0 1127 -885 0 0 -2334zm2516 1870l0 134 -108 0 0 -134 108 0zm-152 -1621l106 0 0 -134 -106 0 0 134zm-2051 66l214 0 0 -45 -214 0 0 45zm143 -101l120 0 0 -45 -120 0 0 45zm-45 200l76 0 0 -45 -76 0 0 45zm-264 -4l239 0 0 -45 -194 0 0 -151 242 0 0 -45 -287 0 0 10 0 0 0 186 0 24 0 21zm-9 94l198 0 0 -45 -198 0 0 45z"/>
 </g>
</svg>
