<svg id="Layer_1" data-name="Layer 1" xmlns="http://www.w3.org/2000/svg" width="56" height="56" viewBox="0 0 56 56">
  <defs>
    <style>
      .cls-1 {
        fill: #fff;
      }

      .cls-2 {
        fill: #005e93;
      }

      .cls-3 {
        fill: #9bdaf3;
      }

      .cls-4 {
        fill: #00a0dc;
      }
    </style>
  </defs>
  <title>56dp</title>
  <path class="cls-1" d="M28,12A16,16,0,1,0,44,28,16,16,0,0,0,28,12Z"/>
  <path class="cls-2" d="M28,7A21,21,0,1,1,7,28,21,21,0,0,1,28,7m0-3A24,24,0,1,0,52,28,24,24,0,0,0,28,4h0Z"/>
  <path class="cls-2" d="M28,12A16,16,0,1,1,12,28,16,16,0,0,1,28,12m0-3A19,19,0,1,0,47,28,19,19,0,0,0,28,9h0Z"/>
  <path class="cls-3" d="M28,7A21,21,0,1,0,49,28,21,21,0,0,0,28,7Zm0,40A19,19,0,1,1,47,28,19,19,0,0,1,28,47Z"/>
  <path class="cls-4" d="M34.91,19.83L25.49,32.27l-4.39-6-2.53,1.94,5,6.82a2.35,2.35,0,0,0,1.9.95h0a2.36,2.36,0,0,0,1.87-.95l10.07-13.3ZM25.48,35.5h0Z"/>
</svg>
