<?xml version="1.0" encoding="UTF-8" ?>
<!DOCTYPE svg PUBLIC "-//W3C//DTD SVG 1.1//EN" "http://www.w3.org/Graphics/SVG/1.1/DTD/svg11.dtd">
<svg width="240pt" height="240pt" viewBox="0 0 240 240" version="1.1" xmlns="http://www.w3.org/2000/svg">
<g id="#f5cac9fe">
<path fill="#f5cac9" opacity="1.00" d=" M 61.88 22.89 C 82.93 7.80 109.14 0.49 134.94 1.19 C 159.22 2.50 183.79 11.05 202.58 26.41 C 204.32 28.34 207.28 28.82 208.68 31.24 C 211.32 35.22 214.77 38.68 218.76 41.32 C 222.02 44.25 223.75 48.29 226.61 51.52 C 226.63 52.80 226.68 55.36 226.70 56.64 C 197.15 77.45 167.62 98.32 138.16 119.24 C 138.35 124.43 145.25 124.41 147.51 128.48 C 153.27 132.21 160.04 135.10 164.51 140.48 C 170.29 144.17 176.98 147.13 181.51 152.45 C 184.09 153.73 186.84 155.02 188.51 157.48 C 191.85 159.76 196.21 160.91 198.50 164.46 C 201.10 165.72 203.83 167.02 205.51 169.48 C 211.27 173.19 218.00 176.11 222.50 181.45 C 225.37 182.71 229.34 184.60 227.00 188.96 C 224.91 192.60 221.91 195.87 218.73 198.66 C 214.78 201.35 211.33 204.78 208.66 208.74 C 177.36 238.39 128.40 246.87 88.33 231.57 C 74.45 225.96 60.78 218.62 50.33 207.74 C 48.15 204.60 45.64 201.55 42.31 199.59 C 30.44 188.68 23.13 173.63 17.39 158.78 C 4.25 121.07 12.08 76.24 37.76 45.82 C 38.59 43.53 40.47 41.89 42.26 40.33 C 45.39 38.15 48.46 35.65 50.40 32.29 C 53.42 28.13 58.48 26.52 61.88 22.89 M 55.22 38.17 C 51.71 37.97 48.76 42.06 48.16 45.22 C 22.89 72.21 13.13 112.18 22.13 147.96 C 27.60 164.96 34.89 182.71 48.19 194.76 C 47.93 198.28 52.08 201.26 55.23 201.83 C 60.78 208.96 68.88 212.62 76.33 217.64 C 92.35 225.58 109.87 231.70 128.00 231.04 C 147.12 231.69 166.12 226.79 183.03 218.00 C 189.64 213.31 197.47 210.01 202.77 203.82 C 207.18 202.56 211.59 198.19 212.81 193.76 C 214.15 191.25 218.77 190.52 217.85 187.22 C 210.81 181.03 202.31 176.81 194.94 171.05 C 172.40 154.50 149.14 138.98 126.68 122.34 C 125.11 121.02 126.42 118.76 127.34 117.42 C 130.56 116.17 132.35 112.80 135.83 111.79 C 140.90 106.81 147.29 103.03 153.49 99.48 C 155.17 97.02 157.90 95.72 160.50 94.46 C 162.79 90.91 167.14 89.77 170.49 87.48 C 172.16 85.02 174.91 83.73 177.49 82.45 C 182.01 77.13 188.71 74.18 194.49 70.48 C 198.96 65.10 205.73 62.21 211.49 58.47 C 213.04 55.92 216.21 55.14 218.07 53.01 C 216.54 50.57 214.81 48.29 212.87 46.19 C 211.45 41.77 207.24 37.50 202.80 36.15 C 193.28 28.62 183.13 21.64 171.71 17.29 C 133.14 0.82 85.78 9.59 55.22 38.17 Z" />
</g>
<g id="#91a6cffd">
<path fill="#91a6cf" opacity="1.00" d=" M 208.68 31.24 C 212.55 33.36 216.63 37.44 218.76 41.32 C 214.77 38.68 211.32 35.22 208.68 31.24 Z" />
<path fill="#91a6cf" opacity="1.00" d=" M 42.26 40.33 C 43.82 37.29 46.97 33.38 50.40 32.29 C 48.46 35.65 45.39 38.15 42.26 40.33 Z" />
<path fill="#91a6cf" opacity="1.00" d=" M 202.80 36.15 C 207.24 37.50 211.45 41.77 212.87 46.19 C 209.43 42.92 206.08 39.56 202.80 36.15 Z" />
<path fill="#91a6cf" opacity="1.00" d=" M 48.16 45.22 C 48.76 42.06 51.71 37.97 55.22 38.17 C 52.93 40.58 50.55 42.90 48.16 45.22 Z" />
<path fill="#91a6cf" opacity="1.00" d=" M 100.32 43.37 C 111.36 40.79 122.96 48.31 126.14 58.91 C 129.85 69.90 122.54 82.29 111.88 85.85 C 100.77 90.20 87.78 82.80 84.15 71.88 C 79.46 59.89 88.33 46.24 100.32 43.37 M 101.32 47.37 C 91.75 49.06 85.20 59.33 87.37 68.68 C 88.88 73.79 91.63 79.11 97.00 80.97 C 105.93 86.13 119.18 81.00 121.86 70.87 C 124.65 65.10 122.24 58.15 118.78 53.21 C 114.48 48.60 107.63 45.82 101.32 47.37 Z" />
<path fill="#91a6cf" opacity="1.00" d=" M 202.77 203.82 C 206.06 200.41 209.43 197.08 212.81 193.76 C 211.59 198.19 207.18 202.56 202.77 203.82 Z" />
<path fill="#91a6cf" opacity="1.00" d=" M 48.19 194.76 C 50.60 197.04 52.92 199.43 55.23 201.83 C 52.08 201.26 47.93 198.28 48.19 194.76 Z" />
<path fill="#91a6cf" opacity="1.00" d=" M 208.66 208.74 C 211.33 204.78 214.78 201.35 218.73 198.66 C 216.71 202.54 212.52 206.67 208.66 208.74 Z" />
<path fill="#91a6cf" opacity="1.00" d=" M 42.31 199.59 C 45.64 201.55 48.15 204.60 50.33 207.74 C 47.30 206.18 43.36 203.03 42.31 199.59 Z" />
</g>
</svg>
