<?xml version="1.0" encoding="UTF-8" ?>
<!DOCTYPE svg PUBLIC "-//W3C//DTD SVG 1.1//EN" "http://www.w3.org/Graphics/SVG/1.1/DTD/svg11.dtd">
<svg width="240pt" height="240pt" viewBox="0 0 240 240" version="1.1" xmlns="http://www.w3.org/2000/svg">
<g id="#f5cac9fe">
<path fill="#f5cac9" opacity="1.00" d=" M 176.34 24.38 C 192.38 14.00 211.74 11.35 230.02 7.19 C 233.61 7.41 234.78 11.97 233.83 14.94 C 230.80 28.09 228.35 41.50 222.92 53.94 C 221.24 57.70 220.02 61.95 216.74 64.69 C 212.97 67.18 209.94 70.58 206.74 73.74 C 189.27 91.26 171.76 108.74 154.25 126.22 C 153.96 126.94 153.38 128.37 153.09 129.09 C 152.93 130.97 152.95 132.87 152.71 134.75 C 151.99 139.79 151.91 144.91 152.00 150.01 C 153.13 165.04 149.38 180.69 139.04 192.03 C 125.91 206.20 111.74 219.41 98.27 233.27 C 95.08 236.11 89.57 231.19 92.44 227.33 C 93.76 213.87 95.65 200.46 97.02 187.01 C 97.47 184.22 93.53 184.43 92.22 182.77 C 80.63 171.04 68.88 159.47 57.28 147.75 C 57.09 146.51 56.93 145.27 56.79 144.03 C 40.51 144.76 24.47 148.79 8.18 148.90 C 7.61 147.41 6.73 145.90 7.07 144.24 C 17.50 136.49 25.72 126.08 35.25 117.25 C 39.55 112.53 44.87 108.66 48.39 103.28 C 49.55 100.93 52.75 101.24 53.87 98.87 C 64.72 89.62 79.56 89.65 93.00 88.98 C 99.23 88.17 106.41 90.65 112.27 88.22 C 133.68 67.00 154.77 45.42 176.34 24.38 M 224.93 16.08 C 209.91 19.70 193.88 22.08 180.78 30.80 C 147.43 64.23 113.63 97.39 80.73 131.18 C 78.96 130.18 80.37 133.49 81.23 133.79 C 90.27 142.75 99.31 151.73 108.21 160.83 C 109.40 161.13 110.58 161.11 111.75 160.78 C 144.42 128.12 177.00 95.36 209.80 62.82 C 210.06 62.06 210.59 60.56 210.85 59.81 C 211.62 58.92 212.58 58.15 213.07 57.05 C 219.26 44.20 223.27 30.23 224.93 16.08 M 86.99 95.99 L 87.01 96.99 C 81.86 96.98 76.78 98.00 71.70 98.64 C 64.95 99.72 59.68 104.41 54.23 108.19 C 53.74 108.20 52.76 108.22 52.27 108.23 C 42.37 118.99 30.49 128.19 21.93 140.05 C 22.36 139.98 23.24 139.84 23.67 139.77 C 25.83 140.23 28.01 139.88 30.09 139.26 C 41.95 137.59 53.87 136.38 65.73 134.76 C 78.11 122.47 90.35 110.03 102.79 97.79 C 104.19 94.72 99.91 96.35 98.25 96.26 C 95.44 96.19 89.81 96.06 86.99 95.99 M 67.20 146.75 C 76.82 156.05 86.00 165.96 95.80 174.99 C 99.62 174.47 102.75 170.34 103.94 166.88 L 103.90 166.17 C 103.86 165.70 103.79 164.74 103.76 164.27 C 95.16 155.53 86.34 147.00 77.81 138.20 C 77.07 137.89 75.60 137.29 74.86 136.98 C 72.10 139.83 66.50 142.34 67.20 146.75 M 142.23 138.23 C 132.91 147.57 123.64 156.97 114.20 166.18 C 113.94 166.94 113.41 168.45 113.15 169.21 C 112.91 169.45 112.43 169.92 112.19 170.16 C 109.02 169.64 106.53 173.40 106.14 176.18 C 104.44 190.49 102.72 204.79 101.10 219.11 C 112.33 209.07 122.00 197.29 133.62 187.71 C 135.29 182.46 140.02 178.71 141.44 173.33 C 143.67 167.15 144.25 160.53 143.98 154.00 C 146.30 153.11 144.49 148.19 144.74 145.75 C 145.03 143.10 145.05 140.44 144.80 137.78 C 145.88 135.99 142.52 137.36 142.23 138.23 Z" />
</g>
<g id="#97a3c5f1">
<path fill="#97a3c5" opacity="0.95" d=" M 109.99 160.19 C 143.94 127.10 177.02 93.05 210.85 59.81 C 210.59 60.56 210.06 62.06 209.80 62.82 C 177.00 95.36 144.42 128.12 111.75 160.78 C 110.58 161.11 109.40 161.13 108.21 160.83 C 99.31 151.73 90.27 142.75 81.23 133.79 C 80.37 133.49 78.96 130.18 80.73 131.18 C 90.50 140.83 99.93 150.85 109.99 160.19 Z" />
<path fill="#97a3c5" opacity="0.95" d=" M 206.74 73.74 C 209.94 70.58 212.97 67.18 216.74 64.69 L 216.67 65.66 C 195.60 86.91 174.57 108.25 153.09 129.09 C 153.38 128.37 153.96 126.94 154.25 126.22 C 171.76 108.74 189.27 91.26 206.74 73.74 Z" />
<path fill="#97a3c5" opacity="0.95" d=" M 93.00 88.02 C 99.42 88.07 105.86 87.67 112.27 88.22 C 106.41 90.65 99.23 88.17 93.00 88.98 L 93.00 88.02 Z" />
<path fill="#97a3c5" opacity="0.95" d=" M 86.99 95.99 C 89.81 96.06 95.44 96.19 98.25 96.26 C 94.52 96.81 90.77 97.06 87.01 96.99 L 86.99 95.99 Z" />
<path fill="#97a3c5" opacity="0.95" d=" M 40.25 110.25 C 43.09 108.27 44.94 104.05 48.39 103.28 C 44.87 108.66 39.55 112.53 35.25 117.25 C 25.72 126.08 17.50 136.49 7.07 144.24 C 17.17 132.25 29.35 121.69 40.25 110.25 Z" />
<path fill="#97a3c5" opacity="0.95" d=" M 52.27 108.23 C 52.76 108.22 53.74 108.20 54.23 108.19 C 44.19 118.85 32.98 128.44 23.67 139.77 C 23.24 139.84 22.36 139.98 21.93 140.05 C 30.49 128.19 42.37 118.99 52.27 108.23 Z" />
<path fill="#97a3c5" opacity="0.95" d=" M 152.00 150.01 C 151.91 144.91 151.99 139.79 152.71 134.75 C 152.96 139.81 153.18 144.90 152.96 149.98 L 152.00 150.01 Z" />
<path fill="#97a3c5" opacity="0.95" d=" M 74.86 136.98 C 75.60 137.29 77.07 137.89 77.81 138.20 C 86.34 147.00 95.16 155.53 103.76 164.27 C 103.79 164.74 103.86 165.70 103.90 166.17 C 94.04 156.63 84.22 147.01 74.86 136.98 Z" />
<path fill="#97a3c5" opacity="0.95" d=" M 142.23 138.23 C 142.52 137.36 145.88 135.99 144.80 137.78 C 134.15 148.15 123.87 158.90 113.15 169.21 C 113.41 168.45 113.94 166.94 114.20 166.18 C 123.64 156.97 132.91 147.57 142.23 138.23 Z" />
<path fill="#97a3c5" opacity="0.95" d=" M 143.98 154.00 C 143.98 151.24 144.36 148.47 144.74 145.75 C 144.49 148.19 146.30 153.11 143.98 154.00 Z" />
<path fill="#97a3c5" opacity="0.95" d=" M 45.32 161.34 C 50.90 160.42 57.05 160.42 61.33 164.66 C 62.95 165.67 61.69 170.18 59.67 168.35 C 56.58 166.77 54.06 163.55 49.99 164.98 C 39.49 165.26 33.66 175.39 30.01 184.00 C 25.02 196.94 20.43 210.23 17.92 223.86 C 33.57 219.48 49.35 215.16 63.98 207.98 C 71.66 203.87 79.55 194.42 75.56 185.35 C 74.32 183.40 72.56 181.48 72.97 178.97 C 78.99 178.53 80.58 186.51 81.01 191.00 C 79.05 200.72 72.43 209.48 62.97 212.99 C 47.69 219.52 31.79 224.53 15.69 228.61 C 13.09 230.15 11.30 224.69 13.48 223.34 C 17.09 208.20 21.84 193.30 27.99 178.99 C 31.07 171.06 37.42 164.53 45.32 161.34 Z" />
<path fill="#97a3c5" opacity="0.95" d=" M 95.80 174.99 C 98.27 172.05 101.11 169.45 103.94 166.88 C 102.75 170.34 99.62 174.47 95.80 174.99 Z" />
<path fill="#97a3c5" opacity="0.95" d=" M 106.14 176.18 C 106.53 173.40 109.02 169.64 112.19 170.16 C 110.23 172.22 108.18 174.19 106.14 176.18 Z" />
</g>
</svg>
