<?xml version="1.0" encoding="UTF-8" ?>
<!DOCTYPE svg PUBLIC "-//W3C//DTD SVG 1.1//EN" "http://www.w3.org/Graphics/SVG/1.1/DTD/svg11.dtd">
<svg width="400pt" height="300pt" viewBox="0 0 400 300" version="1.1" xmlns="http://www.w3.org/2000/svg">
<g id="#fd9e01fd">
<path fill="#fd9e01" opacity="1.00" d=" M 246.04 26.89 C 255.45 30.86 260.27 40.27 265.59 48.36 C 271.50 60.22 273.89 73.74 272.84 86.94 C 270.59 104.94 260.50 122.60 243.99 130.97 C 233.59 137.11 220.93 137.66 209.19 136.83 C 203.92 130.75 198.99 124.36 193.70 118.29 C 188.03 113.38 191.58 104.56 193.36 98.30 C 197.96 83.17 213.33 76.45 225.70 68.69 C 240.53 61.04 249.69 43.28 246.04 26.89 M 250.32 39.37 C 247.33 44.69 249.64 51.73 246.02 57.02 C 240.38 68.97 227.99 74.73 217.30 81.31 C 206.57 87.64 197.25 98.18 196.01 110.95 C 196.54 112.41 198.24 116.81 199.65 113.74 C 200.40 109.34 202.18 105.20 204.33 101.31 C 210.69 91.00 222.40 86.62 231.94 79.97 C 242.64 74.63 250.49 63.88 251.97 52.00 C 252.17 47.56 250.88 43.18 250.75 38.75 L 250.32 39.37 Z" />
<path fill="#fd9e01" opacity="1.00" d=" M 186.28 121.28 L 186.97 120.99 C 193.73 125.84 198.01 133.33 203.69 139.31 C 204.95 142.70 198.85 143.74 197.16 146.00 C 191.89 139.21 185.97 132.95 180.92 125.99 C 182.02 123.87 184.11 122.28 186.28 121.28 Z" />
<path fill="#fd9e01" opacity="1.00" d=" M 171.33 130.42 C 175.90 127.73 179.25 131.90 180.51 135.53 C 184.44 138.21 186.80 142.55 190.02 145.98 C 190.89 147.55 194.04 149.40 192.67 151.70 C 186.50 167.78 180.47 185.42 165.07 195.07 C 123.78 221.57 81.07 245.78 39.03 271.03 C 32.95 275.39 23.69 267.51 28.04 261.04 C 29.96 255.44 36.08 253.45 38.35 248.29 C 42.23 244.82 44.66 240.01 48.92 236.95 C 56.23 226.86 65.51 218.10 73.22 208.21 C 81.11 202.09 85.18 192.38 93.53 186.57 C 95.03 182.70 98.30 180.01 101.49 177.51 C 103.31 172.95 107.68 170.27 110.86 166.87 C 112.87 160.77 120.44 159.23 122.26 153.21 C 129.11 145.71 137.63 139.88 147.05 136.09 C 155.07 133.91 163.20 132.13 171.33 130.42 M 168.34 136.51 C 159.77 138.44 150.66 139.40 143.01 144.03 C 134.31 148.50 127.20 155.59 121.07 163.07 C 91.77 195.09 63.60 228.22 34.29 260.27 C 33.34 261.74 31.91 263.12 31.94 265.01 C 35.50 265.83 37.02 262.09 38.85 259.83 C 42.85 255.20 47.59 251.28 51.65 246.70 C 56.33 239.80 63.61 235.17 68.38 228.35 C 86.63 209.24 104.67 189.98 122.24 170.24 C 130.60 162.22 138.06 152.56 149.13 148.16 C 157.37 145.00 166.08 143.33 174.73 141.72 C 178.61 139.32 170.83 133.69 168.34 136.51 Z" />
</g>
<g id="#747473f8">
<path fill="#747473" opacity="0.97" d=" M 71.34 36.46 C 81.05 33.90 89.89 40.14 95.76 47.24 C 100.76 52.26 105.73 57.32 110.86 62.20 C 93.32 80.46 75.28 98.53 57.00 116.06 C 49.46 109.66 42.96 102.05 35.72 95.29 C 31.41 91.56 30.25 85.46 30.03 80.04 C 31.19 69.42 39.42 61.67 47.01 55.00 C 51.05 49.36 56.98 45.66 61.75 40.74 C 64.33 38.22 67.87 37.10 71.34 36.46 Z" />
<path fill="#747473" opacity="0.97" d=" M 117.28 70.27 C 117.91 70.51 119.16 70.97 119.79 71.20 C 136.39 88.22 153.63 104.66 170.05 121.83 C 164.17 123.36 158.19 124.75 152.22 125.84 C 137.29 110.74 122.30 95.67 107.14 80.80 C 110.06 76.91 113.81 73.68 117.28 70.27 Z" />
<path fill="#747473" opacity="0.97" d=" M 100.29 87.28 L 100.96 86.93 C 115.35 100.45 129.33 114.68 143.05 128.88 C 139.54 129.65 136.73 133.01 133.23 132.84 C 120.98 120.40 108.60 108.08 96.22 95.78 C 95.56 94.90 94.29 94.33 94.15 93.16 C 96.20 91.21 98.15 89.14 100.29 87.28 Z" />
<path fill="#747473" opacity="0.97" d=" M 87.29 100.28 L 87.96 99.93 C 100.51 111.32 112.04 123.93 124.27 135.72 C 124.94 136.58 126.61 137.46 125.81 138.76 C 123.54 140.68 121.82 143.52 119.17 144.86 C 106.73 131.99 93.88 119.51 81.29 106.79 C 82.10 104.26 85.32 102.39 87.29 100.28 Z" />
<path fill="#747473" opacity="0.97" d=" M 74.26 113.24 L 74.96 112.95 C 87.03 123.81 98.03 135.96 109.78 147.22 C 110.72 148.56 112.49 149.39 113.05 151.00 C 110.84 155.51 106.88 158.96 103.02 162.03 C 99.90 159.49 96.21 157.49 94.00 154.00 C 89.98 148.37 83.28 145.29 79.55 139.40 C 74.45 134.21 68.22 129.87 63.96 123.99 C 66.77 120.04 70.88 116.84 74.26 113.24 Z" />
<path fill="#747473" opacity="0.97" d=" M 201.09 153.03 C 218.06 168.94 234.10 185.95 250.77 202.24 C 253.21 205.10 257.22 207.19 257.55 211.33 C 259.63 231.86 261.42 252.45 263.00 273.01 C 247.96 271.75 233.21 267.89 218.29 265.62 C 212.98 264.11 207.12 264.46 202.18 261.80 C 185.99 245.09 168.97 229.05 153.04 212.18 C 157.67 209.76 162.07 205.61 166.76 204.20 C 181.04 219.26 196.84 232.96 210.23 248.79 C 217.62 249.91 225.06 250.82 232.34 252.57 C 236.95 255.35 239.54 250.73 242.28 248.28 C 244.10 246.29 247.01 244.63 244.96 241.00 C 244.30 232.75 243.27 224.55 242.64 216.31 C 241.35 211.99 236.35 210.59 233.74 207.26 C 220.94 194.04 207.26 181.53 194.97 167.92 C 196.66 162.88 198.87 157.89 201.09 153.03 Z" />
<path fill="#747473" opacity="0.97" d=" M 190.27 177.17 C 193.33 177.14 194.94 181.10 197.26 182.74 C 208.40 193.94 219.62 205.08 230.77 216.27 C 231.92 219.83 227.30 222.18 224.99 224.03 C 211.76 211.87 199.20 198.42 186.26 185.74 C 186.18 182.74 189.43 180.14 190.27 177.17 Z" />
<path fill="#747473" opacity="0.97" d=" M 179.26 193.22 C 182.15 192.01 183.87 195.79 185.78 197.22 C 196.37 207.97 207.13 218.57 217.78 229.26 C 218.91 232.83 214.31 235.18 211.99 237.03 C 199.39 225.58 187.60 212.69 175.22 200.79 C 171.64 198.02 177.85 195.37 179.26 193.22 Z" />
</g>
<g id="#fff9eeff">
<path fill="#fff9ee" opacity="1.00" d=" M 250.32 39.37 L 250.75 38.75 C 250.88 43.18 252.17 47.56 251.97 52.00 C 250.49 63.88 242.64 74.63 231.94 79.97 C 222.40 86.62 210.69 91.00 204.33 101.31 C 202.18 105.20 200.40 109.34 199.65 113.74 C 198.24 116.81 196.54 112.41 196.01 110.95 C 197.25 98.18 206.57 87.64 217.30 81.31 C 227.99 74.73 240.38 68.97 246.02 57.02 C 249.64 51.73 247.33 44.69 250.32 39.37 Z" />
<path fill="#fff9ee" opacity="1.00" d=" M 168.34 136.51 C 170.83 133.69 178.61 139.32 174.73 141.72 C 166.08 143.33 157.37 145.00 149.13 148.16 C 138.06 152.56 130.60 162.22 122.24 170.24 C 104.67 189.98 86.63 209.24 68.38 228.35 C 63.61 235.17 56.33 239.80 51.65 246.70 C 47.59 251.28 42.85 255.20 38.85 259.83 C 37.02 262.09 35.50 265.83 31.94 265.01 C 31.91 263.12 33.34 261.74 34.29 260.27 C 63.60 228.22 91.77 195.09 121.07 163.07 C 127.20 155.59 134.31 148.50 143.01 144.03 C 150.66 139.40 159.77 138.44 168.34 136.51 Z" />
</g>
</svg>
