<?xml version="1.0" encoding="UTF-8" ?>
<!DOCTYPE svg PUBLIC "-//W3C//DTD SVG 1.1//EN" "http://www.w3.org/Graphics/SVG/1.1/DTD/svg11.dtd">
<svg width="1024pt" height="1024pt" viewBox="0 0 1024 1024" version="1.1" xmlns="http://www.w3.org/2000/svg">
<g id="#000000fd">
<path fill="#000000" opacity="1.00" d=" M 217.00 0.00 L 263.00 0.00 C 263.07 15.31 262.87 30.63 263.06 45.94 C 277.02 46.04 290.99 46.11 304.95 45.93 C 305.12 30.62 304.93 15.31 305.00 0.00 L 351.00 0.00 C 350.96 45.98 351.07 91.96 350.95 137.95 C 335.65 138.07 320.35 138.04 305.05 137.95 C 304.80 122.66 305.19 107.36 304.95 92.07 C 290.99 91.88 277.02 91.98 263.05 92.05 C 262.80 107.34 263.19 122.65 262.95 137.95 C 247.66 138.07 232.36 138.05 217.07 137.95 C 216.89 91.97 217.05 45.98 217.00 0.00 Z" />
<path fill="#000000" opacity="1.00" d=" M 371.00 0.00 L 499.00 0.00 C 498.93 15.32 499.11 30.63 498.95 45.95 C 485.32 46.20 471.69 45.80 458.07 46.05 C 457.83 76.68 458.15 107.31 457.95 137.95 C 442.66 138.07 427.36 138.05 412.07 137.95 C 411.83 107.32 412.15 76.69 411.95 46.05 C 398.32 45.80 384.69 46.21 371.06 45.94 C 370.87 30.63 371.07 15.31 371.00 0.00 Z" />
<path fill="#000000" opacity="1.00" d=" M 519.00 0.00 L 566.85 0.00 C 577.16 15.65 586.52 31.95 596.38 47.91 C 598.23 46.87 598.94 44.75 600.11 43.09 C 608.54 28.58 617.81 14.57 626.14 0.00 L 674.00 0.00 C 673.95 45.98 674.09 91.96 673.94 137.94 C 658.98 138.06 644.01 138.06 629.06 137.94 C 628.86 119.62 629.06 101.30 629.03 82.99 C 628.79 78.96 629.33 74.69 627.79 70.85 C 617.33 86.86 606.79 102.84 596.74 119.12 C 585.16 103.25 575.36 85.98 564.14 69.79 C 563.70 92.50 564.23 115.22 563.94 137.94 C 548.98 138.07 534.02 138.05 519.07 137.95 C 518.89 91.97 519.05 45.98 519.00 0.00 Z" />
<path fill="#000000" opacity="1.00" d=" M 697.00 0.00 L 744.00 0.00 C 744.05 30.63 743.91 61.27 744.05 91.90 C 765.27 92.32 786.51 91.67 807.73 92.13 C 808.02 92.41 808.59 92.98 808.87 93.27 C 809.16 108.15 809.00 123.04 808.95 137.93 C 771.66 138.07 734.36 138.02 697.07 137.95 C 696.89 91.97 697.05 45.98 697.00 0.00 Z" />
</g>
<g id="#e44d26ff">
<path fill="#e44d26" opacity="1.00" d=" M 149.05 201.06 C 391.02 200.96 633.00 200.96 874.97 201.06 C 867.83 273.08 861.96 345.23 855.38 417.31 C 839.90 590.19 824.45 763.10 809.04 935.99 C 811.53 942.74 803.93 942.43 800.07 944.05 C 727.98 963.78 656.02 984.03 583.95 1003.84 C 560.24 1010.85 536.14 1016.54 512.59 1024.00 L 510.41 1024.00 C 508.34 1023.16 506.22 1022.51 504.11 1021.84 C 407.76 995.35 311.59 968.21 215.21 941.81 C 193.09 694.90 171.32 447.95 149.05 201.06 M 512.07 262.03 C 511.91 292.02 512.02 322.01 512.02 352.00 C 436.03 352.03 360.04 351.95 284.05 352.03 C 284.68 354.18 281.53 360.42 284.95 360.00 C 291.93 449.02 301.17 537.92 308.09 626.97 L 309.03 627.00 L 309.01 627.95 C 376.65 628.09 444.30 627.92 511.94 628.03 C 512.23 676.12 511.67 724.22 512.21 772.30 C 509.29 772.73 506.46 771.12 503.68 770.40 C 488.70 766.35 473.63 762.64 458.70 758.37 C 442.46 754.51 426.66 748.59 410.18 745.85 C 408.11 721.57 405.42 697.32 403.92 673.01 L 404.01 672.03 C 373.67 671.97 343.33 671.98 312.99 672.03 L 313.03 673.01 C 316.07 720.63 321.57 768.15 325.14 815.76 C 387.56 832.32 449.61 850.62 512.05 867.08 C 511.94 898.05 511.99 929.03 512.03 960.02 C 516.57 960.12 520.96 958.55 525.31 957.40 C 599.60 936.57 673.99 916.11 748.33 895.47 C 749.67 894.99 751.79 894.75 751.92 892.95 C 753.39 887.73 752.95 882.23 753.70 876.92 C 769.71 698.40 785.51 519.87 801.59 341.35 C 803.35 314.89 807.15 288.54 808.00 262.04 C 709.36 261.97 610.71 261.98 512.07 262.03 Z" />
<path fill="#e44d26" opacity="1.00" d=" M 383.52 446.20 C 383.56 444.47 384.40 443.74 386.04 444.01 C 428.02 443.98 470.01 444.00 512.00 444.01 C 512.00 474.67 512.00 505.33 512.00 535.99 C 472.06 535.90 432.11 536.20 392.19 535.86 C 391.97 534.34 391.52 531.28 391.30 529.76 C 387.81 502.01 386.02 474.05 383.52 446.20 Z" />
</g>
<g id="#f16529ff">
<path fill="#f16529" opacity="1.00" d=" M 512.07 262.03 C 610.71 261.98 709.36 261.97 808.00 262.04 C 807.15 288.54 803.35 314.89 801.59 341.35 C 785.51 519.87 769.71 698.40 753.70 876.92 C 752.95 882.23 753.39 887.73 751.92 892.95 C 751.79 894.75 749.67 894.99 748.33 895.47 C 673.99 916.11 599.60 936.57 525.31 957.40 C 520.96 958.55 516.57 960.12 512.03 960.02 C 511.99 929.03 511.94 898.05 512.05 867.08 C 573.94 849.89 635.79 832.57 697.76 815.67 C 706.46 724.93 714.07 634.02 722.33 543.22 C 722.66 540.83 722.89 538.44 723.02 536.06 C 652.68 535.91 582.34 536.06 512.00 535.99 C 512.00 505.33 512.00 474.67 512.00 444.01 C 584.92 443.88 657.86 444.21 730.77 443.86 L 731.09 443.06 C 733.92 413.16 737.06 383.05 739.01 353.02 L 738.98 352.04 C 663.32 351.94 587.67 352.04 512.02 352.00 C 512.02 322.01 511.91 292.02 512.07 262.03 Z" />
<path fill="#f16529" opacity="1.00" d=" M 309.03 627.00 C 413.67 627.04 518.30 626.93 622.93 627.05 C 623.39 633.70 622.40 640.35 621.89 646.98 C 618.82 678.68 616.30 710.43 613.25 742.13 C 613.32 744.14 612.27 746.09 610.03 746.07 C 577.38 754.66 544.83 763.61 512.21 772.30 C 511.67 724.22 512.23 676.12 511.94 628.03 C 444.30 627.92 376.65 628.09 309.01 627.95 L 309.03 627.00 Z" />
</g>
<g id="#f09f83ff">
<path fill="#f09f83" opacity="1.00" d=" M 284.05 352.03 C 360.04 351.95 436.03 352.03 512.02 352.00 C 587.67 352.04 663.32 351.94 738.98 352.04 L 739.01 353.02 C 587.71 353.04 436.39 352.89 285.09 353.09 C 285.05 354.81 284.99 358.27 284.95 360.00 C 281.53 360.42 284.68 354.18 284.05 352.03 Z" />
<path fill="#f09f83" opacity="1.00" d=" M 383.00 443.07 C 499.03 442.94 615.06 442.97 731.09 443.06 L 730.77 443.86 C 657.86 444.21 584.92 443.88 512.00 444.01 C 470.01 444.00 428.02 443.98 386.04 444.01 C 384.40 443.74 383.56 444.47 383.52 446.20 C 383.30 445.16 383.13 444.11 383.00 443.07 Z" />
<path fill="#f09f83" opacity="1.00" d=" M 391.30 529.76 C 391.52 531.28 391.97 534.34 392.19 535.86 C 432.11 536.20 472.06 535.90 512.00 535.99 C 582.34 536.06 652.68 535.91 723.02 536.06 C 722.89 538.44 722.66 540.83 722.33 543.22 C 722.24 541.68 722.04 538.60 721.94 537.06 C 611.65 536.89 501.35 537.09 391.05 536.96 C 391.11 535.16 391.24 531.56 391.30 529.76 Z" />
<path fill="#f09f83" opacity="1.00" d=" M 312.99 672.03 C 343.33 671.98 373.67 671.97 404.01 672.03 L 403.92 673.01 C 373.62 672.99 343.32 672.99 313.03 673.01 L 312.99 672.03 Z" />
</g>
<g id="#f5f5f5ff">
<path fill="#f5f5f5" opacity="1.00" d=" M 285.09 353.09 C 436.39 352.89 587.71 353.04 739.01 353.02 C 737.06 383.05 733.92 413.16 731.09 443.06 C 615.06 442.97 499.03 442.94 383.00 443.07 C 383.13 444.11 383.30 445.16 383.52 446.20 C 386.02 474.05 387.81 502.01 391.30 529.76 C 391.24 531.56 391.11 535.16 391.05 536.96 C 501.35 537.09 611.65 536.89 721.94 537.06 C 722.04 538.60 722.24 541.68 722.33 543.22 C 714.07 634.02 706.46 724.93 697.76 815.67 C 635.79 832.57 573.94 849.89 512.05 867.08 C 449.61 850.62 387.56 832.32 325.14 815.76 C 321.57 768.15 316.07 720.63 313.03 673.01 C 343.32 672.99 373.62 672.99 403.92 673.01 C 405.42 697.32 408.11 721.57 410.18 745.85 C 426.66 748.59 442.46 754.51 458.70 758.37 C 473.63 762.64 488.70 766.35 503.68 770.40 C 506.46 771.12 509.29 772.73 512.21 772.30 C 544.83 763.61 577.38 754.66 610.03 746.07 C 612.27 746.09 613.32 744.14 613.25 742.13 C 616.30 710.43 618.82 678.68 621.89 646.98 C 622.40 640.35 623.39 633.70 622.93 627.05 C 518.30 626.93 413.67 627.04 309.03 627.00 L 308.09 626.97 C 301.17 537.92 291.93 449.02 284.95 360.00 C 284.99 358.27 285.05 354.81 285.09 353.09 Z" />
</g>
</svg>
