<?xml version="1.0" encoding="UTF-8" ?>
<!DOCTYPE svg PUBLIC "-//W3C//DTD SVG 1.1//EN" "http://www.w3.org/Graphics/SVG/1.1/DTD/svg11.dtd">
<svg width="750pt" height="536pt" viewBox="0 0 750 536" version="1.1" xmlns="http://www.w3.org/2000/svg">
<g id="#eef7fcfc">
<path fill="#eef7fc" opacity="1.00" d=" M 495.16 138.64 C 495.83 135.78 498.92 137.90 500.65 138.41 C 520.32 147.00 541.45 153.15 560.53 162.40 C 542.85 173.19 523.88 183.69 503.91 189.87 C 481.81 188.83 459.64 188.10 437.60 186.63 C 436.09 186.44 427.65 188.20 429.68 183.84 C 439.25 179.41 448.87 174.18 458.60 170.18 C 471.02 178.35 486.12 181.99 500.10 186.93 C 502.64 187.31 507.65 189.68 507.89 185.95 C 505.29 171.32 501.72 156.86 498.55 142.34 C 498.33 140.42 496.74 139.43 495.16 138.64 Z" />
</g>
<g id="#fbfcfdfd">
<path fill="#fbfcfd" opacity="1.00" d=" M 458.60 170.18 C 470.56 159.49 482.86 149.00 495.16 138.64 C 496.74 139.43 498.33 140.42 498.55 142.34 C 501.72 156.86 505.29 171.32 507.89 185.95 C 507.65 189.68 502.64 187.31 500.10 186.93 C 486.12 181.99 471.02 178.35 458.60 170.18 Z" />
</g>
<g id="#e3f6ffff">
<path fill="#e3f6ff" opacity="1.00" d=" M 560.53 162.40 C 560.94 162.48 561.75 162.64 562.15 162.72 L 562.46 163.61 C 557.02 191.69 551.92 219.83 546.72 247.95 C 546.11 247.91 544.89 247.82 544.28 247.78 C 532.44 228.90 520.80 209.87 508.70 191.17 C 497.18 200.48 492.97 219.19 481.78 230.17 L 481.08 229.89 C 463.25 214.57 442.79 202.19 425.53 186.37 C 426.11 184.66 428.26 184.54 429.68 183.84 C 427.65 188.20 436.09 186.44 437.60 186.63 C 459.64 188.10 481.81 188.83 503.91 189.87 C 523.88 183.69 542.85 173.19 560.53 162.40 Z" />
</g>
<g id="#b1e3fdfd">
<path fill="#b1e3fd" opacity="1.00" d=" M 562.15 162.72 C 576.95 173.99 594.33 183.20 607.81 195.71 C 600.58 208.96 596.72 223.83 590.63 237.64 C 588.58 241.16 588.63 248.07 584.28 248.89 C 576.72 220.57 571.44 191.42 562.46 163.61 L 562.15 162.72 Z" />
</g>
<g id="#ccedfefe">
<path fill="#ccedfe" opacity="1.00" d=" M 562.46 163.61 C 571.44 191.42 576.72 220.57 584.28 248.89 C 588.63 248.07 588.58 241.16 590.63 237.64 C 596.72 223.83 600.58 208.96 607.81 195.71 C 618.87 208.76 629.14 222.72 639.47 236.44 C 628.30 241.81 615.17 243.32 603.34 247.40 C 585.05 254.29 565.04 252.26 545.99 251.30 C 524.94 243.22 503.05 237.59 481.78 230.17 C 492.97 219.19 497.18 200.48 508.70 191.17 C 520.80 209.87 532.44 228.90 544.28 247.78 C 544.89 247.82 546.11 247.91 546.72 247.95 C 551.92 219.83 557.02 191.69 562.46 163.61 Z" />
</g>
<g id="#cbedfdfe">
<path fill="#cbedfd" opacity="1.00" d=" M 423.82 188.88 C 424.38 188.30 424.50 185.28 425.53 186.37 C 442.79 202.19 463.25 214.57 481.08 229.89 C 480.53 230.06 479.43 230.38 478.89 230.55 C 477.68 230.66 476.48 230.76 475.29 230.83 C 455.52 227.13 435.10 226.52 415.11 223.83 C 413.45 223.37 411.22 223.15 410.74 221.16 C 414.69 210.25 419.73 199.75 423.82 188.88 Z" />
</g>
<g id="#ade3fcfd">
<path fill="#ade3fc" opacity="1.00" d=" M 384.73 238.22 C 393.11 232.11 402.74 227.75 410.74 221.16 C 411.22 223.15 413.45 223.37 415.11 223.83 C 435.10 226.52 455.52 227.13 475.29 230.83 C 445.27 234.63 415.03 237.20 384.81 238.82 L 384.73 238.22 Z" />
</g>
<g id="#b2e5feff">
<path fill="#b2e5fe" opacity="1.00" d=" M 478.89 230.55 C 479.43 230.38 480.53 230.06 481.08 229.89 L 481.78 230.17 C 503.05 237.59 524.94 243.22 545.99 251.30 C 545.73 251.72 545.20 252.56 544.94 252.98 L 544.15 253.06 C 524.15 252.97 504.15 252.98 484.15 253.03 C 484.42 246.52 486.59 237.43 481.36 232.42 C 480.57 231.74 479.75 231.11 478.89 230.55 Z" />
</g>
<g id="#92e0ffff">
<path fill="#92e0ff" opacity="1.00" d=" M 384.81 238.82 C 415.03 237.20 445.27 234.63 475.29 230.83 C 476.48 230.76 477.68 230.66 478.89 230.55 C 479.75 231.11 480.57 231.74 481.36 232.42 C 477.00 239.33 468.55 245.23 466.77 253.02 C 466.35 253.04 465.53 253.06 465.11 253.08 C 447.29 253.02 429.47 252.82 411.66 253.18 C 411.04 253.09 409.82 252.92 409.21 252.84 C 400.57 249.30 392.25 244.86 384.20 240.15 C 384.35 239.82 384.65 239.15 384.81 238.82 Z" />
</g>
<g id="#c9edfeff">
<path fill="#c9edfe" opacity="1.00" d=" M 466.77 253.02 C 468.55 245.23 477.00 239.33 481.36 232.42 C 486.59 237.43 484.42 246.52 484.15 253.03 C 478.34 253.01 472.55 253.02 466.77 253.02 Z" />
</g>
<g id="#92e0feff">
<path fill="#92e0fe" opacity="1.00" d=" M 639.47 236.44 C 639.64 236.54 639.98 236.75 640.15 236.86 C 640.81 242.22 641.05 247.64 640.99 253.05 C 623.21 252.99 605.44 252.90 587.67 253.11 C 587.02 253.10 585.71 253.07 585.06 253.06 C 572.31 252.93 559.56 253.01 546.82 253.00 C 546.35 253.00 545.41 252.99 544.94 252.98 C 545.20 252.56 545.73 251.72 545.99 251.30 C 565.04 252.26 585.05 254.29 603.34 247.40 C 615.17 243.32 628.30 241.81 639.47 236.44 Z" />
</g>
<g id="#55cef5f6">
<path fill="#55cef5" opacity="0.96" d=" M 640.15 236.86 C 645.70 242.20 652.07 246.74 657.30 252.34 C 651.87 252.88 646.42 253.00 640.99 253.05 C 641.05 247.64 640.81 242.22 640.15 236.86 Z" />
</g>
<g id="#3f677678">
<path fill="#3f6776" opacity="0.47" d=" M 383.94 243.84 C 382.20 243.19 382.06 237.50 384.73 238.22 L 384.81 238.82 C 384.65 239.15 384.35 239.82 384.20 240.15 C 384.05 241.37 383.97 242.61 383.94 243.84 Z" />
</g>
<g id="#57d3fcfe">
<path fill="#57d3fc" opacity="1.00" d=" M 384.20 240.15 C 392.25 244.86 400.57 249.30 409.21 252.84 C 401.49 252.93 393.78 253.05 386.07 252.99 C 385.88 252.74 385.51 252.26 385.32 252.02 L 385.14 250.96 C 384.94 249.46 384.54 246.46 384.33 244.96 L 383.94 243.84 C 383.97 242.61 384.05 241.37 384.20 240.15 Z" />
</g>
<g id="#2a637576">
<path fill="#2a6375" opacity="0.46" d=" M 384.33 244.96 C 384.54 246.46 384.94 249.46 385.14 250.96 C 382.86 250.41 383.29 246.56 384.33 244.96 Z" />
</g>
<g id="#10506d6f">
<path fill="#10506d" opacity="0.44" d=" M 385.32 252.02 C 385.51 252.26 385.88 252.74 386.07 252.99 C 386.07 254.62 386.04 256.25 386.03 257.89 C 384.14 257.08 384.65 253.66 385.32 252.02 Z" />
</g>
<g id="#1fb8fcff">
<path fill="#1fb8fc" opacity="1.00" d=" M 657.30 252.34 C 660.82 254.47 664.90 257.47 667.02 261.09 C 666.98 262.32 666.94 263.55 666.91 264.79 C 657.38 273.88 652.04 286.51 642.64 295.68 C 609.28 300.02 576.73 310.12 542.97 310.76 C 525.55 310.71 508.18 312.09 490.76 311.99 L 491.38 311.50 C 491.81 311.16 492.66 310.48 493.09 310.14 C 510.30 291.36 528.13 272.87 544.15 253.06 L 544.94 252.98 C 545.41 252.99 546.35 253.00 546.82 253.00 C 551.53 271.86 555.63 291.43 562.96 309.44 C 570.88 290.90 577.83 271.90 585.06 253.06 C 585.71 253.07 587.02 253.10 587.67 253.11 C 604.44 268.51 624.29 280.91 642.88 294.22 C 642.91 280.52 643.08 266.62 640.99 253.05 C 646.42 253.00 651.87 252.88 657.30 252.34 Z" />
</g>
<g id="#1db4faff">
<path fill="#1db4fa" opacity="1.00" d=" M 386.07 252.99 C 393.78 253.05 401.49 252.93 409.21 252.84 C 409.82 252.92 411.04 253.09 411.66 253.18 C 421.37 262.43 435.88 265.25 446.13 273.78 C 427.76 278.11 409.62 283.38 391.11 287.10 C 390.85 285.67 390.64 284.24 390.37 282.81 C 390.17 281.53 389.84 280.27 389.44 279.05 C 389.33 278.50 389.11 277.41 389.01 276.86 C 389.17 275.22 389.10 273.54 388.46 272.01 C 388.35 271.47 388.12 270.40 388.01 269.86 C 388.16 268.18 388.00 266.48 387.40 264.90 C 387.13 263.42 386.59 260.47 386.32 259.00 L 386.03 257.89 C 386.04 256.25 386.07 254.62 386.07 252.99 Z" />
</g>
<g id="#3cbdfcff">
<path fill="#3cbdfc" opacity="1.00" d=" M 411.66 253.18 C 429.47 252.82 447.29 253.02 465.11 253.08 C 459.71 260.08 452.32 266.36 449.33 274.69 C 440.33 289.45 432.03 304.81 424.07 320.20 C 423.62 319.87 422.70 319.23 422.25 318.91 C 412.37 308.04 398.92 299.38 391.11 287.10 C 409.62 283.38 427.76 278.11 446.13 273.78 C 435.88 265.25 421.37 262.43 411.66 253.18 Z" />
</g>
<g id="#61cefeff">
<path fill="#61cefe" opacity="1.00" d=" M 465.11 253.08 C 465.53 253.06 466.35 253.04 466.77 253.02 C 472.55 253.02 478.34 253.01 484.15 253.03 C 491.15 271.06 486.43 292.08 493.09 310.14 C 492.66 310.48 491.81 311.16 491.38 311.50 C 476.97 299.68 463.68 286.56 449.33 274.69 C 452.32 266.36 459.71 260.08 465.11 253.08 Z" />
</g>
<g id="#52c7ffff">
<path fill="#52c7ff" opacity="1.00" d=" M 484.15 253.03 C 504.15 252.98 524.15 252.97 544.15 253.06 C 528.13 272.87 510.30 291.36 493.09 310.14 C 486.43 292.08 491.15 271.06 484.15 253.03 Z" />
</g>
<g id="#3fc1feff">
<path fill="#3fc1fe" opacity="1.00" d=" M 546.82 253.00 C 559.56 253.01 572.31 252.93 585.06 253.06 C 577.83 271.90 570.88 290.90 562.96 309.44 C 555.63 291.43 551.53 271.86 546.82 253.00 Z" />
</g>
<g id="#3ebffdff">
<path fill="#3ebffd" opacity="1.00" d=" M 587.67 253.11 C 605.44 252.90 623.21 252.99 640.99 253.05 C 643.08 266.62 642.91 280.52 642.88 294.22 C 624.29 280.91 604.44 268.51 587.67 253.11 Z" />
</g>
<g id="#0d496568">
<path fill="#0d4965" opacity="0.41" d=" M 386.32 259.00 C 386.59 260.47 387.13 263.42 387.40 264.90 C 384.93 264.55 385.31 260.63 386.32 259.00 Z" />
</g>
<g id="#0375a7b7">
<path fill="#0375a7" opacity="0.72" d=" M 667.02 261.09 L 667.99 260.96 C 667.19 277.68 669.47 294.76 667.22 311.32 C 666.75 295.81 667.17 280.30 666.91 264.79 C 666.94 263.55 666.98 262.32 667.02 261.09 Z" />
</g>
<g id="#094a6567">
<path fill="#094a65" opacity="0.40" d=" M 667.99 260.96 C 670.43 272.43 668.25 287.98 669.03 301.00 C 667.45 304.18 672.00 312.04 666.75 312.80 C 666.87 312.43 667.11 311.69 667.22 311.32 C 669.47 294.76 667.19 277.68 667.99 260.96 Z" />
</g>
<g id="#105e8488">
<path fill="#105e84" opacity="0.53" d=" M 387.40 264.90 C 388.00 266.48 388.16 268.18 388.01 269.86 C 385.99 269.61 386.46 266.16 387.40 264.90 Z" />
</g>
<g id="#01a5ecff">
<path fill="#01a5ec" opacity="1.00" d=" M 642.64 295.68 C 652.04 286.51 657.38 273.88 666.91 264.79 C 667.17 280.30 666.75 295.81 667.22 311.32 C 659.31 306.94 652.45 300.57 644.16 296.99 C 638.74 317.18 635.60 338.43 631.98 359.10 C 632.26 360.65 631.15 361.78 629.83 362.37 C 608.89 349.67 590.66 332.61 570.83 318.16 C 568.34 317.53 564.38 310.05 562.64 314.65 C 555.92 334.74 549.66 354.98 543.27 375.17 C 543.23 377.24 541.39 379.35 539.25 378.83 C 532.47 370.95 528.54 359.90 520.11 353.76 C 511.67 341.31 502.56 329.34 494.02 316.98 C 492.90 314.31 490.47 312.93 487.82 312.52 C 488.79 312.34 489.77 312.16 490.76 311.99 C 508.18 312.09 525.55 310.71 542.97 310.76 C 576.73 310.12 609.28 300.02 642.64 295.68 Z" />
</g>
<g id="#0e5c8184">
<path fill="#0e5c81" opacity="0.52" d=" M 388.46 272.01 C 389.10 273.54 389.17 275.22 389.01 276.86 C 387.02 276.63 387.44 273.20 388.46 272.01 Z" />
</g>
<g id="#10b5fcff">
<path fill="#10b5fc" opacity="1.00" d=" M 424.07 320.20 C 432.03 304.81 440.33 289.45 449.33 274.69 C 463.68 286.56 476.97 299.68 491.38 311.50 L 490.76 311.99 C 489.77 312.16 488.79 312.34 487.82 312.52 C 467.09 314.70 446.37 317.24 425.71 319.99 C 425.30 320.04 424.48 320.14 424.07 320.20 Z" />
</g>
<g id="#0d597d7f">
<path fill="#0d597d" opacity="0.50" d=" M 389.44 279.05 C 389.84 280.27 390.17 281.53 390.37 282.81 L 390.13 283.63 C 388.05 283.81 388.53 280.17 389.44 279.05 Z" />
</g>
<g id="#01a2e9fe">
<path fill="#01a2e9" opacity="1.00" d=" M 390.37 282.81 C 390.64 284.24 390.85 285.67 391.11 287.10 C 398.92 299.38 412.37 308.04 422.25 318.91 C 409.58 321.15 396.85 323.11 384.15 325.13 C 384.12 323.79 384.14 322.46 384.18 321.13 C 384.93 319.56 385.19 317.83 385.33 316.12 C 385.93 314.51 386.18 312.82 386.29 311.13 C 386.98 309.91 387.15 308.51 387.02 307.14 C 387.13 306.61 387.33 305.54 387.43 305.01 C 388.06 303.81 388.18 302.45 388.03 301.13 C 388.13 300.60 388.33 299.54 388.43 299.01 C 389.05 297.79 389.18 296.41 389.08 295.07 L 389.40 294.08 C 390.05 292.88 390.24 291.51 390.02 290.18 C 389.89 288.00 389.85 285.80 390.13 283.63 L 390.37 282.81 Z" />
</g>
<g id="#0350757c">
<path fill="#035075" opacity="0.49" d=" M 389.40 294.08 C 388.38 293.16 388.19 290.07 390.02 290.18 C 390.24 291.51 390.05 292.88 389.40 294.08 Z" />
</g>
<g id="#044a666f">
<path fill="#044a66" opacity="0.44" d=" M 388.43 299.01 C 387.34 298.08 387.23 295.00 389.08 295.07 C 389.18 296.41 389.05 297.79 388.43 299.01 Z" />
</g>
<g id="#018bd9fc">
<path fill="#018bd9" opacity="1.00" d=" M 644.16 296.99 C 652.45 300.57 659.31 306.94 667.22 311.32 C 667.11 311.69 666.87 312.43 666.75 312.80 C 654.94 328.04 644.46 344.56 631.98 359.10 C 635.60 338.43 638.74 317.18 644.16 296.99 Z" />
</g>
<g id="#03567983">
<path fill="#035679" opacity="0.51" d=" M 387.43 305.01 C 386.34 304.13 386.19 301.02 388.03 301.13 C 388.18 302.45 388.06 303.81 387.43 305.01 Z" />
</g>
<g id="#02618c98">
<path fill="#02618c" opacity="0.60" d=" M 386.29 311.13 C 385.34 310.13 385.19 307.07 387.02 307.14 C 387.15 308.51 386.98 309.91 386.29 311.13 Z" />
</g>
<g id="#0253777f">
<path fill="#025377" opacity="0.50" d=" M 385.33 316.12 C 384.41 314.75 384.13 311.28 386.29 311.13 C 386.18 312.82 385.93 314.51 385.33 316.12 Z" />
</g>
<g id="#0190dfff">
<path fill="#0190df" opacity="1.00" d=" M 425.71 319.99 C 446.37 317.24 467.09 314.70 487.82 312.52 C 490.47 312.93 492.90 314.31 494.02 316.98 C 502.56 329.34 511.67 341.31 520.11 353.76 C 525.51 362.87 531.74 371.59 538.32 379.87 C 568.77 376.64 598.63 368.01 629.07 363.95 C 629.33 365.49 628.33 366.40 627.07 367.01 C 600.66 385.43 576.19 406.57 549.79 425.00 L 548.93 425.04 C 547.99 424.34 547.06 423.64 546.13 422.96 C 546.73 409.15 542.12 395.59 539.74 382.04 C 526.85 386.32 515.22 394.77 502.84 400.66 C 502.46 400.83 501.70 401.18 501.32 401.35 C 502.51 398.49 504.85 393.66 501.28 391.97 C 500.15 393.55 500.77 397.51 498.05 396.88 C 480.71 388.30 464.92 376.44 446.99 369.09 L 446.27 368.82 L 446.06 367.97 C 441.34 351.22 429.89 336.87 425.71 319.99 Z" />
</g>
<g id="#019deaff">
<path fill="#019dea" opacity="1.00" d=" M 562.64 314.65 C 564.38 310.05 568.34 317.53 570.83 318.16 C 590.66 332.61 608.89 349.67 629.83 362.37 C 629.64 362.77 629.26 363.55 629.07 363.95 C 598.63 368.01 568.77 376.64 538.32 379.87 C 531.74 371.59 525.51 362.87 520.11 353.76 C 528.54 359.90 532.47 370.95 539.25 378.83 C 541.39 379.35 543.23 377.24 543.27 375.17 C 549.66 354.98 555.92 334.74 562.64 314.65 Z" />
</g>
<g id="#044f6f78">
<path fill="#044f6f" opacity="0.47" d=" M 384.18 321.13 C 383.43 319.69 383.18 316.29 385.33 316.12 C 385.19 317.83 384.93 319.56 384.18 321.13 Z" />
</g>
<g id="#0daff7fd">
<path fill="#0daff7" opacity="1.00" d=" M 384.15 325.13 C 396.85 323.11 409.58 321.15 422.25 318.91 C 422.70 319.23 423.62 319.87 424.07 320.20 C 420.30 333.09 414.40 345.31 410.01 358.02 C 409.43 359.46 408.40 360.65 407.10 361.49 C 398.91 350.33 391.93 338.04 383.97 326.61 C 384.01 326.24 384.10 325.50 384.15 325.13 Z" />
</g>
<g id="#01a3eafe">
<path fill="#01a3ea" opacity="1.00" d=" M 424.07 320.20 C 424.48 320.14 425.30 320.04 425.71 319.99 C 429.89 336.87 441.34 351.22 446.06 367.97 C 442.66 367.55 439.26 367.06 435.88 366.58 C 434.43 366.38 431.52 365.99 430.06 365.79 L 429.08 365.54 C 427.47 364.94 425.76 364.83 424.08 364.94 L 423.09 364.61 C 421.87 363.95 420.48 363.82 419.13 363.97 C 418.60 363.86 417.53 363.65 416.99 363.54 C 415.47 362.89 413.80 362.79 412.19 363.02 C 410.38 363.00 407.96 363.55 407.10 361.49 C 408.40 360.65 409.43 359.46 410.01 358.02 C 414.40 345.31 420.30 333.09 424.07 320.20 Z" />
</g>
<g id="#03415d63">
<path fill="#03415d" opacity="0.39" d=" M 383.97 326.61 C 382.16 326.14 382.30 321.59 384.18 321.13 C 384.14 322.46 384.12 323.79 384.15 325.13 C 384.10 325.50 384.01 326.24 383.97 326.61 Z" />
</g>
<g id="#125d7b83">
<path fill="#125d7b" opacity="0.51" d=" M 412.19 363.02 C 413.80 362.79 415.47 362.89 416.99 363.54 C 415.82 364.54 412.37 364.97 412.19 363.02 Z" />
</g>
<g id="#175c7a7e">
<path fill="#175c7a" opacity="0.49" d=" M 419.13 363.97 C 420.48 363.82 421.87 363.95 423.09 364.61 C 422.14 365.62 419.06 365.80 419.13 363.97 Z" />
</g>
<g id="#10465e61">
<path fill="#10465e" opacity="0.38" d=" M 424.08 364.94 C 425.76 364.83 427.47 364.94 429.08 365.54 C 427.80 366.50 424.38 366.96 424.08 364.94 Z" />
</g>
<g id="#0f475f63">
<path fill="#0f475f" opacity="0.39" d=" M 430.06 365.79 C 431.52 365.99 434.43 366.38 435.88 366.58 C 434.40 367.81 430.42 368.16 430.06 365.79 Z" />
</g>
<g id="#15425457">
<path fill="#154254" opacity="0.34" d=" M 435.88 366.58 C 439.26 367.06 442.66 367.55 446.06 367.97 L 446.27 368.82 C 443.16 368.46 436.93 369.84 435.88 366.58 Z" />
</g>
<g id="#0182d3fd">
<path fill="#0182d3" opacity="1.00" d=" M 549.79 425.00 C 576.19 406.57 600.66 385.43 627.07 367.01 C 618.01 386.62 606.80 406.49 596.91 424.97 C 581.20 425.07 565.49 424.93 549.79 425.00 Z" />
</g>
<g id="#019be7fc">
<path fill="#019be7" opacity="1.00" d=" M 446.99 369.09 C 464.92 376.44 480.71 388.30 498.05 396.88 C 500.77 397.51 500.15 393.55 501.28 391.97 C 504.85 393.66 502.51 398.49 501.32 401.35 C 489.59 406.30 479.31 414.92 467.06 418.32 C 460.13 402.03 452.83 385.80 446.99 369.09 Z" />
</g>
<g id="#0186d5ff">
<path fill="#0186d5" opacity="1.00" d=" M 502.84 400.66 C 515.22 394.77 526.85 386.32 539.74 382.04 C 542.12 395.59 546.73 409.15 546.13 422.96 C 532.30 416.39 518.78 409.16 505.02 402.45 C 504.29 401.85 503.57 401.25 502.84 400.66 Z" />
</g>
<g id="#0182d3fe">
<path fill="#0182d3" opacity="1.00" d=" M 501.32 401.35 C 501.70 401.18 502.46 400.83 502.84 400.66 C 492.89 419.95 487.37 441.54 476.52 460.27 C 476.18 459.12 475.76 458.00 475.26 456.93 C 475.19 455.23 475.01 453.53 474.41 451.94 L 474.12 450.93 C 474.16 449.52 473.95 448.11 473.28 446.87 C 473.19 445.19 473.01 443.51 472.41 441.94 L 472.12 440.93 C 472.16 439.52 471.95 438.12 471.29 436.88 C 471.18 435.17 470.93 433.48 470.34 431.89 C 470.25 430.55 470.01 429.23 469.41 428.03 C 468.35 424.85 467.57 421.61 467.06 418.32 C 479.31 414.92 489.59 406.30 501.32 401.35 Z" />
</g>
<g id="#016fc3fd">
<path fill="#016fc3" opacity="1.00" d=" M 502.84 400.66 C 503.57 401.25 504.29 401.85 505.02 402.45 C 504.58 410.79 510.38 419.06 512.62 427.36 C 522.14 452.63 531.10 478.09 540.60 503.36 C 542.29 506.84 543.46 515.35 546.89 508.82 C 546.87 511.87 547.01 515.03 547.01 518.12 C 546.74 520.86 542.64 517.33 541.72 516.29 C 520.14 497.43 497.55 479.77 476.10 460.78 L 476.52 460.27 C 487.37 441.54 492.89 419.95 502.84 400.66 Z" />
<path fill="#016fc3" opacity="1.00" d=" M 548.93 425.04 L 549.79 425.00 C 565.49 424.93 581.20 425.07 596.91 424.97 C 597.62 430.01 594.38 434.56 592.61 439.03 C 591.85 440.12 591.81 441.47 591.90 442.76 C 587.19 456.57 583.89 470.97 578.56 484.49 C 567.67 466.41 559.92 446.41 550.16 427.63 C 549.76 426.76 549.35 425.89 548.93 425.04 Z" />
</g>
<g id="#0163b8ff">
<path fill="#0163b8" opacity="1.00" d=" M 512.62 427.36 C 510.38 419.06 504.58 410.79 505.02 402.45 C 518.78 409.16 532.30 416.39 546.13 422.96 C 547.06 423.64 547.99 424.34 548.93 425.04 C 549.35 425.89 549.76 426.76 550.16 427.63 C 547.86 454.56 548.66 481.78 546.89 508.82 C 543.46 515.35 542.29 506.84 540.60 503.36 C 531.10 478.09 522.14 452.63 512.62 427.36 Z" />
</g>
<g id="#15547682">
<path fill="#155476" opacity="0.51" d=" M 469.41 428.03 C 470.01 429.23 470.25 430.55 470.34 431.89 C 468.43 432.10 468.25 429.00 469.41 428.03 Z" />
</g>
<g id="#00519bfd">
<path fill="#00519b" opacity="1.00" d=" M 550.16 427.63 C 559.92 446.41 567.67 466.41 578.56 484.49 C 569.77 495.49 557.80 507.49 547.01 518.12 C 547.01 515.03 546.87 511.87 546.89 508.82 C 548.66 481.78 547.86 454.56 550.16 427.63 Z" />
</g>
<g id="#13547686">
<path fill="#135476" opacity="0.53" d=" M 470.34 431.89 C 470.93 433.48 471.18 435.17 471.29 436.88 C 469.13 436.71 469.41 433.24 470.34 431.89 Z" />
</g>
<g id="#165a7f8d">
<path fill="#165a7f" opacity="0.55" d=" M 471.29 436.88 C 471.95 438.12 472.16 439.52 472.12 440.93 C 470.25 440.96 470.33 437.92 471.29 436.88 Z" />
</g>
<g id="#063a6680">
<path fill="#063a66" opacity="0.50" d=" M 591.90 442.76 C 591.81 441.47 591.85 440.12 592.61 439.03 C 593.70 439.88 593.73 443.02 591.90 442.76 Z" />
</g>
<g id="#184f6d76">
<path fill="#184f6d" opacity="0.46" d=" M 472.41 441.94 C 473.01 443.51 473.19 445.19 473.28 446.87 C 471.14 446.71 471.43 443.24 472.41 441.94 Z" />
</g>
<g id="#1b56727c">
<path fill="#1b5672" opacity="0.49" d=" M 473.28 446.87 C 473.95 448.11 474.16 449.52 474.12 450.93 C 472.26 450.96 472.33 447.92 473.28 446.87 Z" />
</g>
<g id="#1b496067">
<path fill="#1b4960" opacity="0.40" d=" M 474.41 451.94 C 475.01 453.53 475.19 455.23 475.26 456.93 C 473.15 456.68 473.44 453.27 474.41 451.94 Z" />
</g>
<g id="#1c4c636b">
<path fill="#1c4c63" opacity="0.42" d=" M 475.26 456.93 C 475.76 458.00 476.18 459.12 476.52 460.27 L 476.10 460.78 C 474.28 460.76 474.51 457.98 475.26 456.93 Z" />
</g>
</svg>
