<?xml version="1.0" encoding="UTF-8" ?>
<!DOCTYPE svg PUBLIC "-//W3C//DTD SVG 1.1//EN" "http://www.w3.org/Graphics/SVG/1.1/DTD/svg11.dtd">
<svg width="750pt" height="536pt" viewBox="0 0 750 536" version="1.1" xmlns="http://www.w3.org/2000/svg">
<g id="#c0ebfcff">
<path fill="#c0ebfc" opacity="1.00" d=" M 0.00 0.00 L 750.00 0.00 L 750.00 253.21 C 728.66 252.92 707.31 253.19 685.97 252.96 C 680.28 253.33 674.67 251.91 668.99 252.21 C 615.32 252.18 561.66 252.20 507.99 252.15 C 454.31 251.59 400.61 252.01 346.92 251.90 C 330.55 252.11 314.17 251.53 297.81 252.18 C 279.88 252.31 261.93 252.26 244.00 251.85 C 165.99 251.67 87.98 251.56 9.97 251.53 C 6.64 251.54 3.30 251.27 0.00 251.77 L 0.00 0.00 Z" />
</g>
<g id="#4db8f0ff">
<path fill="#4db8f0" opacity="1.00" d=" M 0.00 251.77 C 3.30 251.27 6.64 251.54 9.97 251.53 C 87.98 251.56 165.99 251.67 244.00 251.85 C 261.93 252.26 279.88 252.31 297.81 252.18 C 299.31 252.41 300.63 253.15 301.91 253.92 C 286.62 254.73 271.28 254.06 255.98 254.55 C 252.71 255.26 255.73 258.84 255.45 260.93 C 255.54 335.94 255.46 410.96 255.49 485.97 C 255.40 502.65 255.64 519.33 255.37 536.00 L 0.00 536.00 L 0.00 251.77 Z" />
</g>
<g id="#72d3fbff">
<path fill="#72d3fb" opacity="1.00" d=" M 297.81 252.18 C 314.17 251.53 330.55 252.11 346.92 251.90 C 400.61 252.01 454.31 251.59 507.99 252.15 C 561.66 252.20 615.32 252.18 668.99 252.21 C 674.67 251.91 680.28 253.33 685.97 252.96 C 707.31 253.19 728.66 252.92 750.00 253.21 L 750.00 536.00 L 255.37 536.00 C 255.64 519.33 255.40 502.65 255.49 485.97 C 255.46 410.96 255.54 335.94 255.45 260.93 C 255.73 258.84 252.71 255.26 255.98 254.55 C 271.28 254.06 286.62 254.73 301.91 253.92 C 300.63 253.15 299.31 252.41 297.81 252.18 Z" />
</g>
</svg>
