<?xml version="1.0" encoding="UTF-8" ?>
<!DOCTYPE svg PUBLIC "-//W3C//DTD SVG 1.1//EN" "http://www.w3.org/Graphics/SVG/1.1/DTD/svg11.dtd">
<svg width="674pt" height="980pt" viewBox="0 0 674 980" version="1.1" xmlns="http://www.w3.org/2000/svg">
<g id="#030303ff">
<path fill="#030303" opacity="1.00" d=" M 316.46 0.00 L 355.36 0.00 C 426.38 9.26 484.17 79.31 476.29 151.19 C 472.61 205.81 433.23 255.17 381.68 272.67 C 330.65 291.50 269.04 276.98 232.48 236.49 C 196.51 198.26 184.39 139.42 203.42 90.35 C 221.11 42.91 265.59 5.44 316.46 0.00 Z" />
<path fill="#030303" opacity="1.00" d=" M 225.65 313.69 C 297.10 307.16 369.61 309.51 441.34 312.64 C 452.96 311.34 459.78 321.84 467.73 328.28 C 536.73 397.72 605.10 467.78 674.00 537.32 L 674.00 541.54 C 672.41 559.80 671.80 580.12 658.30 594.26 C 644.84 607.26 622.88 606.74 607.34 597.64 C 562.37 558.01 520.11 515.43 477.03 473.78 C 476.72 493.15 477.37 512.54 476.86 531.91 C 381.27 532.05 285.67 532.09 190.08 531.89 C 189.72 515.22 190.24 498.54 189.94 481.88 C 160.14 511.42 131.66 542.29 101.76 571.76 C 86.69 585.31 72.59 603.72 51.58 607.60 C 25.32 612.28 2.06 589.80 0.00 564.41 L 0.00 551.52 C 1.18 545.36 3.12 539.06 7.34 534.28 C 78.42 459.17 150.52 384.74 225.65 313.69 Z" />
<path fill="#030303" opacity="1.00" d=" M 431.42 564.39 C 444.66 561.31 460.38 567.58 464.96 580.99 C 475.47 602.88 448.77 630.50 427.03 618.92 C 403.07 609.35 404.52 568.98 431.42 564.39 Z" />
<path fill="#030303" opacity="1.00" d=" M 406.73 736.74 C 436.22 707.52 465.26 677.82 494.96 648.82 C 523.05 676.12 550.79 703.91 576.87 733.15 C 591.38 746.91 597.82 767.34 595.22 787.08 C 594.57 813.30 572.92 830.86 558.14 850.16 C 529.33 884.23 499.82 917.75 469.02 950.02 C 456.24 963.88 440.52 976.15 421.61 980.00 L 403.59 980.00 C 381.58 976.77 361.92 959.21 359.23 936.71 C 357.64 915.01 367.33 894.13 380.42 877.38 C 403.25 849.01 429.28 823.40 453.16 795.93 C 439.24 776.05 419.83 760.14 405.59 740.35 C 404.13 738.99 405.86 737.80 406.73 736.74 Z" />
<path fill="#030303" opacity="1.00" d=" M 171.32 661.31 C 174.36 659.40 178.46 652.11 182.33 656.70 C 212.72 685.28 241.73 715.39 271.16 744.95 C 255.30 762.11 237.84 777.81 221.91 794.92 C 250.47 832.38 291.24 861.34 311.09 904.95 C 326.78 934.67 308.04 974.50 274.46 980.00 L 254.57 980.00 C 219.80 973.34 199.59 942.04 176.77 918.22 C 150.55 888.72 124.63 858.96 99.34 828.67 C 74.94 805.81 72.37 762.51 94.66 737.63 C 118.70 710.71 145.46 686.45 171.32 661.31 Z" />
</g>
</svg>
