<?xml version="1.0" encoding="UTF-8" ?>
<!DOCTYPE svg PUBLIC "-//W3C//DTD SVG 1.1//EN" "http://www.w3.org/Graphics/SVG/1.1/DTD/svg11.dtd">
<svg width="512pt" height="512pt" viewBox="0 0 512 512" version="1.1" xmlns="http://www.w3.org/2000/svg">
<g id="#0d2636fe">
<path fill="#0d2636" opacity="1.00" d=" M 240.42 0.00 L 271.58 0.00 C 313.28 3.33 354.50 15.62 390.01 37.99 C 417.52 54.89 441.53 77.24 461.18 102.81 C 488.40 139.66 506.03 183.71 510.40 229.40 C 511.25 233.35 510.12 237.78 512.00 241.51 L 512.00 270.58 C 508.35 326.79 486.09 381.55 449.03 424.03 C 436.69 437.36 423.79 450.30 409.19 461.18 C 372.78 488.00 329.43 505.75 284.31 510.33 C 279.78 511.30 274.77 509.95 270.49 512.00 L 240.42 512.00 C 193.23 508.28 146.69 492.61 108.19 464.82 C 49.33 423.68 9.22 356.65 1.78 285.11 C 0.82 280.63 1.94 275.72 0.00 271.49 L 0.00 240.51 C 1.05 238.16 1.45 235.66 1.21 233.01 C 5.66 178.52 28.85 125.93 65.24 85.23 C 76.55 74.18 87.10 62.22 100.16 53.12 C 140.18 21.75 189.89 3.88 240.42 0.00 M 238.33 32.43 C 177.83 37.12 119.80 67.46 82.00 115.00 C 47.56 157.09 29.25 212.37 32.58 266.65 C 35.09 326.38 62.89 384.76 108.06 423.94 C 130.54 444.20 157.47 459.17 186.06 468.91 C 190.61 468.91 195.41 468.10 198.73 464.74 C 200.24 461.39 201.72 457.81 201.00 454.01 C 200.99 442.32 201.07 430.63 200.95 418.94 C 177.54 424.48 147.97 422.43 131.97 402.03 C 125.92 395.52 124.18 386.59 119.89 379.07 C 115.11 370.00 108.03 362.09 99.34 356.63 C 96.09 353.92 90.43 351.28 91.08 346.17 C 100.68 339.64 113.42 345.13 121.99 351.01 C 132.22 358.05 136.84 370.03 145.20 378.80 C 160.05 393.04 184.47 393.42 201.74 383.78 C 202.64 372.59 208.16 362.78 214.99 354.18 C 197.23 351.47 179.02 348.58 162.99 340.01 C 140.55 329.83 124.14 308.68 118.03 285.00 C 111.55 260.68 110.08 233.97 119.19 210.14 C 122.68 200.37 129.20 192.30 135.01 183.94 C 133.24 174.10 129.55 164.05 131.77 153.92 C 132.44 144.09 134.65 134.34 138.21 125.14 C 161.16 123.21 181.09 136.91 199.98 147.86 C 236.54 136.44 276.02 137.99 312.81 147.63 C 325.52 139.84 338.41 132.00 352.76 127.55 C 357.85 125.44 363.50 124.66 369.00 124.97 C 373.63 121.95 373.93 125.79 374.90 128.07 C 380.94 145.15 382.61 163.81 377.37 181.30 C 375.70 185.56 380.55 188.40 382.39 191.63 C 394.60 207.55 399.84 228.14 399.04 248.01 C 398.36 270.59 394.36 294.19 381.04 313.03 C 377.35 319.19 371.58 323.57 366.79 328.80 C 347.02 344.67 321.73 351.33 296.97 354.15 C 306.04 363.74 310.31 377.02 310.95 389.99 C 311.14 413.31 310.84 436.62 311.07 459.94 C 312.49 466.84 320.05 470.65 326.67 468.62 C 363.01 456.24 396.44 434.69 421.94 405.94 C 446.43 378.79 464.37 345.61 473.19 310.09 C 484.20 267.11 481.32 220.98 466.61 179.21 C 449.59 132.38 416.66 91.79 374.36 65.59 C 334.17 40.22 285.71 28.55 238.33 32.43 Z" />
</g>
</svg>
