<?xml version="1.0" encoding="UTF-8" ?>
<!DOCTYPE svg PUBLIC "-//W3C//DTD SVG 1.1//EN" "http://www.w3.org/Graphics/SVG/1.1/DTD/svg11.dtd">
<svg width="1052pt" height="1052pt" viewBox="0 0 1052 1052" version="1.1" xmlns="http://www.w3.org/2000/svg">
<g id="#efdb4eff">
<path fill="#efdb4e" opacity="1.00" d=" M 0.00 0.00 L 1052.00 0.00 L 1052.00 1052.00 L 0.00 1052.00 L 0.00 0.00 M 793.33 477.45 C 772.43 478.44 751.43 481.91 732.09 490.14 C 710.41 499.66 690.46 514.31 677.10 534.07 C 664.34 551.49 657.62 572.72 655.08 593.99 C 654.58 610.36 654.73 626.83 658.15 642.92 C 664.25 674.73 683.99 703.11 710.20 721.80 C 747.87 750.64 794.62 762.84 835.93 785.11 C 846.41 791.14 857.17 797.91 863.33 808.69 C 871.03 821.60 871.70 838.49 864.92 851.93 C 858.22 865.20 844.41 873.19 830.69 877.59 C 809.68 883.58 787.06 881.80 766.29 875.67 C 739.92 866.76 720.15 845.17 705.81 822.11 C 705.37 822.08 704.50 822.03 704.06 822.00 C 685.96 832.59 667.75 843.01 649.64 853.57 C 641.48 858.45 632.83 862.56 625.11 868.13 C 643.62 904.95 675.26 934.61 713.12 950.86 C 746.28 965.25 783.11 970.55 819.00 968.01 C 858.24 966.08 898.98 954.59 928.27 927.26 C 952.20 906.31 965.19 875.29 967.97 844.02 C 968.73 825.19 967.46 806.28 963.14 787.90 C 956.78 766.47 945.28 746.39 928.98 731.02 C 893.92 697.65 847.56 681.03 804.02 661.93 C 790.61 655.11 776.11 649.53 765.18 638.82 C 750.94 625.64 747.94 602.69 756.68 585.70 C 766.31 568.35 788.04 560.57 807.00 563.97 C 814.60 563.94 821.77 566.54 828.68 569.42 C 843.74 576.76 854.08 590.75 862.17 604.99 C 862.56 604.92 863.34 604.79 863.72 604.72 C 889.00 589.05 913.61 572.31 939.01 556.83 C 923.87 526.43 897.46 501.04 865.67 488.46 C 842.70 479.81 817.77 476.46 793.33 477.45 M 473.07 483.03 C 472.85 596.02 473.16 709.02 472.91 822.01 C 471.74 839.15 469.74 858.79 455.77 870.74 C 444.19 879.39 429.05 881.42 415.00 880.02 C 408.05 880.16 401.17 878.15 395.02 875.01 C 376.15 866.28 366.71 846.25 355.99 829.98 C 329.49 846.20 302.84 862.18 276.28 878.30 C 288.67 906.30 309.61 930.30 335.77 946.24 C 366.09 963.95 402.18 971.03 436.99 968.06 C 460.96 967.00 485.00 961.67 506.25 950.27 C 522.33 941.01 537.01 928.81 547.03 913.02 C 567.55 882.35 572.82 844.15 571.00 808.00 C 570.98 699.69 571.04 591.37 570.97 483.06 C 538.34 482.93 505.70 483.00 473.07 483.03 Z" />
</g>
<g id="#33322fff">
<path fill="#33322f" opacity="1.00" d=" M 793.33 477.45 C 817.77 476.46 842.70 479.81 865.67 488.46 C 897.46 501.04 923.87 526.43 939.01 556.83 C 913.61 572.31 889.00 589.05 863.72 604.72 C 863.34 604.79 862.56 604.92 862.17 604.99 C 854.08 590.75 843.74 576.76 828.68 569.42 C 821.77 566.54 814.60 563.94 807.00 563.97 C 788.04 560.57 766.31 568.35 756.68 585.70 C 747.94 602.69 750.94 625.64 765.18 638.82 C 776.11 649.53 790.61 655.11 804.02 661.93 C 847.56 681.03 893.92 697.65 928.98 731.02 C 945.28 746.39 956.78 766.47 963.14 787.90 C 967.46 806.28 968.73 825.19 967.97 844.02 C 965.19 875.29 952.20 906.31 928.27 927.26 C 898.98 954.59 858.24 966.08 819.00 968.01 C 783.11 970.55 746.28 965.25 713.12 950.86 C 675.26 934.61 643.62 904.95 625.11 868.13 C 632.83 862.56 641.48 858.45 649.64 853.57 C 667.75 843.01 685.96 832.59 704.06 822.00 C 704.50 822.03 705.37 822.08 705.81 822.11 C 720.15 845.17 739.92 866.76 766.29 875.67 C 787.06 881.80 809.68 883.58 830.69 877.59 C 844.41 873.19 858.22 865.20 864.92 851.93 C 871.70 838.49 871.03 821.60 863.33 808.69 C 857.17 797.91 846.41 791.14 835.93 785.11 C 794.62 762.84 747.87 750.64 710.20 721.80 C 683.99 703.11 664.25 674.73 658.15 642.92 C 654.73 626.83 654.58 610.36 655.08 593.99 C 657.62 572.72 664.34 551.49 677.10 534.07 C 690.46 514.31 710.41 499.66 732.09 490.14 C 751.43 481.91 772.43 478.44 793.33 477.45 Z" />
<path fill="#33322f" opacity="1.00" d=" M 473.07 483.03 C 505.70 483.00 538.34 482.93 570.97 483.06 C 571.04 591.37 570.98 699.69 571.00 808.00 C 572.82 844.15 567.55 882.35 547.03 913.02 C 537.01 928.81 522.33 941.01 506.25 950.27 C 485.00 961.67 460.96 967.00 436.99 968.06 C 402.18 971.03 366.09 963.95 335.77 946.24 C 309.61 930.30 288.67 906.30 276.28 878.30 C 302.84 862.18 329.49 846.20 355.99 829.98 C 366.71 846.25 376.15 866.28 395.02 875.01 C 401.17 878.15 408.05 880.16 415.00 880.02 C 429.05 881.42 444.19 879.39 455.77 870.74 C 469.74 858.79 471.74 839.15 472.91 822.01 C 473.16 709.02 472.85 596.02 473.07 483.03 Z" />
</g>
</svg>
