<?xml version="1.0" encoding="UTF-8"?>
<!DOCTYPE svg PUBLIC "-//W3C//DTD SVG 1.1//EN" "http://www.w3.org/Graphics/SVG/1.1/DTD/svg11.dtd">
<!-- Creator: CorelDRAW X7.4 EN Portable -->
<svg xmlns="http://www.w3.org/2000/svg" xml:space="preserve" width="2550px" height="3300px" version="1.1" shape-rendering="geometricPrecision" text-rendering="geometricPrecision" image-rendering="optimizeQuality" fill-rule="evenodd" clip-rule="evenodd"
viewBox="0 0 2550 3300"
 xmlns:xlink="http://www.w3.org/1999/xlink">
 <g id="Layer_x0020_1">
  <metadata id="CorelCorpID_0Corel-Layer"/>
  <g id="__x0023_eef7fcfc">
   <path fill="#EEF7FC" d="M1776 1111c2,-12 15,-3 23,-1 82,36 170,61 249,100 -74,45 -153,89 -236,114 -92,-4 -184,-7 -276,-13 -6,-1 -42,6 -33,-12 40,-18 80,-40 120,-57 52,34 115,50 173,70 11,2 32,12 33,-4 -11,-61 -26,-121 -39,-182 -1,-8 -8,-12 -14,-15z"/>
  </g>
  <g id="__x0023_fbfcfdfd">
   <path fill="#FBFCFD" d="M1623 1242c50,-44 101,-88 153,-131 6,3 13,7 14,15 13,61 28,121 39,182 -1,16 -22,6 -33,4 -58,-20 -121,-36 -173,-70z"/>
  </g>
  <g id="__x0023_e3f6ffff">
   <path fill="#E3F6FF" d="M2048 1210c2,0 5,1 7,1l1 4c-23,117 -44,234 -65,351 -3,0 -8,0 -11,0 -49,-79 -97,-158 -148,-236 -48,39 -65,117 -112,162l-3 -1c-74,-64 -160,-115 -231,-181 2,-7 11,-8 17,-11 -9,18 27,11 33,12 92,6 184,9 276,13 83,-25 162,-69 236,-114z"/>
  </g>
  <g id="__x0023_b1e3fdfd">
   <path fill="#B1E3FD" d="M2055 1211c61,47 134,86 190,138 -30,55 -46,117 -72,175 -8,14 -8,43 -26,46 -32,-118 -53,-239 -91,-355l-1 -4z"/>
  </g>
  <g id="__x0023_ccedfefe">
   <path fill="#CCEDFE" d="M2056 1215c38,116 59,237 91,355 18,-3 18,-32 26,-46 26,-58 42,-120 72,-175 46,54 89,112 132,169 -47,23 -101,29 -151,46 -76,29 -159,20 -239,16 -87,-33 -178,-57 -267,-88 47,-45 64,-123 112,-162 51,78 99,157 148,236 3,0 8,0 11,0 21,-117 42,-234 65,-351z"/>
  </g>
  <g id="__x0023_cbedfdfe">
   <path fill="#CBEDFD" d="M1478 1320c3,-2 3,-15 8,-10 71,66 157,117 231,181 -2,1 -7,2 -9,3 -5,0 -10,1 -15,1 -82,-15 -168,-18 -251,-29 -7,-2 -16,-3 -18,-11 16,-46 37,-89 54,-135z"/>
  </g>
  <g id="__x0023_ade3fcfd">
   <path fill="#ADE3FC" d="M1424 1455c2,8 11,9 18,11 83,11 169,14 251,29 -125,16 -251,27 -377,33 -1,-5 95,-62 108,-73z"/>
  </g>
  <g id="__x0023_b2e5feff">
   <path fill="#B2E5FE" d="M1708 1494c2,-1 7,-2 9,-3l3 1c89,31 180,55 267,88 -1,2 -3,6 -4,7l-3 1c-84,-1 -167,-1 -250,0 1,-28 10,-65 -12,-86 -3,-3 -7,-6 -10,-8z"/>
  </g>
  <g id="__x0023_92e0ffff">
   <path fill="#92E0FF" d="M1316 1528c126,-6 252,-17 377,-33 5,0 10,-1 15,-1 3,2 7,5 10,8 -18,29 -53,53 -61,86 -1,0 -5,0 -7,0 -74,0 -148,-1 -222,0 -3,0 -8,-1 -10,-1 -36,-15 -71,-33 -105,-53 1,-1 2,-4 3,-6z"/>
  </g>
  <g id="__x0023_c9edfeff">
   <path fill="#C9EDFE" d="M1657 1588c8,-33 43,-57 61,-86 22,21 13,58 12,86 -24,0 -49,0 -73,0z"/>
  </g>
  <g id="__x0023_92e0feff">
   <path fill="#92E0FE" d="M2377 1518c1,1 2,2 3,2 3,23 4,45 3,68 -74,-1 -148,-1 -222,0 -3,0 -8,0 -11,0 -53,-1 -106,0 -159,-1 -2,0 -6,0 -8,0 1,-1 3,-5 4,-7 80,4 163,13 239,-16 50,-17 104,-23 151,-46z"/>
  </g>
  <g id="__x0023_55cef5f6">
   <path fill="#55CEF5" fill-opacity="0.960784" d="M2380 1520c23,22 49,41 71,65 -22,2 -45,2 -68,3 1,-23 0,-45 -3,-68z"/>
  </g>
  <g id="__x0023_57d3fcfe">
   <path fill="#57D3FC" d="M1313 1534c34,20 69,38 105,53 -33,0 -65,1 -97,0l-8 -53z"/>
  </g>
  <g id="__x0023_1fb8fcff">
   <path fill="#1FB8FC" d="M2451 1585c15,9 32,21 41,36 0,5 -1,10 -1,16 -39,37 -62,90 -101,128 -139,18 -274,61 -415,63 -73,0 -145,6 -218,5l3 -2c2,-1 5,-4 7,-5 72,-79 146,-156 213,-238l3 -1c2,0 6,0 8,0 20,79 37,161 67,236 33,-78 62,-157 92,-235 3,0 8,0 11,0 70,64 153,116 230,171 0,-57 1,-115 -8,-171 23,-1 46,-1 68,-3z"/>
  </g>
  <g id="__x0023_1db4faff">
   <path fill="#1DB4FA" d="M1321 1587c32,1 64,0 97,0 2,0 7,1 10,1 40,39 101,51 143,86 -76,18 -152,40 -229,56 -7,-42 -21,-102 -21,-143z"/>
  </g>
  <g id="__x0023_3cbdfcff">
   <path fill="#3CBDFC" d="M1428 1588c74,-1 148,0 222,0 -22,29 -53,55 -65,90 -38,61 -72,125 -106,190 -1,-2 -5,-5 -7,-6 -41,-45 -97,-81 -130,-132 77,-16 153,-38 229,-56 -42,-35 -103,-47 -143,-86z"/>
  </g>
  <g id="__x0023_61cefeff">
   <path fill="#61CEFE" d="M1650 1588c2,0 6,0 7,0 24,0 49,0 73,0 29,75 9,162 37,238 -2,1 -5,4 -7,5 -60,-49 -116,-104 -175,-153 12,-35 43,-61 65,-90z"/>
  </g>
  <g id="__x0023_52c7ffff">
   <path fill="#52C7FF" d="M1730 1588c83,-1 166,-1 250,0 -67,82 -141,159 -213,238 -28,-76 -8,-163 -37,-238z"/>
  </g>
  <g id="__x0023_3fc1feff">
   <path fill="#3FC1FE" d="M1991 1587c53,1 106,0 159,1 -30,78 -59,157 -92,235 -30,-75 -47,-157 -67,-236z"/>
  </g>
  <g id="__x0023_3ebffdff">
   <path fill="#3EBFFD" d="M2161 1588c74,-1 148,-1 222,0 9,56 8,114 8,171 -77,-55 -160,-107 -230,-171z"/>
  </g>
  <g id="__x0023_01a5ecff">
   <path fill="#01A5EC" d="M2390 1765c39,-38 62,-91 101,-128 1,64 0,129 2,193 -33,-18 -62,-44 -96,-59 -23,84 -36,172 -51,259l-9 13c-87,-53 -163,-124 -246,-184 -10,-3 -27,-34 -34,-15 -28,84 -54,168 -81,253 0,8 -8,17 -17,15 -28,-33 -44,-79 -79,-105 -36,-52 -74,-101 -109,-153 -5,-11 -15,-17 -26,-18 4,-1 8,-2 12,-3 73,1 145,-5 218,-5 141,-2 276,-45 415,-63z"/>
  </g>
  <g id="__x0023_10b5fcff">
   <path fill="#10B5FC" d="M1479 1868c34,-65 68,-129 106,-190 59,49 115,104 175,153l-3 2c-4,1 -8,2 -12,3 -86,9 -173,19 -259,31 -1,0 -5,0 -7,1z"/>
  </g>
  <g id="__x0023_01a2e9fe">
   <path fill="#01A2E9" d="M1339 1712c1,6 2,12 3,18 33,51 89,87 130,132 -53,9 -106,18 -159,26 -1,-29 19,-127 25,-173l1 -3z"/>
  </g>
  <g id="__x0023_018bd9fc">
   <path fill="#018BD9" d="M2390 1765c35,15 70,47 103,65 -1,2 -2,5 -2,7 -50,63 -93,132 -145,193 15,-87 22,-181 44,-265z"/>
  </g>
  <g id="__x0023_0190dfff">
   <path fill="#0190DF" d="M1486 1867c86,-12 173,-22 259,-31 11,1 21,7 26,18 35,52 73,101 109,153 22,38 48,75 76,109 126,-13 251,-49 378,-66l-9 13c-110,76 -212,164 -322,241l-3 0c-4,-3 -8,-6 -12,-8 3,-58 -17,-114 -27,-171 -53,18 -102,53 -153,78 -2,0 -5,2 -7,3l-7 -10 -6 -9c-73,-36 -138,-85 -213,-116l-3 -1 -1 -3c-20,-70 -67,-130 -85,-200z"/>
  </g>
  <g id="__x0023_019deaff">
   <path fill="#019DEA" d="M2057 1844c7,-19 24,12 34,15 83,60 159,131 246,184 -1,2 -3,5 -3,7 -127,17 -252,53 -378,66 -28,-34 -54,-71 -76,-109 35,26 51,72 79,105 9,2 17,-7 17,-15 27,-85 53,-169 81,-253z"/>
  </g>
  <g id="__x0023_0daff7fd">
   <path fill="#0DAFF7" d="M1313 1888c53,-8 106,-17 159,-26 2,1 6,4 7,6 -15,53 -40,104 -58,157 -3,6 -7,11 -12,15 -34,-47 -63,-98 -97,-146 1,-1 1,-4 1,-6z"/>
  </g>
  <g id="__x0023_01a3eafe">
   <path fill="#01A3EA" d="M1479 1868c2,-1 6,-1 7,-1 18,70 65,130 85,200 -14,-2 -28,-4 -42,-6 -6,-1 -18,-3 -25,-4l-4 -1c-6,-2 -13,-3 -21,-2l-4 -1c-5,-3 -11,-4 -16,-3 -2,-1 -7,-1 -9,-2 -6,-3 -13,-3 -20,-2 -8,0 -18,2 -21,-6 5,-4 9,-9 12,-15 18,-53 43,-104 58,-157z"/>
  </g>
  <g id="__x0023_0182d3fd">
   <path fill="#0182D3" d="M2003 2304c110,-77 212,-165 322,-241 -37,81 -84,164 -125,241 -66,0 -131,0 -197,0z"/>
  </g>
  <g id="__x0023_019be7fc">
   <path fill="#019BE7" d="M1631 2095c8,4 185,103 177,108 -126,73 -149,73 -149,73 -29,-68 -60,-135 -84,-205l56 24z"/>
  </g>
  <g id="__x0023_0186d5ff">
   <path fill="#0186D5" d="M1808 2203c51,-25 100,-60 153,-78 10,57 30,113 27,171 -58,-28 -114,-58 -171,-86 -3,-2 -6,-5 -9,-7z"/>
  </g>
  <g id="__x0023_0182d3fe">
   <path fill="#0182D3" d="M1801 2206c2,-1 5,-3 7,-3 -42,80 -65,170 -110,248l-39 -175c51,-14 93,-50 142,-70z"/>
  </g>
  <g id="__x0023_016fc3fd">
   <path fill="#016FC3" d="M1808 2203c3,2 6,5 9,7 -2,35 22,69 31,104 40,105 77,211 117,317 7,14 12,50 26,22 0,13 1,26 1,39 -1,12 -18,-3 -22,-7 -90,-79 -184,-153 -274,-232l2 -2c45,-78 68,-168 110,-248z"/>
   <path fill="#016FC3" d="M2000 2304l3 0c66,0 131,0 197,0 1,7 -56,195 -77,248 -45,-75 -77,-159 -118,-237 -2,-3 -4,-7 -5,-11z"/>
  </g>
  <g id="__x0023_0163b8ff">
   <path fill="#0163B8" d="M1848 2314c-9,-35 -33,-69 -31,-104 57,28 113,58 171,86 4,2 8,5 12,8 1,4 3,8 5,11l-11 338c-3,7 -1,42 -4,43 -8,1 -21,-54 -27,-65 -39,-106 -75,-212 -115,-317z"/>
  </g>
  <g id="__x0023_00519bfd">
   <path fill="#00519B" d="M2005 2315c41,78 73,162 118,237 -36,46 -86,96 -131,140 0,-13 -1,-26 -1,-39 8,-112 4,-226 14,-338z"/>
  </g>
 </g>
</svg>
