<?xml version="1.0" encoding="UTF-8" ?>
<!DOCTYPE svg PUBLIC "-//W3C//DTD SVG 1.1//EN" "http://www.w3.org/Graphics/SVG/1.1/DTD/svg11.dtd">
<svg width="400pt" height="300pt" viewBox="0 0 400 300" version="1.1" xmlns="http://www.w3.org/2000/svg">
<g id="#ffffffff">
<path fill="#ffffff" opacity="1.00" d=" M 0.00 0.00 L 400.00 0.00 L 400.00 300.00 L 0.00 300.00 L 0.00 0.00 M 141.74 57.74 C 130.74 68.74 119.77 79.77 108.74 90.73 C 103.46 94.90 103.07 104.37 108.23 108.78 C 121.95 122.54 135.88 136.10 149.35 150.10 C 141.45 159.40 126.65 167.21 130.39 181.67 C 132.68 192.94 147.72 199.23 157.25 192.47 C 157.56 192.60 158.19 192.86 158.51 193.00 C 154.75 198.19 155.41 205.05 157.06 210.94 C 161.35 218.05 170.58 223.31 178.93 219.90 C 180.56 219.02 183.06 218.73 183.88 216.99 C 189.92 212.54 194.86 206.49 200.05 201.06 L 200.73 200.75 C 205.53 206.72 211.50 211.97 217.05 217.23 C 221.95 223.13 228.00 228.11 233.25 233.75 C 238.02 238.03 241.69 243.91 248.07 245.99 C 252.30 247.24 256.18 244.75 259.27 242.28 C 270.24 231.24 281.23 220.24 292.26 209.27 C 298.10 204.70 297.81 193.71 291.23 190.07 C 290.07 188.37 288.59 186.63 286.62 185.92 L 286.82 185.24 C 283.18 182.03 280.06 177.84 276.23 175.09 C 275.10 173.38 273.59 171.64 271.63 170.92 C 271.51 168.90 268.77 167.49 267.30 166.05 C 265.50 163.88 263.59 161.42 261.19 160.01 C 260.09 158.37 258.66 156.90 257.03 155.78 C 255.46 153.88 253.83 151.78 251.60 150.67 C 259.14 140.93 269.22 133.34 277.23 123.98 C 280.18 121.64 282.90 118.87 285.23 115.95 C 288.08 113.99 290.17 111.07 292.67 108.71 C 297.75 103.90 297.68 94.38 291.76 90.24 C 280.06 78.96 269.06 66.82 257.00 56.00 C 248.29 49.68 239.78 58.73 234.77 65.04 C 231.93 67.28 229.10 69.95 227.04 72.83 C 226.82 73.06 226.37 73.52 226.14 73.75 C 217.10 81.70 209.04 90.86 200.28 99.18 C 198.91 97.25 197.25 95.30 195.23 94.05 C 194.06 92.38 192.59 90.63 190.63 89.92 L 190.82 89.24 C 187.04 85.99 183.93 81.44 179.75 78.97 C 179.61 77.26 177.53 75.44 175.90 75.12 C 173.44 70.94 168.78 67.30 165.23 64.09 C 164.10 62.37 162.59 60.65 160.63 59.91 C 161.15 58.13 157.91 57.11 156.99 56.01 C 152.40 52.35 145.64 53.83 141.74 57.74 M 115.25 214.01 C 112.40 224.83 108.11 235.20 104.88 245.89 C 115.67 242.77 126.03 237.85 137.04 235.82 C 136.96 235.43 136.81 234.65 136.74 234.25 C 130.48 227.85 124.01 221.66 117.81 215.20 C 117.17 214.90 115.89 214.31 115.25 214.01 Z" />
<path fill="#ffffff" opacity="1.00" d=" M 137.31 81.27 C 143.06 79.61 150.99 84.11 149.02 91.02 C 149.70 98.44 138.07 101.89 133.75 96.26 C 129.61 91.60 131.39 83.47 137.31 81.27 Z" />
</g>
<g id="#7db343ff">
<path fill="#7db343" opacity="1.00" d=" M 141.74 57.74 C 145.64 53.83 152.40 52.35 156.99 56.01 C 157.91 57.11 161.15 58.13 160.63 59.91 C 158.03 62.61 155.06 64.98 152.83 68.00 C 153.97 69.28 155.04 71.57 156.82 71.70 C 159.22 69.44 161.39 66.93 163.98 64.87 C 164.29 64.67 164.91 64.28 165.23 64.09 C 168.78 67.30 173.44 70.94 175.90 75.12 C 173.37 77.62 169.76 79.63 168.28 82.93 C 168.25 84.46 170.71 87.60 172.30 86.15 C 174.63 83.90 176.92 81.60 179.14 79.23 L 179.75 78.97 C 183.93 81.44 187.04 85.99 190.82 89.24 L 190.63 89.92 C 188.03 92.61 185.06 94.99 182.83 98.01 C 183.89 99.66 185.35 101.05 186.96 102.17 C 189.28 99.72 191.32 96.98 193.96 94.85 C 194.28 94.65 194.91 94.25 195.23 94.05 C 197.25 95.30 198.91 97.25 200.28 99.18 C 183.33 116.18 166.37 133.17 149.35 150.10 C 135.88 136.10 121.95 122.54 108.23 108.78 C 103.07 104.37 103.46 94.90 108.74 90.73 C 119.77 79.77 130.74 68.74 141.74 57.74 M 137.31 81.27 C 131.39 83.47 129.61 91.60 133.75 96.26 C 138.07 101.89 149.70 98.44 149.02 91.02 C 150.99 84.11 143.06 79.61 137.31 81.27 Z" />
<path fill="#7db343" opacity="1.00" d=" M 267.30 166.05 C 268.77 167.49 271.51 168.90 271.63 170.92 C 269.03 173.61 266.06 175.98 263.83 179.00 C 264.97 180.28 266.04 182.57 267.82 182.70 C 270.21 180.44 272.39 177.93 274.98 175.87 C 275.29 175.67 275.91 175.28 276.23 175.09 C 280.06 177.84 283.18 182.03 286.82 185.24 L 286.62 185.92 C 284.03 188.61 281.06 190.98 278.83 194.00 C 279.97 195.28 281.04 197.57 282.82 197.70 C 285.21 195.44 287.39 192.92 289.98 190.87 C 290.30 190.67 290.92 190.27 291.23 190.07 C 297.81 193.71 298.10 204.70 292.26 209.27 C 281.23 220.24 270.24 231.24 259.27 242.28 C 256.18 244.75 252.30 247.24 248.07 245.99 C 241.69 243.91 238.02 238.03 233.25 233.75 C 228.00 228.11 221.95 223.13 217.05 217.23 C 231.51 203.30 245.46 188.85 259.77 174.77 C 262.40 171.97 265.52 169.53 267.30 166.05 Z" />
</g>
<g id="#64b4f5ff">
<path fill="#64b4f5" opacity="1.00" d=" M 234.77 65.04 C 239.78 58.73 248.29 49.68 257.00 56.00 C 269.06 66.82 280.06 78.96 291.76 90.24 C 297.68 94.38 297.75 103.90 292.67 108.71 C 290.17 111.07 288.08 113.99 285.23 115.95 C 268.66 98.74 251.33 82.26 234.77 65.04 Z" />
</g>
<g id="#2e621bff">
<path fill="#2e621b" opacity="1.00" d=" M 152.83 68.00 C 155.06 64.98 158.03 62.61 160.63 59.91 C 161.46 61.74 162.74 63.30 163.98 64.87 C 161.39 66.93 159.22 69.44 156.82 71.70 C 155.04 71.57 153.97 69.28 152.83 68.00 Z" />
<path fill="#2e621b" opacity="1.00" d=" M 168.28 82.93 C 169.76 79.63 173.37 77.62 175.90 75.12 C 176.00 77.05 177.56 78.36 179.14 79.23 C 176.92 81.60 174.63 83.90 172.30 86.15 C 171.43 84.61 170.16 83.09 168.28 82.93 Z" />
<path fill="#2e621b" opacity="1.00" d=" M 182.83 98.01 C 185.06 94.99 188.03 92.61 190.63 89.92 C 191.47 91.73 192.73 93.28 193.96 94.85 C 191.32 96.98 189.28 99.72 186.96 102.17 C 185.35 101.05 183.89 99.66 182.83 98.01 Z" />
<path fill="#2e621b" opacity="1.00" d=" M 248.96 164.01 C 250.24 160.19 253.76 157.82 257.03 155.78 C 258.66 156.90 260.09 158.37 261.19 160.01 C 258.05 162.18 255.53 165.07 252.82 167.72 C 251.10 167.47 249.86 165.43 248.96 164.01 Z" />
<path fill="#2e621b" opacity="1.00" d=" M 263.83 179.00 C 266.06 175.98 269.03 173.61 271.63 170.92 C 272.47 172.74 273.75 174.30 274.98 175.87 C 272.39 177.93 270.21 180.44 267.82 182.70 C 266.04 182.57 264.97 180.28 263.83 179.00 Z" />
<path fill="#2e621b" opacity="1.00" d=" M 278.83 194.00 C 281.06 190.98 284.03 188.61 286.62 185.92 C 287.47 187.74 288.75 189.30 289.98 190.87 C 287.39 192.92 285.21 195.44 282.82 197.70 C 281.04 197.57 279.97 195.28 278.83 194.00 Z" />
</g>
<g id="#4f8e21ff">
<path fill="#4f8e21" opacity="1.00" d=" M 160.63 59.91 C 162.59 60.65 164.10 62.37 165.23 64.09 C 164.91 64.28 164.29 64.67 163.98 64.87 C 162.74 63.30 161.46 61.74 160.63 59.91 Z" />
<path fill="#4f8e21" opacity="1.00" d=" M 175.90 75.12 C 177.53 75.44 179.61 77.26 179.75 78.97 L 179.14 79.23 C 177.56 78.36 176.00 77.05 175.90 75.12 Z" />
<path fill="#4f8e21" opacity="1.00" d=" M 168.28 82.93 C 170.16 83.09 171.43 84.61 172.30 86.15 C 170.71 87.60 168.25 84.46 168.28 82.93 Z" />
<path fill="#4f8e21" opacity="1.00" d=" M 190.63 89.92 C 192.59 90.63 194.06 92.38 195.23 94.05 C 194.91 94.25 194.28 94.65 193.96 94.85 C 192.73 93.28 191.47 91.73 190.63 89.92 Z" />
<path fill="#4f8e21" opacity="1.00" d=" M 200.73 200.75 C 217.40 184.12 234.05 167.47 250.68 150.79 L 251.60 150.67 C 253.83 151.78 255.46 153.88 257.03 155.78 C 253.76 157.82 250.24 160.19 248.96 164.01 C 249.86 165.43 251.10 167.47 252.82 167.72 C 255.53 165.07 258.05 162.18 261.19 160.01 C 263.59 161.42 265.50 163.88 267.30 166.05 C 265.52 169.53 262.40 171.97 259.77 174.77 C 245.46 188.85 231.51 203.30 217.05 217.23 C 211.50 211.97 205.53 206.72 200.73 200.75 Z" />
<path fill="#4f8e21" opacity="1.00" d=" M 271.63 170.92 C 273.59 171.64 275.10 173.38 276.23 175.09 C 275.91 175.28 275.29 175.67 274.98 175.87 C 273.75 174.30 272.47 172.74 271.63 170.92 Z" />
<path fill="#4f8e21" opacity="1.00" d=" M 286.62 185.92 C 288.59 186.63 290.07 188.37 291.23 190.07 C 290.92 190.27 290.30 190.67 289.98 190.87 C 288.75 189.30 287.47 187.74 286.62 185.92 Z" />
</g>
<g id="#0d48a2ff">
<path fill="#0d48a2" opacity="1.00" d=" M 227.04 72.83 C 229.10 69.95 231.93 67.28 234.77 65.04 C 251.33 82.26 268.66 98.74 285.23 115.95 C 282.90 118.87 280.18 121.64 277.23 123.98 C 275.52 120.47 272.39 118.02 269.77 115.23 C 255.44 101.18 241.57 86.67 227.04 72.83 Z" />
</g>
<g id="#524d52ff">
<path fill="#524d52" opacity="1.00" d=" M 226.14 73.75 C 226.37 73.52 226.82 73.06 227.04 72.83 C 241.57 86.67 255.44 101.18 269.77 115.23 C 272.39 118.02 275.52 120.47 277.23 123.98 L 276.21 123.69 C 267.87 115.47 259.71 107.07 251.33 98.90 C 242.97 90.48 234.65 82.02 226.14 73.75 Z" />
<path fill="#524d52" opacity="1.00" d=" M 115.25 214.01 C 115.89 214.31 117.17 214.90 117.81 215.20 C 124.01 221.66 130.48 227.85 136.74 234.25 C 136.81 234.65 136.96 235.43 137.04 235.82 C 126.03 237.85 115.67 242.77 104.88 245.89 C 108.11 235.20 112.40 224.83 115.25 214.01 Z" />
</g>
<g id="#e53a36ff">
<path fill="#e53a36" opacity="1.00" d=" M 200.28 99.18 C 209.04 90.86 217.10 81.70 226.14 73.75 C 234.65 82.02 242.97 90.48 251.33 98.90 C 222.91 127.95 193.89 156.42 165.25 185.25 C 162.82 187.67 160.84 190.49 158.51 193.00 C 158.19 192.86 157.56 192.60 157.25 192.47 C 147.72 199.23 132.68 192.94 130.39 181.67 C 126.65 167.21 141.45 159.40 149.35 150.10 C 166.37 133.17 183.33 116.18 200.28 99.18 Z" />
<path fill="#e53a36" opacity="1.00" d=" M 255.72 143.72 C 262.61 137.10 269.05 130.02 276.21 123.69 L 277.23 123.98 C 269.22 133.34 259.14 140.93 251.60 150.67 L 250.68 150.79 C 251.03 147.68 253.72 145.81 255.72 143.72 Z" />
<path fill="#e53a36" opacity="1.00" d=" M 189.72 209.72 C 193.10 206.79 195.67 202.58 200.05 201.06 C 194.86 206.49 189.92 212.54 183.88 216.99 C 184.62 213.82 187.75 212.08 189.72 209.72 Z" />
</g>
<g id="#c62828ff">
<path fill="#c62828" opacity="1.00" d=" M 251.33 98.90 C 259.71 107.07 267.87 115.47 276.21 123.69 C 269.05 130.02 262.61 137.10 255.72 143.72 C 253.72 145.81 251.03 147.68 250.68 150.79 C 234.05 167.47 217.40 184.12 200.73 200.75 L 200.05 201.06 C 195.67 202.58 193.10 206.79 189.72 209.72 C 187.75 212.08 184.62 213.82 183.88 216.99 C 183.06 218.73 180.56 219.02 178.93 219.90 C 170.58 223.31 161.35 218.05 157.06 210.94 C 155.41 205.05 154.75 198.19 158.51 193.00 C 160.84 190.49 162.82 187.67 165.25 185.25 C 193.89 156.42 222.91 127.95 251.33 98.90 Z" />
</g>
</svg>
