<?xml version="1.0" encoding="UTF-8"?>
<!DOCTYPE svg PUBLIC "-//W3C//DTD SVG 1.1//EN" "http://www.w3.org/Graphics/SVG/1.1/DTD/svg11.dtd">
<!-- Creator: CorelDRAW X7.4 EN Portable -->
<svg xmlns="http://www.w3.org/2000/svg" xml:space="preserve" width="3300px" height="2550px" version="1.1" shape-rendering="geometricPrecision" text-rendering="geometricPrecision" image-rendering="optimizeQuality" fill-rule="evenodd" clip-rule="evenodd"
viewBox="0 0 3300 2550"
 xmlns:xlink="http://www.w3.org/1999/xlink">
 <g id="Layer_x0020_1">
  <metadata id="CorelCorpID_0Corel-Layer"/>
  <g id="_501204256">
   <rect fill="#FEFEFE" x="1686" y="1261" width="156.919" height="40.8094"/>
  </g>
  <path fill="#373435" d="M1778 1476l184 0 0 -34 -184 0 0 34zm115 171l69 0 0 -40 -69 0 0 40zm28 267l38 0 0 -34 -38 0 0 34zm-839 -711l269 1 171 158 175 -161 196 0 0 38 73 0 0 49 -79 0 0 33 -138 0 0 38 217 0 0 40 -410 0 0 20 0 21 169 0 0 34 -77 0 0 41 318 0 0 34 -58 0 0 36 -99 0 0 41 36 0 0 37 -102 0 0 41 223 0 0 37 -52 0 0 27 -28 0 0 41 80 0 0 28 -232 0 0 41 144 0 0 33 -181 0 -6 -339 -169 156 -171 -158 0 343 -269 0 0 -710zm765 569l0 40 -33 0 0 -40 33 0zm-46 -494l32 0 0 -40 -32 0 0 40zm-624 21l65 0 0 -14 -65 0 0 14zm43 -31l37 0 0 -14 -37 0 0 14zm-13 61l23 0 0 -14 -23 0 0 14zm-81 -2l73 0 0 -13 -59 0 0 -46 74 0 0 -14 -88 0 0 3 0 0 0 57 0 7 0 6zm-2 29l60 0 0 -13 -60 0 0 13z"/>
 </g>
</svg>
