<?xml version="1.0" encoding="UTF-8" ?>
<!DOCTYPE svg PUBLIC "-//W3C//DTD SVG 1.1//EN" "http://www.w3.org/Graphics/SVG/1.1/DTD/svg11.dtd">
<svg width="512pt" height="512pt" viewBox="0 0 512 512" version="1.1" xmlns="http://www.w3.org/2000/svg">
<g id="#cb2027fe">
<path fill="#cb2027" opacity="1.00" d=" M 241.42 0.00 L 270.58 0.00 C 297.67 2.44 324.75 7.68 350.00 17.99 C 402.24 38.50 447.16 76.91 475.86 125.09 C 494.67 156.61 506.69 192.14 510.32 228.69 C 511.27 232.86 510.04 237.56 512.00 241.51 L 512.00 270.58 C 509.56 297.67 504.32 324.75 494.01 350.00 C 473.50 402.24 435.09 447.16 386.91 475.86 C 355.39 494.67 319.86 506.69 283.31 510.32 C 279.12 511.27 274.44 510.04 270.49 512.00 L 241.42 512.00 C 222.05 510.16 202.80 506.99 184.04 501.74 C 185.00 497.70 187.99 494.47 189.76 490.77 C 200.74 472.65 208.56 452.71 213.01 432.00 C 218.31 413.78 221.91 395.09 227.23 376.90 C 230.64 380.17 232.49 384.76 236.19 387.80 C 252.04 402.13 273.76 409.13 295.00 408.06 C 335.82 407.11 374.57 383.45 395.98 348.99 C 413.65 323.03 422.92 292.06 426.12 261.02 C 427.48 245.27 429.40 229.29 426.55 213.58 C 422.25 184.70 408.77 157.46 388.76 136.24 C 367.46 113.63 339.08 98.15 308.93 91.06 C 262.13 80.62 211.51 86.50 168.98 108.96 C 133.31 127.80 104.68 160.05 91.40 198.27 C 81.31 227.23 79.80 259.59 88.97 289.01 C 96.26 313.20 112.88 336.29 137.64 344.45 C 141.90 346.39 146.13 342.42 147.69 338.72 C 150.05 330.53 152.05 322.23 153.91 313.91 C 155.71 309.49 152.45 306.02 149.98 303.02 C 140.94 292.73 135.36 279.59 133.88 266.00 C 128.48 225.59 145.29 182.69 177.26 157.28 C 195.66 142.42 218.50 133.25 242.03 130.99 C 267.41 127.81 294.20 130.86 317.03 142.94 C 343.61 156.41 361.59 184.07 364.50 213.60 C 367.17 246.94 362.17 281.10 348.88 311.88 C 341.52 328.54 330.49 343.98 315.39 354.43 C 298.69 365.43 274.91 368.21 258.28 355.71 C 245.03 346.86 240.07 329.15 244.01 314.06 C 250.18 287.31 260.83 261.75 265.56 234.63 C 266.75 222.99 266.90 210.06 260.03 199.97 C 254.97 190.44 243.98 186.00 233.66 185.40 C 216.62 184.46 201.23 195.72 193.09 210.06 C 178.82 234.86 179.82 266.27 190.49 292.22 C 179.97 338.52 168.66 384.66 157.89 430.92 C 153.42 450.30 152.83 470.31 152.92 490.11 C 111.39 471.99 75.05 442.22 48.38 405.64 C 22.50 369.59 5.85 326.84 1.60 282.60 C 0.72 278.63 1.90 274.21 0.00 270.49 L 0.00 241.51 C 1.96 237.56 0.71 232.86 1.68 228.69 C 5.31 192.14 17.33 156.61 36.14 125.09 C 64.84 76.91 109.76 38.50 162.00 17.99 C 187.25 7.68 214.33 2.44 241.42 0.00 Z" />
</g>
</svg>
