<?xml version="1.0" encoding="UTF-8" ?>
<!DOCTYPE svg PUBLIC "-//W3C//DTD SVG 1.1//EN" "http://www.w3.org/Graphics/SVG/1.1/DTD/svg11.dtd">
<svg width="863pt" height="1000pt" viewBox="0 0 863 1000" version="1.1" xmlns="http://www.w3.org/2000/svg">
<g id="#00d7fdff">
<path fill="#00d7fd" opacity="1.00" d=" M 430.28 3.28 C 431.83 2.36 433.33 3.71 434.66 4.39 C 474.63 27.83 514.99 50.63 554.97 74.07 C 657.37 132.95 759.63 192.09 861.90 251.18 C 862.07 417.07 862.07 582.97 861.90 748.86 C 718.59 831.58 575.29 914.39 431.95 997.00 C 430.57 997.21 429.49 996.14 428.34 995.61 C 388.37 972.17 348.01 949.37 308.03 925.93 C 205.63 867.05 103.37 807.91 1.10 748.82 C 0.93 582.93 0.93 417.03 1.10 251.14 C 144.14 168.48 287.31 86.05 430.28 3.28 M 431.24 25.33 C 294.16 104.18 157.39 183.65 20.18 262.29 C 19.87 420.75 19.90 579.25 20.17 737.72 C 45.81 751.51 70.55 766.90 96.01 781.04 C 206.83 845.27 317.95 909.00 428.76 973.27 C 429.75 973.69 430.63 974.71 431.79 974.65 C 547.48 907.70 663.32 840.98 779.08 774.14 C 800.43 762.18 821.20 749.19 842.84 737.76 C 843.08 579.30 843.16 420.81 842.81 262.34 C 783.44 228.42 724.27 194.10 665.09 159.84 C 586.98 115.28 509.50 69.57 431.24 25.33 Z" />
<path fill="#00d7fd" opacity="1.00" d=" M 572.34 174.56 C 587.63 172.61 603.79 175.74 616.80 184.20 C 629.58 191.90 637.54 205.11 643.61 218.33 C 652.54 238.34 654.24 260.44 655.93 281.99 C 656.46 314.27 651.62 346.47 644.09 377.80 C 683.24 389.64 722.24 404.90 754.95 430.05 C 769.78 441.81 783.87 455.65 791.81 473.14 C 797.46 485.80 800.03 500.50 796.03 514.01 C 791.22 532.32 779.17 547.80 765.76 560.76 C 732.18 590.44 690.26 608.54 647.91 621.78 C 644.36 621.76 646.70 625.96 646.97 628.01 C 657.06 675.09 662.99 725.36 648.14 772.08 C 641.74 788.94 632.63 806.08 616.78 815.76 C 597.97 827.96 573.95 827.87 552.91 822.23 C 519.21 812.88 489.15 793.66 462.00 772.00 C 451.67 763.81 442.50 754.24 432.17 746.11 C 420.49 758.89 406.57 769.31 393.06 780.06 C 361.26 802.54 325.58 823.66 285.65 825.41 C 267.19 826.72 247.23 820.43 234.73 806.27 C 223.51 795.89 217.78 781.16 213.07 766.98 C 201.19 719.97 207.43 670.65 218.84 624.19 C 184.49 613.98 150.74 600.31 121.01 579.98 C 107.52 571.10 95.69 560.03 84.90 548.09 C 72.61 533.29 64.16 514.53 65.04 494.99 C 67.01 479.27 73.72 464.11 84.27 452.26 C 100.79 431.48 123.82 417.27 146.99 404.99 C 170.05 393.72 194.09 384.30 218.95 377.84 C 210.13 336.29 202.79 293.17 209.42 250.64 C 212.78 230.23 219.64 209.42 233.99 194.00 C 240.56 186.38 249.66 181.38 259.07 178.11 C 282.56 171.29 307.55 176.28 329.71 185.30 C 362.93 198.41 392.05 219.91 418.83 243.15 C 423.47 246.47 427.23 250.79 431.22 254.83 C 435.92 252.18 439.43 247.97 443.23 244.23 C 462.77 227.04 483.20 210.65 506.00 197.95 C 526.40 186.23 548.72 176.81 572.34 174.56 M 578.34 205.60 C 569.35 206.21 560.46 207.95 551.91 210.83 C 514.68 224.91 482.45 249.61 454.17 277.16 C 460.09 284.87 467.25 291.96 473.40 299.63 C 488.56 317.30 502.36 336.08 516.13 354.84 C 548.96 357.79 581.62 362.93 613.80 369.98 C 622.15 335.38 626.79 299.56 622.92 264.01 C 621.56 246.15 615.84 228.41 604.94 214.05 C 597.56 207.98 587.92 204.60 578.34 205.60 M 276.33 206.42 C 273.54 206.94 270.83 207.55 268.08 208.18 C 253.95 212.93 247.58 228.12 243.34 241.17 C 238.71 260.36 236.54 280.34 238.88 300.00 C 239.86 323.21 244.23 346.12 249.31 368.75 C 249.96 370.55 251.71 369.08 253.00 369.03 C 283.88 362.09 315.23 357.29 346.78 354.77 C 366.96 328.52 386.46 301.41 409.82 277.84 C 407.29 273.22 401.57 270.92 398.24 266.76 C 375.91 246.99 351.49 229.02 324.13 216.82 C 309.04 210.69 292.89 204.52 276.33 206.42 M 431.27 300.24 C 416.50 316.23 402.90 333.28 389.30 350.28 C 389.21 350.71 389.03 351.58 388.93 352.01 C 400.54 350.17 412.30 351.27 424.00 351.00 C 441.03 351.16 458.10 350.37 475.08 352.00 C 461.67 333.90 447.29 316.30 431.98 299.91 L 431.27 300.24 M 404.35 382.59 C 391.29 383.30 378.16 383.41 365.07 384.09 C 339.96 421.03 317.39 459.72 298.07 500.00 C 317.47 540.21 339.92 579.00 365.20 615.79 C 409.28 619.37 453.65 618.38 497.74 615.78 C 501.82 612.32 503.85 607.21 506.90 602.93 C 528.18 569.47 548.80 535.19 564.97 499.06 C 545.24 459.30 522.89 420.79 497.92 384.07 C 466.78 382.84 435.52 380.79 404.35 382.59 M 317.34 389.56 C 297.52 392.42 277.66 395.39 258.19 400.11 C 265.03 421.34 272.64 442.31 281.21 462.91 C 285.81 456.65 288.63 448.66 292.95 441.97 C 302.65 423.92 313.46 406.49 324.04 388.97 C 322.36 389.11 319.02 389.41 317.34 389.56 M 538.93 388.98 C 553.59 413.26 568.83 437.29 581.20 462.85 C 581.56 462.56 582.27 461.98 582.63 461.69 C 589.85 444.27 596.68 426.68 602.60 408.77 C 603.19 405.85 605.43 403.29 604.95 400.20 C 583.14 395.53 561.17 390.69 538.93 388.98 M 226.79 408.14 C 187.03 419.27 147.38 435.40 116.23 463.24 C 104.52 475.25 91.62 491.98 98.37 509.70 C 104.46 526.93 118.92 539.15 132.78 550.22 C 161.23 570.26 193.57 584.22 226.91 593.77 C 232.18 580.55 235.90 566.55 241.29 553.29 C 247.82 535.56 255.30 518.20 262.94 500.93 C 263.32 497.98 260.95 495.54 260.22 492.84 C 247.61 465.29 237.05 436.88 227.78 408.05 L 226.79 408.14 M 636.10 408.24 C 625.47 439.24 613.53 470.11 600.06 499.91 C 614.41 529.74 626.70 560.53 637.25 591.90 C 642.76 591.61 647.70 588.36 653.05 587.13 C 678.30 578.77 702.69 567.56 724.98 552.97 C 737.99 543.92 750.66 533.76 759.35 520.32 C 764.29 512.09 769.00 502.04 765.50 492.35 C 760.99 474.77 745.59 462.76 732.22 451.77 C 703.08 431.66 670.01 417.96 636.10 408.24 M 281.18 537.07 C 273.10 558.53 263.75 579.75 258.00 601.86 C 280.25 605.76 302.44 610.95 325.07 612.02 C 309.07 587.92 294.94 562.09 281.18 537.07 M 581.23 537.13 C 574.21 551.49 566.06 565.28 558.25 579.23 C 552.38 590.45 544.26 600.57 538.93 611.98 C 561.54 608.19 584.79 605.77 606.82 599.89 C 599.45 578.74 591.79 557.67 582.74 537.15 C 582.36 537.15 581.60 537.14 581.23 537.13 M 614.27 630.40 C 582.41 637.90 549.97 643.18 517.28 645.30 C 515.09 646.02 514.24 648.24 512.93 649.93 C 495.28 675.75 475.50 700.14 455.18 723.77 C 471.85 740.34 490.25 755.19 509.91 768.10 C 528.98 780.00 549.47 790.78 571.99 794.03 C 582.19 795.08 593.56 794.60 602.00 788.01 C 608.97 783.30 612.61 775.39 615.93 767.98 C 623.18 750.96 625.36 732.33 626.03 714.01 C 625.86 686.72 622.11 659.56 616.06 632.99 C 615.89 632.07 615.63 629.88 614.27 630.40 M 249.21 632.05 C 241.65 662.08 237.00 692.97 238.07 724.01 C 239.21 737.74 240.70 751.63 245.37 764.69 C 249.44 775.93 256.15 787.72 268.04 791.95 C 283.71 796.91 300.73 792.85 315.78 787.60 C 351.90 774.17 383.03 750.07 410.82 723.85 C 388.49 699.40 367.57 672.98 347.80 646.20 C 314.73 643.10 281.76 638.47 249.21 632.05 M 472.31 648.43 C 471.23 648.75 470.13 648.94 469.02 649.00 C 442.30 649.06 415.58 648.90 388.87 649.06 C 402.77 666.76 417.05 684.18 432.14 700.88 C 433.32 700.71 433.90 699.45 434.79 698.79 C 448.74 683.01 462.24 666.75 474.65 649.69 C 476.03 647.41 473.77 647.97 472.31 648.43 Z" />
<path fill="#00d7fd" opacity="1.00" d=" M 423.34 434.53 C 447.90 430.72 473.71 443.30 486.70 464.29 C 493.96 475.39 497.05 488.86 497.00 502.00 C 496.11 519.70 487.99 536.93 474.74 548.72 C 464.04 557.25 451.20 563.80 437.29 564.40 C 403.73 568.63 370.17 541.68 366.76 508.08 C 360.89 473.45 388.38 437.72 423.34 434.53 Z" />
</g>
<g id="#222323ff">
<path fill="#222323" opacity="1.00" d=" M 431.24 25.33 C 509.50 69.57 586.98 115.28 665.09 159.84 C 724.27 194.10 783.44 228.42 842.81 262.34 C 843.16 420.81 843.08 579.30 842.84 737.76 C 821.20 749.19 800.43 762.18 779.08 774.14 C 663.32 840.98 547.48 907.70 431.79 974.65 C 430.63 974.71 429.75 973.69 428.76 973.27 C 317.95 909.00 206.83 845.27 96.01 781.04 C 70.55 766.90 45.81 751.51 20.17 737.72 C 19.90 579.25 19.87 420.75 20.18 262.29 C 157.39 183.65 294.16 104.18 431.24 25.33 M 572.34 174.56 C 548.72 176.81 526.40 186.23 506.00 197.95 C 483.20 210.65 462.77 227.04 443.23 244.23 C 439.43 247.97 435.92 252.18 431.22 254.83 C 427.23 250.79 423.47 246.47 418.83 243.15 C 392.05 219.91 362.93 198.41 329.71 185.30 C 307.55 176.28 282.56 171.29 259.07 178.11 C 249.66 181.38 240.56 186.38 233.99 194.00 C 219.64 209.42 212.78 230.23 209.42 250.64 C 202.79 293.17 210.13 336.29 218.95 377.84 C 194.09 384.30 170.05 393.72 146.99 404.99 C 123.82 417.27 100.79 431.48 84.27 452.26 C 73.72 464.11 67.01 479.27 65.04 494.99 C 64.16 514.53 72.61 533.29 84.90 548.09 C 95.69 560.03 107.52 571.10 121.01 579.98 C 150.74 600.31 184.49 613.98 218.84 624.19 C 207.43 670.65 201.19 719.97 213.07 766.98 C 217.78 781.16 223.51 795.89 234.73 806.27 C 247.23 820.43 267.19 826.72 285.65 825.41 C 325.58 823.66 361.26 802.54 393.06 780.06 C 406.57 769.31 420.49 758.89 432.17 746.11 C 442.50 754.24 451.67 763.81 462.00 772.00 C 489.15 793.66 519.21 812.88 552.91 822.23 C 573.95 827.87 597.97 827.96 616.78 815.76 C 632.63 806.08 641.74 788.94 648.14 772.08 C 662.99 725.36 657.06 675.09 646.97 628.01 C 646.70 625.96 644.36 621.76 647.91 621.78 C 690.26 608.54 732.18 590.44 765.76 560.76 C 779.17 547.80 791.22 532.32 796.03 514.01 C 800.03 500.50 797.46 485.80 791.81 473.14 C 783.87 455.65 769.78 441.81 754.95 430.05 C 722.24 404.90 683.24 389.64 644.09 377.80 C 651.62 346.47 656.46 314.27 655.93 281.99 C 654.24 260.44 652.54 238.34 643.61 218.33 C 637.54 205.11 629.58 191.90 616.80 184.20 C 603.79 175.74 587.63 172.61 572.34 174.56 Z" />
<path fill="#222323" opacity="1.00" d=" M 578.34 205.60 C 587.92 204.60 597.56 207.98 604.94 214.05 C 615.84 228.41 621.56 246.15 622.92 264.01 C 626.79 299.56 622.15 335.38 613.80 369.98 C 581.62 362.93 548.96 357.79 516.13 354.84 C 502.36 336.08 488.56 317.30 473.40 299.63 C 467.25 291.96 460.09 284.87 454.17 277.16 C 482.45 249.61 514.68 224.91 551.91 210.83 C 560.46 207.95 569.35 206.21 578.34 205.60 Z" />
<path fill="#222323" opacity="1.00" d=" M 276.33 206.42 C 292.89 204.52 309.04 210.69 324.13 216.82 C 351.49 229.02 375.91 246.99 398.24 266.76 C 401.57 270.92 407.29 273.22 409.82 277.84 C 386.46 301.41 366.96 328.52 346.78 354.77 C 315.23 357.29 283.88 362.09 253.00 369.03 C 251.71 369.08 249.96 370.55 249.31 368.75 C 244.23 346.12 239.86 323.21 238.88 300.00 C 236.54 280.34 238.71 260.36 243.34 241.17 C 247.58 228.12 253.95 212.93 268.08 208.18 C 270.83 207.55 273.54 206.94 276.33 206.42 Z" />
<path fill="#222323" opacity="1.00" d=" M 431.27 300.24 L 431.98 299.91 C 447.29 316.30 461.67 333.90 475.08 352.00 C 458.10 350.37 441.03 351.16 424.00 351.00 C 412.30 351.27 400.54 350.17 388.93 352.01 C 389.03 351.58 389.21 350.71 389.30 350.28 C 402.90 333.28 416.50 316.23 431.27 300.24 Z" />
<path fill="#222323" opacity="1.00" d=" M 404.35 382.59 C 435.52 380.79 466.78 382.84 497.92 384.07 C 522.89 420.79 545.24 459.30 564.97 499.06 C 548.80 535.19 528.18 569.47 506.90 602.93 C 503.85 607.21 501.82 612.32 497.74 615.78 C 453.65 618.38 409.28 619.37 365.20 615.79 C 339.92 579.00 317.47 540.21 298.07 500.00 C 317.39 459.72 339.96 421.03 365.07 384.09 C 378.16 383.41 391.29 383.30 404.35 382.59 M 423.34 434.53 C 388.38 437.72 360.89 473.45 366.76 508.08 C 370.17 541.68 403.73 568.63 437.29 564.40 C 451.20 563.80 464.04 557.25 474.74 548.72 C 487.99 536.93 496.11 519.70 497.00 502.00 C 497.05 488.86 493.96 475.39 486.70 464.29 C 473.71 443.30 447.90 430.72 423.34 434.53 Z" />
<path fill="#222323" opacity="1.00" d=" M 317.34 389.56 C 319.02 389.41 322.36 389.11 324.04 388.97 C 313.46 406.49 302.65 423.92 292.95 441.97 C 288.63 448.66 285.81 456.65 281.21 462.91 C 272.64 442.31 265.03 421.34 258.19 400.11 C 277.66 395.39 297.52 392.42 317.34 389.56 Z" />
<path fill="#222323" opacity="1.00" d=" M 538.93 388.98 C 561.17 390.69 583.14 395.53 604.95 400.20 C 605.43 403.29 603.19 405.85 602.60 408.77 C 596.68 426.68 589.85 444.27 582.63 461.69 C 582.27 461.98 581.56 462.56 581.20 462.85 C 568.83 437.29 553.59 413.26 538.93 388.98 Z" />
<path fill="#222323" opacity="1.00" d=" M 226.79 408.14 L 227.78 408.05 C 237.05 436.88 247.61 465.29 260.22 492.84 C 260.95 495.54 263.32 497.98 262.94 500.93 C 255.30 518.20 247.82 535.56 241.29 553.29 C 235.90 566.55 232.18 580.55 226.91 593.77 C 193.57 584.22 161.23 570.26 132.78 550.22 C 118.92 539.15 104.46 526.93 98.37 509.70 C 91.62 491.98 104.52 475.25 116.23 463.24 C 147.38 435.40 187.03 419.27 226.79 408.14 Z" />
<path fill="#222323" opacity="1.00" d=" M 636.10 408.24 C 670.01 417.96 703.08 431.66 732.22 451.77 C 745.59 462.76 760.99 474.77 765.50 492.35 C 769.00 502.04 764.29 512.09 759.35 520.32 C 750.66 533.76 737.99 543.92 724.98 552.97 C 702.69 567.56 678.30 578.77 653.05 587.13 C 647.70 588.36 642.76 591.61 637.25 591.90 C 626.70 560.53 614.41 529.74 600.06 499.91 C 613.53 470.11 625.47 439.24 636.10 408.24 Z" />
<path fill="#222323" opacity="1.00" d=" M 281.18 537.07 C 294.94 562.09 309.07 587.92 325.07 612.02 C 302.44 610.95 280.25 605.76 258.00 601.86 C 263.75 579.75 273.10 558.53 281.18 537.07 Z" />
<path fill="#222323" opacity="1.00" d=" M 581.23 537.13 C 581.60 537.14 582.36 537.15 582.74 537.15 C 591.79 557.67 599.45 578.74 606.82 599.89 C 584.79 605.77 561.54 608.19 538.93 611.98 C 544.26 600.57 552.38 590.45 558.25 579.23 C 566.06 565.28 574.21 551.49 581.23 537.13 Z" />
<path fill="#222323" opacity="1.00" d=" M 614.27 630.40 C 615.63 629.88 615.89 632.07 616.06 632.99 C 622.11 659.56 625.86 686.72 626.03 714.01 C 625.36 732.33 623.18 750.96 615.93 767.98 C 612.61 775.39 608.97 783.30 602.00 788.01 C 593.56 794.60 582.19 795.08 571.99 794.03 C 549.47 790.78 528.98 780.00 509.91 768.10 C 490.25 755.19 471.85 740.34 455.18 723.77 C 475.50 700.14 495.28 675.75 512.93 649.93 C 514.24 648.24 515.09 646.02 517.28 645.30 C 549.97 643.18 582.41 637.90 614.27 630.40 Z" />
<path fill="#222323" opacity="1.00" d=" M 249.21 632.05 C 281.76 638.47 314.73 643.10 347.80 646.20 C 367.57 672.98 388.49 699.40 410.82 723.85 C 383.03 750.07 351.90 774.17 315.78 787.60 C 300.73 792.85 283.71 796.91 268.04 791.95 C 256.15 787.72 249.44 775.93 245.37 764.69 C 240.70 751.63 239.21 737.74 238.07 724.01 C 237.00 692.97 241.65 662.08 249.21 632.05 Z" />
<path fill="#222323" opacity="1.00" d=" M 472.31 648.43 C 473.77 647.97 476.03 647.41 474.65 649.69 C 462.24 666.75 448.74 683.01 434.79 698.79 C 433.90 699.45 433.32 700.71 432.14 700.88 C 417.05 684.18 402.77 666.76 388.87 649.06 C 415.58 648.90 442.30 649.06 469.02 649.00 C 470.13 648.94 471.23 648.75 472.31 648.43 Z" />
</g>
</svg>
