<?xml version="1.0" encoding="UTF-8" ?>
<!DOCTYPE svg PUBLIC "-//W3C//DTD SVG 1.1//EN" "http://www.w3.org/Graphics/SVG/1.1/DTD/svg11.dtd">
<svg width="240pt" height="240pt" viewBox="0 0 240 240" version="1.1" xmlns="http://www.w3.org/2000/svg">
<g id="#f6cbcaff">
<path fill="#f6cbca" opacity="1.00" d=" M 25.34 26.47 C 85.19 25.35 145.12 26.34 205.01 25.98 C 213.34 25.83 223.59 26.79 229.10 33.91 C 233.84 37.31 234.71 43.76 235.93 49.03 C 236.09 95.69 235.97 142.35 235.99 189.01 C 236.99 201.72 225.88 214.16 213.01 213.96 C 151.33 214.06 89.66 213.96 27.99 214.01 C 15.18 214.79 3.51 202.75 4.05 190.01 C 3.94 143.33 4.02 96.66 4.01 49.98 C 4.27 38.06 13.59 27.80 25.34 26.47 M 24.33 34.40 C 17.06 35.62 12.39 42.98 11.99 49.98 C 11.96 58.64 11.95 67.30 12.03 75.96 C 84.00 76.03 155.97 76.02 227.93 75.97 C 227.81 65.36 228.99 54.54 226.85 44.09 C 224.04 37.21 216.52 32.67 209.01 33.97 C 147.45 34.30 85.86 33.44 24.33 34.40 M 12.04 84.04 C 11.95 119.03 12.02 154.02 12.01 189.02 C 10.96 193.70 13.95 197.53 15.33 201.71 C 18.75 203.89 22.74 206.22 26.99 206.04 C 88.66 205.93 150.34 206.08 212.01 205.96 C 215.75 206.64 218.98 204.80 222.14 203.25 C 226.21 202.18 225.91 196.90 227.84 193.90 C 228.19 157.28 227.94 120.66 227.97 84.04 C 155.99 83.98 84.02 83.97 12.04 84.04 Z" />
<path fill="#f6cbca" opacity="1.00" d=" M 38.29 46.33 C 45.32 44.84 52.33 53.31 49.05 60.03 C 46.58 67.85 33.49 67.85 30.98 60.03 C 27.86 54.48 32.80 47.71 38.29 46.33 M 39.21 54.13 C 37.78 54.93 37.98 56.57 37.97 57.97 C 39.32 58.04 40.68 58.04 42.03 57.97 C 42.38 56.16 41.59 53.34 39.21 54.13 Z" />
<path fill="#f6cbca" opacity="1.00" d=" M 66.29 46.33 C 73.32 44.84 80.33 53.31 77.05 60.03 C 74.58 67.85 61.49 67.85 58.98 60.03 C 55.86 54.48 60.80 47.71 66.29 46.33 M 67.21 54.13 C 65.78 54.93 65.98 56.57 65.97 57.97 C 67.32 58.04 68.68 58.04 70.03 57.97 C 70.38 56.16 69.59 53.34 67.21 54.13 Z" />
<path fill="#f6cbca" opacity="1.00" d=" M 94.29 46.33 C 101.32 44.84 108.33 53.31 105.05 60.03 C 102.58 67.85 89.49 67.85 86.98 60.03 C 83.86 54.48 88.80 47.71 94.29 46.33 M 95.21 54.13 C 93.78 54.93 93.98 56.57 93.97 57.97 C 95.32 58.04 96.68 58.04 98.03 57.97 C 98.38 56.16 97.59 53.34 95.21 54.13 Z" />
</g>
<g id="#8d97b4dd">
<path fill="#8d97b4" opacity="0.87" d=" M 52.01 118.96 C 55.05 118.44 56.86 121.44 58.78 123.22 C 65.87 130.81 74.06 137.47 80.08 146.01 C 72.86 155.98 63.15 163.82 54.75 172.77 C 51.71 174.20 51.56 171.53 52.18 169.21 C 59.77 161.49 68.00 154.10 75.04 146.04 C 68.05 137.77 59.70 130.63 52.23 122.76 C 51.96 121.51 51.89 120.24 52.01 118.96 Z" />
<path fill="#8d97b4" opacity="0.87" d=" M 111.22 144.15 C 124.40 143.89 137.60 143.89 150.78 144.15 C 152.35 144.92 152.35 147.07 150.78 147.85 C 137.60 148.11 124.40 148.11 111.22 147.85 C 109.65 147.07 109.65 144.92 111.22 144.15 Z" />
</g>
</svg>
