<?xml version="1.0" encoding="UTF-8" ?>
<!DOCTYPE svg PUBLIC "-//W3C//DTD SVG 1.1//EN" "http://www.w3.org/Graphics/SVG/1.1/DTD/svg11.dtd">
<svg width="211pt" height="178pt" viewBox="0 0 211 178" version="1.1" xmlns="http://www.w3.org/2000/svg">
<g id="#1b81c2fc">
<path fill="#1b81c2" opacity="1.00" d=" M 90.40 0.00 L 117.59 0.00 C 141.63 2.87 165.59 9.65 185.99 23.02 C 194.83 28.93 204.49 34.65 211.00 43.24 L 211.00 45.79 C 208.45 49.29 204.91 52.00 201.36 54.39 C 198.46 56.41 195.84 52.76 193.76 51.26 C 173.17 33.19 147.35 21.09 120.11 17.75 C 83.70 12.93 46.13 25.83 18.39 49.43 C 15.52 51.47 13.55 55.79 9.05 54.01 C 5.67 52.17 2.96 49.23 0.00 46.77 L 0.00 42.29 C 24.14 18.18 56.90 4.47 90.40 0.00 Z" />
<path fill="#1b81c2" opacity="1.00" d=" M 94.35 40.53 C 126.09 37.09 158.57 48.61 181.90 70.19 C 184.84 76.64 177.61 78.03 174.37 81.40 C 172.96 82.89 170.42 83.86 168.72 82.26 C 150.14 65.50 125.13 55.69 99.98 57.01 C 78.13 58.83 57.00 68.14 40.67 82.74 L 36.23 82.84 C 33.47 79.60 29.50 77.13 27.98 73.00 C 32.44 64.63 41.54 60.20 49.21 55.21 C 62.95 46.97 78.51 42.44 94.35 40.53 Z" />
<path fill="#1b81c2" opacity="1.00" d=" M 96.33 82.41 C 115.63 79.93 135.70 86.01 150.63 98.40 C 153.50 99.93 152.31 103.31 151.74 105.77 C 149.31 107.68 146.87 109.55 144.69 111.77 C 138.91 114.06 135.37 108.25 130.97 106.04 C 120.32 100.61 107.90 96.76 95.98 99.94 C 88.55 101.17 81.93 104.96 75.35 108.38 C 72.32 109.92 68.76 115.56 65.19 111.79 C 62.52 108.42 55.55 104.97 58.90 99.92 C 68.78 90.01 82.60 84.64 96.33 82.41 Z" />
<path fill="#1b81c2" opacity="1.00" d=" M 30.01 117.99 C 28.27 114.49 31.39 110.24 34.99 110.95 C 38.35 110.54 43.44 110.84 43.92 115.07 C 44.10 133.38 44.03 151.69 43.95 170.00 C 44.87 173.04 43.25 175.55 41.96 178.00 L 32.14 178.00 C 31.27 176.77 29.86 175.68 30.01 174.01 C 29.96 155.34 29.98 136.66 30.01 117.99 Z" />
<path fill="#1b81c2" opacity="1.00" d=" M 156.23 111.15 C 171.71 110.82 187.24 110.92 202.74 111.14 C 206.19 113.68 202.90 119.29 203.90 122.75 C 199.19 126.39 191.63 122.64 186.08 124.06 C 185.35 142.02 187.10 160.10 185.21 178.00 L 173.88 178.00 C 173.40 176.73 172.94 175.41 172.99 174.03 C 172.89 157.38 173.15 140.73 172.95 124.07 C 167.22 122.99 160.08 125.81 155.10 122.79 C 156.07 119.36 152.90 113.75 156.23 111.15 Z" />
<path fill="#1b81c2" opacity="1.00" d=" M 99.32 128.37 C 113.10 124.16 129.25 135.55 129.00 149.99 C 130.75 162.05 121.07 173.92 109.09 175.26 C 101.48 177.59 93.94 173.34 88.03 168.97 C 81.56 161.44 78.48 149.93 84.02 141.01 C 86.48 134.37 92.89 130.45 99.32 128.37 Z" />
</g>
</svg>
