<?xml version="1.0" encoding="UTF-8" ?>
<!DOCTYPE svg PUBLIC "-//W3C//DTD SVG 1.1//EN" "http://www.w3.org/Graphics/SVG/1.1/DTD/svg11.dtd">
<svg width="240pt" height="240pt" viewBox="0 0 240 240" version="1.1" xmlns="http://www.w3.org/2000/svg">
<g id="#f5cbcafe">
<path fill="#f5cbca" opacity="1.00" d=" M 117.34 2.55 C 124.67 1.62 132.10 3.41 138.87 6.16 C 143.08 7.91 147.61 9.76 150.52 13.46 C 153.95 15.16 157.29 17.74 158.54 21.51 C 163.72 25.84 165.77 32.83 167.95 39.00 C 171.86 58.34 169.10 78.26 170.12 97.83 C 174.82 100.07 181.96 99.68 184.84 105.13 C 185.34 106.53 187.90 105.38 187.89 107.11 C 187.88 109.70 191.14 109.87 192.00 112.02 C 195.58 118.37 196.16 125.86 196.02 132.99 C 195.98 159.67 196.01 186.34 196.01 213.02 C 194.59 226.34 182.56 237.86 169.01 237.96 C 135.34 238.04 101.66 238.02 67.99 237.97 C 53.22 235.70 41.77 221.05 43.98 206.01 C 44.06 179.00 43.91 151.99 44.05 124.99 C 44.96 119.53 45.92 113.22 50.61 109.60 C 51.87 108.95 51.93 107.53 52.35 106.35 C 55.74 105.95 56.90 102.15 59.99 100.99 C 63.86 98.19 73.01 101.13 70.01 93.01 C 71.26 73.62 66.85 53.36 73.57 34.66 C 75.47 29.93 77.34 24.76 81.46 21.48 C 83.09 18.32 85.34 15.04 88.83 13.78 C 96.26 6.65 107.15 3.12 117.34 2.55 M 115.34 10.52 C 95.98 11.93 79.79 28.89 78.20 48.06 C 77.76 64.68 78.06 81.31 78.03 97.93 C 106.01 98.09 133.99 97.98 161.96 97.97 C 161.70 80.89 162.74 63.73 161.38 46.71 C 159.57 24.66 137.22 7.08 115.34 10.52 M 68.32 106.37 C 64.40 107.73 60.39 109.46 57.34 112.32 C 55.07 115.93 52.72 119.74 52.02 123.99 C 52.00 152.66 51.95 181.34 52.04 210.01 C 51.56 214.55 53.83 218.52 55.48 222.53 C 57.06 223.60 58.40 224.94 59.47 226.52 C 63.81 228.24 68.07 230.89 72.99 230.00 C 104.66 229.97 136.34 230.06 168.01 229.96 C 172.55 230.44 176.52 228.17 180.53 226.52 C 181.60 224.94 182.94 223.60 184.52 222.53 C 185.76 219.41 187.47 216.37 187.98 213.01 C 188.01 184.34 188.04 155.66 187.96 126.99 C 188.46 116.27 179.65 106.68 169.02 105.98 C 135.45 106.27 101.86 105.49 68.32 106.37 Z" />
</g>
<g id="#8d96b2db">
<path fill="#8d96b2" opacity="0.86" d=" M 114.33 134.40 C 126.94 130.35 141.41 140.80 141.01 154.00 C 142.01 165.03 132.73 174.72 122.12 176.28 C 121.79 183.50 122.21 190.74 121.95 197.96 C 122.08 200.07 118.96 200.75 118.15 198.78 C 117.68 191.27 118.36 183.74 117.87 176.25 C 109.74 174.75 102.08 169.30 99.83 161.10 C 95.68 150.07 103.24 137.17 114.33 134.40 M 115.31 138.33 C 104.16 140.86 99.41 155.20 105.77 164.24 C 109.88 169.65 116.68 173.65 123.67 171.60 C 133.96 169.43 140.88 156.34 135.03 146.98 C 132.24 139.35 122.65 136.66 115.31 138.33 Z" />
</g>
</svg>
