<?xml version="1.0" encoding="UTF-8" ?>
<!DOCTYPE svg PUBLIC "-//W3C//DTD SVG 1.1//EN" "http://www.w3.org/Graphics/SVG/1.1/DTD/svg11.dtd">
<svg width="240pt" height="240pt" viewBox="0 0 240 240" version="1.1" xmlns="http://www.w3.org/2000/svg">
<g id="#f4cac9fd">
<path fill="#f4cac9" opacity="1.00" d=" M 210.74 3.74 C 219.29 -1.38 231.55 1.98 236.26 10.75 C 239.15 16.65 240.53 24.50 236.00 30.01 C 230.56 39.62 216.15 42.33 208.09 34.65 C 207.18 33.73 206.26 32.82 205.35 31.90 C 197.46 23.79 201.21 8.92 210.74 3.74 M 217.33 9.33 C 214.15 10.62 210.90 12.30 209.97 15.97 C 206.13 22.21 212.09 31.07 218.98 31.02 C 226.67 32.51 234.32 22.94 230.03 15.96 C 228.54 10.85 222.33 7.99 217.33 9.33 Z" />
<path fill="#f4cac9" opacity="1.00" d=" M 16.14 36.91 C 29.76 32.88 42.66 48.17 38.22 61.18 C 37.31 62.87 35.91 64.23 34.92 65.88 C 29.20 76.11 13.45 76.83 6.17 67.83 C -4.27 58.39 2.56 38.71 16.14 36.91 M 17.33 44.33 C 14.15 45.62 10.90 47.30 9.97 50.97 C 6.13 57.21 12.09 66.07 18.98 66.02 C 26.67 67.51 34.33 57.94 30.03 50.96 C 28.54 45.85 22.33 42.99 17.33 44.33 Z" />
<path fill="#f4cac9" opacity="1.00" d=" M 107.40 71.33 C 119.13 61.30 136.90 58.29 151.34 64.54 C 155.81 65.59 158.85 69.20 162.67 71.38 C 165.02 73.01 166.99 74.98 168.62 77.33 C 179.55 90.22 182.31 110.07 174.16 125.16 C 173.49 127.65 170.31 128.36 169.89 130.97 C 169.61 131.41 169.04 132.28 168.76 132.71 C 166.15 134.05 164.28 136.35 162.60 138.69 C 156.11 145.37 146.19 148.65 136.98 149.03 C 135.66 149.01 134.34 149.01 133.03 149.03 C 123.74 148.68 113.91 145.30 107.29 138.64 C 105.00 136.92 103.06 134.98 101.34 132.70 C 90.69 122.01 89.11 105.15 93.41 91.19 C 93.93 89.03 94.56 86.89 95.87 85.07 C 97.74 82.49 99.75 80.08 101.22 77.28 C 103.88 76.00 105.67 73.63 107.40 71.33 M 112.23 77.17 C 109.66 76.80 106.78 79.67 107.18 82.23 C 99.55 92.08 96.19 106.10 101.19 117.86 C 102.76 121.45 103.51 125.71 107.16 127.77 C 106.80 130.34 109.66 133.20 112.23 132.84 C 114.45 136.74 119.13 137.37 122.93 139.10 C 133.25 143.52 145.21 140.86 154.88 135.89 C 156.22 135.34 156.69 133.75 157.77 132.84 C 160.34 133.20 163.20 130.34 162.84 127.77 C 167.81 124.48 168.41 117.87 170.65 112.71 C 172.42 102.02 169.49 90.76 162.83 82.23 C 163.20 79.66 160.33 76.78 157.77 77.18 C 144.92 66.54 125.09 66.53 112.23 77.17 Z" />
<path fill="#f4cac9" opacity="1.00" d=" M 216.14 126.91 C 225.48 124.21 236.67 131.18 238.05 140.98 C 241.79 150.20 234.39 159.77 226.09 163.12 C 214.03 168.06 198.86 156.04 201.31 143.22 C 201.54 141.72 202.01 138.74 202.24 137.24 C 205.65 132.55 209.93 127.54 216.14 126.91 M 217.33 134.33 C 214.15 135.62 210.90 137.30 209.97 140.97 C 206.13 147.21 212.09 156.07 218.98 156.02 C 226.67 157.51 234.32 147.93 230.03 140.96 C 228.54 135.85 222.33 132.99 217.33 134.33 Z" />
<path fill="#f4cac9" opacity="1.00" d=" M 8.32 205.36 C 15.02 199.94 25.13 200.14 31.86 205.41 C 32.78 206.31 33.68 207.22 34.57 208.14 C 39.97 215.28 40.95 226.38 33.83 232.83 C 26.94 241.19 13.06 241.19 6.17 232.83 C -1.96 225.46 0.37 211.78 8.32 205.36 M 17.33 209.33 C 14.15 210.62 10.90 212.30 9.97 215.97 C 6.13 222.21 12.09 231.07 18.98 231.02 C 26.67 232.51 34.33 222.93 30.03 215.96 C 28.54 210.85 22.33 207.99 17.33 209.33 Z" />
<path fill="#f4cac9" opacity="1.00" d=" M 130.05 202.14 C 133.34 201.36 136.66 201.37 139.95 202.13 C 150.16 204.26 154.89 215.28 153.70 224.73 C 150.93 232.37 143.64 239.60 135.00 239.00 C 126.37 239.59 119.00 232.37 116.32 224.68 C 114.69 215.22 120.26 204.21 130.05 202.14 M 132.33 209.33 C 129.15 210.62 125.90 212.30 124.97 215.97 C 121.13 222.21 127.09 231.07 133.98 231.02 C 141.67 232.51 149.33 222.93 145.03 215.96 C 143.54 210.85 137.33 207.99 132.33 209.33 Z" />
</g>
<g id="#9197b2db">
<path fill="#9197b2" opacity="0.86" d=" M 205.35 31.90 C 206.26 32.82 207.18 33.73 208.09 34.65 C 194.74 47.44 181.92 60.78 168.72 73.73 C 167.54 74.59 168.66 76.18 168.62 77.33 C 166.99 74.98 165.02 73.01 162.67 71.38 C 163.70 71.60 164.74 71.75 165.79 71.83 C 178.80 58.35 192.46 45.49 205.35 31.90 Z" />
<path fill="#9197b2" opacity="0.86" d=" M 38.22 61.18 C 54.04 68.39 70.21 74.83 86.12 81.86 C 89.32 83.05 92.34 85.11 95.87 85.07 C 94.56 86.89 93.93 89.03 93.41 91.19 C 93.24 90.71 92.90 89.75 92.73 89.27 C 74.28 80.96 55.54 73.27 36.98 65.20 C 36.47 65.37 35.44 65.71 34.92 65.88 C 35.91 64.23 37.31 62.87 38.22 61.18 Z" />
<path fill="#9197b2" opacity="0.86" d=" M 101.22 77.28 C 102.14 74.96 104.67 71.59 107.40 71.33 C 105.67 73.63 103.88 76.00 101.22 77.28 Z" />
<path fill="#9197b2" opacity="0.86" d=" M 107.18 82.23 C 106.78 79.67 109.66 76.80 112.23 77.17 C 110.57 78.89 108.89 80.57 107.18 82.23 Z" />
<path fill="#9197b2" opacity="0.86" d=" M 157.77 77.18 C 160.33 76.78 163.20 79.66 162.83 82.23 C 161.11 80.57 159.42 78.89 157.77 77.18 Z" />
<path fill="#9197b2" opacity="0.86" d=" M 174.16 125.16 C 183.46 128.75 192.54 132.88 201.90 136.35 L 202.24 137.24 C 202.01 138.74 201.54 141.72 201.31 143.22 C 201.17 142.49 200.90 141.02 200.76 140.29 C 191.30 137.11 182.35 132.54 172.99 129.08 C 171.88 129.59 170.95 130.38 169.89 130.97 C 170.31 128.36 173.49 127.65 174.16 125.16 Z" />
<path fill="#9197b2" opacity="0.86" d=" M 107.16 127.77 C 108.95 129.36 110.64 131.05 112.23 132.84 C 109.66 133.20 106.80 130.34 107.16 127.77 Z" />
<path fill="#9197b2" opacity="0.86" d=" M 157.77 132.84 C 159.36 131.05 161.05 129.36 162.84 127.77 C 163.20 130.34 160.34 133.20 157.77 132.84 Z" />
<path fill="#9197b2" opacity="0.86" d=" M 101.34 132.70 C 103.06 134.98 105.00 136.92 107.29 138.64 C 106.75 138.56 105.68 138.41 105.14 138.33 C 81.57 161.54 57.51 184.24 34.57 208.14 C 33.68 207.22 32.78 206.31 31.86 205.41 C 55.22 182.59 78.06 159.25 101.27 136.27 C 102.47 135.41 101.35 133.83 101.34 132.70 Z" />
<path fill="#9197b2" opacity="0.86" d=" M 162.60 138.69 C 164.28 136.35 166.15 134.05 168.76 132.71 C 167.92 135.06 165.31 138.37 162.60 138.69 Z" />
<path fill="#9197b2" opacity="0.86" d=" M 133.03 149.03 C 134.34 149.01 135.66 149.01 136.98 149.03 C 137.09 165.99 136.91 182.96 137.02 199.93 C 136.29 202.23 140.76 199.78 139.95 202.13 C 136.66 201.37 133.34 201.36 130.05 202.14 C 129.72 198.93 138.62 203.84 133.01 195.99 C 133.06 180.34 132.91 164.68 133.03 149.03 Z" />
</g>
</svg>
