<svg xmlns="http://www.w3.org/2000/svg" width="598.04" height="521.621" viewBox="0 0 598.04 521.621">
  <g id="Group_2675" data-name="Group 2675" transform="translate(-568.22 -333.498)">
    <path id="Path_2760" data-name="Path 2760" d="M-566.827-1036" transform="translate(1482.233 1432.738)" fill="#fff" stroke="#707070" stroke-width="1"/>
    <path id="Path_2761" data-name="Path 2761" d="M-876.585-973.989l52.633-17.283v-9.82l9.034-3.142,8.641,7.463,151.616-43.6,6.285-6.285L-499.9-1098.5h27.1l-2.75,7.856h7.07l1.964,10.605h4.321v9.427l-6.285,2.75,6.285,5.892,5.892,10.213v7.463l16.1,7.463-1.964,3.928,1.964,5.892h12.569l10.605,6.677-17.675,19.247-38.1,23.96,10.605,3.142-2.357,7.856h8.249l-3.535,3.928h8.249l-16.89,15.711v13.355l16.89,4.321v11l-10.605,16.89-2.357,10.605-17.675,19.247,13.747,7.463,16.89,14.14-28.673,27.1,7.463,4.713,12.962,2.357-27.1,28.673,6.677,3.142,33.387-9.034,4.713,11-9.427,10.212,4.713,2.75h17.283v9.82l4.713,7.463,7.856,2.357,6.285,3.535-1.964,12.176-4.321,12.176L-456.3-701.788l-61.275,22.782-86.806,44.778-54.6,16.89-38.1,11.784-31.03,11.391-24.746,17.283h-3.535l7.07-9.82v-16.1H-763.07l-17.283,2.357-6.677-2.357-17.283,2.357-12.962,2.75-7.463-7.856-17.675,2.749h-21.6l14.533-8.641h-14.533L-930.4-586.7l-34.958,3.535,5.106-8.641,14.14-5.892s12.962-9.034-19.247-2.75,5.106-5.106,5.106-5.106,38.493-27.1-22.782-45.956,5.892-10.212,7.07-10.212S-941-695.11-882.477-704.537s-3.535-11-3.535-11l6.677-7.463s13.747-12.176-9.427-10.212-32.6,4.321-28.281-3.928,38.886-14.533,9.82-16.1-39.671-1.178-38.886-2.75,8.641-13.355,8.641-13.355l-8.641-1.964,8.641-5.892s8.641-11,0-16.5-12.176,2.75-5.892-4.321,12.176-8.641,3.928-10.212-21.211-.393-15.319-4.321,15.319-6.677,15.319-11.391-5.892-11.391,1.964-11.784,7.856,6.677,17.283-5.5-8.249-10.605,0-18.068,2.357-5.106,3.142-11.784-16.1-5.5-13.355-9.034,34.172-17.675,31.03-22.782-.393-3.928-7.856-7.856,1.571-.393,4.714-7.07,0-18.854-4.714-24.353,1.571-5.5,7.856-6.677,25.138-8.641,20.032-15.319S-876.585-973.989-876.585-973.989Z" transform="translate(1577 1432)" fill="#ffe60f"/>
    <g id="Rectangle_36" data-name="Rectangle 36" transform="translate(723.591 410.878)" fill="none" stroke="#4e4e4e" stroke-width="13">
      <rect width="397.5" height="398.285" stroke="none"/>
      <rect x="6.5" y="6.5" width="384.5" height="385.285" fill="none"/>
    </g>
    <path id="Path_6028" data-name="Path 6028" d="M22.414-.724A22.49,22.49,0,0,1,14.788.464,15.519,15.519,0,0,1,7.459-1.16a11.116,11.116,0,0,1-4.7-4.62,14.281,14.281,0,0,1-1.624-6.912,15.215,15.215,0,0,1,1.818-7.5,12.576,12.576,0,0,1,5.14-5.075,15.858,15.858,0,0,1,7.645-1.791,26.57,26.57,0,0,1,6.68.835v7.4a9.427,9.427,0,0,0-2.653-1.039,13.261,13.261,0,0,0-3.117-.371,6.977,6.977,0,0,0-5.149,1.874,6.851,6.851,0,0,0-1.883,5.084,6.731,6.731,0,0,0,1.883,5.038,6.885,6.885,0,0,0,5.038,1.846,13.07,13.07,0,0,0,5.882-1.484ZM43.771,0V-9.927h-9.2V0H26.552V-26.607h8.016v9.853h9.2v-9.853h8.016V0ZM82.346-13.378A14.73,14.73,0,0,1,80.62-6.207,12.3,12.3,0,0,1,75.8-1.29,13.842,13.842,0,0,1,68.856.464a13.855,13.855,0,0,1-6.819-1.7A12.015,12.015,0,0,1,57.26-6a14.057,14.057,0,0,1-1.707-6.949,15.333,15.333,0,0,1,1.726-7.311,12.259,12.259,0,0,1,4.843-5.019,14.088,14.088,0,0,1,7.088-1.772,13.692,13.692,0,0,1,6.837,1.7A11.575,11.575,0,0,1,80.7-20.512,15.183,15.183,0,0,1,82.346-13.378Zm-8.5.223a9.236,9.236,0,0,0-1.262-5.177,3.942,3.942,0,0,0-3.451-1.893,4.364,4.364,0,0,0-3.729,1.818,8.558,8.558,0,0,0-1.336,5.14A8.459,8.459,0,0,0,65.4-8.2,4.232,4.232,0,0,0,69-6.383a4.132,4.132,0,0,0,2.5-.816,5.229,5.229,0,0,0,1.726-2.338A9.672,9.672,0,0,0,73.848-13.155ZM99.917,0,97.932-5.733a7.129,7.129,0,0,0-1.494-2.653,2.727,2.727,0,0,0-1.995-.965h-.315V0H86.112V-26.607h10.65q5.585,0,8.248,1.828a6.208,6.208,0,0,1,2.663,5.483,6.937,6.937,0,0,1-1.549,4.6A8.83,8.83,0,0,1,101.513-12v.074a6.442,6.442,0,0,1,2.811,1.688,10.445,10.445,0,0,1,2.013,3.47L108.953,0Zm-.761-18.165a2.786,2.786,0,0,0-.816-2.115,3.6,3.6,0,0,0-2.561-.779H94.128v6.086h1.447a3.675,3.675,0,0,0,2.6-.909A2.977,2.977,0,0,0,99.156-18.165ZM128.714,0l-1.169-4.9H119.6L118.342,0h-8.665l9.166-26.607h9.945L137.416,0Zm-5.047-20.818h-.186a12.926,12.926,0,0,1-.26,1.466q-.223,1.021-2.245,8.758h5.084l-1.855-7.236A22.884,22.884,0,0,1,123.667-20.818ZM155.247,0l-5.9-11.244a12.076,12.076,0,0,1-.705-1.837h-.093V0h-8.016V-26.607h8.016v12.654h.093a14.188,14.188,0,0,1,.8-1.855l5.307-10.8h9.5l-7.552,12.691L164.97,0Zm31.3-.724A22.49,22.49,0,0,1,178.923.464a15.519,15.519,0,0,1-7.329-1.624,11.116,11.116,0,0,1-4.7-4.62,14.281,14.281,0,0,1-1.624-6.912,15.215,15.215,0,0,1,1.818-7.5,12.576,12.576,0,0,1,5.14-5.075,15.858,15.858,0,0,1,7.645-1.791,26.57,26.57,0,0,1,6.68.835v7.4a9.427,9.427,0,0,0-2.653-1.039,13.261,13.261,0,0,0-3.117-.371,6.977,6.977,0,0,0-5.149,1.874,6.851,6.851,0,0,0-1.883,5.084,6.731,6.731,0,0,0,1.883,5.038,6.885,6.885,0,0,0,5.038,1.846,13.07,13.07,0,0,0,5.882-1.484ZM207.905,0V-9.927h-9.2V0h-8.016V-26.607H198.7v9.853h9.2v-9.853h8.016V0Zm13.267,0V-26.607h8.016V0Z" transform="translate(806.076 664.768)" fill="#2b2e34"/>
    <path id="Path_6027" data-name="Path 6027" d="M26.979,0V-14.584q0-2.06.13-4.527l.056-1.225h-.223q-.594,3.136-.909,4.342L22.117,0H14.584l-4.1-15.809q-.167-.594-.872-4.527H9.389q.26,6.234.26,7.793V0H2.616V-26.607h12l3.655,14.454a17.841,17.841,0,0,1,.343,1.809q.213,1.364.269,2.106H19q.2-1.688.649-3.989l3.414-14.38H34.883V0ZM65.424-13.378A14.73,14.73,0,0,1,63.7-6.207,12.3,12.3,0,0,1,58.874-1.29,13.842,13.842,0,0,1,51.935.464a13.855,13.855,0,0,1-6.819-1.7A12.015,12.015,0,0,1,40.338-6a14.057,14.057,0,0,1-1.707-6.949,15.333,15.333,0,0,1,1.726-7.311A12.259,12.259,0,0,1,45.2-25.281a14.088,14.088,0,0,1,7.088-1.772,13.692,13.692,0,0,1,6.837,1.7,11.575,11.575,0,0,1,4.657,4.843A15.183,15.183,0,0,1,65.424-13.378Zm-8.5.223a9.236,9.236,0,0,0-1.262-5.177,3.942,3.942,0,0,0-3.451-1.893,4.364,4.364,0,0,0-3.729,1.818,8.558,8.558,0,0,0-1.336,5.14A8.459,8.459,0,0,0,48.474-8.2a4.232,4.232,0,0,0,3.609,1.818,4.132,4.132,0,0,0,2.5-.816,5.229,5.229,0,0,0,1.726-2.338A9.672,9.672,0,0,0,56.926-13.155ZM86.409,0V-9.927h-9.2V0H69.19V-26.607h8.016v9.853h9.2v-9.853h8.016V0Zm29.947,0-1.169-4.9h-7.941L105.984,0H97.319l9.166-26.607h9.945L125.059,0ZM111.31-20.818h-.186a12.926,12.926,0,0,1-.26,1.466q-.223,1.021-2.245,8.758H113.7l-1.855-7.236A22.884,22.884,0,0,1,111.31-20.818ZM152.538,0V-14.584q0-2.06.13-4.527l.056-1.225H152.5q-.594,3.136-.909,4.342L147.677,0h-7.533l-4.1-15.809q-.167-.594-.872-4.527h-.223q.26,6.234.26,7.793V0h-7.032V-26.607h12l3.655,14.454a17.841,17.841,0,0,1,.343,1.809q.213,1.364.269,2.106h.111q.2-1.688.649-3.989l3.414-14.38h11.819V0Zm37.5,0V-14.584q0-2.06.13-4.527l.056-1.225H190q-.594,3.136-.909,4.342L185.176,0h-7.533l-4.1-15.809q-.167-.594-.872-4.527h-.223q.26,6.234.26,7.793V0h-7.032V-26.607h12l3.655,14.454a17.841,17.841,0,0,1,.343,1.809q.213,1.364.269,2.106h.111q.2-1.688.649-3.989l3.414-14.38h11.819V0Zm29.817,0-1.169-4.9h-7.941L209.482,0h-8.665l9.166-26.607h9.945L228.557,0Zm-5.047-20.818h-.186a12.924,12.924,0,0,1-.26,1.466q-.223,1.021-2.245,8.758H217.2l-1.855-7.236A22.883,22.883,0,0,1,214.808-20.818Zm41.952,7.181a14.68,14.68,0,0,1-1.7,7.153,11.7,11.7,0,0,1-4.852,4.8A15.177,15.177,0,0,1,242.937,0H231.674V-26.607H242.7Q256.76-26.607,256.76-13.638Zm-8.517.074a7.658,7.658,0,0,0-.789-3.507,5.7,5.7,0,0,0-2.254-2.412,6.737,6.737,0,0,0-3.451-.854h-2.06V-6.271h2.245a5.777,5.777,0,0,0,4.592-1.976A7.825,7.825,0,0,0,248.243-13.563Z" transform="translate(791.935 620.776)" fill="#2b2e34"/>
    <path id="Path_6029" data-name="Path 6029" d="M6.788-8H3.329V-5.6H6.508v1.791H3.329V0H1.121V-9.8H6.788Zm9.837,8H14.089L12.564-2.522q-.171-.287-.328-.513a2.848,2.848,0,0,0-.318-.386,1.264,1.264,0,0,0-.335-.246.85.85,0,0,0-.379-.085h-.595V0H8.4V-9.8h3.5q3.568,0,3.568,2.666a2.761,2.761,0,0,1-.157.947,2.63,2.63,0,0,1-.444.783,2.817,2.817,0,0,1-.694.6,3.578,3.578,0,0,1-.906.4v.027a1.4,1.4,0,0,1,.424.222,3.035,3.035,0,0,1,.4.359,5.007,5.007,0,0,1,.366.441q.174.236.318.461ZM10.609-8.148v2.728h.957a1.587,1.587,0,0,0,1.142-.41,1.369,1.369,0,0,0,.438-1.032q0-1.285-1.538-1.285ZM21.547.171A4.563,4.563,0,0,1,18.115-1.2a4.921,4.921,0,0,1-1.326-3.572,5.273,5.273,0,0,1,1.347-3.76A4.662,4.662,0,0,1,21.7-9.967,4.449,4.449,0,0,1,25.1-8.593a5.066,5.066,0,0,1,1.3,3.623A5.188,5.188,0,0,1,25.05-1.244,4.61,4.61,0,0,1,21.547.171Zm.1-8.237a2.223,2.223,0,0,0-1.846.872,3.634,3.634,0,0,0-.684,2.307,3.567,3.567,0,0,0,.684,2.3,2.19,2.19,0,0,0,1.791.848A2.212,2.212,0,0,0,23.4-2.56a3.528,3.528,0,0,0,.67-2.287,3.823,3.823,0,0,0-.649-2.372A2.117,2.117,0,0,0,21.643-8.066ZM36.839,0H34.61L30.57-6.159a8.907,8.907,0,0,1-.492-.813h-.027q.055.52.055,1.586V0H28.021V-9.8H30.4l3.89,5.968q.267.4.492.8h.027a10.481,10.481,0,0,1-.055-1.347V-9.8h2.085Zm9.126-8h-2.8V0H40.954V-8H38.172V-9.8h7.793ZM50.88-2.98H47.141V-4.491H50.88ZM58.823,0H52.944V-9.8H58.6V-8H55.152v2.181h3.206v1.791H55.152v2.242h3.671ZM69.214,0H66.985l-4.04-6.159a8.906,8.906,0,0,1-.492-.813h-.027q.055.52.055,1.586V0H60.4V-9.8h2.379l3.89,5.968q.267.4.492.8h.027a10.481,10.481,0,0,1-.055-1.347V-9.8h2.085Zm2.242,0V-9.8h3.473q5.223,0,5.223,4.778a4.832,4.832,0,0,1-1.425,3.657A5.256,5.256,0,0,1,74.929,0Zm2.208-8v6.214h1.094a2.955,2.955,0,0,0,2.252-.861A3.268,3.268,0,0,0,77.827-5a2.965,2.965,0,0,0-.81-2.2A3.088,3.088,0,0,0,74.744-8ZM85.641,0V-9.8h3.473q5.223,0,5.223,4.778a4.832,4.832,0,0,1-1.425,3.657A5.256,5.256,0,0,1,89.113,0Zm2.208-8v6.214h1.094a2.955,2.955,0,0,0,2.252-.861A3.268,3.268,0,0,0,92.012-5a2.965,2.965,0,0,0-.81-2.2A3.088,3.088,0,0,0,88.929-8Zm13.993,8H95.963V-9.8h5.653V-8H98.171v2.181h3.206v1.791H98.171v2.242h3.671Zm9.8-9.8L108.268,0h-2.5L102.43-9.8h2.379l2.044,6.822a4.886,4.886,0,0,1,.2.978h.041a5.525,5.525,0,0,1,.212-1l2.03-6.795ZM118.7,0H112.82V-9.8h5.653V-8h-3.445v2.181h3.206v1.791h-3.206v2.242H118.7Zm7.41,0h-5.838V-9.8h2.208v8.012h3.63Zm5.113.171A4.563,4.563,0,0,1,127.791-1.2a4.921,4.921,0,0,1-1.326-3.572,5.273,5.273,0,0,1,1.347-3.76,4.662,4.662,0,0,1,3.568-1.436,4.449,4.449,0,0,1,3.394,1.374,5.066,5.066,0,0,1,1.3,3.623,5.188,5.188,0,0,1-1.343,3.726A4.61,4.61,0,0,1,131.223.171Zm.1-8.237a2.223,2.223,0,0,0-1.846.872,3.634,3.634,0,0,0-.684,2.307,3.567,3.567,0,0,0,.684,2.3,2.19,2.19,0,0,0,1.791.848,2.212,2.212,0,0,0,1.812-.824,3.528,3.528,0,0,0,.67-2.287,3.823,3.823,0,0,0-.649-2.372A2.117,2.117,0,0,0,131.318-8.066ZM139.9-3.377V0H137.7V-9.8h3.459q3.705,0,3.705,3.124A3,3,0,0,1,143.8-4.29a4.211,4.211,0,0,1-2.84.913Zm0-4.73v3.056h.868q1.764,0,1.764-1.545,0-1.511-1.764-1.511ZM152.175,0H146.3V-9.8h5.653V-8H148.5v2.181h3.206v1.791H148.5v2.242h3.671Zm9.8,0h-2.536L157.91-2.522q-.171-.287-.328-.513a2.848,2.848,0,0,0-.318-.386,1.264,1.264,0,0,0-.335-.246.85.85,0,0,0-.379-.085h-.595V0h-2.208V-9.8h3.5q3.568,0,3.568,2.666a2.761,2.761,0,0,1-.157.947,2.63,2.63,0,0,1-.444.783,2.817,2.817,0,0,1-.694.6,3.578,3.578,0,0,1-.906.4v.027a1.4,1.4,0,0,1,.424.222,3.035,3.035,0,0,1,.4.359,5.006,5.006,0,0,1,.366.441q.174.236.318.461Zm-6.016-8.148v2.728h.957a1.587,1.587,0,0,0,1.142-.41,1.369,1.369,0,0,0,.438-1.032q0-1.285-1.538-1.285Z" transform="translate(834.356 721.254)" fill="#2b2e34"/>
    <path id="Path_6030" data-name="Path 6030" d="M5.209-3.89A4.451,4.451,0,0,1,4.3-.875,3.318,3.318,0,0,1,1.654.171,3.76,3.76,0,0,1,.226-.1V-2.167A2.051,2.051,0,0,0,1.5-1.736q1.511,0,1.511-2.242V-9.8h2.2ZM15.559,0H13.152l-.7-2.181H8.969L8.278,0H5.886L9.454-9.8h2.618ZM11.949-3.876,10.9-7.171a4.294,4.294,0,0,1-.164-.882h-.055a3.739,3.739,0,0,1-.171.854L9.44-3.876ZM24.172-9.8,20.795,0h-2.5L14.957-9.8h2.379L19.38-2.98a4.886,4.886,0,0,1,.2.978h.041a5.525,5.525,0,0,1,.212-1L21.861-9.8ZM33.243,0H30.837l-.7-2.181H26.653L25.963,0H23.57l3.568-9.8h2.618ZM29.634-3.876,28.581-7.171a4.294,4.294,0,0,1-.164-.882h-.055a3.739,3.739,0,0,1-.171.854L27.125-3.876Zm4.382,3.5V-2.563a4.2,4.2,0,0,0,1.292.749,4.153,4.153,0,0,0,1.408.25,3.123,3.123,0,0,0,.728-.075,1.705,1.705,0,0,0,.52-.208.909.909,0,0,0,.311-.314.785.785,0,0,0,.1-.393.85.85,0,0,0-.164-.513,1.765,1.765,0,0,0-.448-.417,4.679,4.679,0,0,0-.673-.369q-.39-.178-.841-.362a4.291,4.291,0,0,1-1.712-1.169,2.552,2.552,0,0,1-.564-1.668,2.657,2.657,0,0,1,.308-1.316,2.613,2.613,0,0,1,.837-.906A3.755,3.755,0,0,1,36.347-9.8a6.3,6.3,0,0,1,1.477-.167,8.881,8.881,0,0,1,1.357.092,5.336,5.336,0,0,1,1.09.284v2.044a3.3,3.3,0,0,0-.537-.3,4.251,4.251,0,0,0-.6-.215,4.562,4.562,0,0,0-.612-.126,4.33,4.33,0,0,0-.578-.041,3.012,3.012,0,0,0-.684.072,1.753,1.753,0,0,0-.52.2,1,1,0,0,0-.328.311.737.737,0,0,0-.116.407.777.777,0,0,0,.13.441,1.49,1.49,0,0,0,.369.369,3.917,3.917,0,0,0,.581.342q.342.167.772.345a8.608,8.608,0,0,1,1.056.523,3.755,3.755,0,0,1,.8.625,2.437,2.437,0,0,1,.513.8A2.814,2.814,0,0,1,40.7-2.755a2.792,2.792,0,0,1-.311,1.377,2.525,2.525,0,0,1-.844.9,3.661,3.661,0,0,1-1.241.5,7.17,7.17,0,0,1-1.494.15A8.305,8.305,0,0,1,35.277.034,4.633,4.633,0,0,1,34.016-.376Zm15.326.027a6.464,6.464,0,0,1-2.8.52,4.724,4.724,0,0,1-3.548-1.326A4.848,4.848,0,0,1,41.7-4.689,5.179,5.179,0,0,1,43.152-8.5a5.081,5.081,0,0,1,3.77-1.463,7.05,7.05,0,0,1,2.42.362v2.126A4.288,4.288,0,0,0,47.1-8.066a2.974,2.974,0,0,0-2.229.868,3.221,3.221,0,0,0-.848,2.352,3.16,3.16,0,0,0,.8,2.266,2.826,2.826,0,0,0,2.153.844,4.593,4.593,0,0,0,2.365-.629ZM59.274,0H56.738L55.214-2.522q-.171-.287-.328-.513a2.848,2.848,0,0,0-.318-.386,1.264,1.264,0,0,0-.335-.246.85.85,0,0,0-.379-.085h-.595V0H51.051V-9.8h3.5q3.568,0,3.568,2.666a2.761,2.761,0,0,1-.157.947,2.63,2.63,0,0,1-.444.783,2.817,2.817,0,0,1-.694.6,3.578,3.578,0,0,1-.906.4v.027a1.4,1.4,0,0,1,.424.222,3.035,3.035,0,0,1,.4.359,5.007,5.007,0,0,1,.366.441q.174.236.318.461ZM53.259-8.148v2.728h.957a1.587,1.587,0,0,0,1.142-.41,1.369,1.369,0,0,0,.438-1.032q0-1.285-1.538-1.285ZM62.4,0H60.19V-9.8H62.4Zm4.437-3.377V0H64.627V-9.8h3.459q3.705,0,3.705,3.124A3,3,0,0,1,70.728-4.29a4.211,4.211,0,0,1-2.84.913Zm0-4.73v3.056H67.7q1.764,0,1.764-1.545,0-1.511-1.764-1.511ZM80.11-8h-2.8V0H75.1V-8H72.317V-9.8H80.11ZM90.959-8H87.5V-5.6h3.179v1.791H87.5V0H85.292V-9.8h5.667Zm9.6,3.76q0,4.416-4.115,4.416-3.992,0-3.992-4.313V-9.8h2.215v5.688q0,2.379,1.859,2.379,1.825,0,1.825-2.3V-9.8h2.208ZM108.534,0H102.7V-9.8H104.9v8.012h3.63Zm7.157,0h-5.838V-9.8h2.208v8.012h3.63Zm4.915-2.98h-3.739V-4.491h3.739Zm1.613,2.6V-2.563a4.2,4.2,0,0,0,1.292.749,4.153,4.153,0,0,0,1.408.25,3.123,3.123,0,0,0,.728-.075,1.705,1.705,0,0,0,.52-.208.909.909,0,0,0,.311-.314.785.785,0,0,0,.1-.393.85.85,0,0,0-.164-.513,1.765,1.765,0,0,0-.448-.417,4.678,4.678,0,0,0-.673-.369q-.39-.178-.841-.362a4.291,4.291,0,0,1-1.712-1.169,2.552,2.552,0,0,1-.564-1.668,2.657,2.657,0,0,1,.308-1.316,2.613,2.613,0,0,1,.837-.906,3.755,3.755,0,0,1,1.227-.523,6.3,6.3,0,0,1,1.477-.167,8.881,8.881,0,0,1,1.357.092,5.337,5.337,0,0,1,1.09.284v2.044a3.3,3.3,0,0,0-.537-.3,4.252,4.252,0,0,0-.6-.215,4.563,4.563,0,0,0-.612-.126,4.33,4.33,0,0,0-.578-.041,3.012,3.012,0,0,0-.684.072,1.753,1.753,0,0,0-.52.2,1,1,0,0,0-.328.311.737.737,0,0,0-.116.407.777.777,0,0,0,.13.441,1.49,1.49,0,0,0,.369.369,3.917,3.917,0,0,0,.581.342q.342.167.772.345a8.607,8.607,0,0,1,1.056.523,3.755,3.755,0,0,1,.8.625,2.436,2.436,0,0,1,.513.8,2.814,2.814,0,0,1,.178,1.042,2.792,2.792,0,0,1-.311,1.377,2.525,2.525,0,0,1-.844.9,3.661,3.661,0,0,1-1.241.5,7.17,7.17,0,0,1-1.494.15,8.305,8.305,0,0,1-1.535-.137A4.633,4.633,0,0,1,122.22-.376ZM137.4-8h-2.8V0h-2.215V-8h-2.782V-9.8H137.4Zm8.962,8h-2.406l-.7-2.181h-3.486L139.084,0h-2.393l3.568-9.8h2.618Zm-3.609-3.876L141.7-7.171a4.294,4.294,0,0,1-.164-.882h-.055a3.739,3.739,0,0,1-.171.854l-1.066,3.322ZM155.736,0h-2.789L150.09-4.259a4.081,4.081,0,0,1-.26-.54H149.8V0h-2.208V-9.8H149.8v4.635h.034q.082-.191.273-.547L152.811-9.8h2.632l-3.418,4.676Zm6.815,0h-5.879V-9.8h5.653V-8h-3.445v2.181h3.206v1.791h-3.206v2.242h3.671Zm9.8,0h-2.536l-1.524-2.522q-.171-.287-.328-.513a2.848,2.848,0,0,0-.318-.386,1.264,1.264,0,0,0-.335-.246.85.85,0,0,0-.379-.085h-.595V0h-2.208V-9.8h3.5q3.568,0,3.568,2.666a2.761,2.761,0,0,1-.157.947,2.63,2.63,0,0,1-.444.783,2.817,2.817,0,0,1-.694.6,3.578,3.578,0,0,1-.906.4v.027a1.4,1.4,0,0,1,.424.222,3.035,3.035,0,0,1,.4.359,5.006,5.006,0,0,1,.366.441q.174.236.318.461Zm-6.016-8.148v2.728h.957a1.587,1.587,0,0,0,1.142-.41,1.369,1.369,0,0,0,.438-1.032q0-1.285-1.538-1.285Z" transform="translate(828.857 741.678)" fill="#2b2e34"/>
    <path id="Path_2764" data-name="Path 2764" d="M-687.7-979.371l53-25.532h245.841L-404-970.567l19.687-19.369L-404-955.6l19.687-14.967-4.543,23.771L-404-932.709l-283.7-37.858Z" transform="translate(1508.152 1411.93)" fill="#ffe60f"/>
    <g id="Group_2673" data-name="Group 2673" transform="translate(866.567 478.865)">
      <g id="Group_2671" data-name="Group 2671" transform="translate(0 0)">
        <path id="Path_5" data-name="Path 5" d="M11.782,4.707l21.03.183L32.845.917,11.817.733ZM24.764,24.334l7.878.068.04-4.661L24.8,19.672Zm2.878,30.487,4.372.038.034-3.975-4.372-.038ZM-67.474-27.241l30.749.449,19.39,18.128L2.734-26.809l22.4.16L25.1-22.314l8.346.073-.048,5.6-9-.079-.033,3.759L8.613-13.1,8.575-8.764l24.751.217-.041,4.588-46.791-.408.016,2.241L-13.547.3,5.748.463l-.034,3.9-8.744-.076-.148,4.661,36.349.317-.034,3.9-6.612-.059-.035,4.084-11.311-.1-.04,4.661,4.119.036-.038,4.263-11.634-.1-.041,4.661,25.438.222-.038,4.228-5.926-.052-.027,3.07-3.143-.027-.04,4.661,9.069.08-.028,3.216L6.365,45.782l-.041,4.661,16.44.143-.033,3.794L2.026,54.2,1.75,15.569-17.7,33.106-37.09,14.941l-.342,39.167-30.749-.267ZM19.365,38.451l-.041,4.662-3.758-.033.041-4.661ZM14.58-17.889l3.686.032.041-4.661-3.686-.032ZM-56.693-16.2l7.444.065.014-1.554-7.444-.065Zm5.017-3.462,4.192.038.014-1.554-4.192-.036Zm-1.614,6.924,2.638.023.014-1.59-2.638-.023Zm-9.177-.224,8.31.072.014-1.554L-60.9-14.5l.046-5.239,8.418.074.014-1.554-9.972-.087,0,.325-.056,6.468-.007.83Zm-.318,3.285,6.866.06.014-1.554-6.866-.06Z" transform="translate(68.181 27.241)" fill="#2b2e34"/>
      </g>
    </g>
  </g>
</svg>
