<svg width="24" height="24" viewBox="0 0 24 24" fill="none" xmlns="http://www.w3.org/2000/svg">
<path d="M20.8079 3.12H2.99994C2.13594 3.12 1.43994 3.816 1.43994 4.68V17.352C1.43994 18.216 2.13594 18.912 2.99994 18.912H9.02394L10.7039 20.592C11.0159 20.904 11.3999 21.048 11.8079 21.048C12.2159 21.048 12.5999 20.904 12.9119 20.592L14.5919 18.912H20.7839C21.6479 18.912 22.3439 18.216 22.3439 17.352V4.68C22.3679 3.816 21.6719 3.12 20.8079 3.12ZM20.6879 17.232H14.5439C14.1359 17.232 13.7279 17.4 13.4399 17.688L11.8079 19.32L10.1759 17.688C9.88794 17.4 9.47994 17.232 9.07194 17.232H3.11994V4.8H20.6879V17.232ZM11.0639 12.192V7.488C11.0639 7.32 11.2079 7.176 11.3759 7.176H12.4559C12.6239 7.176 12.7679 7.32 12.7679 7.488V12.192C12.7679 12.36 12.6239 12.504 12.4559 12.504H11.3759C11.2079 12.504 11.0639 12.36 11.0639 12.192ZM11.0639 15.096V14.16C11.0639 13.992 11.1839 13.872 11.3519 13.872H12.4559C12.6239 13.872 12.7439 13.992 12.7439 14.16V15.096C12.7439 15.264 12.6239 15.384 12.4559 15.384H11.3519C11.1839 15.384 11.0639 15.264 11.0639 15.096Z" fill="#020303"/>
</svg>
