<svg width="24" height="24" viewBox="0 0 24 24" fill="none" xmlns="http://www.w3.org/2000/svg">
<path d="M13.7965 8.23842C13.8924 8.45396 13.9404 8.6934 13.9404 8.98077C13.9404 9.2442 13.9164 9.45974 13.8445 9.65133C13.7725 9.84291 13.6765 9.9866 13.5805 10.1303C13.4606 10.274 13.3406 10.3937 13.2206 10.4895C13.1007 10.5853 12.9807 10.6811 12.8607 10.7769C12.7408 10.8727 12.6448 10.9445 12.5488 11.0403C12.4528 11.1361 12.4048 11.2079 12.3809 11.3277L12.2369 12.0221H11.1571L11.0372 11.2079C11.0372 11.184 11.0372 11.16 11.0372 11.1361C11.0372 11.1121 11.0372 11.0882 11.0372 11.0642C11.0372 10.9205 11.0612 10.7769 11.1332 10.6811C11.2051 10.5614 11.3011 10.4656 11.3971 10.3698C11.4931 10.274 11.613 10.1782 11.733 10.1063C11.853 10.0345 11.9729 9.93869 12.0689 9.81895C12.1649 9.72316 12.2609 9.60344 12.3328 9.4837C12.4048 9.36397 12.4288 9.22027 12.4288 9.05263C12.4288 8.86105 12.3568 8.69341 12.2369 8.57367C12.0929 8.45393 11.925 8.40605 11.685 8.40605C11.5171 8.40605 11.3491 8.42999 11.2291 8.45393C11.1092 8.50183 11.0132 8.52578 10.9172 8.57367C10.8212 8.62157 10.7493 8.66946 10.7013 8.69341C10.6293 8.74131 10.5813 8.7413 10.5093 8.7413C10.3654 8.7413 10.2694 8.66944 10.1974 8.5497L9.78951 7.92709C9.90948 7.8313 10.0534 7.73552 10.1974 7.63973C10.3414 7.54394 10.5093 7.47209 10.6773 7.40025C10.8452 7.3284 11.0372 7.28046 11.2291 7.23257C11.4211 7.18467 11.637 7.18468 11.853 7.18468C12.1649 7.18468 12.4528 7.23258 12.7167 7.30442C12.9807 7.40021 13.1966 7.51995 13.3646 7.66364C13.5565 7.83128 13.7005 8.02289 13.7965 8.23842ZM12.2849 13.1956C12.2129 13.1238 12.1169 13.0519 11.9969 13.004C11.901 12.9561 11.781 12.9322 11.661 12.9322C11.5411 12.9322 11.4211 12.9561 11.3011 13.004C11.2052 13.0519 11.1092 13.0998 11.0132 13.1956C10.9412 13.2675 10.8692 13.3632 10.8213 13.459C10.7733 13.5548 10.7493 13.6746 10.7493 13.7943C10.7493 13.9141 10.7733 14.0338 10.8213 14.1296C10.8692 14.2254 10.9172 14.3212 11.0132 14.393C11.0852 14.4649 11.1812 14.5367 11.3011 14.5846C11.3971 14.6325 11.5171 14.6564 11.661 14.6564C11.781 14.6564 11.901 14.6325 11.9969 14.5846C12.0929 14.5367 12.1889 14.4888 12.2849 14.393C12.3569 14.3212 12.4288 14.2254 12.4768 14.1296C12.5248 14.0338 12.5488 13.9141 12.5488 13.7943C12.5488 13.6746 12.5248 13.5548 12.4768 13.459C12.4288 13.3632 12.3569 13.2675 12.2849 13.1956ZM23.0341 11.2319C23.0341 16.4047 18.0194 20.6434 11.877 20.6434C10.7972 20.6434 9.74152 20.5237 8.73378 20.2603L7.0782 21.5774C6.81427 21.7929 6.50236 21.8887 6.19044 21.8887C5.95051 21.8887 5.71056 21.8169 5.49462 21.6971C4.99075 21.4098 4.72681 20.859 4.79879 20.2603L5.03873 18.6558C2.32743 16.8836 0.719849 14.1536 0.719849 11.2319C0.719849 6.05917 5.73455 1.82037 11.877 1.82037C18.0194 1.84432 23.0341 6.05917 23.0341 11.2319ZM21.3545 11.2319C21.3545 6.96919 17.1076 3.49673 11.877 3.49673C6.64631 3.49673 2.39941 6.96919 2.39941 11.2319C2.39941 13.6985 3.88703 16.0454 6.35839 17.5063L6.83826 17.7936L6.55035 19.8292L8.34988 18.3923L8.75777 18.5121C9.76551 18.7994 10.7972 18.9431 11.877 18.9431C17.0836 18.9671 21.3545 15.4946 21.3545 11.2319Z" fill="#020303"/>
</svg>
