<svg width="24" height="24" viewBox="0 0 24 24" fill="none" xmlns="http://www.w3.org/2000/svg">
<path d="M12.12 1.92001C5.97596 1.92001 0.959961 6.14402 0.959961 11.352C0.959961 14.256 2.56796 17.016 5.27996 18.792L5.03996 20.4C4.96796 20.976 5.23197 21.528 5.73597 21.84C5.95197 21.96 6.19197 22.032 6.43197 22.032C6.74397 22.032 7.05596 21.936 7.31996 21.72L8.97597 20.4C10.008 20.664 11.064 20.784 12.12 20.784C18.264 20.784 23.28 16.56 23.28 11.352C23.28 6.14402 18.264 1.92001 12.12 1.92001ZM12.12 19.08C11.064 19.08 10.008 18.936 8.99996 18.648L8.59197 18.528L6.79197 19.968L7.07996 17.928L6.59996 17.64C4.12796 16.176 2.63996 13.824 2.63996 11.352C2.63996 7.08003 6.88796 3.60001 12.12 3.60001C17.352 3.60001 21.6 7.08003 21.6 11.352C21.6 15.624 17.352 19.08 12.12 19.08ZM16.704 8.97599C16.704 9.23999 16.488 9.45599 16.224 9.45599H7.89597C7.63197 9.45599 7.41597 9.23999 7.41597 8.97599C7.41597 8.71199 7.63197 8.49599 7.89597 8.49599H16.2C16.488 8.49599 16.704 8.71199 16.704 8.97599ZM12.72 13.272C12.72 13.536 12.504 13.752 12.24 13.752H7.91996C7.65596 13.752 7.43996 13.536 7.43996 13.272C7.43996 13.008 7.65596 12.792 7.91996 12.792H12.24C12.504 12.792 12.72 13.008 12.72 13.272Z" fill="#020303"/>
</svg>
