<svg width="39" height="39" viewBox="0 0 39 39" fill="none" xmlns="http://www.w3.org/2000/svg">
<path d="M19.9875 4.38751C18.3778 4.38751 17.0625 5.70285 17.0625 7.31251C17.0625 8.92217 18.3778 10.2375 19.9875 10.2375C21.5972 10.2375 22.9125 8.92217 22.9125 7.31251C22.9125 5.70285 21.5972 4.38751 19.9875 4.38751ZM19.9875 5.36251C21.0702 5.36251 21.9375 6.22978 21.9375 7.31251C21.9375 8.39524 21.0702 9.26251 19.9875 9.26251C18.9048 9.26251 18.0375 8.39524 18.0375 7.31251C18.0375 6.22978 18.9048 5.36251 19.9875 5.36251ZM12.675 9.75001C12.075 9.75001 11.5771 9.85654 10.923 10.2099C10.269 10.5633 9.40368 11.1509 7.80476 12.1856C7.14856 12.6102 6.825 13.3712 6.825 14.1375C6.825 15.4484 7.87494 16.5234 9.1749 16.5703C8.92231 17.0009 8.775 17.502 8.775 18.0375C8.775 19.2579 9.54136 20.2804 10.606 20.7159C10.6535 20.7568 10.7085 20.7882 10.7678 20.8083L16.1979 22.6297L18.1651 27.9837L18.167 27.9875C18.4448 28.7235 19.1565 29.25 19.9875 29.25C21.059 29.25 21.9375 28.3715 21.9375 27.3C21.9375 27.1032 21.8827 26.9249 21.829 26.7478C21.8288 26.6973 21.8207 26.6472 21.8052 26.5992L19.9028 20.675C19.8885 20.6317 19.8684 20.5907 19.8428 20.5531C19.6693 20.1375 19.346 19.7982 18.923 19.6266L15.1573 17.989L18.3965 14.4651L25.5995 16.5046C25.6465 16.5178 25.6953 16.5239 25.7442 16.5226H25.7461C25.8525 16.5466 25.9552 16.575 26.0812 16.575C27.0179 16.575 27.7875 15.8054 27.7875 14.8688C27.7875 14.2391 27.4034 13.7393 26.8925 13.4453C26.8338 13.3605 26.7498 13.2965 26.6525 13.2625L16.9378 9.90236C16.8817 9.88328 16.8227 9.87457 16.7635 9.87665C16.585 9.82271 16.3998 9.77908 16.2027 9.76334C16.165 9.75433 16.1263 9.74986 16.0875 9.75001H12.675ZM12.675 10.725H14.1261L10.3984 15.0906C10.361 15.1129 10.3267 15.1401 10.2965 15.1715C10.0318 15.4366 9.66942 15.6 9.2625 15.6C8.44911 15.6 7.8 14.9509 7.8 14.1375C7.8 13.649 8.01243 13.2126 8.33416 13.0045C9.93909 11.9658 10.8184 11.3749 11.3867 11.0678C11.9551 10.7607 12.1577 10.725 12.675 10.725ZM16.0875 10.725C16.2613 10.725 16.4294 10.7602 16.5979 10.8231C16.6899 10.8573 16.7901 10.863 16.8854 10.8393L16.7645 10.8745L26.2793 14.1651L26.2831 14.167C26.2977 14.1738 26.3126 14.1798 26.3279 14.1851C26.6111 14.2868 26.8125 14.5474 26.8125 14.8688C26.8125 15.2796 26.4921 15.6 26.0812 15.6C26.0205 15.6 25.9549 15.5891 25.8737 15.5648C25.7557 15.5296 25.6287 15.5404 25.5183 15.595C25.4079 15.6495 25.3223 15.7439 25.2786 15.859L25.4338 15.4439L18.3736 13.4453C18.2869 13.4208 18.195 13.4208 18.1083 13.4453C18.0216 13.4699 17.9433 13.518 17.8823 13.5843L13.9756 17.8328C13.9231 17.89 13.8849 17.959 13.8644 18.034C13.8439 18.1089 13.8416 18.1877 13.8578 18.2637C13.8739 18.3398 13.9079 18.4108 13.9571 18.471C14.0062 18.5312 14.0691 18.5788 14.1404 18.6098L18.5459 20.5255C18.5494 20.5271 18.5529 20.5287 18.5564 20.5302C18.7487 20.6082 18.8992 20.7683 18.9687 20.972C18.9899 21.0336 19.0233 21.0902 19.0668 21.1387L19.0068 21.073L20.8768 26.8973C20.8805 26.9088 20.8846 26.9203 20.8892 26.9315C20.9367 27.0485 20.9625 27.171 20.9625 27.3C20.9625 27.8461 20.5336 28.275 19.9875 28.275C19.5657 28.275 19.2186 28.0124 19.0792 27.6428L19.0801 27.6475L17.033 22.0737C17.0077 22.0052 16.9673 21.9434 16.9149 21.8926C16.8625 21.8419 16.7994 21.8035 16.7302 21.7804L11.3306 19.9685L11.3934 20.2179C11.3736 20.1387 11.3342 20.0656 11.2788 20.0056C11.2234 19.9455 11.1538 19.9003 11.0763 19.8742C10.3049 19.6126 9.75 18.8998 9.75 18.0375C9.75 17.4714 9.9912 16.9721 10.3765 16.6131C10.39 16.6005 10.4027 16.5871 10.4146 16.5731L14.823 11.4115L14.7002 11.4458C14.799 11.4183 14.8867 11.3603 14.9506 11.2801C15.2221 10.9405 15.6232 10.725 16.0875 10.725ZM28.275 17.55C25.0472 17.55 22.425 20.1722 22.425 23.4C22.425 26.6278 25.0472 29.25 28.275 29.25C31.5028 29.25 34.125 26.6278 34.125 23.4C34.125 20.1722 31.5028 17.55 28.275 17.55ZM28.275 18.525C30.9772 18.525 33.15 20.6978 33.15 23.4C33.15 26.1022 30.9772 28.275 28.275 28.275C25.5728 28.275 23.4 26.1022 23.4 23.4C23.4 20.6978 25.5728 18.525 28.275 18.525ZM10.725 22.425C7.49723 22.425 4.875 25.0472 4.875 28.275C4.875 31.5028 7.49723 34.125 10.725 34.125C13.9528 34.125 16.575 31.5028 16.575 28.275C16.575 25.0472 13.9528 22.425 10.725 22.425ZM28.275 22.9125C28.1457 22.9125 28.0217 22.9639 27.9303 23.0553C27.8389 23.1467 27.7875 23.2707 27.7875 23.4C27.7875 23.5293 27.8389 23.6533 27.9303 23.7447C28.0217 23.8362 28.1457 23.8875 28.275 23.8875C28.4043 23.8875 28.5283 23.8362 28.6197 23.7447C28.7111 23.6533 28.7625 23.5293 28.7625 23.4C28.7625 23.2707 28.7111 23.1467 28.6197 23.0553C28.5283 22.9639 28.4043 22.9125 28.275 22.9125ZM10.725 23.4C13.4272 23.4 15.6 25.5728 15.6 28.275C15.6 30.9772 13.4272 33.15 10.725 33.15C8.02283 33.15 5.85 30.9772 5.85 28.275C5.85 25.5728 8.02283 23.4 10.725 23.4ZM10.725 27.7875C10.5957 27.7875 10.4717 27.8389 10.3803 27.9303C10.2889 28.0217 10.2375 28.1457 10.2375 28.275C10.2375 28.4043 10.2889 28.5283 10.3803 28.6197C10.4717 28.7112 10.5957 28.7625 10.725 28.7625C10.8543 28.7625 10.9783 28.7112 11.0697 28.6197C11.1611 28.5283 11.2125 28.4043 11.2125 28.275C11.2125 28.1457 11.1611 28.0217 11.0697 27.9303C10.9783 27.8389 10.8543 27.7875 10.725 27.7875ZM34.6125 29.25C34.4832 29.25 34.3592 29.3014 34.2678 29.3928C34.1764 29.4842 34.125 29.6082 34.125 29.7375C34.125 29.8668 34.1764 29.9908 34.2678 30.0822C34.3592 30.1736 34.4832 30.225 34.6125 30.225C34.7418 30.225 34.8658 30.1736 34.9572 30.0822C35.0486 29.9908 35.1 29.8668 35.1 29.7375C35.1 29.6082 35.0486 29.4842 34.9572 29.3928C34.8658 29.3014 34.7418 29.25 34.6125 29.25ZM32.6625 29.7375C32.5332 29.7375 32.4092 29.7889 32.3178 29.8803C32.2264 29.9717 32.175 30.0957 32.175 30.225C32.175 30.3543 32.2264 30.4783 32.3178 30.5697C32.4092 30.6612 32.5332 30.7125 32.6625 30.7125C32.7918 30.7125 32.9158 30.6612 33.0072 30.5697C33.0986 30.4783 33.15 30.3543 33.15 30.225C33.15 30.0957 33.0986 29.9717 33.0072 29.8803C32.9158 29.7889 32.7918 29.7375 32.6625 29.7375ZM30.7125 30.7125C30.5832 30.7125 30.4592 30.7639 30.3678 30.8553C30.2764 30.9467 30.225 31.0707 30.225 31.2C30.225 31.3293 30.2764 31.4533 30.3678 31.5447C30.4592 31.6361 30.5832 31.6875 30.7125 31.6875C30.8418 31.6875 30.9658 31.6361 31.0572 31.5447C31.1486 31.4533 31.2 31.3293 31.2 31.2C31.2 31.0707 31.1486 30.9467 31.0572 30.8553C30.9658 30.7639 30.8418 30.7125 30.7125 30.7125ZM24.8625 31.2C24.7332 31.2 24.6092 31.2514 24.5178 31.3428C24.4264 31.4342 24.375 31.5582 24.375 31.6875C24.375 31.8168 24.4264 31.9408 24.5178 32.0322C24.6092 32.1237 24.7332 32.175 24.8625 32.175C24.9918 32.175 25.1158 32.1237 25.2072 32.0322C25.2986 31.9408 25.35 31.8168 25.35 31.6875C25.35 31.5582 25.2986 31.4342 25.2072 31.3428C25.1158 31.2514 24.9918 31.2 24.8625 31.2ZM26.8125 31.2C26.6832 31.2 26.5592 31.2514 26.4678 31.3428C26.3764 31.4342 26.325 31.5582 26.325 31.6875C26.325 31.8168 26.3764 31.9408 26.4678 32.0322C26.5592 32.1237 26.6832 32.175 26.8125 32.175C26.9418 32.175 27.0658 32.1237 27.1572 32.0322C27.2486 31.9408 27.3 31.8168 27.3 31.6875C27.3 31.5582 27.2486 31.4342 27.1572 31.3428C27.0658 31.2514 26.9418 31.2 26.8125 31.2ZM28.7625 31.2C28.6332 31.2 28.5092 31.2514 28.4178 31.3428C28.3264 31.4342 28.275 31.5582 28.275 31.6875C28.275 31.8168 28.3264 31.9408 28.4178 32.0322C28.5092 32.1237 28.6332 32.175 28.7625 32.175C28.8918 32.175 29.0158 32.1237 29.1072 32.0322C29.1986 31.9408 29.25 31.8168 29.25 31.6875C29.25 31.5582 29.1986 31.4342 29.1072 31.3428C29.0158 31.2514 28.8918 31.2 28.7625 31.2ZM22.9125 32.175C22.7832 32.175 22.6592 32.2264 22.5678 32.3178C22.4764 32.4092 22.425 32.5332 22.425 32.6625C22.425 32.7918 22.4764 32.9158 22.5678 33.0072C22.6592 33.0987 22.7832 33.15 22.9125 33.15C23.0418 33.15 23.1658 33.0987 23.2572 33.0072C23.3486 32.9158 23.4 32.7918 23.4 32.6625C23.4 32.5332 23.3486 32.4092 23.2572 32.3178C23.1658 32.2264 23.0418 32.175 22.9125 32.175ZM20.9625 32.6625C20.8332 32.6625 20.7092 32.7139 20.6178 32.8053C20.5264 32.8967 20.475 33.0207 20.475 33.15C20.475 33.2793 20.5264 33.4033 20.6178 33.4947C20.7092 33.5862 20.8332 33.6375 20.9625 33.6375C21.0918 33.6375 21.2158 33.5862 21.3072 33.4947C21.3986 33.4033 21.45 33.2793 21.45 33.15C21.45 33.0207 21.3986 32.8967 21.3072 32.8053C21.2158 32.7139 21.0918 32.6625 20.9625 32.6625ZM19.0125 33.15C18.8832 33.15 18.7592 33.2014 18.6678 33.2928C18.5764 33.3842 18.525 33.5082 18.525 33.6375C18.525 33.7668 18.5764 33.8908 18.6678 33.9822C18.7592 34.0736 18.8832 34.125 19.0125 34.125C19.1418 34.125 19.2658 34.0736 19.3572 33.9822C19.4486 33.8908 19.5 33.7668 19.5 33.6375C19.5 33.5082 19.4486 33.3842 19.3572 33.2928C19.2658 33.2014 19.1418 33.15 19.0125 33.15Z" fill="black"/>
</svg>
