<svg xmlns="http://www.w3.org/2000/svg" viewBox="0 0 50 50"><path d="M 21 2 C 19.433594 2 17.363281 2.25 15.558594 2.941406 C 14.652344 3.285156 13.808594 3.738281 13.140625 4.398438 C 12.691406 4.839844 12.394531 5.429688 12.207031 6.066406 C 10.722656 6.136719 9.015625 6.371094 7.453125 7.09375 C 5.625 7.9375 4 9.582031 4 12 L 4 18.199219 C 4 21.035156 3.527344 22.941406 3.023438 25.140625 C 2.523438 27.339844 2 29.808594 2 33.5 C 2 34.871094 2.683594 36.394531 4 37.488281 L 4 39.011719 C 2.789063 39.921875 2 41.371094 2 43 C 2 45.75 4.25 48 7 48 C 9.75 48 12 45.75 12 43 L 14 43 C 14 45.75 16.25 48 19 48 C 21.75 48 24 45.75 24 43 L 26 43 C 26 45.75 28.25 48 31 48 C 33.75 48 36 45.75 36 43 L 38 43 C 38 45.75 40.25 48 43 48 C 45.75 48 48 45.75 48 43 C 48 40.960938 46.765625 39.207031 45 38.433594 L 45 38.277344 C 45.574219 38.085938 46.078125 37.894531 46.46875 37.710938 C 46.832031 37.542969 47.121094 37.382813 47.371094 37.191406 C 47.492188 37.097656 47.609375 37 47.726563 36.851563 C 47.84375 36.703125 48 36.484375 48 36.097656 C 48 32.839844 47.199219 30.015625 45.25 28.027344 C 43.304688 26.035156 40.320313 25 36.300781 25 C 35.863281 25 34.859375 24.746094 33.746094 24.214844 C 32.628906 23.679688 31.371094 22.886719 30.207031 21.902344 C 27.882813 19.929688 26 17.234375 26 14.300781 L 26 5.5 C 26 4.59375 25.550781 3.640625 24.6875 3 C 23.820313 2.355469 22.597656 2 21 2 Z M 21 4 C 22.300781 4 23.078125 4.296875 23.488281 4.601563 C 23.902344 4.90625 24 5.207031 24 5.5 L 24 8.085938 C 23.402344 8.300781 23 8.863281 23 9.5 C 23 10.136719 23.402344 10.699219 24 10.910156 L 24 14.089844 C 23.402344 14.300781 23 14.863281 23 15.5 C 23 16.289063 23.613281 16.941406 24.402344 16.996094 C 24.65625 17.847656 25.019531 18.65625 25.464844 19.417969 C 25.167969 19.699219 25 20.089844 25 20.5 C 25 21.328125 25.671875 22 26.5 22 C 26.761719 22 27.015625 21.929688 27.242188 21.800781 C 27.773438 22.386719 28.335938 22.933594 28.917969 23.425781 C 29.023438 23.515625 29.132813 23.597656 29.242188 23.683594 C 29.085938 23.925781 29 24.210938 29 24.5 C 29 25.328125 29.671875 26 30.5 26 C 30.976563 26 31.425781 25.773438 31.707031 25.390625 C 32.105469 25.617188 32.496094 25.832031 32.878906 26.015625 C 33.265625 26.203125 33.636719 26.355469 34 26.496094 C 34 26.496094 34 26.5 34 26.5 C 34 27.328125 34.671875 28 35.5 28 C 36.128906 28 36.6875 27.609375 36.90625 27.019531 C 40.234375 27.117188 42.429688 28 43.824219 29.421875 C 45.226563 30.859375 45.882813 32.992188 45.949219 35.71875 C 45.851563 35.777344 45.792969 35.820313 45.625 35.902344 C 45.066406 36.160156 44.148438 36.492188 42.886719 36.804688 C 40.355469 37.429688 36.429688 38 31 38 C 22.375 38 16.386719 37 8.5 37 C 5.15625 37 4 34.804688 4 33.5 C 4 29.992188 4.476563 27.761719 4.976563 25.585938 C 5.472656 23.410156 6 21.261719 6 18.199219 L 6 12 C 6 10.417969 6.875 9.5625 8.296875 8.90625 C 9.714844 8.253906 11.609375 8 13 8 C 13.550781 8 14 7.550781 14 7 C 14 6.535156 14.164063 6.195313 14.546875 5.820313 C 14.925781 5.449219 15.535156 5.089844 16.269531 4.808594 C 17.738281 4.25 19.664063 4 21 4 Z M 6 38.597656 C 6.738281 38.847656 7.566406 39 8.5 39 C 16.214844 39 22.222656 40 31 40 C 36.347656 40 40.285156 39.460938 43 38.824219 L 43 40 C 43 40.554688 42.554688 41 42 41 L 7 41 C 6.445313 41 6 40.554688 6 40 Z M 44.910156 40.695313 C 45.570313 41.242188 46 42.066406 46 43 C 46 44.667969 44.667969 46 43 46 C 41.332031 46 40 44.667969 40 43 L 42 43 C 42 43.53125 42.46875 44 43 44 C 43.53125 44 44 43.53125 44 43 C 44 42.777344 43.902344 42.574219 43.769531 42.40625 C 44.328125 41.988281 44.742188 41.390625 44.910156 40.695313 Z M 4.417969 41.488281 C 4.78125 42.109375 5.351563 42.585938 6.039063 42.824219 C 6.023438 42.882813 6 42.9375 6 43 C 6 43.53125 6.46875 44 7 44 C 7.53125 44 8 43.53125 8 43 L 10 43 C 10 44.667969 8.667969 46 7 46 C 5.332031 46 4 44.667969 4 43 C 4 42.445313 4.15625 41.933594 4.417969 41.488281 Z M 16 43 L 18 43 C 18 43.53125 18.46875 44 19 44 C 19.53125 44 20 43.53125 20 43 L 22 43 C 22 44.667969 20.667969 46 19 46 C 17.332031 46 16 44.667969 16 43 Z M 28 43 L 30 43 C 30 43.53125 30.46875 44 31 44 C 31.53125 44 32 43.53125 32 43 L 34 43 C 34 44.667969 32.667969 46 31 46 C 29.332031 46 28 44.667969 28 43 Z"></path></svg>