<svg width="24" height="24" viewBox="0 0 24 24" fill="none" xmlns="http://www.w3.org/2000/svg">
<path d="M22.2881 5.26222C19.761 5.26222 17.7322 3.2 17.7322 0.711111C17.7322 0.32 17.4119 0 17.0203 0H13.2475C12.8559 0 12.5356 0.32 12.5356 0.711111V16.1422C12.5356 17.6356 11.3254 18.8089 9.8661 18.8089C8.40678 18.8089 7.19661 17.6 7.19661 16.1422C7.19661 14.6489 8.40678 13.4756 9.8661 13.4756C10.2576 13.4756 10.578 13.1556 10.578 12.7644V8.96C10.578 8.56889 10.2576 8.24889 9.8661 8.24889C5.52373 8.28444 2 11.8044 2 16.1422C2 20.48 5.52373 24 9.8661 24C14.2085 24 17.7322 20.48 17.7322 16.1422V9.31556C19.1203 10.0622 20.6864 10.4533 22.2881 10.4533C22.6797 10.4533 23 10.1333 23 9.74222V5.97333C23 5.58222 22.6797 5.26222 22.2881 5.26222Z" fill="#020303"/>
</svg>
