<svg width="24" height="24" viewBox="0 0 24 24" fill="none" xmlns="http://www.w3.org/2000/svg">
<path d="M24 12C24 12.8638 23.9076 13.6967 23.7227 14.4987C23.1373 17.2442 21.6277 19.6504 19.5019 21.347C17.4377 23.0129 14.8498 24 11.9846 24C7.42491 24 3.45057 21.4396 1.41719 17.6761C0.492932 15.9794 0 14.036 0 12C0 9.99486 0.492947 8.14396 1.35559 6.47815C3.35816 2.62211 7.36328 0 12.0154 0C14.9114 0 17.5918 1.04884 19.656 2.77635L15.774 5.95373C14.6957 5.27506 13.4018 4.87404 12.0154 4.87404C8.90372 4.87404 6.22335 6.87918 5.26828 9.68637C5.02181 10.4267 4.89859 11.1979 4.89859 12C4.89859 12.8946 5.05264 13.7275 5.36072 14.4987C6.37741 17.2134 8.96533 19.126 12.0462 19.126C13.371 19.126 14.6033 18.7558 15.6508 18.1388C17.068 17.3059 18.1464 16.0411 18.7317 14.4987H12.3235V9.74807H18.8241H23.846C23.9384 10.4884 24 11.2288 24 12Z" fill="#020303"/>
</svg>
