<svg width="24" height="24" viewBox="0 0 24 24" fill="none" xmlns="http://www.w3.org/2000/svg">
<path d="M12 2.16867C15.1807 2.16867 15.6145 2.16867 16.9157 2.16867C18.0723 2.16867 18.6506 2.45783 19.0843 2.60241C19.6627 2.89157 20.0964 3.03615 20.5301 3.46988C20.9639 3.90362 21.253 4.33735 21.3976 4.91566C21.5422 5.3494 21.6867 5.92771 21.8313 7.08434C21.8313 8.38554 21.8313 8.6747 21.8313 12C21.8313 15.3253 21.8313 15.6145 21.8313 16.9157C21.8313 18.0723 21.5422 18.6506 21.3976 19.0843C21.1084 19.6627 20.9639 20.0964 20.5301 20.5301C20.0964 20.9639 19.6627 21.253 19.0843 21.3976C18.6506 21.5422 18.0723 21.6867 16.9157 21.8313C15.6145 21.8313 15.3253 21.8313 12 21.8313C8.6747 21.8313 8.38554 21.8313 7.08434 21.8313C5.92771 21.8313 5.3494 21.5422 4.91566 21.3976C4.33735 21.1084 3.90362 20.9639 3.46988 20.5301C3.03615 20.0964 2.74699 19.6627 2.60241 19.0843C2.45783 18.6506 2.31325 18.0723 2.16867 16.9157C2.16867 15.6145 2.16867 15.3253 2.16867 12C2.16867 8.6747 2.16867 8.38554 2.16867 7.08434C2.16867 5.92771 2.45783 5.3494 2.60241 4.91566C2.89157 4.33735 3.03615 3.90362 3.46988 3.46988C3.90362 3.03615 4.33735 2.74699 4.91566 2.60241C5.3494 2.45783 5.92771 2.31325 7.08434 2.16867C8.38554 2.16867 8.81928 2.16867 12 2.16867ZM12 0C8.6747 0 8.38554 0 7.08434 0C5.78313 0 4.91566 0.289157 4.19277 0.578314C3.46988 0.867471 2.74699 1.30121 2.0241 2.0241C1.30121 2.74699 1.01205 3.3253 0.578314 4.19277C0.289157 4.91566 0.144578 5.78313 0 7.08434C0 8.38554 0 8.81928 0 12C0 15.3253 0 15.6145 0 16.9157C0 18.2169 0.289157 19.0843 0.578314 19.8072C0.867471 20.5301 1.30121 21.253 2.0241 21.9759C2.74699 22.6988 3.3253 22.988 4.19277 23.4217C4.91566 23.7108 5.78313 23.8554 7.08434 24C8.38554 24 8.81928 24 12 24C15.1807 24 15.6145 24 16.9157 24C18.2169 24 19.0843 23.7108 19.8072 23.4217C20.5301 23.1325 21.253 22.6988 21.9759 21.9759C22.6988 21.253 22.988 20.6747 23.4217 19.8072C23.7108 19.0843 23.8554 18.2169 24 16.9157C24 15.6145 24 15.1807 24 12C24 8.81928 24 8.38554 24 7.08434C24 5.78313 23.7108 4.91566 23.4217 4.19277C23.1325 3.46988 22.6988 2.74699 21.9759 2.0241C21.253 1.30121 20.6747 1.01205 19.8072 0.578314C19.0843 0.289157 18.2169 0.144578 16.9157 0C15.6145 0 15.3253 0 12 0Z" fill="#020303"/>
<path d="M12 5.78313C8.53012 5.78313 5.78313 8.53012 5.78313 12C5.78313 15.4699 8.53012 18.2169 12 18.2169C15.4699 18.2169 18.2169 15.4699 18.2169 12C18.2169 8.53012 15.4699 5.78313 12 5.78313ZM12 16.0482C9.83133 16.0482 7.95181 14.3133 7.95181 12C7.95181 9.83133 9.68675 7.95181 12 7.95181C14.1687 7.95181 16.0482 9.68675 16.0482 12C16.0482 14.1687 14.1687 16.0482 12 16.0482Z" fill="#020303"/>
<path d="M18.3614 7.08434C19.1599 7.08434 19.8072 6.43704 19.8072 5.63856C19.8072 4.84007 19.1599 4.19277 18.3614 4.19277C17.563 4.19277 16.9157 4.84007 16.9157 5.63856C16.9157 6.43704 17.563 7.08434 18.3614 7.08434Z" fill="#020303"/>
</svg>
