<svg width="24" height="24" viewBox="0 0 24 24" fill="none" xmlns="http://www.w3.org/2000/svg">
<path d="M23.4 6.25447C23.1 5.22322 22.35 4.48661 21.3 4.19196C19.5 3.75 11.85 3.75 11.85 3.75C11.85 3.75 4.35001 3.75 2.40001 4.19196C1.35001 4.48661 0.599995 5.22322 0.299995 6.25447C-4.58211e-06 8.16964 0 12 0 12C0 12 4.55976e-06 15.8304 0.450005 17.7455C0.750005 18.7768 1.5 19.5134 2.55 19.808C4.35 20.25 12 20.25 12 20.25C12 20.25 19.5 20.25 21.45 19.808C22.5 19.5134 23.25 18.7768 23.55 17.7455C24 15.8304 24 12 24 12C24 12 24 8.16964 23.4 6.25447ZM9.59999 15.5357V8.46429L15.9 12L9.59999 15.5357Z" fill="#020303"/>
</svg>
