<svg width="24" height="24" viewBox="0 0 24 24" fill="none" xmlns="http://www.w3.org/2000/svg">
<path d="M12.0739 0C5.43327 0 0 5.36538 0 11.9231C0 16.8413 3.01849 21.0144 7.24436 22.8029C7.24436 21.9087 7.24435 21.0144 7.39527 20.1202C7.69712 19.0769 8.90452 13.5625 8.90452 13.5625C8.90452 13.5625 8.45176 12.8173 8.45176 11.625C8.45176 9.83654 9.50823 8.49519 10.7156 8.49519C11.7721 8.49519 12.3758 9.24038 12.3758 10.2837C12.3758 11.3269 11.6212 12.9663 11.3193 14.4567C11.0175 15.649 11.923 16.6923 13.2813 16.6923C15.5452 16.6923 17.0544 13.8606 17.0544 10.2837C17.0544 7.60096 15.2433 5.66346 12.0739 5.66346C8.45175 5.66346 6.1879 8.34615 6.1879 11.3269C6.1879 12.3702 6.48975 13.1154 6.94252 13.7115C7.09344 14.0096 7.24435 14.0096 7.09343 14.3077C7.09343 14.4567 6.94251 15.0529 6.79159 15.2019C6.64066 15.5 6.48975 15.649 6.1879 15.5C4.52773 14.7548 3.7731 12.9663 3.7731 10.8798C3.7731 7.45192 6.64066 3.42788 12.3758 3.42788C17.0544 3.42788 20.0729 6.70673 20.0729 10.2837C20.0729 14.9038 17.5072 18.4808 13.5832 18.4808C12.2249 18.4808 11.0175 17.7356 10.5647 16.9904C10.5647 16.9904 9.81006 19.6731 9.65914 20.2692C9.35729 21.1635 8.90453 22.0577 8.45176 22.8029C9.50823 23.101 10.7156 23.25 11.923 23.25C18.5637 23.25 23.9969 17.8846 23.9969 11.3269C24.1479 5.36539 18.7146 0 12.0739 0Z" fill="#020303"/>
</svg>
