<svg xmlns="http://www.w3.org/2000/svg" viewBox="0 0 64 64"><path d="M 10.5 5 C 6.9217323 5 4 7.9217323 4 11.5 C 4 15.078268 6.9217323 18 10.5 18 C 14.078268 18 17 15.078268 17 11.5 C 17 7.9217323 14.078268 5 10.5 5 z M 10.5 7 C 12.997732 7 15 9.0022677 15 11.5 C 15 13.997732 12.997732 16 10.5 16 C 8.0022677 16 6 13.997732 6 11.5 C 6 9.0022677 8.0022677 7 10.5 7 z M 38.800781 7.0019531 C 38.104731 7.0088093 37.411815 7.0544502 36.722656 7.1367188 C 31.209385 7.7948686 26.001885 10.736191 22.009766 14.826172 C 19.129883 17.775704 16.771646 21.503897 16.066406 29.626953 A 1.0001 1.0001 0 0 0 16 30.017578 C 16.000345 30.037528 16.001553 30.060078 16.001953 30.080078 C 16.001984 30.081978 16.001923 30.084037 16.001953 30.085938 A 1.0001 1.0001 0 0 0 16.007812 30.300781 C 16.03892 32.547036 15.998224 35.055842 16.693359 37.195312 C 16.746128 37.455442 16.950869 38.560754 16.970703 39.722656 C 16.990663 40.891961 16.721731 42.047327 16.373047 42.396484 C 14.817414 43.950512 12.9318 45.481 11.234375 46.816406 C 9.5365788 48.152104 8.0506643 49.261836 7.1621094 50.150391 C 6.1597678 51.151446 5.8194486 52.55414 6.1074219 53.865234 C 6.3953952 55.176329 7.2064012 56.430468 8.3769531 57.601562 A 1.0001 1.0001 0 0 0 8.3789062 57.601562 C 9.5449189 58.766494 10.779889 59.589861 12.089844 59.886719 C 13.399799 60.183577 14.812751 59.837009 15.832031 58.818359 C 16.742389 57.908568 17.856921 56.418983 19.1875 54.728516 C 20.518079 53.038048 22.038009 51.168055 23.591797 49.615234 C 23.935239 49.273661 24.969534 49.004322 26.070312 49 C 27.155524 48.9957 28.222056 49.170334 28.658203 49.251953 C 30.943957 50.154433 33.412338 50.959613 35.984375 51 A 1.0001 1.0001 0 0 0 36.189453 50.984375 A 1.0001 1.0001 0 0 0 36.429688 50.998047 C 43.876792 50.573057 48.373836 47.898976 51.365234 44.832031 C 55.358091 40.74132 58.223608 35.414854 58.865234 29.787109 C 59.506773 24.159332 57.860751 18.228913 52.953125 13.203125 C 49.275014 9.434047 45.085633 7.535116 40.894531 7.0996094 C 40.196014 7.0270249 39.496831 6.9950969 38.800781 7.0019531 z M 38.824219 8.9980469 C 39.446708 8.9898138 40.068937 9.0161021 40.691406 9.078125 C 44.426222 9.4502629 48.133845 11.128187 51.521484 14.599609 A 1.0001 1.0001 0 0 0 51.523438 14.599609 C 56.04381 19.228821 57.460279 24.461291 56.878906 29.560547 C 56.297533 34.659803 53.652737 39.623305 49.933594 43.433594 A 1.0001 1.0001 0 0 0 49.933594 43.435547 C 47.222993 46.214602 43.343302 48.600943 36.316406 49.001953 A 1.0001 1.0001 0 0 0 36.189453 49.015625 A 1.0001 1.0001 0 0 0 36.015625 49 C 35.081142 48.985327 34.129194 48.827074 33.173828 48.605469 C 33.198047 48.586466 33.227185 48.578162 33.25 48.556641 L 34.699219 47.179688 C 35.100219 46.798687 35.116328 46.165625 34.736328 45.765625 C 34.354328 45.364625 33.721266 45.348516 33.322266 45.728516 L 31.873047 47.105469 C 31.572297 47.391219 31.487984 47.818953 31.625 48.183594 C 30.830141 47.934113 30.036863 47.658016 29.251953 47.345703 A 1.0001 1.0001 0 0 0 29.068359 47.291016 C 28.576029 47.197933 27.380654 46.994825 26.0625 47 C 24.744346 47.0052 23.239066 47.140155 22.177734 48.199219 C 20.517522 49.858398 18.960608 51.785404 17.617188 53.492188 C 16.273767 55.198969 15.115611 56.707088 14.417969 57.404297 C 13.831249 57.990651 13.302748 58.111892 12.533203 57.9375 C 11.764048 57.763196 10.782446 57.175662 9.7929688 56.1875 C 8.8085207 55.202595 8.2315736 54.216156 8.0605469 53.4375 C 7.8895202 52.658844 8.0195139 52.122351 8.5761719 51.566406 A 1.0001 1.0001 0 0 0 8.5761719 51.564453 C 9.2446169 50.896008 10.756249 49.737474 12.470703 48.388672 C 14.185157 47.039869 16.124937 45.471169 17.787109 43.810547 A 1.0001 1.0001 0 0 0 17.789062 43.810547 C 18.911379 42.686705 18.994242 41.068398 18.970703 39.689453 C 18.947163 38.310508 18.716264 37.106375 18.650391 36.783203 A 1.0001 1.0001 0 0 0 18.619141 36.662109 C 18.371572 35.930474 18.241663 35.029124 18.158203 34.068359 C 18.193158 34.124179 18.216568 34.184792 18.263672 34.234375 C 18.460672 34.442375 18.723281 34.546875 18.988281 34.546875 C 19.236281 34.546875 19.483734 34.455484 19.677734 34.271484 L 21.128906 32.894531 C 21.529906 32.513531 21.544062 31.880469 21.164062 31.480469 C 20.782063 31.078469 20.151953 31.063359 19.751953 31.443359 L 18.300781 32.820312 C 18.209024 32.907494 18.143106 33.009428 18.091797 33.117188 C 18.042387 32.152518 18.022077 31.151385 18.005859 30.164062 C 18.637133 22.054403 20.684431 19.046309 23.441406 16.222656 C 27.159287 12.413637 31.999006 9.715147 36.958984 9.1230469 C 37.578982 9.0490343 38.20173 9.00628 38.824219 8.9980469 z M 23.857422 34.740234 C 23.601672 34.733859 23.343078 34.826125 23.142578 35.015625 L 21.693359 36.392578 C 21.293359 36.772578 21.27625 37.406641 21.65625 37.806641 C 21.85325 38.013641 22.118813 38.117188 22.382812 38.117188 C 22.630813 38.117187 22.876312 38.025797 23.070312 37.841797 L 24.521484 36.464844 C 24.921484 36.084844 24.936641 35.450781 24.556641 35.050781 C 24.366141 34.850781 24.113172 34.746609 23.857422 34.740234 z M 27.25 38.3125 C 26.994125 38.306125 26.735656 38.396438 26.535156 38.585938 L 25.085938 39.964844 C 24.685937 40.344844 24.670781 40.978906 25.050781 41.378906 C 25.247781 41.585906 25.511391 41.689453 25.775391 41.689453 C 26.022391 41.689453 26.270844 41.598062 26.464844 41.414062 L 27.914062 40.035156 C 28.314063 39.655156 28.329219 39.021094 27.949219 38.621094 C 27.759219 38.421094 27.505875 38.318875 27.25 38.3125 z M 30.642578 41.884766 C 30.386828 41.878391 30.130187 41.968703 29.929688 42.158203 L 28.478516 43.535156 C 28.078516 43.915156 28.063359 44.549219 28.443359 44.949219 C 28.640359 45.156219 28.903969 45.259766 29.167969 45.259766 C 29.415969 45.259766 29.663422 45.168375 29.857422 44.984375 L 31.306641 43.607422 C 31.706641 43.227422 31.72375 42.593359 31.34375 42.193359 C 31.15325 41.993359 30.898328 41.891141 30.642578 41.884766 z"></path></svg>