<svg width="24" height="24" viewBox="0 0 24 24" fill="none" xmlns="http://www.w3.org/2000/svg">
<path d="M17.292 16.116C17.628 16.452 17.628 16.98 17.292 17.316C17.124 17.484 16.908 17.556 16.692 17.556C16.476 17.556 16.26 17.484 16.092 17.316L12.012 13.212L7.93198 17.292C7.76398 17.46 7.54798 17.532 7.33198 17.532C7.11598 17.532 6.89998 17.46 6.73198 17.292C6.39598 16.956 6.39598 16.428 6.73198 16.092L10.836 12.012L6.73198 7.932C6.39598 7.596 6.39598 7.068 6.73198 6.732C7.06798 6.42 7.59598 6.42 7.93198 6.732L12.012 10.836L16.116 6.732C16.452 6.396 16.98 6.396 17.292 6.732C17.628 7.068 17.628 7.596 17.292 7.932L13.212 12.012L17.292 16.116Z" fill="#020303"/>
</svg>
