<svg width="24" height="24" viewBox="0 0 24 24" fill="none" xmlns="http://www.w3.org/2000/svg">
<path d="M12 4C7.5847 4 4 7.5846 4 11.9999C4 16.4152 7.5847 20 12 20C16.4153 20 20 16.4152 20 11.9999C20 7.5846 16.4153 4 12 4ZM15.5847 14.2294C15.8907 14.5354 15.8907 15.0163 15.5847 15.3223C15.4317 15.4753 15.235 15.5409 15.0383 15.5409C14.8415 15.5409 14.6448 15.4753 14.4918 15.3223L12 12.8304L9.5082 15.3223C9.35519 15.4753 9.15847 15.5409 8.96175 15.5409C8.76503 15.5409 8.56831 15.4753 8.4153 15.3223C8.10929 15.0163 8.10929 14.5354 8.4153 14.2294L10.9071 11.7376L8.4153 9.24589C8.10929 8.93988 8.10929 8.459 8.4153 8.15299C8.72131 7.84698 9.20219 7.84698 9.48634 8.15299L11.9781 10.6447L14.4699 8.15299C14.776 7.84698 15.2568 7.84698 15.541 8.15299C15.847 8.459 15.847 8.93988 15.541 9.24589L13.0492 11.7376L15.5847 14.2294Z" fill="#020303"/>
</svg>
