<svg width="24" height="24" viewBox="0 0 24 24" fill="none" xmlns="http://www.w3.org/2000/svg">
<path fill-rule="evenodd" clip-rule="evenodd" d="M12 22C17.5228 22 22 17.5228 22 12C22 6.47715 17.5228 2 12 2C6.47715 2 2 6.47715 2 12C2 17.5228 6.47715 22 12 22ZM17.5726 8.29978C17.8959 7.85205 17.7951 7.22696 17.3474 6.90361C16.8997 6.58025 16.2746 6.68107 15.9512 7.1288L10.4906 14.6896L7.50931 11.3356C7.1424 10.9229 6.51032 10.8857 6.09754 11.2526C5.68476 11.6195 5.64758 12.2516 6.0145 12.6644L9.82402 16.9501C10.0255 17.1768 10.3191 17.2998 10.622 17.2844C10.9249 17.2691 11.2045 17.1171 11.3821 16.8712L17.5726 8.29978Z" fill="#020303"/>
</svg>
