<svg width="24" height="24" viewBox="0 0 24 24" fill="none" xmlns="http://www.w3.org/2000/svg">
<path fill-rule="evenodd" clip-rule="evenodd" d="M5 12C5 15.866 8.13401 19 12 19C15.866 19 19 15.866 19 12C19 8.13401 15.866 5 12 5C8.13401 5 5 8.13401 5 12ZM12 3C7.02944 3 3 7.02944 3 12C3 16.9706 7.02944 21 12 21C16.9706 21 21 16.9706 21 12C21 7.02944 16.9706 3 12 3Z" fill="#020303"/>
<path d="M10.9763 16.5193L7.31948 13.0663C6.93723 12.7096 6.88626 12.098 7.23028 11.7157C7.58705 11.308 8.2114 11.2825 8.60639 11.652L10.9763 13.8818L15.2703 8.39014C15.5888 7.9824 16.1877 7.86773 16.6082 8.17353C17.0414 8.49207 17.1306 9.10367 16.7993 9.53689L11.3713 16.4938C11.2567 16.6085 11.0783 16.6213 10.9763 16.5193Z" fill="#020303"/>
</svg>
