<svg width="24" height="24" viewBox="0 0 24 24" fill="none" xmlns="http://www.w3.org/2000/svg">
<path d="M18.4689 6H9.82407C9.40007 6 8.97608 6.18182 8.69341 6.47727L4.40633 11C3.86456 11.5682 3.86456 12.4318 4.40633 13L8.69341 17.5227C8.97608 17.8182 9.40007 18 9.82407 18H18.4689C19.3169 18 20 17.3409 20 16.5227V7.47727C20 6.65909 19.3169 6 18.4689 6ZM18.3511 16.3864H9.87118L5.70188 12L9.87118 7.59091H18.3511V16.3864ZM10.9783 13.5227L12.7214 11.8409L10.9783 10.1591C10.7898 9.97727 10.7898 9.70455 10.9783 9.52273C11.1667 9.34091 11.4494 9.34091 11.6378 9.52273L13.3809 11.2045L15.124 9.52273C15.3125 9.34091 15.5951 9.34091 15.7836 9.52273C15.972 9.70455 15.972 9.97727 15.7836 10.1591L14.0405 11.8409L15.7836 13.5227C15.972 13.7045 15.972 13.9773 15.7836 14.1591C15.6894 14.25 15.5716 14.2955 15.4538 14.2955C15.336 14.2955 15.2183 14.25 15.124 14.1591L13.3809 12.4773L11.6378 14.1591C11.5436 14.25 11.4258 14.2955 11.3081 14.2955C11.1903 14.2955 11.0725 14.25 10.9783 14.1591C10.7898 14 10.7898 13.7045 10.9783 13.5227Z" fill="#020303"/>
</svg>
