<svg width="24" height="24" viewBox="0 0 24 24" fill="none" xmlns="http://www.w3.org/2000/svg">
<path d="M9.28067 9.30914V12.0626C9.28067 12.4494 9.59259 12.7452 10.0005 12.7452H13.8635C14.2714 12.7452 14.5833 12.4494 14.5833 12.0626V9.30914C14.5833 8.92231 14.2714 8.6265 13.8635 8.6265H10.0005C9.59259 8.6265 9.28067 8.94506 9.28067 9.30914ZM10.2404 9.53668H13.6235V11.835H10.2404V9.53668ZM20.2698 9.65046L12.9277 3.87092C12.4479 3.4841 11.728 3.4841 11.2482 3.87092L3.90606 9.65046C3.54616 9.92351 3.49817 10.4242 3.7861 10.7655C4.07402 11.1068 4.60188 11.1523 4.96179 10.8793V20.6638H18.9502V10.6973L19.1901 10.8793C19.3581 10.9931 19.526 11.0613 19.718 11.0613C19.9579 11.0613 20.1978 10.9703 20.3658 10.7655C20.6777 10.4242 20.6297 9.92351 20.2698 9.65046ZM13.6235 19.0709H10.2404V15.1116H13.6235V19.0709ZM17.2946 19.0709H14.5833V14.884C14.5833 14.4972 14.2714 14.2014 13.8635 14.2014H10.0005C9.59259 14.2014 9.28067 14.4972 9.28067 14.884V19.0709H6.64136V9.65046C6.64136 9.6277 6.64136 9.58233 6.64136 9.55957L12.0879 5.28175L17.2946 9.37758V19.0709Z" fill="#020303"/>
</svg>
