<svg width="24" height="24" viewBox="0 0 24 24" fill="none" xmlns="http://www.w3.org/2000/svg">
<path d="M19.944 5.856V7.32C19.944 7.512 19.8 7.656 19.632 7.656H8.784C8.616 7.656 8.472 7.512 8.472 7.32V5.856C8.472 5.664 8.616 5.52 8.784 5.52H19.656C19.824 5.52 19.944 5.664 19.944 5.856ZM6.288 5.856V7.32C6.288 7.512 6.264 7.656 6.24 7.656H4.128C4.104 7.656 4.08 7.512 4.08 7.32V5.856C4.08 5.664 4.104 5.52 4.128 5.52H6.24C6.264 5.52 6.288 5.664 6.288 5.856ZM6.24 10.944H4.128C4.104 10.944 4.08 11.112 4.08 11.28V12.744C4.08 12.936 4.104 13.08 4.128 13.08H6.24C6.264 13.08 6.288 12.936 6.288 12.744V11.28C6.288 11.112 6.264 10.944 6.24 10.944ZM6.24 16.392H4.128C4.104 16.392 4.08 16.536 4.08 16.728V18.192C4.08 18.384 4.104 18.528 4.128 18.528H6.24C6.264 18.528 6.288 18.384 6.288 18.192V16.728C6.288 16.536 6.264 16.392 6.24 16.392ZM19.656 10.944H8.784C8.616 10.944 8.472 11.088 8.472 11.28V12.744C8.472 12.936 8.616 13.08 8.784 13.08H19.656C19.824 13.08 19.968 12.936 19.968 12.744V11.28C19.944 11.112 19.824 10.944 19.656 10.944ZM19.656 16.392H8.784C8.616 16.392 8.472 16.536 8.472 16.728V18.192C8.472 18.384 8.616 18.528 8.784 18.528H19.656C19.824 18.528 19.968 18.384 19.968 18.192V16.728C19.944 16.536 19.824 16.392 19.656 16.392Z" fill="#020303"/>
</svg>
