<svg width="24" height="24" viewBox="0 0 24 24" fill="none" xmlns="http://www.w3.org/2000/svg">
<path d="M10.032 2.64H3.96C3.24 2.64 2.64 3.24 2.64 3.96V10.032C2.64 10.752 3.24 11.352 3.96 11.352H10.032C10.752 11.352 11.352 10.752 11.352 10.032V3.96C11.352 3.216 10.776 2.64 10.032 2.64ZM9.672 9.67195H4.32V4.32H9.672V9.67195ZM19.968 2.64H13.872C13.152 2.64 12.552 3.24 12.552 3.96V10.032C12.552 10.752 13.152 11.352 13.872 11.352H19.944C20.664 11.352 21.264 10.752 21.264 10.032V3.96C21.288 3.216 20.688 2.64 19.968 2.64ZM19.608 9.67195H14.232V4.32H19.584V9.67195H19.608ZM10.032 12.552H3.96C3.24 12.552 2.64 13.152 2.64 13.872V19.944C2.64 20.664 3.24 21.264 3.96 21.264H10.032C10.752 21.264 11.352 20.664 11.352 19.944V13.872C11.352 13.152 10.776 12.552 10.032 12.552ZM9.672 19.608H4.32V14.256H9.672V19.608ZM19.968 12.552H13.872C13.152 12.552 12.552 13.152 12.552 13.872V19.944C12.552 20.664 13.152 21.264 13.872 21.264H19.944C20.664 21.264 21.264 20.664 21.264 19.944V13.872C21.288 13.152 20.688 12.552 19.968 12.552ZM19.608 19.608H14.232V14.256H19.584V19.608H19.608Z" fill="#020303"/>
</svg>
