<svg width="24" height="24" viewBox="0 0 24 24" fill="none" xmlns="http://www.w3.org/2000/svg">
<path d="M23 6.3894V8.08609C23 8.30861 22.7497 8.4755 22.4437 8.4755H2.55629C2.25033 8.4755 2 8.30861 2 8.08609V6.3894C2 6.16689 2.25033 6 2.55629 6H22.4437C22.7497 6 23 6.16689 23 6.3894ZM22.4437 10.8954H2.55629C2.25033 10.8954 2 11.0623 2 11.2848V12.9815C2 13.204 2.25033 13.3709 2.55629 13.3709H22.4437C22.7497 13.3709 23 13.204 23 12.9815V11.2848C23 11.0901 22.7497 10.8954 22.4437 10.8954ZM22.4437 15.8185H2.55629C2.25033 15.8185 2 15.9854 2 16.2079V17.9046C2 18.1272 2.25033 18.294 2.55629 18.294H22.4437C22.7497 18.294 23 18.1272 23 17.9046V16.2079C23 15.9854 22.7497 15.8185 22.4437 15.8185Z" fill="#020303"/>
</svg>
