<svg width="24" height="24" viewBox="0 0 24 24" fill="none" xmlns="http://www.w3.org/2000/svg">
<path d="M18.6811 17.1798C19.1063 17.6045 19.1063 18.2719 18.6811 18.6966C18.4685 18.909 18.1952 19 17.9219 19C17.6486 19 17.3753 18.909 17.1627 18.6966L12 13.5092L6.83731 18.6663C6.62473 18.8787 6.35141 18.9697 6.07809 18.9697C5.80477 18.9697 5.53145 18.8787 5.31887 18.6663C4.89371 18.2416 4.89371 17.5742 5.31887 17.1495L10.5119 11.9924L5.31887 6.83532C4.89371 6.41062 4.89371 5.74323 5.31887 5.31853C5.74403 4.92416 6.41215 4.92416 6.83731 5.31853L12 10.506L17.1931 5.31853C17.6182 4.89382 18.2863 4.89382 18.6811 5.31853C19.1063 5.74323 19.1063 6.41062 18.6811 6.83532L13.5184 11.9924L18.6811 17.1798Z" fill="#020303"/>
</svg>
