<svg width="25" height="24" viewBox="0 0 25 24" fill="none" xmlns="http://www.w3.org/2000/svg">
<path d="M21.0618 5.26854L17.4453 2.2827C17.1851 2.06751 16.8469 1.95991 16.5346 2.01371C16.1964 2.04061 15.9102 2.22891 15.7021 2.4979L5.60712 15.6786L5.00871 20.3591C4.95667 20.8702 5.1388 21.3544 5.52907 21.6772C5.78925 21.8924 6.07544 22 6.38766 22C6.54376 22 6.72589 21.9731 6.882 21.9193L11.1489 20.2784L21.2439 7.09771C21.6862 6.50592 21.5821 5.69893 21.0618 5.26854ZM7.16819 17.8037L8.80732 19.1487L6.90802 19.8749L7.16819 17.8037ZM10.0562 18.6645L9.95211 18.7183L7.3243 16.5394V16.4318L16.7428 4.13877L19.4747 6.37142L10.0562 18.6645ZM16.3785 8.11988L10.4725 15.84C10.3684 15.9745 10.2123 16.0552 10.0562 16.0552C9.95211 16.0552 9.82202 16.0283 9.74397 15.9476C9.50981 15.7593 9.48379 15.4365 9.66591 15.1944L15.572 7.4743C15.7541 7.2322 16.0663 7.2053 16.3005 7.3936C16.5346 7.5281 16.5607 7.87779 16.3785 8.11988Z" fill="#020303"/>
</svg>
