<svg width="24" height="24" viewBox="0 0 24 24" fill="none" xmlns="http://www.w3.org/2000/svg">
<path d="M13.4566 20.0434C13.4566 20.5627 13.0193 21 12.5 21C12.2267 21 12.008 20.8907 11.8167 20.7267C11.6527 20.5627 11.5434 20.3167 11.5434 20.0434V13.4566H4.95659C4.68328 13.4566 4.46463 13.3473 4.27331 13.1833C4.10932 13.0193 4 12.7733 4 12.5C4 11.9807 4.4373 11.5434 4.95659 11.5434H11.5434V4.95659C11.5434 4.4373 11.9807 4 12.5 4C13.0193 4 13.4566 4.4373 13.4566 4.95659V11.5434H20.0434C20.5627 11.5434 21 11.9807 21 12.5C21 13.0193 20.5627 13.4566 20.0434 13.4566H13.4566V20.0434Z" fill="#020303"/>
</svg>
