<svg width="24" height="24" viewBox="0 0 24 24" fill="none" xmlns="http://www.w3.org/2000/svg">
<path d="M19.248 20.832H4.91999C4.05599 20.832 3.35999 20.136 3.35999 19.272V4.92C3.35999 4.056 4.05599 3.36 4.91999 3.36H19.272C20.136 3.36 20.832 4.056 20.832 4.92V19.272C20.808 20.136 20.112 20.832 19.248 20.832ZM5.03999 19.152H19.152V5.04H5.03999V19.152Z" fill="#020303"/>
<path d="M10.9763 16.5193L7.31947 13.0663C6.93722 12.7096 6.88624 12.098 7.23027 11.7157C7.58703 11.308 8.21138 11.2825 8.60638 11.652L10.9763 13.8818L15.2703 8.39014C15.5888 7.9824 16.1877 7.86773 16.6082 8.17353C17.0414 8.49207 17.1306 9.10367 16.7993 9.53689L11.3713 16.4938C11.2566 16.6085 11.0783 16.6213 10.9763 16.5193Z" fill="#020303"/>
</svg>
