<svg width="24" height="24" viewBox="0 0 24 24" fill="none" xmlns="http://www.w3.org/2000/svg">
<path d="M2.58394 5.94161H3.72263C4.0146 7.51825 5.38686 8.71533 7.0219 8.71533C8.65693 8.71533 10.0584 7.51825 10.3212 5.94161H21.4161C21.7372 5.94161 22 5.67883 22 5.35766C22 5.0365 21.7372 4.77372 21.4161 4.77372H10.3212C10.0584 3.19708 8.68613 2 7.0219 2C5.35766 2 4.0146 3.19708 3.72263 4.77372H2.58394C2.26277 4.77372 2 5.0365 2 5.35766C2 5.67883 2.26277 5.94161 2.58394 5.94161ZM7.0219 4.0438C7.75182 4.0438 8.33577 4.62774 8.33577 5.35766C8.33577 6.08759 7.75182 6.67153 7.0219 6.67153C6.29197 6.67153 5.70803 6.08759 5.70803 5.35766C5.70803 4.62774 6.29197 4.0438 7.0219 4.0438ZM21.4161 11.2263H20.6277C20.3358 9.64964 18.9635 8.45256 17.3285 8.45256C15.6642 8.45256 14.292 9.64964 14.0292 11.2263H2.58394C2.26277 11.2263 2 11.4891 2 11.8102C2 12.1314 2.26277 12.3942 2.58394 12.3942H14C14.292 13.9708 15.6642 15.1679 17.2993 15.1679C18.9343 15.1679 20.3358 13.9708 20.5985 12.3942H21.3869C21.708 12.3942 21.9708 12.1314 21.9708 11.8102C21.9708 11.4891 21.7372 11.2263 21.4161 11.2263ZM17.3285 13.1241C16.5985 13.1241 16.0146 12.5401 16.0146 11.8102C16.0146 11.0803 16.5985 10.4964 17.3285 10.4964C18.0584 10.4964 18.6423 11.0803 18.6423 11.8102C18.6423 12.5401 18.0584 13.1241 17.3285 13.1241ZM21.4161 17.6788H12.6861C12.3942 16.1022 11.0219 14.9051 9.38686 14.9051C7.75182 14.9051 6.35036 16.1022 6.08759 17.6788H2.58394C2.26277 17.6788 2 17.9416 2 18.2628C2 18.5839 2.26277 18.8467 2.58394 18.8467H6.05839C6.35036 20.4234 7.72263 21.6204 9.35766 21.6204C11.0219 21.6204 12.3942 20.4234 12.6569 18.8467H21.3869C21.708 18.8467 21.9708 18.5839 21.9708 18.2628C21.9708 17.9416 21.7372 17.6788 21.4161 17.6788ZM9.35766 19.5766C8.62774 19.5766 8.0438 18.9927 8.0438 18.2628C8.0438 17.5328 8.62774 16.9489 9.35766 16.9489C10.0876 16.9489 10.6715 17.5328 10.6715 18.2628C10.7007 18.9927 10.0876 19.5766 9.35766 19.5766Z" fill="black"/>
</svg>
