<svg width="24" height="24" viewBox="0 0 24 24" fill="none" xmlns="http://www.w3.org/2000/svg">
<path d="M21.744 4.68H15.888V2.64C15.888 2.112 15.456 1.68 14.928 1.68H9.09601C8.56801 1.68 8.13601 2.112 8.13601 2.64V4.68H2.28C1.824 4.68 1.44 5.064 1.44 5.52C1.44 5.976 1.824 6.36 2.28 6.36H3.88799L4.464 19.008C4.536 20.736 5.976 22.104 7.704 22.104H16.344C18.072 22.104 19.512 20.736 19.584 19.008L20.16 6.36H21.768C22.224 6.36 22.608 5.976 22.608 5.52C22.608 5.064 22.2 4.68 21.744 4.68ZM9.09601 2.64H14.928V4.68H9.09601V2.64ZM17.88 18.9361C17.832 19.7761 17.16 20.424 16.32 20.424H7.68C6.84 20.424 6.168 19.7761 6.12 18.9361L5.544 6.38402H18.456L17.88 18.9361ZM11.52 17.8561V9.21609C11.52 8.95209 11.736 8.73609 12 8.73609C12.264 8.73609 12.48 8.95209 12.48 9.21609V17.8561C12.48 18.1201 12.264 18.3361 12 18.3361C11.736 18.3361 11.52 18.1201 11.52 17.8561ZM8.92799 17.904L8.20799 9.26402C8.18399 9.00002 8.376 8.76009 8.64 8.73609C8.904 8.71209 9.14399 8.90405 9.16799 9.16805L9.88799 17.808C9.91199 18.072 9.72001 18.3121 9.45601 18.3361C9.43201 18.3361 9.43199 18.3361 9.40799 18.3361C9.16799 18.3361 8.95199 18.144 8.92799 17.904ZM14.376 17.8321L15.096 9.19207C15.12 8.92807 15.36 8.736 15.624 8.76C15.888 8.784 16.08 9.02405 16.056 9.28805L15.336 17.928C15.312 18.168 15.096 18.36 14.856 18.36C14.832 18.36 14.832 18.36 14.808 18.36C14.544 18.312 14.352 18.0961 14.376 17.8321Z" fill="#020303"/>
</svg>
