<svg width="24" height="24" viewBox="0 0 24 24" fill="none" xmlns="http://www.w3.org/2000/svg">
<path d="M18.3359 9.60599C18.3359 8.50199 17.5919 7.58997 16.5839 7.30197V4.03806C16.5839 3.55806 16.3439 3.12597 15.9359 2.86197C15.5279 2.59797 15.0479 2.57399 14.5919 2.76599L7.12793 6.07806H2.47192C1.89592 6.07806 1.43994 6.53402 1.43994 7.11002V12.054C1.43994 12.63 1.89592 13.086 2.47192 13.086H4.15192L2.32793 17.286C2.01593 18.006 2.18394 18.87 2.78394 19.422L4.03192 20.574C4.43992 20.958 4.96792 21.15 5.49592 21.15C5.75992 21.15 6.02393 21.102 6.28793 21.006C7.05593 20.694 7.58392 19.9981 7.63192 19.1581L8.03994 13.494L13.9199 16.11C14.1599 16.206 14.4239 16.2781 14.6879 16.2781C15.0479 16.2781 15.3839 16.182 15.6959 15.966C16.2239 15.63 16.5359 15.03 16.5359 14.406V11.9581C17.5919 11.6221 18.3359 10.686 18.3359 9.60599ZM5.66394 11.3581V7.73404H6.83994V11.3581H5.66394ZM3.14394 7.73404H4.70394V11.3581H3.14394V7.73404ZM5.99994 18.966C5.97594 19.23 5.78392 19.35 5.71192 19.374C5.63992 19.398 5.42393 19.4701 5.20793 19.2781L3.95994 18.126C3.88794 18.078 3.88792 17.982 3.91192 17.91L6.02394 13.0381H6.43192L5.99994 18.966ZM14.9039 14.334C14.9039 14.406 14.8559 14.4541 14.8079 14.4781C14.7599 14.5021 14.7119 14.526 14.6399 14.502L7.79994 11.4781V7.59002L14.9039 4.44599V14.334ZM16.5839 10.8781V8.31002C17.0639 8.55002 17.3759 9.02997 17.3759 9.58197C17.3759 10.158 17.0639 10.6381 16.5839 10.8781ZM18.1199 6.72599C17.9279 6.53399 17.9279 6.24604 18.1199 6.05404L20.4239 3.75002C20.6159 3.55801 20.9039 3.55801 21.0959 3.75002C21.2879 3.94202 21.2879 4.22997 21.0959 4.42197L18.7919 6.72599C18.6959 6.82199 18.5759 6.87002 18.4559 6.87002C18.3359 6.87002 18.2159 6.82199 18.1199 6.72599ZM21.0959 14.142C21.2879 14.334 21.2879 14.622 21.0959 14.814C20.9999 14.91 20.8799 14.9581 20.7599 14.9581C20.6399 14.9581 20.5199 14.91 20.4239 14.814L18.1199 12.51C17.9279 12.318 17.9279 12.0301 18.1199 11.8381C18.3119 11.6461 18.5999 11.6461 18.7919 11.8381L21.0959 14.142ZM22.5359 9.53404C22.5359 9.79804 22.3199 10.014 22.0559 10.014H19.3439C19.0799 10.014 18.8639 9.79804 18.8639 9.53404C18.8639 9.27004 19.0799 9.05404 19.3439 9.05404H22.0559C22.3199 9.05404 22.5359 9.27004 22.5359 9.53404Z" fill="#020303"/>
</svg>
