<svg width="24" height="24" viewBox="0 0 24 24" fill="none" xmlns="http://www.w3.org/2000/svg">
<path d="M22.296 10.212C22.296 9.85197 22.152 9.51599 21.912 9.27599L14.712 2.07599C14.184 1.54799 13.344 1.54799 12.816 2.07599L2.30398 12.5881C2.03998 12.8521 1.91998 13.188 1.91998 13.524C1.91998 13.884 2.06398 14.22 2.30398 14.46L9.19199 21.3481H7.368C7.104 21.3481 6.888 21.5641 6.888 21.8281C6.888 22.0921 7.104 22.3081 7.368 22.3081H15.96C16.224 22.3081 16.44 22.0921 16.44 21.8281C16.44 21.5641 16.224 21.3481 15.96 21.3481H11.688L21.888 11.1481C22.152 10.9081 22.296 10.572 22.296 10.212ZM13.752 3.49197L14.496 4.23599L4.46398 14.2681L3.71998 13.524L13.752 3.49197ZM10.44 20.244L6.888 16.692L7.31998 16.26C7.51198 16.068 7.51198 15.7801 7.31998 15.5881C7.12798 15.3961 6.84 15.3961 6.648 15.5881L6.21599 16.02L5.15998 14.964L15.192 4.93197L16.248 5.98806L8.088 14.1481C7.896 14.3401 7.896 14.628 8.088 14.82C8.184 14.916 8.30398 14.964 8.42398 14.964C8.54398 14.964 8.66398 14.916 8.75998 14.82L16.92 6.66002L20.472 10.212L10.44 20.244ZM12.408 14.604L9.74398 17.2681C9.64798 17.3641 9.528 17.412 9.408 17.412C9.288 17.412 9.16799 17.3641 9.07199 17.2681C8.87999 17.0761 8.87999 16.788 9.07199 16.596L11.736 13.932C11.928 13.74 12.216 13.74 12.408 13.932C12.6 14.124 12.6 14.412 12.408 14.604ZM12.504 16.092C12.696 16.284 12.696 16.572 12.504 16.764L10.872 18.396C10.776 18.492 10.656 18.54 10.536 18.54C10.416 18.54 10.296 18.492 10.2 18.396C10.008 18.204 10.008 17.916 10.2 17.724L11.832 16.092C12.024 15.9 12.312 15.9 12.504 16.092ZM16.728 8.34002L14.88 10.1881C14.76 10.3081 14.712 10.452 14.712 10.62C14.712 10.788 14.784 10.932 14.88 11.052L16.128 12.3C16.248 12.42 16.392 12.4681 16.56 12.4681C16.728 12.4681 16.872 12.396 16.992 12.3L18.84 10.452C18.96 10.332 19.008 10.188 19.008 10.02C19.008 9.85202 18.936 9.70806 18.84 9.58806L17.592 8.34002C17.352 8.10002 16.968 8.10002 16.728 8.34002ZM17.904 10.02L16.56 11.364L15.816 10.62L17.16 9.27599L17.904 10.02Z" fill="#020303"/>
</svg>
