<svg width="24" height="24" viewBox="0 0 24 24" fill="none" xmlns="http://www.w3.org/2000/svg">
<path fill-rule="evenodd" clip-rule="evenodd" d="M10.44 12.768C9.1759 12.768 8.15998 13.7839 8.15998 15.048V20.256H15.648V15.048C15.648 13.7839 14.6321 12.768 13.368 12.768H10.44ZM6.47998 15.048C6.47998 12.8561 8.24806 11.088 10.44 11.088H13.368C15.5599 11.088 17.328 12.8561 17.328 15.048V21.936H6.47998V15.048Z" fill="#020303"/>
<path fill-rule="evenodd" clip-rule="evenodd" d="M6.47998 1.91998H17.328V8.80798C17.328 10.9999 15.5599 12.768 13.368 12.768H10.44C8.24806 12.768 6.47998 10.9999 6.47998 8.80798V1.91998ZM8.15998 3.59998V8.80798C8.15998 10.0721 9.1759 11.088 10.44 11.088H13.368C14.6321 11.088 15.648 10.0721 15.648 8.80798V3.59998H8.15998Z" fill="#020303"/>
</svg>
