<svg width="24" height="24" viewBox="0 0 24 24" fill="none" xmlns="http://www.w3.org/2000/svg">
<path d="M4.31998 9.144H9.11998V4.344H4.31998V9.144ZM5.27998 5.304H8.15998V8.184H5.27998V5.304ZM18 4.53596L17.688 3.384L16.632 3.91199C16.104 4.17599 15.504 4.31998 14.904 4.31998C12.768 4.31998 11.064 2.59198 11.064 0.47998H3.35998C1.77598 0.47998 0.47998 1.77598 0.47998 3.35998V11.064V23.568H23.568V11.064V9.11998C20.904 8.92798 18.672 7.07996 18 4.53596ZM15.864 6.19199C16.08 6.16799 16.296 6.11997 16.488 6.04797C16.824 6.83997 17.256 7.56 17.808 8.184H15.864V6.19199ZM2.39998 3.384C2.39998 2.856 2.83198 2.424 3.35998 2.424H9.45599C9.79199 3.336 10.344 4.15198 11.04 4.79998V11.088H2.37599V3.384H2.39998ZM2.39998 21.648V12.984H11.064V21.648H2.39998ZM21.624 21.648H12.96V12.984H21.624V21.648ZM21.624 11.088H12.96V5.95199C13.56 6.16799 14.208 6.28797 14.88 6.28797V9.16797H15.84H18.744C19.584 9.86397 20.544 10.416 21.6 10.728V11.088H21.624ZM4.31998 19.728H9.11998V14.928H4.31998V19.728ZM5.27998 15.888H8.15998V18.768H5.27998V15.888ZM19.704 14.928H14.904V19.728H19.704V14.928ZM18.744 18.768H15.864V15.888H18.744V18.768Z" fill="#020303"/>
</svg>
