<svg width="24" height="24" viewBox="0 0 24 24" fill="none" xmlns="http://www.w3.org/2000/svg">
<path d="M22.752 6.95998C22.752 6.95998 21.912 6.69603 21.312 5.92803C21 5.49603 20.64 5.01599 20.28 4.51199C18.84 2.42399 17.472 0.47998 15.864 0.47998C14.256 0.47998 13.512 1.05603 12.936 1.48803C12.576 1.75203 12.432 1.87199 12.144 1.87199C11.856 1.87199 11.712 1.75203 11.352 1.48803C10.8 1.05603 10.032 0.47998 8.42403 0.47998C6.81602 0.47998 5.44802 2.44799 4.00802 4.51199C3.64802 5.03999 3.31201 5.52003 2.97601 5.92803C2.37601 6.72003 1.53601 6.95998 1.53601 6.95998L0.720001 7.19998L0.960001 8.01602C1.008 8.18402 2.16001 12.048 6.19201 14.112V17.664V17.76C6.43201 19.728 7.99201 23.448 12.096 23.448C16.2 23.448 17.736 19.728 18 17.76V14.088C22.032 12.024 23.184 8.15999 23.232 7.99199L23.472 7.17602L22.752 6.95998ZM6.67201 8.68803C6.88801 8.56803 7.15201 8.40002 7.39201 8.13602C7.58401 7.92002 7.77602 7.70398 7.96802 7.43998C8.47202 6.83998 9.21603 5.904 9.62403 5.904C10.224 5.904 10.608 6.07198 10.992 6.23998C11.304 6.38398 11.64 6.52803 12.048 6.52803C12.456 6.52803 12.816 6.38398 13.2 6.23998C13.656 6.07198 14.112 5.87998 14.736 5.87998C15.144 5.87998 15.888 6.79202 16.392 7.41602C16.584 7.65602 16.776 7.89599 16.968 8.11199C17.208 8.37599 17.472 8.544 17.688 8.664C17.616 8.76 17.544 8.88 17.448 9.024C15.312 7.728 13.104 8.49603 12.168 8.92803C11.232 8.49603 9.02402 7.704 6.88802 9.024C6.81602 8.928 6.74401 8.80803 6.67201 8.68803ZM16.416 17.592C16.344 18.072 15.672 21.768 12.192 21.768C10.68 21.768 9.52801 21.096 8.73601 19.752C8.18401 18.792 7.99202 17.808 7.94403 17.592V10.392C9.28802 9.69599 10.68 10.128 11.328 10.44V17.352C11.328 17.808 11.712 18.192 12.168 18.192C12.624 18.192 13.008 17.808 13.008 17.352V10.44C13.656 10.152 15.048 9.69599 16.392 10.392V17.592H16.416ZM18.096 12.144V9.81602C18.6 9.16802 18.792 8.63999 18.816 8.59199L18.984 8.11199L18.48 7.99199C18.48 7.99199 18.024 7.87199 17.712 7.51199C17.544 7.31999 17.352 7.104 17.16 6.864C16.392 5.952 15.624 4.99199 14.76 4.99199C13.968 4.99199 13.344 5.232 12.864 5.424C12.552 5.544 12.288 5.63998 12.072 5.63998C11.856 5.63998 11.664 5.544 11.4 5.424C10.992 5.232 10.464 4.99199 9.64802 4.99199C8.78402 4.99199 8.01602 5.952 7.24802 6.864C7.05602 7.104 6.86401 7.31999 6.69601 7.51199C6.38401 7.87199 5.92802 7.99199 5.92802 7.99199L5.42403 8.11199L5.59201 8.61602C5.59201 8.64002 5.78401 9.19198 6.31201 9.83998V12.168C4.39201 10.896 3.38401 9.16803 2.95201 8.20803C3.40801 7.94403 3.93601 7.56002 4.41601 6.93602C4.75201 6.48002 5.11201 5.97603 5.47201 5.44803C6.28801 4.29603 7.77601 2.13602 8.49601 2.13602C9.52801 2.13602 9.93601 2.44803 10.392 2.80803C10.824 3.12003 11.328 3.52803 12.192 3.52803C13.056 3.52803 13.584 3.12003 13.992 2.80803C14.448 2.44803 14.856 2.13602 15.888 2.13602C16.608 2.13602 18.12 4.29603 18.912 5.44803C19.272 5.97603 19.632 6.48002 19.968 6.93602C20.448 7.56002 21 7.94403 21.432 8.20803C21.024 9.14403 20.04 10.872 18.096 12.144Z" fill="#020303"/>
</svg>
