<svg width="24" height="24" viewBox="0 0 24 24" fill="none" xmlns="http://www.w3.org/2000/svg">
<path d="M20.112 2.88H3.96C3.36 2.88 2.88 3.36 2.88 3.96001V20.112C2.88 20.712 3.36 21.192 3.96 21.192H20.112C20.712 21.192 21.192 20.712 21.192 20.112V3.96001C21.192 3.36 20.712 2.88 20.112 2.88ZM19.512 4.56001V7.12801H4.56V4.56001H19.512ZM4.56 19.512V8.08801H19.512V19.512H4.56ZM9.048 10.824C9.048 11.088 8.832 11.304 8.568 11.304H5.952C5.688 11.304 5.472 11.088 5.472 10.824C5.472 10.56 5.688 10.344 5.952 10.344H8.568C8.832 10.344 9.048 10.56 9.048 10.824ZM13.824 10.824C13.824 11.088 13.608 11.304 13.344 11.304H10.728C10.464 11.304 10.248 11.088 10.248 10.824C10.248 10.56 10.464 10.344 10.728 10.344H13.344C13.608 10.344 13.824 10.56 13.824 10.824ZM18.576 10.824C18.576 11.088 18.36 11.304 18.096 11.304H15.504C15.24 11.304 15.024 11.088 15.024 10.824C15.024 10.56 15.24 10.344 15.504 10.344H18.12C18.36 10.344 18.576 10.56 18.576 10.824ZM9.048 14.04C9.048 14.304 8.832 14.52 8.568 14.52H5.952C5.688 14.52 5.472 14.304 5.472 14.04C5.472 13.776 5.688 13.56 5.952 13.56H8.568C8.832 13.56 9.048 13.776 9.048 14.04ZM13.824 14.04C13.824 14.304 13.608 14.52 13.344 14.52H10.728C10.464 14.52 10.248 14.304 10.248 14.04C10.248 13.776 10.464 13.56 10.728 13.56H13.344C13.608 13.56 13.824 13.776 13.824 14.04ZM18.576 14.04C18.576 14.304 18.36 14.52 18.096 14.52H15.504C15.24 14.52 15.024 14.304 15.024 14.04C15.024 13.776 15.24 13.56 15.504 13.56H18.12C18.36 13.56 18.576 13.776 18.576 14.04ZM9.048 17.232C9.048 17.496 8.832 17.712 8.568 17.712H5.952C5.688 17.712 5.472 17.496 5.472 17.232C5.472 16.968 5.688 16.752 5.952 16.752H8.568C8.832 16.752 9.048 16.968 9.048 17.232ZM13.824 17.232C13.824 17.496 13.608 17.712 13.344 17.712H10.728C10.464 17.712 10.248 17.496 10.248 17.232C10.248 16.968 10.464 16.752 10.728 16.752H13.344C13.608 16.752 13.824 16.968 13.824 17.232ZM18.576 17.232C18.576 17.496 18.36 17.712 18.096 17.712H15.504C15.24 17.712 15.024 17.496 15.024 17.232C15.024 16.968 15.24 16.752 15.504 16.752H18.12C18.36 16.752 18.576 16.968 18.576 17.232Z" fill="#020303"/>
</svg>
