<svg width="24" height="24" viewBox="0 0 24 24" fill="none" xmlns="http://www.w3.org/2000/svg">
<path d="M10.368 10.416L10.08 8.66398L11.352 7.43998C11.52 7.27198 11.568 7.03198 11.496 6.81598C11.424 6.59998 11.232 6.43198 11.016 6.40798L9.264 6.14398L8.472 4.55998C8.352 4.36798 8.16 4.24798 7.92 4.24798C7.68 4.24798 7.488 4.36798 7.39199 4.58398L6.6 6.16798L4.848 6.43198C4.632 6.45598 4.44 6.62398 4.368 6.83998C4.29599 7.05598 4.344 7.29598 4.512 7.46398L5.784 8.68798L5.496 10.44C5.448 10.656 5.544 10.896 5.736 11.016C5.928 11.16 6.168 11.16 6.36 11.064L7.92 10.248L9.48 11.064C9.576 11.112 9.672 11.136 9.768 11.136C9.888 11.136 10.008 11.088 10.128 11.016C10.296 10.872 10.392 10.656 10.368 10.416ZM9.264 8.11198C9.12 8.25598 9.048 8.44798 9.096 8.63998L9.312 9.83998L8.232 9.26398C8.064 9.16798 7.848 9.16798 7.68 9.26398L6.6 9.83998L6.816 8.63998C6.84 8.44798 6.792 8.25598 6.648 8.11198L5.76 7.24798L6.984 7.07998C7.176 7.05598 7.344 6.93598 7.44 6.74398L7.992 5.63998L8.544 6.74398C8.64 6.91198 8.808 7.03198 9 7.07998L10.224 7.24798L9.264 8.11198ZM19.656 14.424L17.304 14.088L16.248 11.952C16.08 11.616 15.72 11.4 15.336 11.4C14.952 11.4 14.592 11.616 14.424 11.952L13.368 14.088L11.04 14.424C10.656 14.472 10.344 14.736 10.224 15.12C10.104 15.48 10.2 15.888 10.488 16.152L12.192 17.808L11.784 20.16C11.712 20.544 11.88 20.928 12.192 21.144C12.504 21.36 12.912 21.408 13.248 21.216L15.36 20.112L17.472 21.216C17.616 21.288 17.784 21.336 17.952 21.336C18.168 21.336 18.36 21.264 18.552 21.144C18.864 20.928 19.008 20.544 18.96 20.16L18.552 17.808L20.256 16.152C20.544 15.888 20.64 15.48 20.52 15.12C20.352 14.76 20.04 14.496 19.656 14.424ZM17.088 16.848C16.848 17.088 16.752 17.424 16.8 17.736L17.04 19.08L15.84 18.432C15.696 18.36 15.528 18.312 15.36 18.312C15.192 18.312 15.048 18.36 14.88 18.432L13.68 19.08L13.92 17.736C13.968 17.4 13.872 17.064 13.632 16.848L12.648 15.888L13.992 15.696C14.328 15.648 14.592 15.432 14.76 15.144L15.36 13.92L15.96 15.144C16.104 15.432 16.392 15.648 16.728 15.696L18.072 15.888L17.088 16.848ZM6.936 14.736L4.464 15.288C4.44 15.288 4.392 15.288 4.368 15.288C4.152 15.288 3.96 15.144 3.888 14.904C3.84 14.664 3.98399 14.4 4.248 14.352L6.72 13.8C6.984 13.752 7.224 13.92 7.296 14.16C7.344 14.424 7.2 14.688 6.936 14.736ZM12.84 9.38398L14.064 7.43998C14.208 7.22398 14.496 7.15198 14.736 7.29598C14.952 7.43998 15.024 7.72798 14.88 7.96798L13.656 9.91198C13.56 10.056 13.416 10.128 13.248 10.128C13.152 10.128 13.08 10.104 12.984 10.056C12.768 9.88798 12.696 9.59998 12.84 9.38398ZM9.984 18.768C10.128 18.984 10.056 19.296 9.84 19.44L6.624 21.432C6.552 21.48 6.456 21.504 6.36 21.504C6.192 21.504 6.048 21.432 5.952 21.288C5.808 21.072 5.88 20.76 6.096 20.616L9.312 18.624C9.552 18.48 9.84 18.552 9.984 18.768ZM11.568 11.592C11.784 11.424 12.072 11.472 12.24 11.688L12.648 12.24C12.816 12.456 12.768 12.744 12.552 12.912C12.456 12.984 12.36 13.008 12.264 13.008C12.12 13.008 11.976 12.936 11.88 12.816L11.472 12.264C11.304 12.048 11.352 11.736 11.568 11.592ZM20.424 9.16798L20.28 9.21598L20.328 9.35998C20.4 9.62398 20.256 9.88798 20.016 9.95998C19.968 9.98398 19.92 9.98398 19.872 9.98398C19.656 9.98398 19.488 9.83998 19.416 9.64798L19.368 9.50398L19.224 9.55198C19.176 9.57598 19.128 9.57598 19.08 9.57598C18.864 9.57598 18.696 9.43198 18.624 9.23998C18.552 8.97598 18.696 8.71198 18.936 8.63998L19.08 8.59198L19.032 8.44798C18.96 8.18398 19.104 7.91998 19.344 7.84798C19.608 7.77598 19.872 7.91998 19.944 8.15998L19.992 8.30398L20.136 8.25598C20.4 8.18398 20.664 8.32798 20.736 8.56798C20.832 8.80798 20.688 9.07198 20.424 9.16798ZM3.888 4.31998L3.74399 4.36798C3.69599 4.39198 3.64799 4.39198 3.59999 4.39198C3.38399 4.39198 3.21599 4.24798 3.14399 4.05598C3.07199 3.79198 3.21599 3.52798 3.45599 3.45598L3.59999 3.40798L3.55199 3.26398C3.47999 2.99998 3.62399 2.73598 3.888 2.66398C4.152 2.59198 4.416 2.73598 4.488 2.97598L4.536 3.11998L4.68 3.07198C4.92 2.99998 5.208 3.14398 5.28 3.40798C5.352 3.67198 5.208 3.91198 4.968 4.00798L4.8 4.05598L4.848 4.19998C4.944 4.43998 4.8 4.72798 4.536 4.79998C4.488 4.79998 4.44 4.82398 4.392 4.82398C4.176 4.82398 4.008 4.67998 3.936 4.48798L3.888 4.31998ZM5.88 18.36L5.736 18.408C5.688 18.432 5.64 18.432 5.592 18.432C5.376 18.432 5.208 18.288 5.136 18.096C5.064 17.832 5.208 17.568 5.448 17.496L5.592 17.448L5.544 17.28C5.472 17.016 5.616 16.752 5.856 16.68C6.12 16.608 6.384 16.752 6.456 16.992L6.504 17.136L6.648 17.088C6.912 17.016 7.176 17.16 7.248 17.4C7.32 17.64 7.2 17.952 6.96 18.024L6.816 18.072L6.864 18.216C6.936 18.48 6.792 18.744 6.552 18.816C6.504 18.84 6.456 18.84 6.408 18.84C6.192 18.84 6.024 18.696 5.952 18.504L5.88 18.36Z" fill="#020303"/>
</svg>
