<svg width="24" height="24" viewBox="0 0 24 24" fill="none" xmlns="http://www.w3.org/2000/svg">
<path d="M21.096 6.95999H17.568V5.39999C17.568 4.27199 16.656 3.35999 15.528 3.35999H7.48798C6.35998 3.35999 5.44798 4.27199 5.44798 5.39999V6.95999H2.75999C2.15999 6.95999 1.67999 7.43999 1.67999 8.03999V19.44C1.67999 20.04 2.15999 20.52 2.75999 20.52H21.096C21.696 20.52 22.176 20.04 22.176 19.44V8.03999C22.176 7.43999 21.696 6.95999 21.096 6.95999ZM7.12798 5.39999C7.12798 5.20799 7.29598 5.03999 7.48798 5.03999H15.528C15.72 5.03999 15.888 5.20799 15.888 5.39999V6.95999H7.12798V5.39999ZM20.496 18.8639H3.35999V8.66395H20.496V18.8639ZM11.976 9.47999C9.672 9.47999 7.776 11.352 7.776 13.68C7.776 16.008 9.648 17.88 11.976 17.88C14.304 17.88 16.176 16.008 16.176 13.68C16.176 11.352 14.304 9.47999 11.976 9.47999ZM11.976 16.896C10.2 16.896 8.736 15.456 8.736 13.656C8.736 11.88 10.176 10.416 11.976 10.416C13.776 10.416 15.216 11.856 15.216 13.656C15.216 15.456 13.776 16.896 11.976 16.896ZM7.056 10.368C7.056 10.632 6.84 10.848 6.576 10.848H4.896C4.632 10.848 4.416 10.632 4.416 10.368C4.416 10.104 4.632 9.88797 4.896 9.88797H6.576C6.84 9.88797 7.056 10.104 7.056 10.368Z" fill="#020303"/>
</svg>
