<svg width="24" height="24" viewBox="0 0 24 24" fill="none" xmlns="http://www.w3.org/2000/svg">
<path d="M21.401 14.7837V22.7418C21.401 23.4338 20.8349 24 20.1429 24H4.25819C3.56619 24 3 23.4338 3 22.7418V14.7837C3 14.4377 3.28309 14.1547 3.6291 14.1547C3.9751 14.1547 4.25819 14.4377 4.25819 14.7837V22.7418H20.1429V14.7837C20.1429 14.4377 20.426 14.1547 20.772 14.1547C21.118 14.1547 21.401 14.4377 21.401 14.7837ZM5.48493 8.93316C5.76802 8.93316 6.05111 8.83879 6.2713 8.61861L11.1153 3.77457V15.8847C11.1153 16.4823 11.6186 16.9856 12.2163 16.9856C12.8139 16.9856 13.3172 16.4823 13.3172 15.8847V3.74312L18.1612 8.58716C18.6016 9.02752 19.2936 9.02752 19.7025 8.58716C20.1429 8.14679 20.1429 7.45478 19.7025 7.01442L13.1913 0.534731C13.1599 0.503277 13.097 0.471822 13.0655 0.440367C12.8768 0.188729 12.5623 0 12.2163 0C11.8702 0 11.5242 0.188729 11.3355 0.440367C11.3041 0.471822 11.2412 0.503277 11.2097 0.534731L4.69856 7.04587C4.25819 7.48624 4.25819 8.17824 4.69856 8.61861C4.91874 8.83879 5.20183 8.93316 5.48493 8.93316Z" fill="#020303"/>
</svg>
