<svg width="24" height="24" viewBox="0 0 24 24" fill="none" xmlns="http://www.w3.org/2000/svg">
<path d="M9.66951 6.05005C7.36896 3.93805 3.89416 4.0341 1.68947 6.3381C-0.563155 8.7141 -0.563155 12.5301 1.68947 14.8821L1.88119 15.0741L6.55418 19.97L7.63256 21.0981L8.11185 21.6021C8.97455 22.5141 10.3884 22.5141 11.2511 21.6021L11.6825 21.1461L12.8088 19.9461L17.4578 15.05L17.6495 14.8581C18.7279 13.7301 19.351 12.1941 19.351 10.5861C19.351 8.97814 18.7519 7.44207 17.6495 6.31407C15.4688 4.05807 11.9701 3.96205 9.66951 6.05005ZM16.4274 13.7781L16.2357 13.97L11.5866 18.8661L10.4603 20.0661L10.029 20.5221C9.83726 20.7381 9.52573 20.7381 9.31005 20.5221L8.83077 20.0181L7.75238 18.89L3.07939 13.9941L2.88767 13.8021C1.23415 12.0741 1.23415 9.24205 2.88767 7.49005C4.42137 5.85805 6.88967 5.7861 8.51922 7.2981L9.64555 8.33005L10.7719 7.2981C12.4014 5.8101 14.8457 5.88207 16.4034 7.51407C17.1942 8.35407 17.6495 9.4821 17.6495 10.6581C17.6735 11.8101 17.2182 12.9381 16.4274 13.7781ZM9.59761 15.0741C9.83725 15.3381 9.81329 15.7461 9.54969 15.9621C9.28608 16.2021 8.90264 16.1781 8.663 15.9141L4.44533 11.1381C4.20569 10.8741 4.22967 10.466 4.49328 10.25C4.75688 10.01 5.1403 10.0341 5.37994 10.2981L9.59761 15.0741ZM23.353 2.57005C22.6341 1.85005 21.5078 1.73007 20.669 2.23407C19.8303 1.73007 18.7039 1.82605 17.985 2.57005C17.1223 3.41005 17.1223 4.80212 17.985 5.64212L18.033 5.69005L19.4229 7.0581L19.7344 7.37005L19.7105 7.34614L19.8782 7.51407C20.3095 7.94607 21.0285 7.94607 21.4838 7.51407L21.6036 7.39407L21.9391 7.0581L23.3051 5.69005L23.353 5.64212C23.7604 5.23412 24 4.68214 24 4.10614C24 3.53014 23.7604 2.97805 23.353 2.57005ZM22.4184 4.70614L22.3705 4.75407L21.0045 6.12212L20.693 6.43407L20.3814 6.12212L18.9915 4.75407L18.9436 4.70614C18.6081 4.37014 18.6081 3.81812 18.9436 3.48212C19.2791 3.14612 19.8303 3.14612 20.1658 3.48212L20.2137 3.53005L20.693 4.01005L21.2202 3.48212C21.5557 3.14612 22.1068 3.14612 22.4423 3.48212C22.6101 3.65012 22.706 3.86614 22.706 4.10614C22.658 4.32214 22.5861 4.53814 22.4184 4.70614Z" fill="#020303"/>
</svg>
