<svg width="24" height="24" viewBox="0 0 24 24" fill="none" xmlns="http://www.w3.org/2000/svg">
<path d="M10.1348 6.42857C10.2299 6.67347 10.1348 6.96735 9.87321 7.06531C8.18478 7.8 7.09087 9.4898 7.09087 11.3755C7.09087 11.6449 6.87685 11.8653 6.61526 11.8653C6.35367 11.8653 6.13965 11.6449 6.13965 11.3755C6.13965 9.09796 7.44758 7.04082 9.49272 6.15918C9.7543 6.06122 10.0159 6.18367 10.1348 6.42857ZM20.4556 20.7551C20.2891 20.9265 20.0751 21 19.8611 21C19.647 21 19.433 20.9265 19.2666 20.7551L16.6031 18.0367C15.2238 19.1388 13.5116 19.7755 11.633 19.7755C7.16222 19.7755 3.5 16.0041 3.5 11.3755C3.5 6.77143 7.16222 3 11.633 3C16.1037 3 19.7659 6.77143 19.7659 11.3755C19.7659 13.4571 19.0287 15.3673 17.7922 16.8367L20.408 19.5306C20.7647 19.8735 20.7647 20.4367 20.4556 20.7551ZM11.633 18.0612C15.2001 18.0612 18.1013 15.0735 18.1013 11.4C18.1251 7.70204 15.2238 4.71429 11.633 4.71429C8.0421 4.71429 5.16464 7.70204 5.16464 11.3755C5.16464 15.0735 8.06588 18.0612 11.633 18.0612Z" fill="#020303"/>
</svg>
