<svg width="25" height="24" viewBox="0 0 25 24" fill="none" xmlns="http://www.w3.org/2000/svg">
<path d="M13.4978 6.79921C13.4978 7.06163 13.2818 7.27634 13.0178 7.27634C10.7618 7.27634 8.91377 9.30418 8.91377 11.8091C8.91377 12.0716 8.69777 12.2863 8.43377 12.2863C8.16977 12.2863 7.95377 12.0716 7.95377 11.8091C7.95377 8.77933 10.2338 6.32207 13.0178 6.32207C13.2818 6.32207 13.4978 6.53678 13.4978 6.79921ZM23.0738 18.2266C23.0738 19.7057 21.8737 20.8986 20.3857 20.8986H16.5457C16.4737 22.6163 14.9138 24 13.0178 24C11.1218 24 9.56177 22.6163 9.48977 20.8986H5.36176C3.87376 20.8986 2.67377 19.7057 2.67377 18.2266C2.67377 17.1292 3.34577 16.1749 4.32977 15.7694V11.1411C4.32977 6.96619 7.23375 3.45925 11.1457 2.50497C11.1217 2.38569 11.1218 2.2664 11.1218 2.14712C11.1218 0.954275 12.1058 0 13.2818 0C14.4578 0 15.4418 0.978131 15.4418 2.14712C15.4418 2.2664 15.4418 2.38569 15.4178 2.50497C19.3298 3.45925 22.2338 6.96619 22.2338 11.1411V16.2704C22.7378 16.7714 23.0738 17.4632 23.0738 18.2266ZM12.0578 2.3141C12.4418 2.26639 12.8498 2.24252 13.2578 2.24252C13.6658 2.24252 14.0498 2.26639 14.4578 2.3141C14.4578 2.26639 14.4818 2.19481 14.4818 2.12324C14.4818 1.45525 13.9298 0.930394 13.2818 0.930394C12.6338 0.930394 12.0818 1.4791 12.0818 2.12324C12.0578 2.19481 12.0578 2.26639 12.0578 2.3141ZM14.8418 20.8986H11.1457C11.2177 21.7097 12.0098 22.33 12.9938 22.33C13.9778 22.3539 14.7698 21.7097 14.8418 20.8986ZM21.3938 18.2266C21.3938 17.6779 20.9377 17.2246 20.3857 17.2246H17.8657C17.4097 17.2246 17.0257 16.8429 17.0257 16.3897C17.0257 15.9364 17.4097 15.5547 17.8657 15.5547H20.3857C20.4337 15.5547 20.5058 15.5547 20.5538 15.5547V11.1411C20.5538 7.15705 17.2898 3.9125 13.2818 3.9125C9.27376 3.9125 6.00977 7.15705 6.00977 11.1411V15.5547H8.45776C8.91376 15.5547 9.29776 15.9364 9.29776 16.3897C9.29776 16.8429 8.91376 17.2246 8.45776 17.2246H5.38575C4.83375 17.2246 4.37776 17.6779 4.37776 18.2266C4.37776 18.7753 4.83375 19.2286 5.38575 19.2286H20.4098C20.9378 19.2286 21.3938 18.7753 21.3938 18.2266Z" fill="#020303"/>
</svg>
