<svg width="24" height="24" viewBox="0 0 24 24" fill="none" xmlns="http://www.w3.org/2000/svg">
<path d="M15.8839 12.8875L10.4373 16.0958C9.88542 16.4144 9.1896 16.0502 9.1896 15.4359V8.99635C9.1896 8.38198 9.90942 8.01804 10.4373 8.3366L15.8839 11.5449C16.4117 11.8635 16.4117 12.5917 15.8839 12.8875ZM22.8901 12.0456C22.8901 17.7342 18.0433 22.3307 12.0449 22.3307C6.04642 22.3307 1.19968 17.7342 1.19968 12.0456C1.19968 6.35691 6.04642 1.76044 12.0449 1.76044C18.0433 1.76044 22.8901 6.35691 22.8901 12.0456ZM20.7066 12.0456C20.7066 7.51739 16.8196 3.83102 12.0449 3.83102C7.2701 3.83102 3.38311 7.51739 3.38311 12.0456C3.38311 16.5737 7.2701 20.2599 12.0449 20.2599C16.8196 20.2599 20.7066 16.5737 20.7066 12.0456Z" fill="#020303"/>
</svg>
