<svg width="24" height="24" viewBox="0 0 24 24" fill="none" xmlns="http://www.w3.org/2000/svg">
<path d="M5.85688 21.6632C6.17253 21.8797 6.56103 22 6.92525 22C7.21662 22 7.50799 21.9278 7.77508 21.7835L11.9272 19.6189C11.9757 19.5948 12.0243 19.5948 12.0486 19.6189L16.2006 21.7835C16.8077 22.0961 17.5604 22.0481 18.1188 21.6392C18.6773 21.2304 18.9687 20.5569 18.8473 19.8835L18.046 15.3139C18.0217 15.2898 18.046 15.2417 18.0703 15.2177L21.4454 11.9949C21.9553 11.5139 22.1252 10.7923 21.9067 10.143C21.6882 9.4936 21.1054 9.01256 20.4255 8.91636L15.7879 8.24299C15.7393 8.21894 15.715 8.19494 15.6907 8.17089L13.6268 4.01006C13.3355 3.38474 12.7042 3 12 3C11.2958 3 10.6888 3.38474 10.3732 4.01006L8.30927 8.17089C8.28499 8.21899 8.26071 8.24299 8.21214 8.24299L3.57445 8.91636C2.8703 9.01256 2.31183 9.4936 2.0933 10.143C1.87477 10.7923 2.04474 11.5139 2.55464 11.9949L5.90544 15.2417C5.92972 15.2658 5.92972 15.2898 5.92972 15.3379L5.12844 19.9075C5.00704 20.581 5.29841 21.2543 5.85688 21.6632Z" fill="#020303"/>
</svg>
