<svg width="24" height="24" viewBox="0 0 24 24" fill="none" xmlns="http://www.w3.org/2000/svg">
<path d="M7.0282 21.36C6.6682 21.36 6.2842 21.2399 5.9722 21.0239C5.4202 20.6159 5.1322 19.9439 5.2522 19.2719L6.0442 14.7119C6.0442 14.6639 6.04419 14.64 6.0202 14.616L2.7082 11.376C2.2042 10.896 2.0362 10.1759 2.2522 9.52792C2.4682 8.87992 3.0202 8.3999 3.7162 8.3039L8.3002 7.63195C8.3482 7.63195 8.3722 7.60799 8.3962 7.55999L10.4362 3.40792C10.7482 2.78392 11.3482 2.39999 12.0442 2.39999C12.7402 2.39999 13.3642 2.78392 13.6522 3.40792L15.6922 7.55999C15.7162 7.58399 15.7402 7.60795 15.7882 7.63195L20.3722 8.3039C21.0442 8.3999 21.6202 8.87992 21.8362 9.52792C22.0522 10.1759 21.8842 10.896 21.3802 11.376L18.0442 14.5919C18.0202 14.6159 17.9962 14.6639 18.0202 14.6879L18.8122 19.2479C18.9322 19.9199 18.6442 20.592 18.0922 21C17.5402 21.408 16.7962 21.4559 16.1962 21.1439L12.0922 18.9839C12.0682 18.9599 12.0202 18.9599 11.9722 18.9839L7.8682 21.1439C7.6042 21.2879 7.3162 21.36 7.0282 21.36ZM12.0202 4.05597C11.9482 4.05597 11.9242 4.10392 11.9242 4.12792L9.8842 8.27999C9.6202 8.80799 9.1162 9.1679 8.54019 9.2639L3.9562 9.93597C3.9322 9.93597 3.8842 9.93592 3.8602 10.0079C3.8362 10.0799 3.8842 10.1279 3.8842 10.1279L7.1962 13.3679C7.6282 13.7759 7.8202 14.3759 7.7242 14.9519L6.9322 19.5119C6.9322 19.5359 6.9082 19.5839 6.9802 19.6319C7.0522 19.6799 7.10019 19.6559 7.10019 19.6319L11.2042 17.4719C11.7322 17.2079 12.3562 17.2079 12.8842 17.4719L16.9882 19.6319C17.0122 19.6319 17.0602 19.6559 17.1082 19.6319C17.1802 19.5839 17.1562 19.5359 17.1562 19.5119L16.3642 14.9519C16.2682 14.3759 16.4602 13.7759 16.8922 13.3679L20.2042 10.1279C20.2282 10.1039 20.2522 10.0799 20.2282 10.0079C20.2042 9.93592 20.1562 9.93597 20.1322 9.93597L15.5482 9.2639C14.9722 9.1679 14.4442 8.80799 14.2042 8.27999L12.1642 4.12792C12.1402 4.10392 12.1162 4.05597 12.0202 4.05597Z" fill="#020303"/>
</svg>