<svg width="24" height="24" viewBox="0 0 24 24" fill="none" xmlns="http://www.w3.org/2000/svg">
<path d="M16.632 2.16C14.952 2.16 13.368 2.712 12.096 3.72C10.848 2.736 9.23998 2.16 7.55998 2.16C3.67198 2.16 0.47998 5.136 0.47998 8.808C0.47998 9.528 0.59998 10.224 0.839981 10.896C1.07998 11.592 1.51197 12.264 2.06397 12.792L10.368 20.928C10.848 21.384 11.448 21.624 12.072 21.624C12.696 21.624 13.32 21.384 13.776 20.928L22.104 12.744C22.68 12.168 23.088 11.544 23.328 10.848C23.544 10.2 23.664 9.504 23.664 8.808C23.688 5.136 20.52 2.16 16.632 2.16ZM21.768 10.296C21.624 10.752 21.336 11.16 20.952 11.544L12.624 19.728C12.336 20.016 11.856 20.016 11.544 19.728L3.23998 11.592C2.85598 11.232 2.56797 10.776 2.42397 10.32C2.25597 9.816 2.15998 9.312 2.15998 8.784C2.15998 6.048 4.58398 3.816 7.55998 3.816C9.64798 3.816 11.544 4.944 12.432 6.672C12.648 7.08 13.152 7.248 13.56 7.032C13.968 6.816 14.136 6.312 13.92 5.904C13.728 5.544 13.512 5.208 13.272 4.896C14.208 4.2 15.408 3.816 16.608 3.816C19.584 3.816 22.008 6.048 22.008 8.784C22.008 9.312 21.936 9.816 21.768 10.296ZM19.776 8.76C19.776 9.168 19.704 9.552 19.584 9.936C19.512 10.128 19.32 10.272 19.128 10.272C19.08 10.272 19.032 10.272 18.984 10.248C18.744 10.152 18.6 9.888 18.696 9.648C18.792 9.36 18.84 9.072 18.84 8.784C18.84 7.632 18.096 6.6 16.944 6.144C16.704 6.048 16.584 5.76 16.68 5.52C16.776 5.28 17.064 5.16 17.304 5.256C18.792 5.832 19.776 7.224 19.776 8.76Z" fill="#020303"/>
</svg>
