<svg width="25" height="24" viewBox="0 0 25 24" fill="none" xmlns="http://www.w3.org/2000/svg">
<path d="M20.0498 9.84C19.9298 9.456 19.5938 9.16801 19.1858 9.09601L15.6338 8.56802L14.0498 5.32802C13.8578 4.96802 13.4978 4.72802 13.0898 4.72802C12.6818 4.72802 12.2978 4.96802 12.1298 5.32802L10.5458 8.56802L6.99378 9.09601C6.58578 9.14401 6.24978 9.432 6.12978 9.84C6.00978 10.248 6.10578 10.656 6.39378 10.944L8.9618 13.464L8.3618 17.016C8.2898 17.424 8.45778 17.832 8.79378 18.072C9.12978 18.312 9.5618 18.336 9.9218 18.144L13.1138 16.464L16.3058 18.144C16.4738 18.216 16.6418 18.264 16.8098 18.264C17.0258 18.264 17.2658 18.192 17.4338 18.048C17.7698 17.808 17.9378 17.4 17.8658 16.992L17.2658 13.44L19.8338 10.92C20.0738 10.656 20.1698 10.224 20.0498 9.84ZM15.8018 12.48C15.5378 12.72 15.4418 13.08 15.4898 13.44L15.9458 16.104L13.5458 14.856C13.3778 14.784 13.2098 14.736 13.0418 14.736C12.8738 14.736 12.7058 14.784 12.5378 14.856L10.1378 16.104L10.5938 13.44C10.6418 13.08 10.5458 12.744 10.2818 12.48L8.3378 10.584L11.0018 10.2C11.3618 10.152 11.6498 9.936 11.8178 9.6L13.0178 7.17601L14.2178 9.6C14.3858 9.912 14.6738 10.128 15.0338 10.2L17.6978 10.584L15.8018 12.48ZM13.0418 2.16C7.5938 2.16 3.15378 6.60002 3.15378 12.048C3.15378 17.496 7.5938 21.936 13.0418 21.936C18.4898 21.936 22.9298 17.496 22.9298 12.048C22.9298 6.60002 18.5138 2.16 13.0418 2.16ZM13.0418 20.976C8.1218 20.976 4.11378 16.968 4.11378 12.048C4.11378 7.12802 8.1218 3.12 13.0418 3.12C17.9618 3.12 21.9698 7.12802 21.9698 12.048C21.9698 16.968 17.9858 20.976 13.0418 20.976Z" fill="#020303"/>
</svg>
