<svg width="25" height="24" viewBox="0 0 25 24" fill="none" xmlns="http://www.w3.org/2000/svg">
<path d="M18.9069 18.324C19.0509 19.116 18.2109 19.716 17.5149 19.332L13.4109 17.172C13.1229 17.028 12.7869 17.028 12.5229 17.172L8.41893 19.332C7.72293 19.692 6.88293 19.116 7.02693 18.324L7.81893 13.764C7.86693 13.452 7.77093 13.14 7.53093 12.924L4.21893 9.68403C3.64293 9.13203 3.95493 8.17196 4.74693 8.05196L9.33093 7.38C9.64293 7.332 9.90693 7.13996 10.0509 6.85196L12.0909 2.7C12.4509 1.98 13.4589 1.98 13.8189 2.7L15.8589 6.85196C16.0029 7.13996 16.2669 7.332 16.5789 7.38L21.1629 8.05196C21.9549 8.17196 22.2669 9.13203 21.6909 9.68403L18.3789 12.924C18.1629 13.14 18.0429 13.452 18.0909 13.764L18.9069 18.324ZM8.27493 6.46793C8.37093 6.56393 8.49093 6.61196 8.63493 6.61196C8.75493 6.61196 8.87493 6.56396 8.97093 6.49196C9.16293 6.29996 9.18693 6.012 8.99493 5.82L6.95493 3.63598C6.76293 3.44398 6.47493 3.41996 6.28293 3.61196C6.09093 3.80396 6.06693 4.09203 6.25893 4.28403L8.27493 6.46793ZM17.3229 6.61196C17.4429 6.61196 17.5869 6.56393 17.6829 6.46793L19.6749 4.33196C19.8669 4.13996 19.8429 3.828 19.6509 3.66C19.4589 3.468 19.1469 3.49203 18.9789 3.68403L16.9869 5.82C16.7949 6.012 16.8189 6.32396 17.0109 6.49196C17.0829 6.56396 17.2029 6.61196 17.3229 6.61196ZM12.9549 18.18C12.6909 18.18 12.4749 18.396 12.4749 18.66V21.132C12.4749 21.396 12.6909 21.612 12.9549 21.612C13.2189 21.612 13.4349 21.396 13.4349 21.132V18.66C13.4349 18.396 13.2429 18.18 12.9549 18.18ZM22.1949 14.22L19.5069 13.0679C19.2669 12.9719 18.9789 13.068 18.8829 13.332C18.7869 13.596 18.8829 13.86 19.1469 13.956L21.8349 15.1079C21.9069 15.1319 21.9549 15.156 22.0269 15.156C22.2189 15.156 22.3869 15.0359 22.4589 14.8679C22.5549 14.6039 22.4349 14.316 22.1949 14.22ZM6.25893 13.14L3.93093 14.124C3.69093 14.22 3.57093 14.5079 3.66693 14.7479C3.73893 14.9399 3.93093 15.036 4.09893 15.036C4.17093 15.036 4.21893 15.0119 4.29093 14.9879L6.61893 14.004C6.85893 13.908 6.97893 13.62 6.88293 13.38C6.78693 13.14 6.49893 13.02 6.25893 13.14Z" fill="#020303"/>
</svg>
