<svg width="24" height="24" viewBox="0 0 24 24" fill="none" xmlns="http://www.w3.org/2000/svg">
<path d="M16.392 2.39999C14.712 2.39999 13.128 2.95199 11.856 3.95999C10.608 2.97599 8.99999 2.39999 7.31999 2.39999C3.43199 2.39999 0.23999 5.37604 0.23999 9.04804C0.23999 9.76804 0.35999 10.4641 0.59999 11.1361C0.83999 11.8321 1.27199 12.5039 1.82399 13.0319L10.128 21.168C10.608 21.624 11.208 21.8639 11.832 21.8639C12.456 21.8639 13.08 21.624 13.536 21.168L21.864 12.9839C22.44 12.4079 22.848 11.784 23.088 11.088C23.304 10.44 23.424 9.74404 23.424 9.04804C23.448 5.40004 20.28 2.39999 16.392 2.39999ZM19.344 10.2C19.272 10.392 19.08 10.5361 18.888 10.5361C18.84 10.5361 18.792 10.5359 18.744 10.5119C18.504 10.4159 18.36 10.1519 18.456 9.91195C18.552 9.62395 18.6 9.33604 18.6 9.04804C18.6 7.89604 17.856 6.86404 16.704 6.40804C16.464 6.31204 16.344 6.0239 16.44 5.7839C16.536 5.5439 16.824 5.42399 17.064 5.51999C18.576 6.11999 19.56 7.51204 19.56 9.04804C19.536 9.40804 19.464 9.81599 19.344 10.2Z" fill="#020303"/>
</svg>
