

<svg width="24" height="24" viewBox="0 0 24 24" fill="none" xmlns="http://www.w3.org/2000/svg">
<path d="M20.9837 0H3.61626C2.73466 0 2 0.718216 2 1.58008V22.4084C2 23.0117 2.32325 23.5288 2.8816 23.8161C3.41055 24.1033 4.05706 24.0459 4.55663 23.7011L12.2853 18.3863L20.0433 23.6724C20.3078 23.8735 20.6311 23.9597 20.9543 23.9597C21.2188 23.9597 21.4539 23.9022 21.689 23.7873C22.2179 23.5 22.5706 22.9829 22.5706 22.3796V1.58008C22.6 0.718216 21.8653 0 20.9837 0ZM17.8981 14.8527V2.01101H20.5429V21.5752L13.2257 16.5764C12.9612 16.3753 12.6379 16.2891 12.2853 16.2891C11.9326 16.2891 11.6388 16.3753 11.3449 16.5764L4.05706 21.5752V2.01101H16.7227V14.8527H17.8981Z" fill="#020303"/>
</svg>
