<svg width="24" height="24" viewBox="0 0 24 24" fill="none" xmlns="http://www.w3.org/2000/svg">
<path d="M19.7702 9.07174H19.1436V2H4.8564V9.07174H4.22976C1.91123 9.07174 0 10.9473 0 13.2225V18.8184C0 19.7408 0.78329 20.5095 1.72324 20.5095H4.8564V23H19.1436V20.5095H22.2768C23.2167 20.5095 24 19.7408 24 18.8184V13.2225C24 10.9473 22.1201 9.07174 19.7702 9.07174ZM6.10966 3.22987H17.8903V9.07174H6.10966V3.22987ZM17.8903 21.8009H6.10966V15.713H17.8903V21.8009ZM21.8068 18.3572H19.1436V14.4832H4.8564V18.3572H2.19321V13.2225C2.19321 12.1157 3.10183 11.224 4.22976 11.224H19.7702C20.8982 11.224 21.8068 12.1157 21.8068 13.2225V18.3572Z" fill="#020303"/>
</svg>
