<svg width="24" height="24" viewBox="0 0 24 24" fill="none" xmlns="http://www.w3.org/2000/svg">
<path d="M12.048 1.92001C6.45598 1.92001 1.91998 6.45583 1.91998 12.0478C1.91998 17.6398 6.45598 22.1759 12.048 22.1759C17.64 22.1759 22.176 17.6398 22.176 12.0478C22.176 6.45583 17.64 1.92001 12.048 1.92001ZM2.90398 12.0478C2.90398 7.00783 7.00798 2.88001 12.072 2.88001C17.136 2.88001 21.24 6.98383 21.24 12.0478C21.24 14.2078 20.496 16.2 19.224 17.76C18.528 15.744 17.016 14.1839 15.096 13.4159C15.96 12.6239 16.488 11.4958 16.488 10.2478C16.488 7.87183 14.544 5.92783 12.168 5.92783C9.79198 5.92783 7.84798 7.87183 7.84798 10.2478C7.84798 11.5438 8.42398 12.6958 9.33598 13.4878C7.36798 14.3518 5.85598 16.0318 5.25598 18.1678C3.79198 16.5598 2.90398 14.3998 2.90398 12.0478ZM12.168 12.8878C10.728 12.8878 9.52798 11.7118 9.52798 10.2478C9.52798 8.80783 10.704 7.60783 12.168 7.60783C13.632 7.60783 14.808 8.78383 14.808 10.2478C14.784 11.7118 13.608 12.8878 12.168 12.8878ZM6.67198 19.4639C6.69598 19.3919 6.71998 19.3198 6.74398 19.2478C7.22398 16.5358 9.55198 14.592 12.312 14.592C14.928 14.592 17.232 16.4399 17.808 18.9839C17.832 19.0559 17.856 19.1039 17.88 19.1759C16.296 20.4719 14.28 21.2639 12.072 21.2639C10.056 21.2159 8.18398 20.5679 6.67198 19.4639Z" fill="#020303"/>
</svg>
