<svg xmlns="http://www.w3.org/2000/svg" width="89.506" height="40.692" viewBox="0 0 89.506 40.692">
  <path id="mofid" d="M720.814,352.588m8.24-5.4s-.4-.24-.7.26c0,0-1.52,1.836-2.716,1.613a30.3,30.3,0,0,0-6.343.178c-1.36.223-2.935-.613-2.274-1.274,0,0-.024-.24,1.216-.7a8.03,8.03,0,0,0,2.055-1.12,13.113,13.113,0,0,0,2.829-1.877c.962-.956.284-1.178.284-1.178a49.029,49.029,0,0,0-6.285,1.141,5.262,5.262,0,0,0-3.254,1.935c-.264.325-.5.586-.706.8l-.024,0,.007.021a6.612,6.612,0,0,1-.688.637,11.4,11.4,0,0,1-2.363.521,97.158,97.158,0,0,0-10.665,1.339,51.755,51.755,0,0,0-15.734,5.12,17.781,17.781,0,0,1-13.217,1.442c-3.552-.853-7.073-1.849-10.634-2.644-3.754-.836-8.788-2.165-12.666-2.165a7.1,7.1,0,0,0-7.237,8.275c.305,2.576.5,2.49,1.644,5.672a70.361,70.361,0,0,0,11.864,18.152c.466.562,1.165.582,2.493.092.161-.185-1.1-1.391-1.414-1.7a14.283,14.283,0,0,1-1.021-1.151c-.651-.86-1.271-1.737-1.908-2.6-.236-.319-1.373-1.9-1.6-2.274-.671-1.117-2.284-4.035-2.538-4.528-1.367-2.7-4.973-9.2-4.4-13.052.606-2.963,3.353-4.5,6.449-3.956,6.292,1.1,12.477,2.647,18.683,4.141,2.737.658,5.5.949,8.282,1.387a12.869,12.869,0,0,0,7.432-1.312,89.559,89.559,0,0,1,12.83-4.843,62.771,62.771,0,0,1,10.131-1.891c.5-.055,2.473-.188,3.028-.342a2.44,2.44,0,0,1,3.212,1.582,4.2,4.2,0,0,0,.983,1.418c.867.753.73,1.223-.082,1.993-4.4,4.192-6.285,9.662-7.583,15.4a36.025,36.025,0,0,0-.325,5.915c-2.045-.822-3.857-1.747-5.7-2.617-4.021-1.9-7.559-4.812-12.3-5.192a110.317,110.317,0,0,1-14.087-2.531c-1.925-.4-6.733-1.637-7.175-1.757a125.588,125.588,0,0,1-13.587-4.713,3.676,3.676,0,0,0-4.1.791,4.29,4.29,0,0,0-.938,4.1c.291,1.476.38,2.843,3.682,9.24a27.684,27.684,0,0,0,2.7,4.271,38.547,38.547,0,0,0,3.226,4.031c1.51.545,1.617.065,1.6-.027-.075-.332-.352-.507-.575-.757a38.467,38.467,0,0,1-8.792-16.546,2.9,2.9,0,0,1,.507-3,2.447,2.447,0,0,1,2.4-.49,5.164,5.164,0,0,1,.75.332c11.2,4.716,20.882,6.99,31.7,9.22,2.192.456,4.524.428,6.487,1.86,2.017,1.469,4.312,2.517,6.435,3.812,2.473,1.51,5.346,2.315,7.545,4.264a5.606,5.606,0,0,0,3.093,1.435c3.922.521,7.788-.493,11.7-.473.534.007,1.5-.11,1.4-1.086-.086-.928-.98-.825-1.572-.921-1.281-.216-2.586-.281-3.88-.432-2.432-.284-4.679-1.5-7.172-1.449-.777.014-.877-.291-.87-.945a26.186,26.186,0,0,1,1.147-7.8,20.45,20.45,0,0,1,5.487-9.069c.312-.291.791-.969,1.274-1.038a2.157,2.157,0,0,1,.473.332,3.711,3.711,0,0,0,1.9.493,2.782,2.782,0,0,0,1.956-.956,1.284,1.284,0,0,0,.315-1.175,7.166,7.166,0,0,1-.2-2.343,7.017,7.017,0,0,0-.127-3.887,25.351,25.351,0,0,1,2.675-.593c3.031-.541,4.511-.9,5.565-3.038,0,0,.74-1.473,0-1.774" transform="translate(-639.877 -343.09)" fill="#b1c5c7"/>
</svg>
