<svg id="rebug" xmlns="http://www.w3.org/2000/svg" width="70.495" height="70.016" viewBox="0 0 70.495 70.016">
  <g id="_00d7feff" data-name="#00d7feff" transform="translate(13.173 21.951)">
    <path id="Path_113" data-name="Path 113" d="M65.667,100.248a3.585,3.585,0,0,1,2.786,1.043,6.617,6.617,0,0,1,1.481,3.76,19.06,19.06,0,0,1-.559,6.577,19.581,19.581,0,0,1,6.011,2.777,6.747,6.747,0,0,1,2.281,2.637,3.442,3.442,0,0,1,.257,1.946,5.8,5.8,0,0,1-2.129,3.19,18.066,18.066,0,0,1-5.95,3.012c-.114.054-.266.03-.36.121.017.3.127.578.173.871a19.022,19.022,0,0,1,.4,5.136,7.738,7.738,0,0,1-1.25,3.886,3.571,3.571,0,0,1-1.686,1.269,5.942,5.942,0,0,1-4.058-.417,19.037,19.037,0,0,1-5.5-3.828,20.965,20.965,0,0,1-3.644,2.845,9.937,9.937,0,0,1-4.5,1.583,4.011,4.011,0,0,1-1.955-.346,3.962,3.962,0,0,1-1.9-2.147,9.2,9.2,0,0,1-.614-2.844,10.3,10.3,0,0,1-.007-1.458,21.256,21.256,0,0,1,.66-4.476,8.252,8.252,0,0,1-1.019-.3,18.508,18.508,0,0,1-4.559-2.217,7.439,7.439,0,0,1-2.739-3.1,4.191,4.191,0,0,1-.285-1.279,3.9,3.9,0,0,1,.488-1.846,7.66,7.66,0,0,1,2.186-2.33,18.73,18.73,0,0,1,5.858-2.67.189.189,0,0,0,.1-.047A20.013,20.013,0,0,1,45,105.149a8.134,8.134,0,0,1,.68-2.629,3.9,3.9,0,0,1,.851-1.228,3.349,3.349,0,0,1,2.361-1,6.329,6.329,0,0,1,2.43.381,17.532,17.532,0,0,1,5.889,3.8,2.856,2.856,0,0,0,.319.266,21.11,21.11,0,0,1,4.376-3.315,8.807,8.807,0,0,1,3.764-1.186m.036,1.744a6.663,6.663,0,0,0-2.429.7,16.226,16.226,0,0,0-2.841,1.825,19.954,19.954,0,0,0-1.66,1.477c-.03.047.033.078.056.111a40.9,40.9,0,0,1,3.209,4.007c.079.092.133.234.276.23a44.236,44.236,0,0,1,5.375.856c.137-.693.3-1.38.4-2.08a12.937,12.937,0,0,0-.144-5.172,3.669,3.669,0,0,0-.788-1.468,1.865,1.865,0,0,0-1.455-.486m-17.022.072a1.619,1.619,0,0,0-1.043.594,3.223,3.223,0,0,0-.53.961,7.686,7.686,0,0,0-.406,2.694,19.315,19.315,0,0,0,.625,4.846c.352-.029.69-.148,1.039-.2,1.1-.226,2.214-.389,3.33-.525.371-.044.75-.047,1.116-.126a46.3,46.3,0,0,1,3.472-4.317,17.709,17.709,0,0,0-5.028-3.464,5.03,5.03,0,0,0-2.573-.464m8.815,5.2c-.836.943-1.662,1.9-2.415,2.912.508-.079,1.025.005,1.533-.07.559-.008,1.118-.005,1.677,0,.471.077.951-.009,1.421.066.3.126.164-.082.089-.156a28.553,28.553,0,0,0-2.306-2.751m-.905,4.609c-.937.017-1.875.052-2.81.134a1.483,1.483,0,0,0-.266.354,50.156,50.156,0,0,0-3.459,6.054.239.239,0,0,0,.034.179,51.315,51.315,0,0,0,3.688,6.334c.711.091,1.43.055,2.143.116,1.421-.01,2.847.042,4.265-.068.351.011.7-.058,1.05-.046.806-1.2,1.557-2.446,2.277-3.7.5-.925,1.022-1.853,1.447-2.813a59.5,59.5,0,0,0-3.724-6.41c-.811-.062-1.622-.122-2.435-.116a17.962,17.962,0,0,0-2.21-.015m-5.14.358c-1.212.164-2.42.372-3.62.611a2.3,2.3,0,0,0,.167.622c.319.983.7,1.944,1.082,2.9h.053c.714-1.426,1.543-2.792,2.38-4.149l-.062.015m12.046.024c.624,1.022,1.253,2.044,1.829,3.094.167.359.4.683.552,1.049l.023,0c.448-1.074.867-2.16,1.226-3.266.022-.059.132-.276-.013-.273-.952-.22-1.915-.395-2.882-.535a3.76,3.76,0,0,0-.736-.073m-17.514,1.069a22.74,22.74,0,0,0-2.889,1.046,11.112,11.112,0,0,0-3.353,2.185,3.553,3.553,0,0,0-.913,1.42,1.881,1.881,0,0,0,.26,1.493,5.2,5.2,0,0,0,1.165,1.349,14.675,14.675,0,0,0,4.708,2.539,9.472,9.472,0,0,0,1.116.34,45.547,45.547,0,0,1,1.98-5.134c.084-.129-.03-.252-.078-.368a42.645,42.645,0,0,1-1.866-4.88.245.245,0,0,0-.128.01m22.92-.005a41.815,41.815,0,0,1-1.868,4.837c-.043.116-.141.218-.093.354a39.75,39.75,0,0,1,2.036,5.106,16.806,16.806,0,0,0,5.593-2.7,4.241,4.241,0,0,0,1.642-2.292,2.253,2.253,0,0,0-.493-1.491,8.427,8.427,0,0,0-2.57-2.092A19.92,19.92,0,0,0,68.9,113.32M65.883,120.5c-.733,1.447-1.564,2.844-2.417,4.224,1.279-.188,2.562-.367,3.823-.661-.385-1.213-.865-2.391-1.351-3.565l-.055,0m-16.8.07c-.4,1.034-.826,2.062-1.152,3.124-.028.149-.144.282-.129.439a33.785,33.785,0,0,0,3.752.623c-.853-1.366-1.684-2.747-2.415-4.183l-.056,0m18.662,5.184a38.141,38.141,0,0,1-5.294.826.286.286,0,0,0-.241.05,42.646,42.646,0,0,1-3.406,4.323,14.073,14.073,0,0,0,1.378,1.249,14.99,14.99,0,0,0,3.03,2,7.571,7.571,0,0,0,1.777.631,2.929,2.929,0,0,0,1.628-.039,1.847,1.847,0,0,0,.869-.736,4.936,4.936,0,0,0,.632-1.587,11.353,11.353,0,0,0,.2-3.377,21.324,21.324,0,0,0-.546-3.346l-.024.005m-20.447.1a19.37,19.37,0,0,0-.6,4.045,8.546,8.546,0,0,0,.007,1.349,5.514,5.514,0,0,0,.972,3.07,1.882,1.882,0,0,0,1.331.6,5.654,5.654,0,0,0,2.2-.442,14.476,14.476,0,0,0,3.684-2.217,12.94,12.94,0,0,0,1.432-1.3,45.176,45.176,0,0,1-3.5-4.331,42.9,42.9,0,0,1-5.355-.765l-.172-.005m7.823.911c.007.1.11.137.148.219q.643.845,1.339,1.649a10.678,10.678,0,0,0,.959,1.048c.319-.275.555-.637.846-.942.524-.621,1.017-1.268,1.511-1.913l.015-.06c-.392-.033-.778.055-1.169.035C57.549,126.791,56.331,126.818,55.116,126.762Z" transform="translate(-37.006 -100.235)" fill="#b1c5c7"/>
    <path id="Path_114" data-name="Path 114" d="M502.043,498.792a3.661,3.661,0,0,1,1.807,7.014,3.659,3.659,0,0,1-4.9-2.246,3.672,3.672,0,0,1,3.09-4.768Z" transform="translate(-481.949 -484.242)" fill="#b1c5c7"/>
  </g>
  <g id="bug" transform="translate(0 0)">
    <g id="_0b1f2dff" data-name="#0b1f2dff" transform="translate(0 0)">
      <path id="Path_98" data-name="Path 98" d="M275.047,131.557a2.281,2.281,0,0,1,3.6-1.374,2.016,2.016,0,0,1,.832,1.377c.033,2.948-.064,5.9.02,8.846,1.908.033,3.82.013,5.732.011,3.74.04,7.483-.082,11.223.062,1.385.637,1.83,2.211,2.569,3.415,2.3,3.791,4.446,7.673,6.637,11.528a.7.7,0,0,0,.668-.1c2.2-1.279,4.42-2.512,6.611-3.8a2.367,2.367,0,0,1,3,.228,2.992,2.992,0,0,1,.188,3.4c-2.667,1.337-5.141,3.079-7.848,4.355-.135.359.1.671.272.967,1.514,2.545,2.879,5.179,4.473,7.677a3.244,3.244,0,0,1,.507,3c-5.181,8.963-10.411,17.911-15.6,26.874-.272.359-.228.89-.6,1.173a4.413,4.413,0,0,1-2.147.511c-2.271,0-4.544.069-6.808-.055a85.317,85.317,0,0,0-10.953-.042l-.126.013c-4.583-.279-9.18-.064-13.77-.124-1.492-.089-1.894-1.85-2.616-2.9q-7.38-12.871-14.8-25.719l-.044-1.463c.8-1.976,2.14-3.654,3.094-5.546q6.224-10.709,12.431-21.428c.487-.861,1.071-1.945,2.16-2.041,3.665-.053,7.341.1,11-.038l.122-.128a34.388,34.388,0,0,0,.168-5.586c0-1.036,0-2.069,0-3.105m-10.134,14.868a18.032,18.032,0,0,0-1.83,3.081c-.52.281-.359,1.3-.989,1.642-1.746,2.986-3.424,6-5.216,8.954-.5.263-.6.883-.9,1.317-1.166,2-2.244,4.048-3.5,6-.449,1.047-1.571,1.963-1.029,3.242,4.382,7.449,8.629,14.979,12.916,22.486.434.551.682,1.47,1.394,1.7,7.6.053,15.193-.02,22.789.031a20.928,20.928,0,0,0,5.019.135,2.081,2.081,0,0,0,1.228-.985c1.629-2.921,3.346-5.79,5.013-8.689,1.436-2.483,2.937-4.926,4.318-7.443a18.492,18.492,0,0,0,1.894-3.386l.164-.058c.392-1.149,1.558-2.005,1.609-3.236q-20.828-12.037-41.612-24.141C265.747,146.916,265.4,146.349,264.913,146.424Z" transform="translate(-246.07 -129.734)" fill="#b1c5c7"/>
    </g>
  </g>
</svg>
