<svg id="rechart" xmlns="http://www.w3.org/2000/svg" width="70.295" height="70.295" viewBox="0 0 70.295 70.295">
  <path id="Exclusion_4" data-name="Exclusion 4" d="M35.148,70.3A35.157,35.157,0,0,1,21.466,2.762,35.157,35.157,0,0,1,48.829,67.533,34.927,34.927,0,0,1,35.148,70.3ZM52.134,25.457a6.085,6.085,0,0,0-6.079,6.079v17.4a6.079,6.079,0,1,0,12.158,0v-17.4A6.086,6.086,0,0,0,52.134,25.457ZM20.017,11.59a6.086,6.086,0,0,0-6.08,6.079v31.27a6.079,6.079,0,1,0,12.158,0V17.669A6.085,6.085,0,0,0,20.017,11.59Zm15.755,8.345a6.085,6.085,0,0,0-6.079,6.079V48.938a6.079,6.079,0,1,0,12.158,0V26.014A6.086,6.086,0,0,0,35.772,19.935ZM52.134,51.988a3.333,3.333,0,1,1,3.334-3.333A3.336,3.336,0,0,1,52.134,51.988Zm-32.117,0a3.333,3.333,0,1,1,3.333-3.333A3.337,3.337,0,0,1,20.017,51.988Zm15.755,0a3.333,3.333,0,1,1,3.334-3.333A3.336,3.336,0,0,1,35.772,51.987Z" transform="translate(0 0)" fill="#b1c5c7"/>
</svg>
