<svg xmlns="http://www.w3.org/2000/svg" width="55.273" height="63.424" viewBox="0 0 55.273 63.424">
  <path id="rehome" d="M37.323,44.079l-3.041-2.195V36.969H27.475l-4.631-3.343L9.125,44.079V63.424H0V0H26.541a50.056,50.056,0,0,1,7.2.44,23.649,23.649,0,0,1,6.927,1.979,15.817,15.817,0,0,1,3.01,1.872,13.821,13.821,0,0,1,2.517,2.627,15.051,15.051,0,0,1,1.889,3.5,20.294,20.294,0,0,1,1.118,4.5,18.363,18.363,0,0,1-3.089,12.733A16.422,16.422,0,0,1,42.372,31.5a12.491,12.491,0,0,1-3.994,2v.185a8.284,8.284,0,0,1,4.3,3.041l.02.024c.322.363.654.738,1.041,1.143a18.93,18.93,0,0,1,2.653,3.618,35.828,35.828,0,0,1,2.363,5.029l6.52,16.875-17.95,0ZM8.86,26.108H29.346a10.546,10.546,0,0,0,7.107-2.783,6.773,6.773,0,0,0,1.819-5.17,5.667,5.667,0,0,0-1.693-4.278,10.391,10.391,0,0,0-6.722-2.935h-21Zm9.737,37.2V51.253h8.959V63.312Z" transform="translate(0)" fill="#b1c5c7"/>
</svg>
