<svg xmlns="http://www.w3.org/2000/svg" width="72.699" height="72.786" viewBox="0 0 72.699 72.786">
  <g id="remoon" transform="translate(0 0)">
    <path id="Path_46" data-name="Path 46" d="M92.252,67.211c13.829-2.42,28.434,4.653,35.792,16.429,8.934,13.519,7.34,33.236-4.492,44.552-6.992,7.656-17.527,11.546-27.789,11.323-17.409-.7-33.068-15.206-34.44-32.69C58.855,88.2,73.6,69.388,92.252,67.211m19.165,7.247c-.707.664-1.936,1.545-1.017,2.581,1.042,2.5,5.025,5.2,6.967,2.122.627-3.083-3.294-5.212-5.95-4.7m-33.5,2.494c-.651.645-1.657,1.241-1.384,2.327.037,1.5,1.9,1.4,2.972,1.185,1.781-1.017.124-3.971-1.588-3.512m41.63,1.228c-.217,1.03.986,2.389,2.06,1.638.112-.862-1.173-2.023-2.06-1.638m-26.1,1.3c-1.16.428-2.1,2-3.456,1.328-2.246-.98-4.61,2.1-2.724,3.89,2.072,1.042,1.855,3.747,3.673,5.075,3.617.608,8.252-1.439,8.537-5.472-1.08-2.351-2.873-5.851-6.03-4.821M106.5,83.205c-2.047,1.29-4.157,2.469-6.254,3.673-1.52,2.494-1.086,6.775,1.75,7.9,1.588-.608,3.071-.639,4.331.651,2.8-.72,3.623-3.785,5.3-5.8,2.227-3.2-1.328-7.836-5.131-6.428m-31.021.62a7.02,7.02,0,0,0-3.89,4.132c.577,1.582,4.138,1.03,1.774,4.244-1.1,1.762-3.536-.546-4.839.856-.267,1.675.757,3.214.577,4.9-2.482.167-2.488-3.369-4.219-4.436-.354,3.536-1.973,6.893-1.353,10.522.968.794,2.637.583,3.133,1.917,1.222,1.942.968,5.968-1.9,5.758.18,2.742,1.787,5.168,2.612,7.761,1.284.112,3.22.2,2.953,2.016-.23,1.911,2.277,1.613,3.524,2.047.248,1.024.893,3.257,2.258,2.569,1.781-.161.862-2.24.552-3.338a6.419,6.419,0,0,0,8.624-4.287,3,3,0,0,0,4.883-1.359c.558-2.016-1.551-3.065-3.083-3.7-.949.4-1.526,1.346-2.395,1.874-.409-.918-2.24-2.724-.155-2.6,7-1.88,6.08-13.668-1.228-14.679-5.385,2.078-1.613-3.524-1.9-5.193,3.8-3.822-.869-10.87-5.925-9m42.8,0c-1.88.85-3.766,2.6-3.878,4.752.627,1.563,1.266,3.319,3.065,3.791,3.04,2.116,7.2-1.886,5.739-5.056-.583-1.93-2.817-4.008-4.926-3.487M90.937,93.653c-2.116,1.322.434,4.976,2.829,2.959,1.452-1.781.2-4.653-2.829-2.959m24.184,4.355a1.75,1.75,0,0,0-.006,2.9c1.03,1.712,3.257-.285,2.978-1.719-.037-1.5-1.9-1.4-2.972-1.185M94.083,114.847a6.893,6.893,0,0,0-3.89,4.2c-.558,5.218,7.9,6.986,9.9,2.42,1.768-3.487-2.32-7.8-6.006-6.62m-8.072,9.933c-.689.49-2.085.658-2.029,1.706-.645,2.42,2.475,3.189,4.231,3.661,2.451-1.849.577-5.751-2.2-5.367m3.046,9.815c-2.023,1.985,2.134,2,3.642,2.314C93.015,135.06,91.3,133.13,89.057,134.595Z" transform="translate(-61.053 -66.738)" fill="#b1c5c7"/>
    <path id="Path_47" data-name="Path 47" d="M76.909,120.131a36.86,36.86,0,0,1,4.827-.112c-.174.788-.459,1.545-.658,2.327,2.054-1.08,4.337.949,4.591,3,1.253.341,3.158,1.055,2.86,2.68-.447,2.252-3.989,2.724-4.6.279-1.88-.347-5.789-.019-5.342-3.344C79.905,122.93,74.688,121.366,76.909,120.131Z" transform="translate(-66.86 -86.95)" fill="#b1c5c7"/>
    <path id="Path_48" data-name="Path 48" d="M82.713,140.021c1.539-.788,3.325,1.241,1.613,2.289C82.993,144.035,80.66,141.107,82.713,140.021Z" transform="translate(-68.967 -94.487)" fill="#b1c5c7"/>
  </g>
</svg>
