<svg xmlns="http://www.w3.org/2000/svg" width="110.069" height="110.57" viewBox="0 0 110.069 110.57">
  <path id="renova" d="M188.842,34.973,189,34.89c-.788,5.163-1.772,10.295-2.377,15.483a84.347,84.347,0,0,0-.909,16.963c.258,3.144.4,6.839,2.913,9.118,2.466,1.815,5.541.239,7.864-.99,2.68-1.641,5.163-3.56,7.723-5.377a37.88,37.88,0,0,0,5.413-4.774c.089-.015.264-.048.351-.062-1.25,3.689-3.477,6.941-5.175,10.424A127.814,127.814,0,0,1,197.935,87.1c-4.236,6.431-8.687,12.817-14.289,18.146a58.655,58.655,0,0,1-4.839,3.687c-2.414,1.651-5.119,3.186-8.105,3.352-3,.466-5.941-.73-8.579-2.044-8.082-4.728-13.878-12.3-19.5-19.6a146.571,146.571,0,0,1-12.7-19.768,58.8,58.8,0,0,0,6.3,4.335c3.14,2.071,6.9,3.56,10.715,3.1,1.849-.576,2.811-2.287,3.5-3.953a35.844,35.844,0,0,0,1.609-9.648,10.847,10.847,0,0,0-.056-3.8c-.05-6.115-.012-12.274-1.073-18.315l.173.06c1.268,3.832,3.019,7.488,4.651,11.174a75.867,75.867,0,0,0,6.379,11.283c1.564,1.961,3.163,4.136,5.639,4.98,1.986.709,3.938-.761,5.076-2.262a46.144,46.144,0,0,0,4.458-7.178c2.786-4.506,4.514-9.534,6.641-14.36,1.462-3.456,2.934-6.908,4.381-10.37a2.278,2.278,0,0,1,.518-.946M167.235,74.942a12.559,12.559,0,0,0-6.868,3.292,18.19,18.19,0,0,0-5.049,10.324c-.071,3.129-.148,6.377,1.11,9.315a14.748,14.748,0,0,0,6.989,8.159,11.251,11.251,0,0,0,10.611,0,14.423,14.423,0,0,0,6.635-7.286,19.015,19.015,0,0,0,1.1-12.073c-.986-3.938-3.156-7.8-6.71-9.95A11.007,11.007,0,0,0,167.235,74.942Z" transform="matrix(-0.602, 0.799, -0.799, -0.602, 216.127, -36.129)" fill="#b1c5c7"/>
</svg>
