<svg xmlns="http://www.w3.org/2000/svg" width="70.206" height="69.988" viewBox="0 0 70.206 69.988">
  <path id="restar" d="M47.876,12.839l.055-.089a122,122,0,0,0,3.3,14.311,30.257,30.257,0,0,0,3.958,8.449,18.592,18.592,0,0,0,6.1,5.71,38.1,38.1,0,0,0,10.144,4c3.655,1.008,7.382,1.729,11.1,2.437.309.142.949.43-.336.3-6.484,1.3-13.113,2.466-19.1,5.372a20.671,20.671,0,0,0-9.934,10.239C50.331,69.6,49.2,76.245,47.93,82.738a8.919,8.919,0,0,1-.567-2.47,106.741,106.741,0,0,0-3.195-12.782,28.155,28.155,0,0,0-4.418-8.517c-3.514-4.6-9.126-6.871-14.543-8.381-4.093-1.151-8.267-1.988-12.448-2.742a8.96,8.96,0,0,1,2.476-.565,114.766,114.766,0,0,0,12.011-2.925A29.238,29.238,0,0,0,36.776,39.6a21.648,21.648,0,0,0,6.335-8.79c2.253-5.458,3.4-11.286,4.506-17.064A1.858,1.858,0,0,1,47.876,12.839Z" transform="translate(-12.76 -12.75)" fill="#b1c5c7"/>
</svg>
