<svg id="resun" xmlns="http://www.w3.org/2000/svg" width="77.034" height="69.75" viewBox="0 0 77.034 69.75">
  <path id="Path_68" data-name="Path 68" d="M367.041,82.882a8.319,8.319,0,0,1,2.8.126,4.591,4.591,0,0,1,3.321,2.834,13.25,13.25,0,0,1,.8,3.765c.136,1.723.537,3.41.7,5.129a9.347,9.347,0,0,1-.252,4.075,3.871,3.871,0,0,1-3.825,2.5,3.8,3.8,0,0,1-2.993-2.5,39.934,39.934,0,0,1-2.615-8.373,11.61,11.61,0,0,1-.992-3.415,4.73,4.73,0,0,1,.2-2.184A3.406,3.406,0,0,1,367.041,82.882Z" transform="translate(-338.206 -82.826)" fill="#b1c5c7"/>
  <path id="Path_69" data-name="Path 69" d="M688.274,151.457c1.774-.136,3.114,1.4,3.77,2.892a6.035,6.035,0,0,1-.019,4.744,7.465,7.465,0,0,1-1,1.832,49.358,49.358,0,0,1-5.917,7.146,2.519,2.519,0,0,1-1.012.744,4.509,4.509,0,0,1-4.155-.526,2.661,2.661,0,0,1-.875-3.01,9.539,9.539,0,0,1,.858-1.889,75.228,75.228,0,0,0,3.282-7.126,8.364,8.364,0,0,1,1.943-3.126A4.831,4.831,0,0,1,688.274,151.457Z" transform="translate(-626.997 -145.74)" fill="#b1c5c7"/>
  <path id="Path_70" data-name="Path 70" d="M123.9,299.77a4.325,4.325,0,0,1,3.273.987c.829.665,1.642,1.348,2.42,2.07a26.987,26.987,0,0,1,1.962,1.952c.655.65,1.28,1.325,1.89,2.016a13.04,13.04,0,0,1,1.984,2.589,2.1,2.1,0,0,1-.768,2.631,2.079,2.079,0,0,1-2.12-.241c-1.17-.818-2.253-1.754-3.434-2.555-1.56-1.249-3.285-2.285-4.767-3.632a10.134,10.134,0,0,1-2.3-2.61,1.837,1.837,0,0,1-.068-2.065A3.88,3.88,0,0,1,123.9,299.77Z" transform="translate(-116.11 -281.665)" fill="#b1c5c7"/>
  <path id="Path_71" data-name="Path 71" d="M301.841,365.181c.463-.119.917.092,1.384.034a17.489,17.489,0,0,1,4.568.6,20.835,20.835,0,0,1,9.72,5.575,16.984,16.984,0,0,1,5.246,12.451A9.044,9.044,0,0,1,321.1,388.5c-2.006,2.74-5.41,4.107-8.7,4.444-.632.077-1.63.2-1.97-.5a4.828,4.828,0,0,1,.509-2.789,12.021,12.021,0,0,0,.675-4.223A5.394,5.394,0,0,0,309.9,382a10.787,10.787,0,0,0-4.433-2.466,15.781,15.781,0,0,0-4.158-.592c-2.951-.162-5.631,1.732-7.23,4.085a13.7,13.7,0,0,0-2.329,8.146,19.671,19.671,0,0,0,2.272,8.373,13.193,13.193,0,0,0,4.623,4.774,17.144,17.144,0,0,0,9.8,2.132c1.7-.126,3.411-.7,5.105-.24.443.1.987.312.988.845-.225.651-.858.993-1.407,1.344a16.943,16.943,0,0,1-7.908,2.912c-3.691.371-7.36-.359-10.954-1.127a18.441,18.441,0,0,1-8.826-4.475,24.082,24.082,0,0,1-5.775-7.871,24.9,24.9,0,0,1-2.424-9.805,11.737,11.737,0,0,1,.12-2.519,20.163,20.163,0,0,1,4.819-10.727,29.246,29.246,0,0,1,12.617-8.264A24.485,24.485,0,0,1,301.841,365.181Z" transform="translate(-258.697 -341.659)" fill="#b1c5c7"/>
  <path id="Path_72" data-name="Path 72" d="M832.3,384.725c1.9-.379,4.317.868,4.444,2.962a3.282,3.282,0,0,1-1.22,2.247c-2.484,2.224-5.826,3.169-9.068,3.556a3.192,3.192,0,0,1-2.7-2.038,2.828,2.828,0,0,1,1.134-2.838,28.558,28.558,0,0,1,3.919-2.565,14.309,14.309,0,0,1,1.986-.83C831.3,385.09,831.768,384.8,832.3,384.725Z" transform="translate(-759.706 -359.549)" fill="#b1c5c7"/>
  <path id="Path_73" data-name="Path 73" d="M59.5,551.362a11.72,11.72,0,0,1,3.057.266,34.38,34.38,0,0,1,6.814,1.932,4.252,4.252,0,0,1,1.47,1.107,1.8,1.8,0,0,1-.446,2.164,5.655,5.655,0,0,1-4.352,1.474c-2.459-.051-4.928-.212-7.38-.3a4.06,4.06,0,0,1-3.5-1.629,2.5,2.5,0,0,1,.224-3.154A6.151,6.151,0,0,1,59.5,551.362Z" transform="translate(-54.71 -512.37)" fill="#b1c5c7"/>
  <path id="Path_74" data-name="Path 74" d="M155.655,782.144a1.5,1.5,0,0,1,1.61.812,4.17,4.17,0,0,1-.453,3.242,10.334,10.334,0,0,1-2.12,2.624,13.4,13.4,0,0,1-4.618,3.137,2.135,2.135,0,0,1-2.782-1.114,4.688,4.688,0,0,1,.209-3.809,6.266,6.266,0,0,1,1.966-2.691,22.313,22.313,0,0,1,3.843-1.638A18.024,18.024,0,0,1,155.655,782.144Z" transform="translate(-139.297 -723.94)" fill="#b1c5c7"/>
</svg>
