<svg xmlns="http://www.w3.org/2000/svg" width="65.706" height="72.911" viewBox="0 0 65.706 72.911">
  <g id="retrader" transform="translate(0 0)">
    <path id="Path_95" data-name="Path 95" d="M97.617,4.89c-4.208,11.472-7.424,24.184-4.336,36.344,3.321,4.86,7.887,9.8,26.184,9.656,8.512.472,17.04,2.96,23.584,8.616,3.744,5.32,6.928,11.56,6.536,18.248-13.336.016-26.672.128-40.008-.064-9.568-.56-20.272-4.416-24.52-13.736-1.32-4.872-1.072-9.984-1.08-14.976.08-12.24-.009-24.212.143-36.444l7.7-.042Z" transform="translate(-83.963 -4.89)" fill="#b1c5c7"/>
    <path id="Path_96" data-name="Path 96" d="M102.5,14.307c10.872.032,20.931-.344,31.8-.3,6.592,1.032,13.928,3.856,16.768,10.44,3.552,5.8,2.232,12.848,2.376,19.28a15.892,15.892,0,0,0-5.568-4.912c-11.384-3.632-23.432-2-35.152-2.472-5.456-1.28-8.736-6.688-9.648-11.912C101.834,21.043,103.663,17.683,102.5,14.307Z" transform="translate(-87.868 -6.715)" fill="#b1c5c7"/>
  </g>
</svg>
