<?xml version="1.0" encoding="UTF-8" ?>
<!DOCTYPE svg PUBLIC "-//W3C//DTD SVG 1.1//EN" "http://www.w3.org/Graphics/SVG/1.1/DTD/svg11.dtd">
<svg width="1024pt" height="1024pt" viewBox="0 0 1024 1024" version="1.1" xmlns="http://www.w3.org/2000/svg">
<g id="#3c5a99ff">
<path fill="#3c5a99" opacity="1.00" d=" M 17.99 65.98 C 20.54 40.85 42.55 19.04 67.99 18.04 C 364.67 17.94 661.34 18.04 958.02 17.99 C 975.09 19.95 991.05 30.64 999.22 45.79 C 1004.07 54.65 1006.15 64.93 1006.02 74.99 C 1005.97 368.33 1006.02 661.68 1005.99 955.02 C 1004.74 971.90 995.41 987.98 980.96 996.97 C 971.43 1003.71 959.50 1006.12 948.01 1006.02 C 865.34 1005.93 782.67 1006.09 700.00 1005.94 C 700.05 878.31 699.91 750.68 700.07 623.05 C 742.65 622.82 785.26 623.22 827.84 622.88 C 834.37 573.30 840.82 523.69 847.02 474.06 C 798.03 473.86 749.03 474.15 700.05 473.93 C 699.96 437.28 699.97 400.63 700.04 363.98 C 701.40 348.63 705.65 332.27 717.73 321.73 C 731.74 309.50 751.16 307.21 769.00 306.14 C 796.65 305.70 824.31 306.27 851.95 305.91 C 852.07 262.28 851.96 218.64 852.01 175.00 C 852.49 173.18 851.09 172.70 849.63 172.45 C 807.22 168.35 764.62 166.25 722.01 167.12 C 683.20 169.58 644.01 180.81 612.99 204.99 C 590.54 222.46 573.09 246.04 562.27 272.29 C 549.41 303.04 544.98 336.86 546.00 370.00 C 545.91 404.65 546.16 439.31 545.90 473.95 C 502.95 474.16 459.99 473.81 417.05 474.10 C 417.00 523.71 416.89 573.34 417.10 622.95 C 459.06 623.08 501.03 622.95 543.00 623.00 C 546.70 622.15 545.38 628.56 545.95 630.00 C 546.06 755.31 545.97 880.63 546.00 1005.94 C 390.67 1006.09 235.33 1005.94 80.00 1006.02 C 72.93 1006.06 65.75 1006.25 58.90 1004.23 C 35.10 998.88 16.67 975.56 17.98 951.01 C 18.03 656.00 17.99 360.99 17.99 65.98 Z" />
</g>
<g id="#fefeffff">
<path fill="#fefeff" opacity="1.00" d=" M 612.99 204.99 C 644.01 180.81 683.20 169.58 722.01 167.12 C 764.62 166.25 807.22 168.35 849.63 172.45 C 851.09 172.70 852.49 173.18 852.01 175.00 C 851.96 218.64 852.07 262.28 851.95 305.91 C 824.31 306.27 796.65 305.70 769.00 306.14 C 751.16 307.21 731.74 309.50 717.73 321.73 C 705.65 332.27 701.40 348.63 700.04 363.98 C 699.97 400.63 699.96 437.28 700.05 473.93 C 749.03 474.15 798.03 473.86 847.02 474.06 C 840.82 523.69 834.37 573.30 827.84 622.88 C 785.26 623.22 742.65 622.82 700.07 623.05 C 699.91 750.68 700.05 878.31 700.00 1005.94 C 648.67 1006.03 597.33 1006.04 546.00 1005.94 C 545.97 880.63 546.06 755.31 545.95 630.00 C 545.38 628.56 546.70 622.15 543.00 623.00 C 501.03 622.95 459.06 623.08 417.10 622.95 C 416.89 573.34 417.00 523.71 417.05 474.10 C 459.99 473.81 502.95 474.16 545.90 473.95 C 546.16 439.31 545.91 404.65 546.00 370.00 C 544.98 336.86 549.41 303.04 562.27 272.29 C 573.09 246.04 590.54 222.46 612.99 204.99 Z" />
</g>
</svg>
