<?xml version="1.0" encoding="UTF-8" ?>
<!DOCTYPE svg PUBLIC "-//W3C//DTD SVG 1.1//EN" "http://www.w3.org/Graphics/SVG/1.1/DTD/svg11.dtd">
<svg width="225pt" height="225pt" viewBox="0 0 225 225" version="1.1" xmlns="http://www.w3.org/2000/svg">
<g id="#fffefeff">
<path fill="#fffefe" opacity="1.00" d=" M 0.00 0.00 L 225.00 0.00 L 225.00 225.00 L 0.00 225.00 L 0.00 0.00 M 111.31 2.38 C 99.16 3.22 89.75 15.73 93.61 27.73 C 78.35 36.15 63.47 45.32 48.25 53.77 C 42.41 47.03 31.95 46.28 24.28 50.30 C 16.02 54.28 13.03 64.90 15.59 73.33 C 17.16 80.31 24.00 84.19 29.94 87.11 C 30.04 104.01 30.10 120.93 29.90 137.83 C 24.54 140.85 18.31 143.79 16.08 150.06 C 12.66 159.00 15.63 171.09 25.07 174.93 C 32.44 179.20 42.34 177.34 48.27 171.36 C 63.52 179.41 78.37 188.95 93.61 197.26 C 91.31 205.86 94.62 216.10 103.07 219.94 C 112.00 225.99 125.36 221.27 129.94 211.94 C 132.68 207.55 131.95 202.02 131.35 197.15 C 133.01 195.01 135.66 194.17 137.91 192.84 C 149.96 185.93 162.11 179.17 173.98 171.95 C 177.16 169.20 178.84 174.83 181.96 175.06 C 193.97 182.14 212.54 171.55 210.01 157.00 C 210.93 147.60 202.81 141.15 195.06 137.89 C 194.96 120.98 194.90 104.07 195.10 87.17 C 200.46 84.14 206.69 81.21 208.92 74.94 C 212.38 66.13 209.29 53.85 200.00 50.03 C 192.48 45.94 182.73 47.58 176.73 53.63 C 161.60 45.41 146.46 36.34 131.39 27.74 C 135.77 14.93 124.18 1.39 111.31 2.38 Z" />
<path fill="#fffefe" opacity="1.00" d=" M 98.05 36.21 L 99.00 35.87 C 80.01 69.76 59.90 103.06 41.05 137.06 C 39.95 139.21 35.65 142.41 39.02 134.03 C 39.14 118.10 38.70 102.15 39.17 86.24 C 45.58 84.05 51.10 79.73 52.80 72.88 C 54.24 69.11 52.99 65.13 53.15 61.25 C 68.38 53.40 82.83 44.04 98.05 36.21 Z" />
<path fill="#fffefe" opacity="1.00" d=" M 125.98 35.91 C 134.39 39.44 141.92 44.81 150.01 49.04 C 157.24 53.50 165.10 57.03 171.88 62.18 C 169.46 72.41 175.42 83.60 185.84 86.28 C 186.12 103.90 186.08 121.55 185.89 139.17 C 174.48 121.90 165.50 103.13 154.40 85.65 C 144.97 69.05 135.50 52.45 125.98 35.91 Z" />
<path fill="#fffefe" opacity="1.00" d=" M 107.20 41.15 C 109.41 40.40 111.51 42.35 113.68 41.58 C 115.35 41.15 117.79 40.22 118.80 42.21 C 137.70 74.67 156.32 107.32 175.20 139.79 C 179.53 144.08 172.62 148.45 171.72 152.83 C 132.24 153.09 92.72 153.16 53.25 152.82 C 51.76 149.40 49.61 146.35 48.00 143.00 C 58.48 124.80 69.14 106.68 79.40 88.34 C 89.32 73.02 97.13 56.29 107.20 41.15 Z" />
<path fill="#fffefe" opacity="1.00" d=" M 52.92 162.04 C 92.62 162.00 132.32 161.92 172.02 162.07 C 172.00 162.52 171.94 163.42 171.91 163.87 C 157.05 172.49 142.13 181.07 127.27 189.67 C 123.45 186.71 119.22 184.02 114.31 183.52 C 108.24 182.05 102.99 186.28 98.01 188.99 C 82.67 181.31 68.56 171.38 53.22 163.72 C 53.15 163.30 52.99 162.46 52.92 162.04 Z" />
</g>
<g id="#e535abff">
<path fill="#e535ab" opacity="1.00" d=" M 111.31 2.38 C 124.18 1.39 135.77 14.93 131.39 27.74 C 146.46 36.34 161.60 45.41 176.73 53.63 C 182.73 47.58 192.48 45.94 200.00 50.03 C 209.29 53.85 212.38 66.13 208.92 74.94 C 206.69 81.21 200.46 84.14 195.10 87.17 C 194.90 104.07 194.96 120.98 195.06 137.89 C 202.81 141.15 210.93 147.60 210.01 157.00 C 212.54 171.55 193.97 182.14 181.96 175.06 C 178.84 174.83 177.16 169.20 173.98 171.95 C 162.11 179.17 149.96 185.93 137.91 192.84 C 135.66 194.17 133.01 195.01 131.35 197.15 C 131.95 202.02 132.68 207.55 129.94 211.94 C 125.36 221.27 112.00 225.99 103.07 219.94 C 94.62 216.10 91.31 205.86 93.61 197.26 C 78.37 188.95 63.52 179.41 48.27 171.36 C 42.34 177.34 32.44 179.20 25.07 174.93 C 15.63 171.09 12.66 159.00 16.08 150.06 C 18.31 143.79 24.54 140.85 29.90 137.83 C 30.10 120.93 30.04 104.01 29.94 87.11 C 24.00 84.19 17.16 80.31 15.59 73.33 C 13.03 64.90 16.02 54.28 24.28 50.30 C 31.95 46.28 42.41 47.03 48.25 53.77 C 63.47 45.32 78.35 36.15 93.61 27.73 C 89.75 15.73 99.16 3.22 111.31 2.38 M 98.05 36.21 C 82.83 44.04 68.38 53.40 53.15 61.25 C 52.99 65.13 54.24 69.11 52.80 72.88 C 51.10 79.73 45.58 84.05 39.17 86.24 C 38.70 102.15 39.14 118.10 39.02 134.03 C 35.65 142.41 39.95 139.21 41.05 137.06 C 59.90 103.06 80.01 69.76 99.00 35.87 L 98.05 36.21 M 125.98 35.91 C 135.50 52.45 144.97 69.05 154.40 85.65 C 165.50 103.13 174.48 121.90 185.89 139.17 C 186.08 121.55 186.12 103.90 185.84 86.28 C 175.42 83.60 169.46 72.41 171.88 62.18 C 165.10 57.03 157.24 53.50 150.01 49.04 C 141.92 44.81 134.39 39.44 125.98 35.91 M 107.20 41.15 C 97.13 56.29 89.32 73.02 79.40 88.34 C 69.14 106.68 58.48 124.80 48.00 143.00 C 49.61 146.35 51.76 149.40 53.25 152.82 C 92.72 153.16 132.24 153.09 171.72 152.83 C 172.62 148.45 179.53 144.08 175.20 139.79 C 156.32 107.32 137.70 74.67 118.80 42.21 C 117.79 40.22 115.35 41.15 113.68 41.58 C 111.51 42.35 109.41 40.40 107.20 41.15 M 52.92 162.04 C 52.99 162.46 53.15 163.30 53.22 163.72 C 68.56 171.38 82.67 181.31 98.01 188.99 C 102.99 186.28 108.24 182.05 114.31 183.52 C 119.22 184.02 123.45 186.71 127.27 189.67 C 142.13 181.07 157.05 172.49 171.91 163.87 C 171.94 163.42 172.00 162.52 172.02 162.07 C 132.32 161.92 92.62 162.00 52.92 162.04 Z" />
</g>
</svg>
