<?xml version="1.0" encoding="UTF-8" ?>
<!DOCTYPE svg PUBLIC "-//W3C//DTD SVG 1.1//EN" "http://www.w3.org/Graphics/SVG/1.1/DTD/svg11.dtd">
<svg width="225pt" height="225pt" viewBox="0 0 225 225" version="1.1" xmlns="http://www.w3.org/2000/svg">
<g id="#fffefeff">
<path fill="#fffefe" opacity="1.00" d=" M 0.00 0.00 L 225.00 0.00 L 225.00 225.00 L 0.00 225.00 L 0.00 0.00 M 56.40 17.37 C 46.62 18.22 37.21 21.69 28.98 26.97 C -0.43 45.37 -6.18 90.46 17.27 115.70 C 46.68 145.28 76.26 174.72 105.75 204.24 C 108.30 207.81 113.78 209.49 117.18 206.20 C 143.35 180.66 169.08 154.80 194.75 128.75 C 208.77 116.46 221.65 101.03 222.63 81.50 C 224.07 59.11 212.92 36.06 192.96 25.04 C 166.29 8.71 130.85 19.11 112.31 42.87 C 98.84 26.53 78.21 14.54 56.40 17.37 Z" />
</g>
<g id="#dd2424ff">
<path fill="#dd2424" opacity="1.00" d=" M 56.40 17.37 C 78.21 14.54 98.84 26.53 112.31 42.87 C 130.85 19.11 166.29 8.71 192.96 25.04 C 212.92 36.06 224.07 59.11 222.63 81.50 C 221.65 101.03 208.77 116.46 194.75 128.75 C 169.08 154.80 143.35 180.66 117.18 206.20 C 113.78 209.49 108.30 207.81 105.75 204.24 C 76.26 174.72 46.68 145.28 17.27 115.70 C -6.18 90.46 -0.43 45.37 28.98 26.97 C 37.21 21.69 46.62 18.22 56.40 17.37 Z" />
</g>
</svg>
