<?xml version="1.0" encoding="UTF-8" ?>
<!DOCTYPE svg PUBLIC "-//W3C//DTD SVG 1.1//EN" "http://www.w3.org/Graphics/SVG/1.1/DTD/svg11.dtd">
<svg width="400pt" height="231pt" viewBox="0 0 400 231" version="1.1" xmlns="http://www.w3.org/2000/svg">
<g id="#feffffff">
<path fill="#feffff" opacity="1.00" d=" M 0.00 0.00 L 96.25 0.00 C 64.69 38.81 32.10 76.81 0.00 115.20 L 0.00 0.00 Z" />
<path fill="#feffff" opacity="1.00" d=" M 96.90 0.00 L 303.12 0.00 C 294.36 8.01 284.11 14.43 275.86 22.95 C 301.60 53.62 327.63 84.13 352.93 115.13 C 328.74 146.74 300.34 176.68 276.04 208.72 C 284.88 216.33 294.20 223.37 303.03 231.00 L 96.87 231.00 C 106.00 223.41 115.61 216.32 124.17 208.09 C 98.53 177.28 72.74 146.57 46.91 115.91 C 71.61 84.36 98.67 54.08 124.13 22.94 C 115.88 14.46 105.51 8.18 96.90 0.00 M 110.12 98.07 C 110.03 109.41 109.26 121.35 110.69 132.31 C 121.96 133.93 134.26 132.69 145.92 132.92 C 146.10 121.30 146.08 109.68 145.94 98.07 C 134.00 97.89 122.06 97.92 110.12 98.07 M 182.08 98.08 C 181.89 109.69 181.91 121.31 182.06 132.93 C 194.01 133.10 205.97 133.09 217.92 132.92 C 218.10 121.30 218.08 109.68 217.94 98.07 C 205.99 97.90 194.03 97.91 182.08 98.08 M 254.08 98.08 C 253.90 109.69 253.90 121.31 254.08 132.92 C 265.73 132.70 278.04 133.92 289.30 132.31 C 291.57 121.50 289.21 109.28 289.94 98.07 C 277.99 97.90 266.03 97.91 254.08 98.08 Z" />
<path fill="#feffff" opacity="1.00" d=" M 303.80 0.00 L 400.00 0.00 L 400.00 115.19 C 367.90 76.83 335.40 38.78 303.80 0.00 Z" />
<path fill="#feffff" opacity="1.00" d=" M 0.00 115.80 C 32.10 154.17 64.60 192.22 96.19 231.00 L 0.00 231.00 L 0.00 115.80 Z" />
<path fill="#feffff" opacity="1.00" d=" M 303.65 231.00 C 335.14 192.12 367.65 153.99 400.00 115.80 L 400.00 231.00 L 303.65 231.00 Z" />
</g>
<g id="#1b8ab2ff">
<path fill="#1b8ab2" opacity="1.00" d=" M 96.25 0.00 L 96.90 0.00 C 105.51 8.18 115.88 14.46 124.13 22.94 C 98.67 54.08 71.61 84.36 46.91 115.91 C 72.74 146.57 98.53 177.28 124.17 208.09 C 115.61 216.32 106.00 223.41 96.87 231.00 L 96.19 231.00 C 64.60 192.22 32.10 154.17 0.00 115.80 L 0.00 115.20 C 32.10 76.81 64.69 38.81 96.25 0.00 Z" />
<path fill="#1b8ab2" opacity="1.00" d=" M 303.12 0.00 L 303.80 0.00 C 335.40 38.78 367.90 76.83 400.00 115.19 L 400.00 115.80 C 367.65 153.99 335.14 192.12 303.65 231.00 L 303.03 231.00 C 294.20 223.37 284.88 216.33 276.04 208.72 C 300.34 176.68 328.74 146.74 352.93 115.13 C 327.63 84.13 301.60 53.62 275.86 22.95 C 284.11 14.43 294.36 8.01 303.12 0.00 Z" />
<path fill="#1b8ab2" opacity="1.00" d=" M 110.12 98.07 C 122.06 97.92 134.00 97.89 145.94 98.07 C 146.08 109.68 146.10 121.30 145.92 132.92 C 134.26 132.69 121.96 133.93 110.69 132.31 C 109.26 121.35 110.03 109.41 110.12 98.07 Z" />
<path fill="#1b8ab2" opacity="1.00" d=" M 182.08 98.08 C 194.03 97.91 205.99 97.90 217.94 98.07 C 218.08 109.68 218.10 121.30 217.92 132.92 C 205.97 133.09 194.01 133.10 182.06 132.93 C 181.91 121.31 181.89 109.69 182.08 98.08 Z" />
<path fill="#1b8ab2" opacity="1.00" d=" M 254.08 98.08 C 266.03 97.91 277.99 97.90 289.94 98.07 C 289.21 109.28 291.57 121.50 289.30 132.31 C 278.04 133.92 265.73 132.70 254.08 132.92 C 253.90 121.31 253.90 109.69 254.08 98.08 Z" />
</g>
</svg>
