<?xml version="1.0" encoding="UTF-8" ?>
<!DOCTYPE svg PUBLIC "-//W3C//DTD SVG 1.1//EN" "http://www.w3.org/Graphics/SVG/1.1/DTD/svg11.dtd">
<svg width="240pt" height="240pt" viewBox="0 0 240 240" version="1.1" xmlns="http://www.w3.org/2000/svg">
<g id="#f5cac9fe">
<path fill="#f5cac9" opacity="1.00" d=" M 75.39 44.28 C 96.76 25.05 131.50 21.48 156.01 36.96 C 157.53 38.58 160.39 38.33 161.59 40.37 C 162.42 42.04 164.49 42.03 165.82 43.12 C 168.25 46.66 170.92 50.24 174.72 52.39 C 177.85 56.51 181.77 60.63 183.34 65.78 C 193.03 65.45 202.34 68.66 210.68 73.33 C 211.73 74.80 212.84 76.11 214.79 76.25 C 217.36 79.64 219.92 83.27 223.72 85.38 C 229.93 93.44 234.13 103.43 234.40 113.71 C 238.43 137.85 219.29 161.77 196.27 166.69 C 192.68 165.94 192.29 161.15 195.30 159.36 C 201.05 157.42 206.13 154.09 211.58 151.52 C 218.30 144.39 225.38 136.54 226.47 126.35 C 229.02 113.52 224.85 100.74 218.14 89.99 C 216.55 86.57 213.44 83.44 210.01 81.85 C 207.73 81.02 205.62 79.79 203.63 78.43 C 196.20 74.20 187.46 74.01 179.20 72.81 C 175.97 68.05 173.26 62.85 170.03 58.05 C 168.20 54.22 165.06 50.45 161.00 48.86 C 156.28 46.93 152.78 42.80 147.92 41.12 C 134.58 35.38 119.22 32.83 105.09 37.20 C 98.84 39.18 92.41 41.15 87.08 45.11 C 85.11 46.47 83.25 48.01 81.04 48.96 C 77.21 50.81 73.48 53.95 71.84 57.99 C 67.85 65.39 62.73 72.41 60.63 80.69 C 58.82 85.71 59.98 91.59 57.24 96.26 C 54.77 100.52 48.58 96.15 44.98 97.07 C 25.28 98.40 10.63 118.88 15.72 138.11 C 16.26 141.75 18.21 144.82 19.94 147.97 C 20.73 150.93 23.25 152.92 25.87 154.26 C 31.64 158.38 38.94 159.47 45.59 161.42 C 48.98 163.04 48.69 168.19 44.95 168.95 C 36.45 167.14 26.39 165.63 20.40 158.71 C 19.23 156.54 17.46 154.77 15.29 153.59 C 12.27 151.76 11.08 148.20 9.87 145.08 C 4.72 132.07 7.03 116.54 15.22 105.29 C 18.41 103.19 21.48 100.65 23.39 97.29 C 28.34 93.59 34.78 90.96 40.98 90.01 C 43.60 88.95 49.37 91.51 50.95 89.01 C 52.97 78.44 55.64 67.19 62.80 58.85 C 64.53 56.82 65.07 53.96 67.23 52.31 C 70.40 50.17 73.49 47.66 75.39 44.28 Z" />
</g>
<g id="#8e98b6df">
<path fill="#8e98b6" opacity="0.87" d=" M 165.82 43.12 C 166.28 43.16 167.21 43.22 167.67 43.26 C 169.21 46.84 173.79 48.71 174.72 52.39 C 170.92 50.24 168.25 46.66 165.82 43.12 Z" />
<path fill="#8e98b6" opacity="0.87" d=" M 67.23 52.31 C 68.85 49.28 71.96 45.40 75.39 44.28 C 73.49 47.66 70.40 50.17 67.23 52.31 Z" />
<path fill="#8e98b6" opacity="0.87" d=" M 71.84 57.99 C 73.48 53.95 77.21 50.81 81.04 48.96 C 78.27 52.18 75.50 55.76 71.84 57.99 Z" />
<path fill="#8e98b6" opacity="0.87" d=" M 161.00 48.86 C 165.06 50.45 168.20 54.22 170.03 58.05 C 166.82 55.26 163.26 52.51 161.00 48.86 Z" />
<path fill="#8e98b6" opacity="0.87" d=" M 214.79 76.25 C 215.26 76.24 216.20 76.24 216.68 76.24 C 218.19 79.84 222.78 81.70 223.72 85.38 C 219.92 83.27 217.36 79.64 214.79 76.25 Z" />
<path fill="#8e98b6" opacity="0.87" d=" M 210.01 81.85 C 213.44 83.44 216.55 86.57 218.14 89.99 C 214.79 88.03 211.96 85.21 210.01 81.85 Z" />
<path fill="#8e98b6" opacity="0.87" d=" M 40.98 90.01 C 41.74 87.05 48.14 89.74 50.95 89.01 C 49.37 91.51 43.60 88.95 40.98 90.01 Z" />
<path fill="#8e98b6" opacity="0.87" d=" M 15.22 105.29 C 16.89 102.28 19.95 98.39 23.39 97.29 C 21.48 100.65 18.41 103.19 15.22 105.29 Z" />
<path fill="#8e98b6" opacity="0.87" d=" M 114.34 126.47 C 124.27 124.40 134.28 127.42 143.04 131.96 C 156.87 140.42 164.53 157.08 163.10 173.09 C 167.50 169.51 171.13 165.10 175.27 161.24 C 176.74 160.33 178.58 162.30 177.83 163.78 C 173.06 168.66 167.83 173.14 163.46 178.38 C 162.93 180.23 160.84 180.32 159.31 179.77 C 155.22 173.63 149.13 169.19 144.25 163.73 C 143.32 162.26 145.31 160.42 146.78 161.16 C 150.84 165.15 154.57 169.51 158.93 173.18 C 160.74 156.51 151.20 138.65 135.08 132.84 C 120.07 126.28 101.40 131.64 91.29 144.27 C 90.69 147.37 85.89 145.75 87.28 143.27 C 92.97 133.68 103.74 128.59 114.34 126.47 Z" />
<path fill="#8e98b6" opacity="0.87" d=" M 19.94 147.97 C 22.10 149.73 25.05 151.43 25.87 154.26 C 23.25 152.92 20.73 150.93 19.94 147.97 Z" />
<path fill="#8e98b6" opacity="0.87" d=" M 15.29 153.59 C 17.46 154.77 19.23 156.54 20.40 158.71 C 18.17 158.37 15.62 155.83 15.29 153.59 Z" />
<path fill="#8e98b6" opacity="0.87" d=" M 79.39 156.30 C 80.47 155.85 81.57 155.83 82.69 156.23 C 86.78 162.36 92.86 166.81 97.75 172.27 C 98.68 173.73 96.69 175.58 95.22 174.84 C 91.16 170.84 87.43 166.49 83.07 162.82 C 81.91 174.20 85.79 186.01 93.72 194.27 C 105.51 206.98 126.59 209.70 141.01 200.02 C 145.56 197.72 148.63 193.65 152.27 190.23 C 154.05 189.19 155.98 191.98 154.37 193.33 C 142.24 210.44 116.05 215.29 98.65 203.39 C 84.45 195.53 77.93 178.48 78.86 162.87 C 74.59 166.59 70.85 170.87 66.73 174.76 C 65.26 175.67 63.42 173.69 64.17 172.22 C 69.15 166.85 75.24 162.37 79.39 156.30 Z" />
</g>
</svg>
