<?xml version="1.0" encoding="UTF-8" ?>
<!DOCTYPE svg PUBLIC "-//W3C//DTD SVG 1.1//EN" "http://www.w3.org/Graphics/SVG/1.1/DTD/svg11.dtd">
<svg width="800pt" height="800pt" viewBox="0 0 800 800" version="1.1" xmlns="http://www.w3.org/2000/svg">
<g id="#126dadff">
<path fill="#126dad" opacity="1.00" d=" M 446.40 0.00 L 448.20 0.00 C 444.48 20.29 444.45 41.27 449.61 61.32 C 454.98 82.22 466.72 100.98 481.37 116.65 C 496.92 131.28 514.12 144.73 533.95 153.06 C 557.85 164.26 585.26 168.07 611.12 162.23 C 624.91 160.42 637.30 153.84 650.09 148.92 C 649.78 151.23 648.28 153.09 646.90 154.87 C 635.27 171.32 618.34 184.13 598.96 189.86 C 573.61 198.05 546.37 195.07 520.88 189.13 C 499.64 182.84 479.91 171.45 464.20 155.79 C 448.23 139.00 435.84 118.81 428.11 96.96 C 422.34 80.33 421.26 62.20 424.94 44.98 C 428.33 28.47 436.70 13.58 446.40 0.00 Z" />
<path fill="#126dad" opacity="1.00" d=" M 329.31 30.36 L 330.01 29.88 C 322.05 70.18 320.14 112.86 333.56 152.24 C 340.77 173.25 351.47 193.18 365.70 210.28 C 391.65 241.52 426.12 264.50 462.84 281.22 C 504.34 299.39 552.64 304.30 596.10 290.26 C 623.57 281.43 649.17 266.08 668.75 244.75 C 671.19 242.95 672.66 239.24 675.94 238.90 C 667.26 262.05 652.73 282.85 634.75 299.74 C 601.68 328.91 557.68 344.01 514.01 346.02 C 500.55 345.67 486.97 347.02 473.65 344.59 C 426.49 338.28 381.99 315.19 349.25 280.75 C 314.03 247.28 290.20 200.92 287.84 151.99 C 282.80 107.97 298.43 62.10 329.31 30.36 Z" />
<path fill="#126dad" opacity="1.00" d=" M 186.27 80.32 C 186.69 80.21 187.54 80.00 187.96 79.89 C 182.86 109.94 177.21 140.40 178.88 170.99 C 179.16 221.11 195.28 270.95 223.95 312.03 C 244.71 341.86 271.39 367.00 300.79 388.22 C 327.37 405.88 354.46 423.75 384.82 434.23 C 406.30 442.51 429.16 446.71 452.00 449.13 C 490.47 453.55 529.98 449.96 566.77 437.60 C 601.78 426.64 633.76 406.54 659.27 380.28 C 659.70 380.18 660.54 380.00 660.97 379.90 C 626.10 456.49 547.15 509.04 464.00 517.00 C 423.87 521.16 382.87 518.12 344.03 506.84 C 279.96 488.03 223.79 446.23 183.98 393.02 C 151.19 348.36 129.45 294.68 126.94 238.99 C 122.77 189.25 137.94 138.10 168.85 98.84 C 174.36 92.52 178.81 84.52 186.27 80.32 Z" />
<path fill="#126dad" opacity="1.00" d=" M 204.01 582.02 C 209.99 582.00 215.99 581.81 221.97 582.05 L 222.02 583.01 C 216.00 582.98 209.99 582.97 203.98 583.00 L 204.01 582.02 Z" />
<path fill="#126dad" opacity="1.00" d=" M 254.56 594.45 C 259.84 596.30 265.80 602.13 267.51 607.46 C 263.39 602.92 259.03 598.63 254.56 594.45 Z" />
<path fill="#126dad" opacity="1.00" d=" M 148.33 611.31 C 151.40 606.35 156.82 600.60 162.46 598.46 C 158.35 603.32 153.13 607.16 148.33 611.31 Z" />
<path fill="#126dad" opacity="1.00" d=" M 742.21 599.15 C 756.46 598.87 770.72 598.95 784.97 599.05 C 784.75 599.30 784.29 599.79 784.07 600.03 C 770.47 600.11 756.88 599.70 743.30 600.21 C 741.63 601.91 740.34 603.95 738.49 605.49 C 738.56 603.02 740.69 600.99 742.21 599.15 Z" />
<path fill="#126dad" opacity="1.00" d=" M 269.87 611.08 C 272.43 612.56 274.80 616.96 274.64 620.34 C 272.47 617.58 271.25 614.24 269.87 611.08 Z" />
<path fill="#126dad" opacity="1.00" d=" M 727.44 621.45 C 728.35 617.96 731.26 613.90 734.13 612.06 C 732.00 615.23 730.96 619.46 727.44 621.45 Z" />
<path fill="#126dad" opacity="1.00" d=" M 764.06 630.10 C 766.02 625.03 769.19 619.77 773.71 616.60 C 771.47 621.48 768.13 626.46 764.06 630.10 Z" />
<path fill="#126dad" opacity="1.00" d=" M 80.01 618.02 C 92.33 617.96 104.66 617.97 116.99 618.01 C 118.55 617.10 118.64 621.94 117.21 620.89 C 117.07 620.45 116.80 619.57 116.67 619.13 C 104.89 618.93 93.09 618.75 81.33 619.22 C 81.04 619.71 80.47 620.69 80.18 621.19 C 80.14 620.40 80.05 618.81 80.01 618.02 Z" />
<path fill="#126dad" opacity="1.00" d=" M 306.01 618.02 C 317.33 618.03 328.67 617.85 339.99 618.06 L 339.94 619.02 C 329.08 619.20 318.17 618.55 307.34 619.24 C 307.05 619.73 306.47 620.71 306.18 621.20 C 306.14 620.41 306.05 618.82 306.01 618.02 Z" />
<path fill="#126dad" opacity="1.00" d=" M 520.71 619.32 C 524.45 619.96 529.18 621.29 531.00 625.06 C 527.35 623.59 524.07 621.32 520.71 619.32 Z" />
<path fill="#126dad" opacity="1.00" d=" M 187.00 622.86 C 186.46 620.53 190.31 619.17 191.98 620.44 C 190.41 621.41 188.76 622.26 187.00 622.86 Z" />
<path fill="#126dad" opacity="1.00" d=" M 338.97 629.01 C 339.02 626.25 339.34 623.42 339.74 620.74 C 339.49 623.19 341.30 628.11 338.97 629.01 Z" />
<path fill="#126dad" opacity="1.00" d=" M 453.07 627.12 C 455.30 624.30 460.28 621.54 464.33 621.35 C 460.96 623.96 456.94 625.47 453.07 627.12 Z" />
<path fill="#126dad" opacity="1.00" d=" M 668.87 622.39 C 670.58 622.10 672.96 624.41 672.52 626.16 C 670.68 625.71 669.18 624.27 668.87 622.39 Z" />
<path fill="#126dad" opacity="1.00" d=" M 182.14 626.82 C 181.41 624.86 184.14 622.29 186.06 623.26 C 185.00 624.68 183.82 626.11 182.14 626.82 Z" />
<path fill="#126dad" opacity="1.00" d=" M 229.95 623.42 C 231.90 622.11 234.88 625.08 233.59 627.04 C 232.29 625.92 231.07 624.71 229.95 623.42 Z" />
<path fill="#126dad" opacity="1.00" d=" M 531.69 625.35 C 533.93 625.92 537.64 628.78 537.54 631.45 C 535.38 629.62 533.13 627.81 531.69 625.35 Z" />
<path fill="#126dad" opacity="1.00" d=" M 716.45 637.46 C 718.19 633.05 720.77 627.38 725.22 625.10 C 722.60 629.38 720.65 634.49 716.45 637.46 Z" />
<path fill="#126dad" opacity="1.00" d=" M 131.35 640.29 C 132.25 635.65 134.62 629.97 138.06 626.98 C 136.35 631.65 134.08 636.11 131.35 640.29 Z" />
<path fill="#126dad" opacity="1.00" d=" M 173.27 640.28 C 173.28 636.16 175.34 629.88 179.94 628.90 C 177.16 632.35 175.26 636.34 173.27 640.28 Z" />
<path fill="#126dad" opacity="1.00" d=" M 438.32 639.31 C 439.36 636.65 442.35 632.87 445.40 632.38 C 443.68 635.25 441.05 637.44 438.32 639.31 Z" />
<path fill="#126dad" opacity="1.00" d=" M 753.84 643.07 C 754.97 639.57 757.80 636.76 760.68 634.59 C 759.70 637.86 756.96 641.35 753.84 643.07 Z" />
<path fill="#126dad" opacity="1.00" d=" M 707.44 650.45 C 708.36 646.96 711.26 642.90 714.12 641.06 C 711.99 644.22 710.96 648.47 707.44 650.45 Z" />
<path fill="#126dad" opacity="1.00" d=" M 431.33 651.31 C 431.51 648.89 432.54 644.63 435.12 644.08 C 434.02 646.56 432.76 648.99 431.33 651.31 Z" />
<path fill="#126dad" opacity="1.00" d=" M 749.94 647.81 C 750.01 645.79 751.65 644.28 753.54 643.87 C 753.86 645.62 751.59 647.73 749.94 647.81 Z" />
<path fill="#126dad" opacity="1.00" d=" M 110.58 647.75 C 110.90 647.26 111.53 646.27 111.84 645.78 C 111.88 646.58 111.95 648.18 111.99 648.98 C 99.32 648.97 86.64 649.11 73.98 648.94 L 74.17 648.03 C 86.31 647.82 98.46 648.34 110.58 647.75 Z" />
<path fill="#126dad" opacity="1.00" d=" M 168.32 654.30 C 167.90 651.51 168.11 647.20 171.11 645.99 C 170.27 648.78 169.33 651.55 168.32 654.30 Z" />
<path fill="#126dad" opacity="1.00" d=" M 473.09 650.78 C 472.45 648.50 476.33 647.17 477.96 648.40 C 476.45 649.42 474.84 650.27 473.09 650.78 Z" />
<path fill="#126dad" opacity="1.00" d=" M 497.04 648.38 C 498.67 647.16 502.59 648.53 501.89 650.83 C 500.16 650.24 498.54 649.40 497.04 648.38 Z" />
<path fill="#126dad" opacity="1.00" d=" M 544.00 648.98 L 544.98 649.01 C 544.98 653.30 545.16 657.65 544.96 661.97 L 544.01 662.01 C 543.96 657.65 544.00 653.30 544.00 648.98 Z" />
<path fill="#126dad" opacity="1.00" d=" M 745.95 652.80 C 746.04 650.75 747.72 649.21 749.67 648.82 C 749.80 650.59 747.64 652.67 745.95 652.80 Z" />
<path fill="#126dad" opacity="1.00" d=" M 464.26 660.28 C 464.23 656.23 468.22 651.38 472.26 651.08 C 469.42 653.99 466.76 657.06 464.26 660.28 Z" />
<path fill="#126dad" opacity="1.00" d=" M 741.98 657.69 C 742.10 655.68 743.76 654.17 745.67 653.82 C 745.84 655.55 743.67 657.73 741.98 657.69 Z" />
<path fill="#126dad" opacity="1.00" d=" M 696.44 666.45 C 697.35 662.96 700.26 658.89 703.13 657.06 C 701.00 660.22 699.96 664.47 696.44 666.45 Z" />
<path fill="#126dad" opacity="1.00" d=" M 643.81 660.89 C 641.28 661.61 643.84 651.59 648.00 657.98 C 659.34 658.10 670.69 657.81 682.03 658.07 L 681.82 659.01 C 669.32 659.06 656.82 658.80 644.32 659.12 C 644.20 659.57 643.94 660.45 643.81 660.89 Z" />
<path fill="#126dad" opacity="1.00" d=" M 730.85 671.92 C 733.50 666.80 737.44 662.29 741.75 658.52 C 741.33 661.69 737.73 663.54 736.31 666.29 C 734.63 668.25 733.45 671.05 730.85 671.92 Z" />
<path fill="#126dad" opacity="1.00" d=" M 686.85 677.31 C 690.71 676.74 690.60 670.86 694.12 670.07 C 691.91 673.04 691.20 677.79 687.22 678.97 C 687.13 678.56 686.94 677.73 686.85 677.31 Z" />
<path fill="#126dad" opacity="1.00" d=" M 721.88 683.94 C 723.67 679.45 727.01 675.78 730.52 672.56 C 728.96 676.53 725.61 681.37 721.88 683.94 Z" />
<path fill="#126dad" opacity="1.00" d=" M 121.26 685.26 C 121.51 682.80 119.70 677.90 122.02 676.99 C 121.97 679.77 121.61 682.44 121.26 685.26 Z" />
<path fill="#126dad" opacity="1.00" d=" M 161.45 690.97 C 160.63 689.13 159.75 684.92 162.01 684.16 C 162.35 686.42 162.17 688.69 161.45 690.97 Z" />
<path fill="#126dad" opacity="1.00" d=" M 716.94 691.06 C 717.71 688.47 719.21 686.00 721.58 684.59 C 721.11 687.15 719.27 689.76 716.94 691.06 Z" />
<path fill="#126dad" opacity="1.00" d=" M 264.01 700.08 C 264.16 697.44 264.82 694.63 266.78 692.74 C 266.50 695.24 266.04 698.49 264.01 700.08 Z" />
<path fill="#126dad" opacity="1.00" d=" M 537.58 694.75 C 537.90 694.26 538.53 693.28 538.85 692.79 C 538.88 693.58 538.95 695.18 538.99 695.98 C 512.32 696.05 485.65 695.97 458.98 695.99 C 457.54 695.90 456.21 696.42 454.90 696.89 C 454.97 696.45 455.10 695.55 455.17 695.11 C 482.63 694.62 510.12 695.46 537.58 694.75 Z" />
<path fill="#126dad" opacity="1.00" d=" M 121.38 694.71 C 122.25 697.74 121.96 700.85 122.03 704.01 C 118.73 703.79 121.68 697.18 121.38 694.71 Z" />
<path fill="#126dad" opacity="1.00" d=" M 454.60 707.33 C 453.51 704.57 454.25 701.50 454.66 698.72 C 455.12 701.56 455.18 704.49 454.60 707.33 Z" />
<path fill="#126dad" opacity="1.00" d=" M 164.10 702.85 C 167.52 706.63 171.70 709.47 176.17 711.88 C 171.04 711.85 165.33 707.94 164.10 702.85 Z" />
<path fill="#126dad" opacity="1.00" d=" M 259.71 710.97 C 260.38 708.44 260.75 705.58 262.81 703.76 C 262.37 706.15 262.13 710.11 259.71 710.97 Z" />
<path fill="#126dad" opacity="1.00" d=" M 123.14 710.82 C 124.90 713.21 125.73 716.14 126.06 719.07 C 123.86 717.32 123.16 713.62 123.14 710.82 Z" />
<path fill="#126dad" opacity="1.00" d=" M 358.99 714.01 C 366.78 719.56 361.92 710.64 365.21 711.05 C 365.11 712.33 364.98 713.62 364.84 714.92 C 352.65 715.12 340.45 715.08 328.27 714.89 L 327.99 713.99 C 338.32 713.93 348.66 714.04 358.99 714.01 Z" />
<path fill="#126dad" opacity="1.00" d=" M 699.96 717.98 C 701.52 715.55 702.06 712.15 704.70 710.60 C 702.07 717.24 699.00 724.21 695.01 730.10 C 695.23 725.62 698.37 722.01 699.96 717.98 Z" />
<path fill="#126dad" opacity="1.00" d=" M 268.00 715.00 C 264.71 714.47 256.79 717.29 259.51 711.79 C 259.43 716.75 267.11 711.90 268.00 715.00 Z" />
<path fill="#126dad" opacity="1.00" d=" M 472.74 715.29 C 475.56 715.22 481.19 715.08 484.01 715.01 L 483.99 716.02 C 480.21 716.04 476.46 715.80 472.74 715.29 Z" />
<path fill="#126dad" opacity="1.00" d=" M 506.75 716.27 C 515.13 715.92 523.56 715.82 531.96 716.06 C 531.60 717.17 533.06 720.34 531.10 719.98 C 531.04 719.26 530.92 717.82 530.85 717.10 C 522.82 716.62 514.72 717.57 506.75 716.27 Z" />
<path fill="#126dad" opacity="1.00" d=" M 128.30 723.61 C 132.66 727.95 136.23 733.13 140.31 737.76 C 135.34 734.70 130.08 729.41 128.30 723.61 Z" />
<path fill="#126dad" opacity="1.00" d=" M 292.14 727.82 C 294.68 731.35 297.52 734.76 299.33 738.77 C 295.72 737.09 293.15 731.76 292.14 727.82 Z" />
<path fill="#126dad" opacity="1.00" d=" M 421.29 730.64 C 424.30 733.35 426.91 736.49 429.31 739.76 C 425.95 738.02 421.98 734.77 421.29 730.64 Z" />
<path fill="#126dad" opacity="1.00" d=" M 53.18 741.98 C 52.58 739.80 53.57 737.70 54.90 736.04 C 55.59 738.25 54.98 740.49 53.18 741.98 Z" />
<path fill="#126dad" opacity="1.00" d=" M 649.91 746.92 C 650.93 744.23 651.85 740.53 654.25 739.04 C 653.69 741.40 652.64 743.61 651.95 745.93 C 662.29 746.07 672.65 746.08 683.00 745.95 C 685.87 747.23 688.04 745.47 689.96 743.93 C 690.56 746.87 686.53 748.75 684.01 747.00 C 672.64 746.91 661.27 747.18 649.91 746.92 Z" />
<path fill="#126dad" opacity="1.00" d=" M 50.17 750.26 C 50.56 747.58 51.30 744.93 52.93 742.74 C 52.73 745.42 52.26 748.35 50.17 750.26 Z" />
<path fill="#126dad" opacity="1.00" d=" M 162.17 746.00 C 164.43 745.61 166.70 745.79 168.96 746.54 C 167.14 747.37 162.93 748.24 162.17 746.00 Z" />
<path fill="#126dad" opacity="1.00" d=" M 181.00 747.02 C 201.66 746.97 222.33 747.00 243.00 747.00 L 243.00 747.98 C 222.34 748.00 201.68 748.04 181.02 747.97 L 181.00 747.02 Z" />
<path fill="#126dad" opacity="1.00" d=" M 332.00 747.01 C 344.66 746.97 357.33 746.98 370.00 747.00 L 370.00 747.98 C 357.34 747.98 344.68 748.10 332.02 747.96 L 332.00 747.01 Z" />
<path fill="#126dad" opacity="1.00" d=" M 456.99 746.99 C 461.75 746.93 466.52 746.98 471.25 747.73 C 466.50 747.92 461.76 748.17 457.02 747.96 L 456.99 746.99 Z" />
<path fill="#126dad" opacity="1.00" d=" M 486.71 747.61 C 496.02 746.17 505.59 747.31 515.00 747.01 L 515.00 747.98 C 505.58 747.73 496.08 748.63 486.71 747.61 Z" />
<path fill="#126dad" opacity="1.00" d=" M 45.18 760.33 C 46.09 757.67 47.33 755.13 48.96 752.85 C 48.83 755.67 47.85 758.91 45.18 760.33 Z" />
<path fill="#126dad" opacity="1.00" d=" M 38.99 765.82 C 40.63 764.85 42.31 763.96 44.01 763.10 C 44.37 766.09 41.22 766.71 38.99 765.82 Z" />
<path fill="#126dad" opacity="1.00" d=" M 22.03 771.10 C 21.26 767.58 24.22 766.36 27.18 767.09 C 25.03 767.82 23.24 769.16 22.03 771.10 Z" />
<path fill="#126dad" opacity="1.00" d=" M 65.81 794.98 C 68.47 791.29 72.14 788.24 75.98 785.89 C 73.40 789.68 69.99 793.00 65.81 794.98 Z" />
<path fill="#126dad" opacity="1.00" d=" M 17.97 799.30 C 20.39 797.87 22.79 798.11 25.16 800.00 L 18.17 800.00 L 17.97 799.30 Z" />
</g>
<g id="#141c29ff">
<path fill="#141c29" opacity="1.00" d=" M 178.87 589.75 C 186.58 585.64 195.49 584.51 203.98 583.00 C 209.99 582.97 216.00 582.98 222.02 583.01 C 231.11 583.44 239.43 587.12 247.72 590.30 C 249.95 591.79 251.79 593.84 254.56 594.45 C 259.03 598.63 263.39 602.92 267.51 607.46 C 268.09 608.80 269.03 609.89 269.87 611.08 C 271.25 614.24 272.47 617.58 274.64 620.34 C 278.03 629.46 278.79 639.37 279.01 649.01 C 277.55 661.59 272.99 673.55 269.63 685.70 C 268.64 688.02 268.46 690.78 266.78 692.74 C 264.82 694.63 264.16 697.44 264.01 700.08 C 263.87 701.38 264.02 702.89 262.81 703.76 C 260.75 705.58 260.38 708.44 259.71 710.97 L 259.51 711.79 C 256.79 717.29 264.71 714.47 268.00 715.00 C 270.67 714.91 273.34 714.93 276.01 715.05 C 275.78 725.91 271.40 736.20 269.79 746.91 C 260.86 747.11 251.93 746.97 243.00 747.00 C 222.33 747.00 201.66 746.97 181.00 747.02 C 176.97 747.11 172.95 746.95 168.96 746.54 C 166.70 745.79 164.43 745.61 162.17 746.00 C 154.41 745.81 146.13 742.94 140.31 737.76 C 136.23 733.13 132.66 727.95 128.30 723.61 C 126.83 722.60 126.25 720.75 126.06 719.07 C 125.73 716.14 124.90 713.21 123.14 710.82 C 121.89 708.80 121.52 706.54 122.03 704.01 C 121.96 700.85 122.25 697.74 121.38 694.71 C 120.74 691.56 120.90 688.39 121.26 685.26 C 121.61 682.44 121.97 679.77 122.02 676.99 C 123.02 664.34 126.95 652.03 131.35 640.29 C 134.08 636.11 136.35 631.65 138.06 626.98 C 139.85 623.63 142.41 620.73 144.37 617.46 C 145.30 615.03 148.28 614.15 148.33 611.31 C 153.13 607.16 158.35 603.32 162.46 598.46 C 168.18 595.79 172.55 591.16 178.87 589.75 M 191.98 620.44 C 190.31 619.17 186.46 620.53 187.00 622.86 L 186.06 623.26 C 184.14 622.29 181.41 624.86 182.14 626.82 C 181.22 627.30 180.48 627.99 179.94 628.90 C 175.34 629.88 173.28 636.16 173.27 640.28 C 172.38 642.11 171.76 644.05 171.11 645.99 C 168.11 647.20 167.90 651.51 168.32 654.30 C 165.38 664.03 163.17 674.06 162.01 684.16 C 159.75 684.92 160.63 689.13 161.45 690.97 C 160.61 695.04 161.68 699.49 164.10 702.85 C 165.33 707.94 171.04 711.85 176.17 711.88 C 178.18 713.17 180.68 713.47 182.98 713.94 C 196.26 714.04 209.54 714.09 222.82 713.90 C 223.04 713.61 223.47 713.02 223.68 712.73 C 228.56 692.78 235.09 673.24 239.21 653.09 C 241.35 644.06 238.71 634.57 233.59 627.04 C 234.88 625.08 231.90 622.11 229.95 623.42 C 218.88 615.86 204.22 615.45 191.98 620.44 Z" />
<path fill="#141c29" opacity="1.00" d=" M 743.30 600.21 C 756.88 599.70 770.47 600.11 784.07 600.03 C 781.87 606.05 777.92 611.78 773.71 616.60 C 769.19 619.77 766.02 625.03 764.06 630.10 C 763.97 632.17 762.13 633.39 760.68 634.59 C 757.80 636.76 754.97 639.57 753.84 643.07 L 753.54 643.87 C 751.65 644.28 750.01 645.79 749.94 647.81 L 749.67 648.82 C 747.72 649.21 746.04 650.75 745.95 652.80 L 745.67 653.82 C 743.76 654.17 742.10 655.68 741.98 657.69 L 741.75 658.52 C 737.44 662.29 733.50 666.80 730.85 671.92 L 730.52 672.56 C 727.01 675.78 723.67 679.45 721.88 683.94 L 721.58 684.59 C 719.21 686.00 717.71 688.47 716.94 691.06 C 713.06 697.59 709.65 704.87 704.70 710.60 C 702.06 712.15 701.52 715.55 699.96 717.98 C 698.37 722.01 695.23 725.62 695.01 730.10 C 694.23 734.93 691.69 739.36 689.96 743.93 C 688.04 745.47 685.87 747.23 683.00 745.95 C 672.65 746.08 662.29 746.07 651.95 745.93 C 652.64 743.61 653.69 741.40 654.25 739.04 C 660.65 721.58 655.57 702.95 650.17 685.97 C 648.06 677.63 644.40 669.53 643.81 660.89 C 643.94 660.45 644.20 659.57 644.32 659.12 C 656.82 658.80 669.32 659.06 681.82 659.01 C 682.21 665.40 685.93 670.98 686.85 677.31 C 686.94 677.73 687.13 678.56 687.22 678.97 C 691.20 677.79 691.91 673.04 694.12 670.07 C 695.02 668.93 695.86 667.78 696.44 666.45 C 699.96 664.47 701.00 660.22 703.13 657.06 C 704.68 654.94 706.33 652.85 707.44 650.45 C 710.96 648.47 711.99 644.22 714.12 641.06 C 715.01 639.93 715.86 638.79 716.45 637.46 C 720.65 634.49 722.60 629.38 725.22 625.10 C 726.01 623.91 726.85 622.76 727.44 621.45 C 730.96 619.46 732.00 615.23 734.13 612.06 C 735.70 609.95 737.26 607.82 738.49 605.49 C 740.34 603.95 741.63 601.91 743.30 600.21 Z" />
<path fill="#141c29" opacity="1.00" d=" M 464.33 621.35 C 482.28 614.94 502.51 612.28 520.71 619.32 C 524.07 621.32 527.35 623.59 531.00 625.06 L 531.69 625.35 C 533.13 627.81 535.38 629.62 537.54 631.45 C 540.83 636.70 543.32 642.71 544.00 648.98 C 544.00 653.30 543.96 657.65 544.01 662.01 C 544.23 672.46 541.13 682.69 538.85 692.79 C 538.53 693.28 537.90 694.26 537.58 694.75 C 510.12 695.46 482.63 694.62 455.17 695.11 C 455.10 695.55 454.97 696.45 454.90 696.89 C 454.84 697.35 454.72 698.26 454.66 698.72 C 454.25 701.50 453.51 704.57 454.60 707.33 C 456.12 715.57 466.18 714.67 472.74 715.29 C 476.46 715.80 480.21 716.04 483.99 716.02 C 491.57 716.13 499.18 715.65 506.75 716.27 C 514.72 717.57 522.82 716.62 530.85 717.10 C 530.92 717.82 531.04 719.26 531.10 719.98 C 530.20 729.07 527.24 737.88 525.77 746.92 C 523.07 746.95 517.69 746.99 515.00 747.01 C 505.59 747.31 496.02 746.17 486.71 747.61 C 481.58 748.11 476.38 748.31 471.25 747.73 C 466.52 746.98 461.75 746.93 456.99 746.99 C 447.67 747.28 436.48 746.47 429.31 739.76 C 426.91 736.49 424.30 733.35 421.29 730.64 C 416.37 725.22 416.77 716.80 417.10 709.99 C 419.26 689.89 423.79 669.95 431.33 651.31 C 432.76 648.99 434.02 646.56 435.12 644.08 C 436.27 642.49 438.41 641.67 438.32 639.31 C 441.05 637.44 443.68 635.25 445.40 632.38 C 448.57 631.68 450.19 628.54 453.07 627.12 C 456.94 625.47 460.96 623.96 464.33 621.35 M 477.96 648.40 C 476.33 647.17 472.45 648.50 473.09 650.78 L 472.26 651.08 C 468.22 651.38 464.23 656.23 464.26 660.28 C 463.28 662.42 461.79 664.48 461.94 666.95 C 476.94 667.04 491.94 667.02 506.94 666.97 C 507.35 661.28 507.50 653.98 501.89 650.83 C 502.59 648.53 498.67 647.16 497.04 648.38 C 490.78 646.35 484.26 647.16 477.96 648.40 Z" />
<path fill="#141c29" opacity="1.00" d=" M 573.22 618.07 C 599.70 618.16 626.21 617.50 652.67 618.42 C 658.40 618.18 663.65 620.46 668.87 622.39 C 669.18 624.27 670.68 625.71 672.52 626.16 C 676.32 633.56 677.76 641.80 679.06 649.95 C 653.43 650.17 627.79 649.77 602.17 650.11 C 601.95 650.40 601.52 650.97 601.30 651.26 C 594.55 683.15 588.00 715.11 580.76 746.89 C 569.15 747.11 557.54 747.02 545.94 746.95 C 554.88 703.98 564.32 661.06 573.22 618.07 Z" />
<path fill="#141c29" opacity="1.00" d=" M 81.33 619.22 C 93.09 618.75 104.89 618.93 116.67 619.13 C 116.80 619.57 117.07 620.45 117.21 620.89 C 115.86 629.22 114.38 637.70 111.84 645.78 C 111.53 646.27 110.90 647.26 110.58 647.75 C 98.46 648.34 86.31 647.82 74.17 648.03 C 76.33 639.13 78.96 630.26 80.18 621.19 C 80.47 620.69 81.04 619.71 81.33 619.22 Z" />
<path fill="#141c29" opacity="1.00" d=" M 307.34 619.24 C 318.17 618.55 329.08 619.20 339.94 619.02 C 339.89 619.45 339.79 620.31 339.74 620.74 C 339.34 623.42 339.02 626.25 338.97 629.01 C 338.00 647.47 330.82 665.01 328.56 683.34 C 327.44 693.46 325.47 703.97 327.99 713.99 L 328.27 714.89 C 340.45 715.08 352.65 715.12 364.84 714.92 C 364.98 713.62 365.11 712.33 365.21 711.05 C 371.76 680.37 379.05 649.83 385.22 619.07 C 396.47 618.99 407.74 618.84 419.00 619.07 C 417.67 630.30 414.58 641.24 412.44 652.34 C 406.04 683.89 398.78 715.28 392.85 746.92 C 385.22 747.08 377.61 746.99 370.00 747.00 C 357.33 746.98 344.66 746.97 332.00 747.01 C 320.87 747.48 307.59 747.59 299.33 738.77 C 297.52 734.76 294.68 731.35 292.14 727.82 C 290.03 725.12 290.78 721.07 290.01 718.01 C 289.75 704.97 292.18 692.08 294.37 679.29 C 298.61 659.98 301.62 640.44 306.18 621.20 C 306.47 620.71 307.05 619.73 307.34 619.24 Z" />
<path fill="#141c29" opacity="1.00" d=" M 73.35 658.16 C 85.24 657.80 97.15 657.97 109.04 658.07 C 108.76 664.65 106.81 670.97 105.47 677.39 C 100.08 701.62 95.08 725.93 89.03 750.01 C 85.77 762.29 83.39 775.26 75.98 785.89 C 72.14 788.24 68.47 791.29 65.81 794.98 C 61.76 797.53 56.90 798.15 52.53 800.00 L 25.16 800.00 C 22.79 798.11 20.39 797.87 17.97 799.30 C 17.51 799.16 16.58 798.90 16.12 798.76 C 17.73 789.47 20.98 780.48 22.03 771.10 C 23.24 769.16 25.03 767.82 27.18 767.09 C 31.14 766.94 35.10 766.60 38.99 765.82 C 41.22 766.71 44.37 766.09 44.01 763.10 C 44.40 762.17 44.80 761.24 45.18 760.33 C 47.85 758.91 48.83 755.67 48.96 752.85 C 49.38 751.99 49.78 751.12 50.17 750.26 C 52.26 748.35 52.73 745.42 52.93 742.74 L 53.18 741.98 C 54.98 740.49 55.59 738.25 54.90 736.04 C 62.71 710.51 63.09 683.02 73.35 658.16 Z" />
</g>
</svg>
