<?xml version="1.0" encoding="UTF-8" ?>
<!DOCTYPE svg PUBLIC "-//W3C//DTD SVG 1.1//EN" "http://www.w3.org/Graphics/SVG/1.1/DTD/svg11.dtd">
<svg width="840pt" height="811pt" viewBox="0 0 840 811" version="1.1" xmlns="http://www.w3.org/2000/svg">
<g id="#46828dfc">
<path fill="#46828d" opacity="1.00" d=" M 415.34 19.51 C 439.79 16.07 465.32 34.26 469.18 58.91 C 470.26 62.75 469.63 66.84 470.19 70.76 C 504.10 88.20 528.38 119.50 547.17 151.90 C 573.45 199.38 589.48 251.99 598.46 305.35 C 605.37 345.86 608.68 386.93 608.00 428.00 C 608.56 490.30 599.33 552.66 581.45 612.33 C 580.35 616.87 576.33 620.24 571.70 620.63 C 565.93 620.66 559.55 615.44 561.02 609.04 C 573.76 567.10 581.75 523.75 585.30 480.07 C 592.41 395.74 584.77 309.52 558.45 228.76 C 545.60 191.76 529.07 155.43 504.03 124.98 C 492.36 112.27 480.21 99.52 465.02 90.98 C 461.75 94.49 459.94 99.77 455.79 102.79 C 441.66 118.46 416.43 121.82 398.06 111.91 C 377.81 101.60 366.96 76.56 373.62 54.69 C 378.71 35.84 396.00 21.47 415.34 19.51 M 414.32 40.37 C 405.03 43.00 396.88 49.56 393.88 58.92 C 389.13 70.75 394.47 85.17 405.02 91.97 C 412.53 97.92 423.29 98.21 432.01 94.99 C 445.20 89.16 453.55 72.79 448.03 58.98 C 443.75 45.22 428.24 36.99 414.32 40.37 Z" />
<path fill="#46828d" opacity="1.00" d=" M 243.35 177.60 C 248.92 176.15 254.38 178.69 259.99 178.00 C 273.05 177.59 285.99 179.71 298.93 181.20 C 306.27 182.45 314.09 182.71 320.85 186.15 C 326.28 190.03 325.83 198.76 320.73 202.71 C 318.88 203.65 316.92 204.31 314.94 204.87 C 267.86 196.94 217.74 192.65 172.29 210.29 C 150.71 218.56 131.13 233.59 120.33 254.30 C 108.42 279.87 109.74 309.93 118.57 336.24 C 122.92 350.40 129.13 363.91 136.04 377.00 C 138.13 380.29 140.24 383.72 140.41 387.73 C 140.82 394.41 133.69 399.70 127.26 397.72 C 121.89 395.39 119.87 389.62 117.04 384.98 C 104.14 360.81 94.18 334.54 91.76 307.07 C 87.69 276.28 97.58 243.66 118.95 220.95 C 150.82 187.87 199.03 178.01 243.35 177.60 Z" />
<path fill="#46828d" opacity="1.00" d=" M 596.32 178.34 C 616.38 177.41 636.53 180.16 656.01 184.96 C 687.85 192.66 718.89 210.26 735.93 239.05 C 753.06 267.72 754.17 303.49 745.01 335.00 C 733.25 378.74 707.53 417.34 678.77 451.77 C 673.83 456.53 664.61 454.07 662.10 447.95 C 658.95 439.57 668.07 433.32 672.26 427.26 C 697.24 395.10 719.75 359.18 727.59 318.67 C 731.38 299.15 731.29 278.29 723.21 259.83 C 716.51 242.99 703.53 229.10 688.01 219.98 C 665.30 205.88 638.27 201.20 612.01 199.08 C 606.98 198.59 601.76 199.84 596.88 198.26 C 591.87 197.42 587.93 192.12 588.98 186.98 C 588.50 182.52 592.59 179.63 596.32 178.34 Z" />
<path fill="#46828d" opacity="1.00" d=" M 511.31 187.38 C 517.77 186.67 525.00 192.89 522.99 199.96 C 521.33 203.64 518.46 207.76 514.00 207.95 C 476.49 216.04 440.14 228.66 404.97 243.93 C 329.54 277.34 259.59 323.88 201.23 382.23 C 168.52 416.53 138.28 454.87 121.66 499.79 C 115.29 517.03 111.60 535.49 112.03 553.91 C 126.57 553.20 141.64 558.57 151.27 569.73 C 158.99 576.83 163.17 587.09 164.50 597.34 C 168.58 624.33 145.67 652.45 117.99 652.16 C 104.28 653.55 90.64 647.45 80.76 638.24 C 68.86 626.00 63.55 607.59 67.98 590.99 C 71.11 577.81 80.33 566.60 91.97 559.89 C 89.78 546.70 92.01 533.31 94.43 520.30 C 102.58 481.84 122.42 446.98 145.56 415.61 C 199.31 344.67 271.80 289.79 349.77 247.74 C 400.75 220.87 454.93 199.68 511.31 187.38 M 109.34 575.43 C 96.32 578.03 86.25 590.67 86.99 604.00 C 87.34 612.85 91.66 621.86 99.27 626.71 C 113.30 637.61 136.13 630.66 142.09 614.07 C 148.25 600.36 140.94 582.51 127.00 577.03 C 121.61 573.97 115.23 574.83 109.34 575.43 Z" />
<path fill="#46828d" opacity="1.00" d=" M 415.34 387.47 C 434.71 383.66 454.90 399.31 456.26 418.93 C 459.33 438.84 441.28 459.16 421.00 458.05 C 409.20 459.02 398.97 451.85 391.77 443.24 C 384.53 432.71 383.06 418.45 388.97 406.98 C 393.89 396.58 404.14 389.41 415.34 387.47 Z" />
<path fill="#46828d" opacity="1.00" d=" M 178.34 446.35 C 183.67 444.57 188.49 448.54 191.79 452.20 C 201.56 464.35 213.45 474.60 224.75 485.25 C 268.55 524.67 318.03 557.62 370.34 584.61 C 443.16 620.68 522.89 647.46 605.00 646.02 C 631.80 645.29 658.76 639.88 682.83 627.77 C 679.48 621.07 676.65 613.88 676.61 606.28 C 674.39 585.58 688.11 565.84 706.68 557.63 C 718.20 553.61 731.38 552.20 742.86 557.18 C 763.74 564.71 777.64 587.33 774.61 609.37 C 772.96 620.92 767.23 631.75 758.78 639.78 C 743.03 654.57 717.26 656.48 699.22 644.80 C 696.22 642.34 692.81 646.14 690.00 647.01 C 658.36 663.26 621.99 666.61 587.00 666.90 C 514.28 663.97 443.40 642.20 377.99 611.02 C 303.77 575.93 235.16 528.08 178.32 468.71 C 176.24 465.48 172.89 463.21 171.26 459.70 C 169.61 454.20 172.71 447.74 178.34 446.35 M 719.34 575.46 C 713.41 576.36 708.32 580.05 704.15 584.16 C 694.87 594.28 694.17 611.97 704.23 621.78 C 710.21 629.48 720.68 633.58 730.30 631.39 C 741.60 630.13 750.31 620.97 753.43 610.35 C 756.86 597.15 749.72 582.12 737.00 577.03 C 731.61 573.97 725.21 574.82 719.34 575.46 Z" />
<path fill="#46828d" opacity="1.00" d=" M 275.30 618.33 C 277.88 617.74 280.50 619.28 282.87 620.14 C 286.71 623.28 287.55 628.33 289.39 632.68 C 303.56 670.29 323.09 706.67 351.81 735.18 C 364.79 746.92 379.52 757.15 396.29 762.66 C 414.48 768.25 434.65 768.00 452.17 760.21 C 484.90 746.88 507.97 718.28 525.88 688.89 C 529.65 683.68 538.48 683.30 542.24 688.75 C 545.25 692.43 544.60 698.28 541.92 701.95 C 523.39 732.66 498.71 761.00 465.98 776.94 C 448.13 785.08 428.18 788.62 408.64 786.59 C 373.77 781.80 343.76 759.71 321.99 733.00 C 297.62 703.68 280.67 668.95 267.60 633.33 C 264.69 626.98 268.75 619.65 275.30 618.33 Z" />
</g>
</svg>
