<?xml version="1.0" encoding="UTF-8"?>
<!DOCTYPE svg PUBLIC "-//W3C//DTD SVG 1.1//EN" "http://www.w3.org/Graphics/SVG/1.1/DTD/svg11.dtd">
<!-- Creator: CorelDRAW X7.4 EN Portable -->
<svg xmlns="http://www.w3.org/2000/svg" xml:space="preserve" width="3300px" height="2550px" version="1.1" shape-rendering="geometricPrecision" text-rendering="geometricPrecision" image-rendering="optimizeQuality" fill-rule="evenodd" clip-rule="evenodd"
viewBox="0 0 3300 2550"
 xmlns:xlink="http://www.w3.org/1999/xlink">
 <g id="Layer_x0020_1">
  <metadata id="CorelCorpID_0Corel-Layer"/>
  <g id="_502191856">
   <rect fill="#FEFEFE" x="2264" y="227" width="555" height="144"/>
  </g>
  <path fill="#FEFEFE" d="M2589 987l650 0 0 -123 -650 0 0 123zm406 604l244 0 0 -144 -244 0 0 144zm97 944l136 0 0 -123 -136 0 0 123zm-2965 -2515l952 5 605 556 616 -566 694 -2 0 134 258 0 0 174 -279 0 0 117 -488 0 0 133 767 0 0 142 -1449 0 1 70 -1 74 597 0 0 121 -271 0 -2 144 1125 0 0 121 -205 0 0 127 -350 0 0 145 127 0 0 131 -360 0 0 144 788 0 0 132 -184 0 0 95 -97 0 0 144 281 0 0 100 -820 0 0 144 509 0 0 118 -641 0 -19 -1197 -597 549 -605 -557 0 1212 -952 0 0 -2510zm2706 2010l0 144 -117 0 0 -144 117 0zm-164 -1743l114 0 0 -144 -114 0 0 144zm-2206 72l231 0 0 -48 -231 0 0 48zm154 -109l130 0 0 -48 -130 0 0 48zm-48 215l81 0 0 -48 -81 0 0 48zm-284 -4l257 0 0 -49 -209 0 0 -162 261 0 0 -48 -309 0 0 10 0 0 0 200 0 26 0 23zm-9 101l212 0 0 -48 -212 0 0 48z"/>
 </g>
</svg>
