<?xml version="1.0" encoding="utf-8"?>
<!-- Generator: Adobe Illustrator 19.0.1, SVG Export Plug-In . SVG Version: 6.00 Build 0)  -->
<svg version="1.1" xmlns="http://www.w3.org/2000/svg" xmlns:xlink="http://www.w3.org/1999/xlink" x="0px" y="0px"
	 viewBox="0 0 56 56" width="56px" height="56px" style="enable-background:new 0 0 56 56;" xml:space="preserve">
<g id="Layer_4">
</g>
<g id="Design">
	<g>
		<g>
			<path style="fill:#00A0DC;" d="M27.5,6C26.67,6,26,5.33,26,4.5V1.26C26,0.43,26.67,0,27.5,0S29,0.43,29,1.26V4.5
				C29,5.33,28.33,6,27.5,6z"/>
			<path style="fill:#00A0DC;" d="M41.13,11.18c-0.38,0-0.77-0.15-1.06-0.44c-0.59-0.59-0.59-1.54,0-2.12l2.29-2.29
				c0.59-0.59,1.54-0.59,2.12,0c0.59,0.59,0.59,1.54,0,2.12l-2.29,2.29C41.9,11.03,41.51,11.18,41.13,11.18z"/>
			<path style="fill:#00A0DC;" d="M14.87,11.18c-0.38,0-0.77-0.15-1.06-0.44l-2.29-2.29c-0.59-0.59-0.59-1.54,0-2.12
				c0.58-0.59,1.54-0.59,2.12,0l2.29,2.29c0.59,0.59,0.59,1.54,0,2.12C15.64,11.03,15.25,11.18,14.87,11.18z"/>
			<path style="fill:#00A0DC;" d="M8.5,24H5.26C4.43,24,4,23.33,4,22.5S4.43,21,5.26,21H8.5c0.83,0,1.5,0.67,1.5,1.5S9.33,24,8.5,24
				z"/>
			<g>
				<g>
					<path style="fill:#FFFFFF;" d="M28,11c6.45,0,12,5.55,12,12s-5.55,11-12,11s-12-4.74-12-11.19S21.55,11,28,11"/>
				</g>
				<path style="fill:#9BDAF3;" d="M31,47c0,0.67-0.55,3-3,3s-3-2.33-3-3H31"/>
				<path style="fill:#00A0DC;" d="M50.74,24H47.5c-0.83,0-1.5-0.67-1.5-1.5s0.67-1.5,1.5-1.5h3.24c0.83,0,1.26,0.67,1.26,1.5
					S51.57,24,50.74,24z"/>
				<rect x="20.79" y="19.56" style="fill:none;" width="13.23" height="12.47"/>
				<rect x="22" y="41" style="fill:#9BDAF3;" width="12" height="3"/>
				<rect x="22" y="35" style="fill:#9BDAF3;" width="12" height="3"/>
				<path style="fill:#005E93;" d="M43,22.81c0-8.1-6.91-14.68-15-14.68c-8.1,0-15,6.59-15,14.68c0,4.76,2.39,8.98,6,11.66v5.23V41
					v2.4c0,1.6,1.42,3,3,3.44V47c0,2.71,2.15,6,6,6s6-3.29,6-6v-0.16c1.58-0.44,3-1.84,3-3.44V41v-1.3v-5.23
					C40.61,31.79,43,27.56,43,22.81z M28,50c-2.45,0-3-2.33-3-3h6C31,47.67,30.45,50,28,50z M34,44H22v-3h12V44z M34,38.2H22v-1.98
					V35h12v1.22V38.2z M34.97,32H21.13C18.06,30.02,16,26.74,16,22.81C16,16.36,21.55,11,28,11s12,5.55,12,12
					C40,26.89,37.98,30.07,34.97,32z"/>
				<path style="fill:#00A0DC;" d="M24.15,32h2.99c-0.26-3.04-0.97-5.47-1.67-7.03h5.09c-0.7,1.57-1.45,4.01-1.74,7.03h2.98
					c0.41-4.74,1.88-7.4,1.89-7.42c0.34-0.45,0.55-1.06,0.3-1.57c-0.25-0.51-0.77-1-1.34-1H23.5c-0.57,0-1.09,0.5-1.34,1.01
					c-0.25,0.51-0.19,1.13,0.16,1.58C22.33,24.62,23.76,27.19,24.15,32z"/>
			</g>
		</g>
		<rect style="fill:none;" width="56" height="56"/>
	</g>
</g>
<g id="Specs">
</g>
<g id="Grids">
</g>
<g id="Instruction">
</g>
</svg>
