<?xml version="1.0" encoding="utf-8"?>
<!-- Generator: Adobe Illustrator 21.1.0, SVG Export Plug-In . SVG Version: 6.00 Build 0)  -->
<svg version="1.1" id="Layer_1" xmlns="http://www.w3.org/2000/svg" xmlns:xlink="http://www.w3.org/1999/xlink" x="0px" y="0px"
	 viewBox="0 0 20 20" style="enable-background:new 0 0 20 20;" xml:space="preserve">
<style type="text/css">
	.st0{fill:#91C84F;}
</style>
<path class="st0" d="M9.5,19c-0.1,0-0.2,0-0.2-0.1c-0.1-0.1-2.3-1.3-4.6-3.3c-1.3-1.2-2.4-2.4-3.2-3.7C0.5,10.3,0,8.8,0,7.2
	C0,4.4,2.4,2,5.3,2c1,0,2,0.4,2.9,1c0.5,0.4,1,0.9,1.3,1.4c0.3-0.5,0.8-1,1.3-1.4c0.9-0.7,2-1,2.9-1C16.6,2,19,4.4,19,7.2
	c0,1.5-0.5,3.1-1.5,4.7c-0.8,1.2-1.8,2.5-3.2,3.7c-2.3,2-4.5,3.3-4.6,3.3C9.7,19,9.6,19,9.5,19L9.5,19z"/>
</svg>
