<?xml version="1.0" encoding="iso-8859-1"?>
<!-- Generator: Adobe Illustrator 19.0.0, SVG Export Plug-In . SVG Version: 6.00 Build 0)  -->
<svg version="1.1" id="Layer_1" xmlns="http://www.w3.org/2000/svg" xmlns:xlink="http://www.w3.org/1999/xlink" x="0px" y="0px"
	 viewBox="0 0 289.94 289.94" style="enable-background:new 0 0 289.94 289.94;" xml:space="preserve">
<g>
	<path style="fill:#91c84f;" d="M144.97,0C64.919,0,0,64.919,0,144.97c0,80.078,64.91,144.97,144.97,144.97
		c80.05,0,144.97-64.892,144.97-144.97C289.939,64.919,225.029,0,144.97,0z"/>
	<path style="fill:#FCF5E4;" d="M144.97,18.121c-70.048,0-126.848,56.81-126.848,126.848c0,70.057,56.792,126.849,126.848,126.849
		c70.038,0,126.849-56.792,126.849-126.849C271.818,74.931,215.008,18.121,144.97,18.121z M253.235,135.891h-90.244l62.672-63.533
		C241.112,89.501,251.223,111.545,253.235,135.891z M153.976,36.46c23.739,0.96,40.972,9.514,58.414,23.358l-58.414,62.971V36.46z
		 M126.269,135.891H36.677c1.839-22.054,10.266-42.241,23.322-58.604L126.269,135.891z M72.566,64.058
		c16.064-14.388,40.909-24.074,63.37-26.892v85.722C135.936,122.889,72.566,64.058,72.566,64.058z M126.042,153.849l-66.206,58.559
		c-13.002-16.373-21.356-36.523-23.159-58.559H126.042z M135.664,166.615v86.166c-22.57-2.827-47.206-12.603-63.306-27.091
		L135.664,166.615z M153.695,166.715l58.948,63.216c-17.487,13.962-35.11,22.579-58.948,23.567V166.715z M225.863,217.364
		l-62.636-63.515h90.035C251.269,178.168,241.257,200.203,225.863,217.364z"/>
</g>
<g>
</g>
<g>
</g>
<g>
</g>
<g>
</g>
<g>
</g>
<g>
</g>
<g>
</g>
<g>
</g>
<g>
</g>
<g>
</g>
<g>
</g>
<g>
</g>
<g>
</g>
<g>
</g>
<g>
</g>
</svg>
