<svg id="Group_2930" data-name="Group 2930" xmlns="http://www.w3.org/2000/svg" width="134.479" height="108.183" viewBox="0 0 134.479 108.183">
  <path id="Path_5" data-name="Path 5" d="M37.755,15.085l27.86.242.045-5.264L37.8,9.819ZM53.906,43.278l10.437.09.053-6.175L53.961,37.1Zm5,37.615,5.792.05.045-5.266-5.792-.05ZM-67.244-27.241l40.736.6L-.82-2.63l26.588-24.04H60.261l-.05,5.744H53.689L53.8-14.8l11.818.211L65.4-8.315,37.805-8.374l-.05,5.744L66.3-2.474,66.243,3.6,4.253,3.063l.022,2.969L4.2,9.24l25.562.222-.045,5.169-11.585-.1-.2,6.175,48.155.42L66.046,26.3l-8.76-.078-.047,5.41L42.255,31.5,42.2,37.672l5.457.048-.05,5.648L32.2,43.234l-.054,5.175,33.7.294-.085,6.04-7.851-.068V59.3l-4.164-.036-.053,6.175,12.015.106-.037,4.26L30.579,69.5l-.054,6.175,21.78.19-.044,5.026-27.43-.239-.367-51.179L-1.3,52.707-26.991,28.643l-.454,51.889-40.736-.354ZM32.84-14.584,47.747-14.8,47.8-20.97l-14.908.211Zm-85.8,1.973,9.862.085.019-2.059-9.862-.085Zm6.647-4.587,5.553.05.019-2.059-5.553-.048Zm-5.621,8.942,3.494.031.019-2.107-3.494-.031Zm-8.675-.065h6.1l.019-2.059-4.036.017.061-6.941,11.153.1.019-2.059-13.212-.115,0,.43-.075,8.569-.009,1.1Zm-.421,4.352,9.1.079.019-2.059-9.1-.079Z" transform="translate(68.181 27.241)" fill="#2b2e34"/>
</svg>
