<?xml version="1.0" encoding="utf-8"?>
<!-- Generator: Adobe Illustrator 21.1.0, SVG Export Plug-In . SVG Version: 6.00 Build 0)  -->
<svg version="1.1" id="Layer_1" xmlns="http://www.w3.org/2000/svg" xmlns:xlink="http://www.w3.org/1999/xlink" x="0px" y="0px"
	 viewBox="0 0 105.9 82.2" style="enable-background:new 0 0 105.9 82.2;" xml:space="preserve">
<rect x="74.2" y="5.1" transform="matrix(8.703502e-03 -1 1 8.703502e-03 62.7519 88.7972)" width="4" height="15.3"/>
<path d="M90.8,74.5l3.7,0l0-3.4l-3.7,0L90.8,74.5z M88.3,48.5l6.7,0.1l0-4l-6.7-0.1L88.3,48.5z M77.3,31.7l17.9,0.2l0-3.4l-17.9-0.2
	L77.3,31.7z M13.7,19.5l0-1.3l5.9,0.1l0,1.3L13.7,19.5z M21.8,16.8l0-1.4l2.2,0l0,1.4L21.8,16.8z M18.9,13.9l0-1.3l6.3,0.1l0,1.3
	L18.9,13.9z M23.2,10.9l0-1.3l3.6,0l0,1.3L23.2,10.9z M14,16.7l0-0.6l0-0.7l0-5.5l0-0.3l8.5,0.1l0,1.3l-7.2-0.1l0,4.5l5.8,0l0,1.3
	L14,16.7z M79.6,12.5l0-4l3.1,0l0,4L79.6,12.5z M9.7,4.5L9.1,73.6l26.2,0.2l0.3-33.4l16.5,15.5l16.6-15l0.2,32.9l17.7,0.2l0-3.2
	l-14-0.1l0-4l22.6,0.2l0-2.7l-7.7-0.1l0-4l2.7,0l0-2.6l5.1,0l0-3.6l-21.7-0.2l0-4l9.9,0.1l0-3.6l-3.5,0l0-4l9.6,0.1l0-3.5l5.6,0
	l0-3.3l-31-0.3l0.1-4l7.5,0.1l0-3.3L55.7,28l0-2.1l0-1.9l39.9,0.3l0-3.9l-21.1-0.2l0-3.7L88,16.7l0-3.2l7.7,0.1l0-4.8l-7.1-0.1
	l0-3.7L69.5,4.8L52.4,20.3L35.9,4.9L9.7,4.5z"/>
</svg>
