<svg xmlns="http://www.w3.org/2000/svg" width="210.197" height="497.501" viewBox="0 0 210.197 497.501">
  <path id="Path_2762" data-name="Path 2762" d="M-1046-1315.5S-929-1248-877-1185s40,80.5,40,80.5l-13.5-6.5s-11.5,4-11,6.5,18,44,7,42.5-70.5-53.5-70.5-53.5,43.5,73.5,51.5,124.5-17.5,6-17.5,6h-22.273s-12.084-37.1-32.727-37c8.56,18.578,7.461,61.421,7.461,61.421L-960.5-954.5V-925l-5-13s-2-1.5-8,15.5-18,23.5-18,23.5,2.5-57-7.5-55.5-2.5,60-2.5,60,1,33.5-4.5,49.5-9,27-9,27l-6.5-11-5,7s-7.5-7.5-9-7-8,11-8,11Z" transform="translate(1046.002 1315.503)" fill="#ffe60f"/>
</svg>
