<?xml version="1.0" encoding="utf-8"?>
<!-- Generator: Adobe Illustrator 21.1.0, SVG Export Plug-In . SVG Version: 6.00 Build 0)  -->
<svg version="1.1" id="Layer_1" xmlns="http://www.w3.org/2000/svg" xmlns:xlink="http://www.w3.org/1999/xlink" x="0px" y="0px"
	 viewBox="0 0 20 20" style="enable-background:new 0 0 20 20;" xml:space="preserve">
<style type="text/css">
	.st0{fill:#91C84F;}
</style>
<path class="st0" d="M15.5,19c-0.1,0-0.2,0-0.2-0.1L10,16.1l-5.3,2.9c-0.2,0.1-0.4,0.1-0.5,0S4,18.6,4,18.4l1-5.7L1.1,8.9
	C1,8.7,1,8.5,1,8.3C1.1,8.2,1.2,8,1.4,8l5.7-1l2.4-4.8C9.6,2.1,9.8,2,10,2s0.4,0.1,0.4,0.3L12.8,7l5.7,1c0.2,0,0.3,0.2,0.4,0.3
	s0,0.4-0.1,0.5L15,12.7l1,5.7c0,0.2,0,0.4-0.2,0.5C15.7,19,15.6,19,15.5,19z"/>
</svg>
