<?xml version="1.0" encoding="UTF-8" ?>
<!DOCTYPE svg PUBLIC "-//W3C//DTD SVG 1.1//EN" "http://www.w3.org/Graphics/SVG/1.1/DTD/svg11.dtd">
<svg width="512pt" height="512pt" viewBox="0 0 512 512" version="1.1" xmlns="http://www.w3.org/2000/svg">
<g id="#0083beff">
<path fill="#0083be" opacity="1.00" d=" M 56.39 0.00 L 455.61 0.00 C 471.92 2.84 487.81 10.62 498.01 23.99 C 505.85 33.18 509.59 44.89 512.00 56.49 L 512.00 455.61 C 508.85 475.05 497.68 493.53 480.26 503.27 C 472.85 508.38 463.95 509.67 455.51 512.00 L 56.39 512.00 C 40.08 509.16 24.19 501.38 13.99 488.01 C 6.15 478.82 2.41 467.11 0.00 455.51 L 0.00 56.49 C 2.41 44.89 6.15 33.18 13.99 23.99 C 24.19 10.62 40.08 2.84 56.39 0.00 M 99.33 54.41 C 91.19 55.33 82.77 57.11 75.97 61.96 C 64.28 68.71 57.37 81.80 55.97 94.99 C 55.11 107.81 59.28 121.28 68.68 130.32 C 87.27 147.53 119.17 147.89 138.27 131.27 C 157.79 114.81 156.70 80.81 136.98 65.01 C 126.48 56.70 112.61 52.89 99.33 54.41 M 343.34 173.52 C 332.02 174.86 320.91 178.32 311.05 184.08 C 298.05 191.00 288.83 202.77 280.12 214.22 C 279.81 202.49 280.14 190.76 279.97 179.04 C 251.31 178.97 222.66 178.98 194.00 179.03 C 193.31 185.41 195.57 191.62 195.03 198.00 C 194.98 253.00 194.99 308.00 195.02 363.01 C 193.01 387.17 194.28 411.52 194.13 435.77 C 194.41 436.04 194.96 436.59 195.23 436.87 C 223.47 437.15 251.72 436.96 279.96 436.96 C 280.09 386.97 279.89 336.98 280.05 286.99 C 280.30 266.32 295.48 246.40 315.68 241.53 C 329.71 238.53 346.91 240.72 356.82 252.18 C 366.01 262.86 369.54 277.18 369.99 290.99 C 370.12 339.25 369.80 387.51 370.13 435.77 C 370.41 436.04 370.96 436.59 371.23 436.87 C 399.47 437.16 427.71 436.96 455.95 436.97 C 456.08 386.31 455.94 335.65 456.01 284.99 C 455.17 255.30 448.77 223.58 427.77 201.23 C 407.13 177.60 373.61 169.60 343.34 173.52 M 61.06 179.03 C 60.94 265.01 61.00 350.99 61.03 436.96 C 89.67 437.03 118.30 437.02 146.94 436.97 C 147.06 350.99 147.00 265.01 146.97 179.04 C 118.33 178.97 89.70 178.98 61.06 179.03 Z" />
</g>
<g id="#feffffff">
<path fill="#feffff" opacity="1.00" d=" M 99.33 54.41 C 112.61 52.89 126.48 56.70 136.98 65.01 C 156.70 80.81 157.79 114.81 138.27 131.27 C 119.17 147.89 87.27 147.53 68.68 130.32 C 59.28 121.28 55.11 107.81 55.97 94.99 C 57.37 81.80 64.28 68.71 75.97 61.96 C 82.77 57.11 91.19 55.33 99.33 54.41 Z" />
<path fill="#feffff" opacity="1.00" d=" M 343.34 173.52 C 373.61 169.60 407.13 177.60 427.77 201.23 C 448.77 223.58 455.17 255.30 456.01 284.99 C 455.94 335.65 456.08 386.31 455.95 436.97 C 427.71 436.96 399.47 437.16 371.23 436.87 C 370.96 436.59 370.41 436.04 370.13 435.77 C 369.80 387.51 370.12 339.25 369.99 290.99 C 369.54 277.18 366.01 262.86 356.82 252.18 C 346.91 240.72 329.71 238.53 315.68 241.53 C 295.48 246.40 280.30 266.32 280.05 286.99 C 279.89 336.98 280.09 386.97 279.96 436.96 C 251.72 436.96 223.47 437.15 195.23 436.87 C 194.96 436.59 194.41 436.04 194.13 435.77 C 194.28 411.52 193.01 387.17 195.02 363.01 C 194.99 308.00 194.98 253.00 195.03 198.00 C 195.57 191.62 193.31 185.41 194.00 179.03 C 222.66 178.98 251.31 178.97 279.97 179.04 C 280.14 190.76 279.81 202.49 280.12 214.22 C 288.83 202.77 298.05 191.00 311.05 184.08 C 320.91 178.32 332.02 174.86 343.34 173.52 Z" />
<path fill="#feffff" opacity="1.00" d=" M 61.06 179.03 C 89.70 178.98 118.33 178.97 146.97 179.04 C 147.00 265.01 147.06 350.99 146.94 436.97 C 118.30 437.02 89.67 437.03 61.03 436.96 C 61.00 350.99 60.94 265.01 61.06 179.03 Z" />
</g>
</svg>
