<?xml version="1.0" encoding="utf-8"?>
<!DOCTYPE svg PUBLIC "-//W3C//DTD SVG 1.1//EN" "http://www.w3.org/Graphics/SVG/1.1/DTD/svg11.dtd">
<svg version="1.1" xmlns="http://www.w3.org/2000/svg" xmlns:xlink="http://www.w3.org/1999/xlink" x="0px" y="0px"
	 viewBox="0 0 56 56" enable-background="new 0 0 56 56" width="56px" height="56px" xml:space="preserve">
<g id="Instruction">
	<g>
		<line fill="none" stroke="#00A0DC" stroke-width="3" stroke-miterlimit="10" x1="13" y1="19.5" x2="18" y2="19.5"/>
		<line fill="none" stroke="#005E93" stroke-width="3" stroke-miterlimit="10" x1="36" y1="16.5" x2="45" y2="16.5"/>
		<line fill="none" stroke="#00A0DC" stroke-width="3" stroke-miterlimit="10" x1="13" y1="25.5" x2="18" y2="25.5"/>
		<line fill="none" stroke="#00A0DC" stroke-width="3" stroke-miterlimit="10" x1="13" y1="38.5" x2="18" y2="38.5"/>
		<line fill="none" stroke="#00A0DC" stroke-width="3" stroke-miterlimit="10" x1="13" y1="44.5" x2="18" y2="44.5"/>
		<line fill="none" stroke="#00A0DC" stroke-width="3" stroke-miterlimit="10" x1="13" y1="32.5" x2="18" y2="32.5"/>
		<circle fill="#00A0DC" cx="18" cy="12" r="2"/>
		<g>
			<path fill="#005E93" d="M23,7v42H13V7H23 M24,4H12c-1.105,0-2,0.895-2,2v44c0,1.105,0.895,2,2,2h12c1.105,0,2-0.895,2-2V6
				C26,4.895,25.105,4,24,4L24,4z"/>
		</g>
		<g>
			<path fill="#005E93" d="M41,10c1.084,0,2,1.17,2,2.556v26.536l-3,4.5l-3-4.5V12.556C37,11.17,37.916,10,39,10H41 M41,7h-2
				c-2.761,0-5,2.487-5,5.556V40l4.336,6.504c0.396,0.594,1.03,0.891,1.664,0.891s1.268-0.297,1.664-0.891L46,40V12.556
				C46,9.487,43.761,7,41,7L41,7z"/>
		</g>
		<g>
			<path fill="#9BDAF3" d="M39,10h2c1.105,0,2,0.895,2,2v3h-6v-3C37,10.895,37.895,10,39,10z"/>
		</g>
		<line fill="none" stroke="#005E93" stroke-width="3" stroke-miterlimit="10" x1="35" y1="37.5" x2="44" y2="37.5"/>
		<line fill="none" stroke="#005E93" stroke-width="3" stroke-miterlimit="10" x1="42" y1="43.5" x2="38" y2="43.5"/>
	</g>
</g>
</svg>
