<?xml version="1.0" encoding="UTF-8" ?>
<!DOCTYPE svg PUBLIC "-//W3C//DTD SVG 1.1//EN" "http://www.w3.org/Graphics/SVG/1.1/DTD/svg11.dtd">
<svg width="512pt" height="512pt" viewBox="0 0 512 512" version="1.1" xmlns="http://www.w3.org/2000/svg">
<g id="#00abf1ff">
<path fill="#00abf1" opacity="1.00" d=" M 56.39 0.00 L 455.61 0.00 C 471.92 2.84 487.81 10.62 498.01 23.99 C 505.85 33.18 509.59 44.89 512.00 56.49 L 512.00 455.61 C 508.85 475.05 497.68 493.53 480.26 503.27 C 472.84 508.38 463.96 509.68 455.51 512.00 L 56.39 512.00 C 40.08 509.16 24.19 501.37 13.99 488.01 C 6.15 478.82 2.41 467.11 0.00 455.51 L 0.00 56.49 C 2.41 44.89 6.15 33.18 13.99 23.99 C 24.19 10.62 40.08 2.84 56.39 0.00 M 331.33 93.59 C 313.10 93.92 295.06 100.37 280.98 111.98 C 257.19 131.16 245.58 164.19 252.97 194.00 C 188.35 191.34 125.10 159.78 84.79 109.14 C 84.41 109.15 83.66 109.16 83.29 109.16 C 66.53 138.46 70.01 178.10 92.72 203.27 C 97.60 208.42 103.01 213.23 108.10 217.99 C 95.45 217.49 83.25 213.66 71.99 208.02 C 72.13 215.73 73.20 223.49 75.06 230.98 C 82.89 259.86 107.69 282.85 136.83 289.17 L 136.96 289.88 C 125.11 292.57 112.92 292.52 100.88 291.08 C 108.40 313.72 125.97 333.02 148.29 341.71 C 157.03 345.68 166.71 346.79 176.05 348.16 C 169.99 354.55 161.46 358.44 154.01 363.02 C 134.52 373.38 113.04 380.27 91.01 382.14 C 79.60 384.06 68.17 382.10 56.75 382.11 C 85.25 400.37 117.79 412.04 151.28 416.68 C 178.02 420.13 205.17 418.63 231.66 413.52 C 270.87 405.93 307.97 387.51 337.34 360.39 C 344.65 355.39 349.37 347.74 355.74 341.75 C 395.45 295.97 417.86 234.97 415.14 174.24 C 430.95 163.27 444.47 148.92 455.04 132.94 C 451.33 133.18 448.13 135.41 444.67 136.58 C 433.42 140.61 421.66 143.10 409.87 144.94 C 415.86 139.29 423.82 135.51 428.40 128.37 C 436.11 120.38 440.94 110.12 444.93 99.88 C 440.60 101.08 437.21 104.42 433.01 106.01 C 419.99 111.65 406.58 117.56 392.30 118.79 C 376.57 102.62 354.01 92.78 331.33 93.59 Z" />
</g>
<g id="#feffffff">
<path fill="#feffff" opacity="1.00" d=" M 331.33 93.59 C 354.01 92.78 376.57 102.62 392.30 118.79 C 406.58 117.56 419.99 111.65 433.01 106.01 C 437.21 104.42 440.60 101.08 444.93 99.88 C 440.94 110.12 436.11 120.38 428.40 128.37 C 423.82 135.51 415.86 139.29 409.87 144.94 C 421.66 143.10 433.42 140.61 444.67 136.58 C 448.13 135.41 451.33 133.18 455.04 132.94 C 444.47 148.92 430.95 163.27 415.14 174.24 C 417.86 234.97 395.45 295.97 355.74 341.75 C 349.37 347.74 344.65 355.39 337.34 360.39 C 307.97 387.51 270.87 405.93 231.66 413.52 C 205.17 418.63 178.02 420.13 151.28 416.68 C 117.79 412.04 85.25 400.37 56.75 382.11 C 68.17 382.10 79.60 384.06 91.01 382.14 C 113.04 380.27 134.52 373.38 154.01 363.02 C 161.46 358.44 169.99 354.55 176.05 348.16 C 166.71 346.79 157.03 345.68 148.29 341.71 C 125.97 333.02 108.40 313.72 100.88 291.08 C 112.92 292.52 125.11 292.57 136.96 289.88 L 136.83 289.17 C 107.69 282.85 82.89 259.86 75.06 230.98 C 73.20 223.49 72.13 215.73 71.99 208.02 C 83.25 213.66 95.45 217.49 108.10 217.99 C 103.01 213.23 97.60 208.42 92.72 203.27 C 70.01 178.10 66.53 138.46 83.29 109.16 C 83.66 109.16 84.41 109.15 84.79 109.14 C 125.10 159.78 188.35 191.34 252.97 194.00 C 245.58 164.19 257.19 131.16 280.98 111.98 C 295.06 100.37 313.10 93.92 331.33 93.59 Z" />
</g>
</svg>
